<svg width="194" height="62" viewBox="0 0 194 62" fill="none" xmlns="http://www.w3.org/2000/svg">
<g>
<path d="M4.49 31V10H8.51L17.45 24.82H15.32L24.11 10H28.1L28.16 31H23.6L23.57 16.99H24.41L17.39 28.78H15.2L8.03 16.99H9.05V31H4.49ZM40.8223 31.24C38.9823 31.24 37.3623 30.88 35.9623 30.16C34.5823 29.44 33.5123 28.46 32.7523 27.22C31.9923 25.96 31.6123 24.53 31.6123 22.93C31.6123 21.31 31.9823 19.88 32.7223 18.64C33.4823 17.38 34.5123 16.4 35.8123 15.7C37.1123 14.98 38.5823 14.62 40.2223 14.62C41.8023 14.62 43.2223 14.96 44.4823 15.64C45.7623 16.3 46.7723 17.26 47.5123 18.52C48.2523 19.76 48.6223 21.25 48.6223 22.99C48.6223 23.17 48.6123 23.38 48.5923 23.62C48.5723 23.84 48.5523 24.05 48.5323 24.25H35.4223V21.52H46.0723L44.2723 22.33C44.2723 21.49 44.1023 20.76 43.7623 20.14C43.4223 19.52 42.9523 19.04 42.3523 18.7C41.7523 18.34 41.0523 18.16 40.2523 18.16C39.4523 18.16 38.7423 18.34 38.1223 18.7C37.5223 19.04 37.0523 19.53 36.7123 20.17C36.3723 20.79 36.2023 21.53 36.2023 22.39V23.11C36.2023 23.99 36.3923 24.77 36.7723 25.45C37.1723 26.11 37.7223 26.62 38.4223 26.98C39.1423 27.32 39.9823 27.49 40.9423 27.49C41.8023 27.49 42.5523 27.36 43.1923 27.1C43.8523 26.84 44.4523 26.45 44.9923 25.93L47.4823 28.63C46.7423 29.47 45.8123 30.12 44.6923 30.58C43.5723 31.02 42.2823 31.24 40.8223 31.24ZM61.1987 31V27.85L60.8987 27.16V21.52C60.8987 20.52 60.5887 19.74 59.9687 19.18C59.3687 18.62 58.4387 18.34 57.1787 18.34C56.3187 18.34 55.4687 18.48 54.6287 18.76C53.8087 19.02 53.1087 19.38 52.5287 19.84L50.8487 16.57C51.7287 15.95 52.7887 15.47 54.0287 15.13C55.2687 14.79 56.5287 14.62 57.8087 14.62C60.2687 14.62 62.1787 15.2 63.5387 16.36C64.8987 17.52 65.5787 19.33 65.5787 21.79V31H61.1987ZM56.2787 31.24C55.0187 31.24 53.9387 31.03 53.0387 30.61C52.1387 30.17 51.4487 29.58 50.9687 28.84C50.4887 28.1 50.2487 27.27 50.2487 26.35C50.2487 25.39 50.4787 24.55 50.9387 23.83C51.4187 23.11 52.1687 22.55 53.1887 22.15C54.2087 21.73 55.5387 21.52 57.1787 21.52H61.4687V24.25H57.6887C56.5887 24.25 55.8287 24.43 55.4087 24.79C55.0087 25.15 54.8087 25.6 54.8087 26.14C54.8087 26.74 55.0387 27.22 55.4987 27.58C55.9787 27.92 56.6287 28.09 57.4487 28.09C58.2287 28.09 58.9287 27.91 59.5487 27.55C60.1687 27.17 60.6187 26.62 60.8987 25.9L61.6187 28.06C61.2787 29.1 60.6587 29.89 59.7587 30.43C58.8587 30.97 57.6987 31.24 56.2787 31.24ZM79.6243 14.62C80.9043 14.62 82.0443 14.88 83.0443 15.4C84.0643 15.9 84.8643 16.68 85.4443 17.74C86.0243 18.78 86.3143 20.12 86.3143 21.76V31H81.6343V22.48C81.6343 21.18 81.3443 20.22 80.7643 19.6C80.2043 18.98 79.4043 18.67 78.3643 18.67C77.6243 18.67 76.9543 18.83 76.3543 19.15C75.7743 19.45 75.3143 19.92 74.9743 20.56C74.6543 21.2 74.4943 22.02 74.4943 23.02V31H69.8143V14.86H74.2843V19.33L73.4443 17.98C74.0243 16.9 74.8543 16.07 75.9343 15.49C77.0143 14.91 78.2443 14.62 79.6243 14.62ZM97.6037 31.24C96.0837 31.24 94.7137 30.9 93.4937 30.22C92.2737 29.52 91.3037 28.55 90.5837 27.31C89.8837 26.07 89.5337 24.61 89.5337 22.93C89.5337 21.23 89.8837 19.76 90.5837 18.52C91.3037 17.28 92.2737 16.32 93.4937 15.64C94.7137 14.96 96.0837 14.62 97.6037 14.62C98.9637 14.62 100.154 14.92 101.174 15.52C102.194 16.12 102.984 17.03 103.544 18.25C104.104 19.47 104.384 21.03 104.384 22.93C104.384 24.81 104.114 26.37 103.574 27.61C103.034 28.83 102.254 29.74 101.234 30.34C100.234 30.94 99.0237 31.24 97.6037 31.24ZM98.4137 27.4C99.1737 27.4 99.8637 27.22 100.484 26.86C101.104 26.5 101.594 25.99 101.954 25.33C102.334 24.65 102.524 23.85 102.524 22.93C102.524 21.99 102.334 21.19 101.954 20.53C101.594 19.87 101.104 19.36 100.484 19C99.8637 18.64 99.1737 18.46 98.4137 18.46C97.6337 18.46 96.9337 18.64 96.3137 19C95.6937 19.36 95.1937 19.87 94.8137 20.53C94.4537 21.19 94.2737 21.99 94.2737 22.93C94.2737 23.85 94.4537 24.65 94.8137 25.33C95.1937 25.99 95.6937 26.5 96.3137 26.86C96.9337 27.22 97.6337 27.4 98.4137 27.4ZM102.644 31V27.7L102.734 22.9L102.434 18.13V8.74H107.114V31H102.644ZM119.455 31.24C117.615 31.24 115.995 30.88 114.595 30.16C113.215 29.44 112.145 28.46 111.385 27.22C110.625 25.96 110.245 24.53 110.245 22.93C110.245 21.31 110.615 19.88 111.355 18.64C112.115 17.38 113.145 16.4 114.445 15.7C115.745 14.98 117.215 14.62 118.855 14.62C120.435 14.62 121.855 14.96 123.115 15.64C124.395 16.3 125.405 17.26 126.145 18.52C126.885 19.76 127.255 21.25 127.255 22.99C127.255 23.17 127.245 23.38 127.225 23.62C127.205 23.84 127.185 24.05 127.165 24.25H114.055V21.52H124.705L122.905 22.33C122.905 21.49 122.735 20.76 122.395 20.14C122.055 19.52 121.585 19.04 120.985 18.7C120.385 18.34 119.685 18.16 118.885 18.16C118.085 18.16 117.375 18.34 116.755 18.7C116.155 19.04 115.685 19.53 115.345 20.17C115.005 20.79 114.835 21.53 114.835 22.39V23.11C114.835 23.99 115.025 24.77 115.405 25.45C115.805 26.11 116.355 26.62 117.055 26.98C117.775 27.32 118.615 27.49 119.575 27.49C120.435 27.49 121.185 27.36 121.825 27.1C122.485 26.84 123.085 26.45 123.625 25.93L126.115 28.63C125.375 29.47 124.445 30.12 123.325 30.58C122.205 31.02 120.915 31.24 119.455 31.24ZM130.371 31V14.86H134.841V19.42L134.211 18.1C134.691 16.96 135.461 16.1 136.521 15.52C137.581 14.92 138.871 14.62 140.391 14.62V18.94C140.191 18.92 140.011 18.91 139.851 18.91C139.691 18.89 139.521 18.88 139.341 18.88C138.061 18.88 137.021 19.25 136.221 19.99C135.441 20.71 135.051 21.84 135.051 23.38V31H130.371ZM143.203 31V14.86H147.883V31H143.203ZM145.543 12.61C144.683 12.61 143.983 12.36 143.443 11.86C142.903 11.36 142.633 10.74 142.633 10C142.633 9.26 142.903 8.64 143.443 8.14C143.983 7.64 144.683 7.39 145.543 7.39C146.403 7.39 147.103 7.63 147.643 8.11C148.183 8.57 148.453 9.17 148.453 9.91C148.453 10.69 148.183 11.34 147.643 11.86C147.123 12.36 146.423 12.61 145.543 12.61ZM162.036 14.62C163.316 14.62 164.456 14.88 165.456 15.4C166.476 15.9 167.276 16.68 167.856 17.74C168.436 18.78 168.726 20.12 168.726 21.76V31H164.046V22.48C164.046 21.18 163.756 20.22 163.176 19.6C162.616 18.98 161.816 18.67 160.776 18.67C160.036 18.67 159.366 18.83 158.766 19.15C158.186 19.45 157.726 19.92 157.386 20.56C157.066 21.2 156.906 22.02 156.906 23.02V31H152.226V14.86H156.696V19.33L155.856 17.98C156.436 16.9 157.266 16.07 158.346 15.49C159.426 14.91 160.656 14.62 162.036 14.62ZM180.676 37.06C179.156 37.06 177.686 36.87 176.266 36.49C174.866 36.13 173.696 35.58 172.756 34.84L174.616 31.48C175.296 32.04 176.156 32.48 177.196 32.8C178.256 33.14 179.296 33.31 180.316 33.31C181.976 33.31 183.176 32.94 183.916 32.2C184.676 31.46 185.056 30.36 185.056 28.9V26.47L185.356 22.42L185.296 18.34V14.86H189.736V28.3C189.736 31.3 188.956 33.51 187.396 34.93C185.836 36.35 183.596 37.06 180.676 37.06ZM179.956 30.22C178.456 30.22 177.096 29.9 175.876 29.26C174.676 28.6 173.706 27.69 172.966 26.53C172.246 25.35 171.886 23.98 171.886 22.42C171.886 20.84 172.246 19.47 172.966 18.31C173.706 17.13 174.676 16.22 175.876 15.58C177.096 14.94 178.456 14.62 179.956 14.62C181.316 14.62 182.516 14.9 183.556 15.46C184.596 16 185.406 16.85 185.986 18.01C186.566 19.15 186.856 20.62 186.856 22.42C186.856 24.2 186.566 25.67 185.986 26.83C185.406 27.97 184.596 28.82 183.556 29.38C182.516 29.94 181.316 30.22 179.956 30.22ZM180.886 26.38C181.706 26.38 182.436 26.22 183.076 25.9C183.716 25.56 184.216 25.09 184.576 24.49C184.936 23.89 185.116 23.2 185.116 22.42C185.116 21.62 184.936 20.93 184.576 20.35C184.216 19.75 183.716 19.29 183.076 18.97C182.436 18.63 181.706 18.46 180.886 18.46C180.066 18.46 179.336 18.63 178.696 18.97C178.056 19.29 177.546 19.75 177.166 20.35C176.806 20.93 176.626 21.62 176.626 22.42C176.626 23.2 176.806 23.89 177.166 24.49C177.546 25.09 178.056 25.56 178.696 25.9C179.336 26.22 180.066 26.38 180.886 26.38Z" fill="white"/>
</g>
<path d="M25.865 55L30.545 44.5H32.945L37.64 55H35.09L31.25 45.73H32.21L28.355 55H25.865ZM28.205 52.75L28.85 50.905H34.25L34.91 52.75H28.205ZM38.7294 55V44.5H41.1594V55H38.7294ZM47.7343 55V46.93H49.9693V49.21L49.6543 48.55C49.8943 47.98 50.2793 47.55 50.8093 47.26C51.3393 46.96 51.9843 46.81 52.7443 46.81V48.97C52.6443 48.96 52.5543 48.955 52.4743 48.955C52.3943 48.945 52.3093 48.94 52.2193 48.94C51.5793 48.94 51.0593 49.125 50.6593 49.495C50.2693 49.855 50.0743 50.42 50.0743 51.19V55H47.7343ZM58.0821 55.12C57.1621 55.12 56.3521 54.94 55.6521 54.58C54.9621 54.22 54.4271 53.73 54.0471 53.11C53.6671 52.48 53.4771 51.765 53.4771 50.965C53.4771 50.155 53.6621 49.44 54.0321 48.82C54.4121 48.19 54.9271 47.7 55.5771 47.35C56.2271 46.99 56.9621 46.81 57.7821 46.81C58.5721 46.81 59.2821 46.98 59.9121 47.32C60.5521 47.65 61.0571 48.13 61.4271 48.76C61.7971 49.38 61.9821 50.125 61.9821 50.995C61.9821 51.085 61.9771 51.19 61.9671 51.31C61.9571 51.42 61.9471 51.525 61.9371 51.625H55.3821V50.26H60.7071L59.8071 50.665C59.8071 50.245 59.7221 49.88 59.5521 49.57C59.3821 49.26 59.1471 49.02 58.8471 48.85C58.5471 48.67 58.1971 48.58 57.7971 48.58C57.3971 48.58 57.0421 48.67 56.7321 48.85C56.4321 49.02 56.1971 49.265 56.0271 49.585C55.8571 49.895 55.7721 50.265 55.7721 50.695V51.055C55.7721 51.495 55.8671 51.885 56.0571 52.225C56.2571 52.555 56.5321 52.81 56.8821 52.99C57.2421 53.16 57.6621 53.245 58.1421 53.245C58.5721 53.245 58.9471 53.18 59.2671 53.05C59.5971 52.92 59.8971 52.725 60.1671 52.465L61.4121 53.815C61.0421 54.235 60.5771 54.56 60.0171 54.79C59.4571 55.01 58.8121 55.12 58.0821 55.12ZM63.825 55V46.75C63.825 45.84 64.095 45.115 64.635 44.575C65.175 44.025 65.945 43.75 66.945 43.75C67.285 43.75 67.61 43.785 67.92 43.855C68.24 43.925 68.51 44.035 68.73 44.185L68.115 45.88C67.985 45.79 67.84 45.72 67.68 45.67C67.52 45.62 67.35 45.595 67.17 45.595C66.83 45.595 66.565 45.695 66.375 45.895C66.195 46.085 66.105 46.375 66.105 46.765V47.515L66.165 48.52V55H63.825ZM62.58 48.91V47.11H68.175V48.91H62.58ZM69.3993 55V46.93H71.6343V49.21L71.3193 48.55C71.5593 47.98 71.9443 47.55 72.4743 47.26C73.0043 46.96 73.6493 46.81 74.4093 46.81V48.97C74.3093 48.96 74.2193 48.955 74.1393 48.955C74.0593 48.945 73.9743 48.94 73.8843 48.94C73.2443 48.94 72.7243 49.125 72.3243 49.495C71.9343 49.855 71.7393 50.42 71.7393 51.19V55H69.3993ZM79.7471 55.12C78.8271 55.12 78.0171 54.94 77.3171 54.58C76.6271 54.22 76.0921 53.73 75.7121 53.11C75.3321 52.48 75.1421 51.765 75.1421 50.965C75.1421 50.155 75.3271 49.44 75.6971 48.82C76.0771 48.19 76.5921 47.7 77.2421 47.35C77.8921 46.99 78.6271 46.81 79.4471 46.81C80.2371 46.81 80.9471 46.98 81.5771 47.32C82.2171 47.65 82.7221 48.13 83.0921 48.76C83.4621 49.38 83.6471 50.125 83.6471 50.995C83.6471 51.085 83.6421 51.19 83.6321 51.31C83.6221 51.42 83.6121 51.525 83.6021 51.625H77.0471V50.26H82.3721L81.4721 50.665C81.4721 50.245 81.3871 49.88 81.2171 49.57C81.0471 49.26 80.8121 49.02 80.5121 48.85C80.2121 48.67 79.8621 48.58 79.4621 48.58C79.0621 48.58 78.7071 48.67 78.3971 48.85C78.0971 49.02 77.8621 49.265 77.6921 49.585C77.5221 49.895 77.4371 50.265 77.4371 50.695V51.055C77.4371 51.495 77.5321 51.885 77.7221 52.225C77.9221 52.555 78.1971 52.81 78.5471 52.99C78.9071 53.16 79.3271 53.245 79.8071 53.245C80.2371 53.245 80.6121 53.18 80.9321 53.05C81.2621 52.92 81.5621 52.725 81.8321 52.465L83.0771 53.815C82.7071 54.235 82.2421 54.56 81.6821 54.79C81.1221 55.01 80.4771 55.12 79.7471 55.12ZM87.92 55.12C87.23 55.12 86.565 55.04 85.925 54.88C85.295 54.71 84.795 54.5 84.425 54.25L85.205 52.57C85.575 52.8 86.01 52.99 86.51 53.14C87.02 53.28 87.52 53.35 88.01 53.35C88.55 53.35 88.93 53.285 89.15 53.155C89.38 53.025 89.495 52.845 89.495 52.615C89.495 52.425 89.405 52.285 89.225 52.195C89.055 52.095 88.825 52.02 88.535 51.97C88.245 51.92 87.925 51.87 87.575 51.82C87.235 51.77 86.89 51.705 86.54 51.625C86.19 51.535 85.87 51.405 85.58 51.235C85.29 51.065 85.055 50.835 84.875 50.545C84.705 50.255 84.62 49.88 84.62 49.42C84.62 48.91 84.765 48.46 85.055 48.07C85.355 47.68 85.785 47.375 86.345 47.155C86.905 46.925 87.575 46.81 88.355 46.81C88.905 46.81 89.465 46.87 90.035 46.99C90.605 47.11 91.08 47.285 91.46 47.515L90.68 49.18C90.29 48.95 89.895 48.795 89.495 48.715C89.105 48.625 88.725 48.58 88.355 48.58C87.835 48.58 87.455 48.65 87.215 48.79C86.975 48.93 86.855 49.11 86.855 49.33C86.855 49.53 86.94 49.68 87.11 49.78C87.29 49.88 87.525 49.96 87.815 50.02C88.105 50.08 88.42 50.135 88.76 50.185C89.11 50.225 89.46 50.29 89.81 50.38C90.16 50.47 90.475 50.6 90.755 50.77C91.045 50.93 91.28 51.155 91.46 51.445C91.64 51.725 91.73 52.095 91.73 52.555C91.73 53.055 91.58 53.5 91.28 53.89C90.98 54.27 90.545 54.57 89.975 54.79C89.415 55.01 88.73 55.12 87.92 55.12ZM98.0788 46.81C98.7188 46.81 99.2888 46.94 99.7888 47.2C100.299 47.45 100.699 47.84 100.989 48.37C101.279 48.89 101.424 49.56 101.424 50.38V55H99.0838V50.74C99.0838 50.09 98.9388 49.61 98.6488 49.3C98.3688 48.99 97.9688 48.835 97.4488 48.835C97.0788 48.835 96.7438 48.915 96.4438 49.075C96.1538 49.225 95.9238 49.46 95.7538 49.78C95.5938 50.1 95.5138 50.51 95.5138 51.01V55H93.1738V43.87H95.5138V49.165L94.9888 48.49C95.2788 47.95 95.6938 47.535 96.2338 47.245C96.7738 46.955 97.3888 46.81 98.0788 46.81ZM107.608 55.12C106.688 55.12 105.878 54.94 105.178 54.58C104.488 54.22 103.953 53.73 103.573 53.11C103.193 52.48 103.003 51.765 103.003 50.965C103.003 50.155 103.188 49.44 103.558 48.82C103.938 48.19 104.453 47.7 105.103 47.35C105.753 46.99 106.488 46.81 107.308 46.81C108.098 46.81 108.808 46.98 109.438 47.32C110.078 47.65 110.583 48.13 110.953 48.76C111.323 49.38 111.508 50.125 111.508 50.995C111.508 51.085 111.503 51.19 111.493 51.31C111.483 51.42 111.473 51.525 111.463 51.625H104.908V50.26H110.233L109.333 50.665C109.333 50.245 109.248 49.88 109.078 49.57C108.908 49.26 108.673 49.02 108.373 48.85C108.073 48.67 107.723 48.58 107.323 48.58C106.923 48.58 106.568 48.67 106.258 48.85C105.958 49.02 105.723 49.265 105.553 49.585C105.383 49.895 105.298 50.265 105.298 50.695V51.055C105.298 51.495 105.393 51.885 105.583 52.225C105.783 52.555 106.058 52.81 106.408 52.99C106.768 53.16 107.188 53.245 107.668 53.245C108.098 53.245 108.473 53.18 108.793 53.05C109.123 52.92 109.423 52.725 109.693 52.465L110.938 53.815C110.568 54.235 110.103 54.56 109.543 54.79C108.983 55.01 108.338 55.12 107.608 55.12ZM116.531 55.12C115.771 55.12 115.086 54.95 114.476 54.61C113.866 54.26 113.381 53.775 113.021 53.155C112.671 52.535 112.496 51.805 112.496 50.965C112.496 50.115 112.671 49.38 113.021 48.76C113.381 48.14 113.866 47.66 114.476 47.32C115.086 46.98 115.771 46.81 116.531 46.81C117.211 46.81 117.806 46.96 118.316 47.26C118.826 47.56 119.221 48.015 119.501 48.625C119.781 49.235 119.921 50.015 119.921 50.965C119.921 51.905 119.786 52.685 119.516 53.305C119.246 53.915 118.856 54.37 118.346 54.67C117.846 54.97 117.241 55.12 116.531 55.12ZM116.936 53.2C117.316 53.2 117.661 53.11 117.971 52.93C118.281 52.75 118.526 52.495 118.706 52.165C118.896 51.825 118.991 51.425 118.991 50.965C118.991 50.495 118.896 50.095 118.706 49.765C118.526 49.435 118.281 49.18 117.971 49C117.661 48.82 117.316 48.73 116.936 48.73C116.546 48.73 116.196 48.82 115.886 49C115.576 49.18 115.326 49.435 115.136 49.765C114.956 50.095 114.866 50.495 114.866 50.965C114.866 51.425 114.956 51.825 115.136 52.165C115.326 52.495 115.576 52.75 115.886 52.93C116.196 53.11 116.546 53.2 116.936 53.2ZM119.051 55V53.35L119.096 50.95L118.946 48.565V43.87H121.286V55H119.051ZM131.165 55.12C130.405 55.12 129.72 54.95 129.11 54.61C128.5 54.26 128.015 53.775 127.655 53.155C127.305 52.535 127.13 51.805 127.13 50.965C127.13 50.115 127.305 49.38 127.655 48.76C128.015 48.14 128.5 47.66 129.11 47.32C129.72 46.98 130.405 46.81 131.165 46.81C131.845 46.81 132.44 46.96 132.95 47.26C133.46 47.56 133.855 48.015 134.135 48.625C134.415 49.235 134.555 50.015 134.555 50.965C134.555 51.905 134.42 52.685 134.15 53.305C133.88 53.915 133.49 54.37 132.98 54.67C132.48 54.97 131.875 55.12 131.165 55.12ZM131.57 53.2C131.95 53.2 132.295 53.11 132.605 52.93C132.915 52.75 133.16 52.495 133.34 52.165C133.53 51.825 133.625 51.425 133.625 50.965C133.625 50.495 133.53 50.095 133.34 49.765C133.16 49.435 132.915 49.18 132.605 49C132.295 48.82 131.95 48.73 131.57 48.73C131.18 48.73 130.83 48.82 130.52 49C130.21 49.18 129.96 49.435 129.77 49.765C129.59 50.095 129.5 50.495 129.5 50.965C129.5 51.425 129.59 51.825 129.77 52.165C129.96 52.495 130.21 52.75 130.52 52.93C130.83 53.11 131.18 53.2 131.57 53.2ZM133.685 55V53.35L133.73 50.95L133.58 48.565V43.87H135.92V55H133.685ZM143.036 55V53.425L142.886 53.08V50.26C142.886 49.76 142.731 49.37 142.421 49.09C142.121 48.81 141.656 48.67 141.026 48.67C140.596 48.67 140.171 48.74 139.751 48.88C139.341 49.01 138.991 49.19 138.701 49.42L137.861 47.785C138.301 47.475 138.831 47.235 139.451 47.065C140.071 46.895 140.701 46.81 141.341 46.81C142.571 46.81 143.526 47.1 144.206 47.68C144.886 48.26 145.226 49.165 145.226 50.395V55H143.036ZM140.576 55.12C139.946 55.12 139.406 55.015 138.956 54.805C138.506 54.585 138.161 54.29 137.921 53.92C137.681 53.55 137.561 53.135 137.561 52.675C137.561 52.195 137.676 51.775 137.906 51.415C138.146 51.055 138.521 50.775 139.031 50.575C139.541 50.365 140.206 50.26 141.026 50.26H143.171V51.625H141.281C140.731 51.625 140.351 51.715 140.141 51.895C139.941 52.075 139.841 52.3 139.841 52.57C139.841 52.87 139.956 53.11 140.186 53.29C140.426 53.46 140.751 53.545 141.161 53.545C141.551 53.545 141.901 53.455 142.211 53.275C142.521 53.085 142.746 52.81 142.886 52.45L143.246 53.53C143.076 54.05 142.766 54.445 142.316 54.715C141.866 54.985 141.286 55.12 140.576 55.12ZM147.344 55V46.93H149.684V55H147.344ZM148.514 45.805C148.084 45.805 147.734 45.68 147.464 45.43C147.194 45.18 147.059 44.87 147.059 44.5C147.059 44.13 147.194 43.82 147.464 43.57C147.734 43.32 148.084 43.195 148.514 43.195C148.944 43.195 149.294 43.315 149.564 43.555C149.834 43.785 149.969 44.085 149.969 44.455C149.969 44.845 149.834 45.17 149.564 45.43C149.304 45.68 148.954 45.805 148.514 45.805ZM151.855 55V43.87H154.195V55H151.855ZM157.387 58.03C156.967 58.03 156.552 57.965 156.142 57.835C155.732 57.705 155.397 57.525 155.137 57.295L155.992 55.63C156.172 55.79 156.377 55.915 156.607 56.005C156.847 56.095 157.082 56.14 157.312 56.14C157.642 56.14 157.902 56.06 158.092 55.9C158.292 55.75 158.472 55.495 158.632 55.135L159.052 54.145L159.232 53.89L162.127 46.93H164.377L160.732 55.495C160.472 56.145 160.172 56.655 159.832 57.025C159.502 57.395 159.132 57.655 158.722 57.805C158.322 57.955 157.877 58.03 157.387 58.03ZM158.767 55.315L155.167 46.93H157.582L160.372 53.68L158.767 55.315ZM165.734 55.12C165.334 55.12 164.989 54.985 164.699 54.715C164.419 54.435 164.279 54.08 164.279 53.65C164.279 53.22 164.419 52.875 164.699 52.615C164.989 52.345 165.334 52.21 165.734 52.21C166.144 52.21 166.489 52.345 166.769 52.615C167.049 52.875 167.189 53.22 167.189 53.65C167.189 54.08 167.049 54.435 166.769 54.715C166.489 54.985 166.144 55.12 165.734 55.12Z" fill="#FCE200"/>
<defs>
</defs>
</svg>
