<svg width="277" height="112" viewBox="0 0 277 112" fill="none" xmlns="http://www.w3.org/2000/svg">
<path d="M4.59888 20.1978V91.4522C4.59888 100.013 11.5385 106.952 20.0989 106.952H256.56C265.121 106.952 272.06 100.013 272.06 91.4523V20.1978C272.06 11.6374 265.121 4.69781 256.56 4.69781H20.0989C11.5385 4.69781 4.59888 11.6374 4.59888 20.1978Z" fill="url(#paint0_linear_77_36)" stroke="#4C4F6C" stroke-width="9" stroke-linejoin="round"/>
<path d="M24.5418 54.3402V37.5402H31.4538C32.9418 37.5402 34.2138 37.7802 35.2698 38.2602C36.3418 38.7402 37.1658 39.4282 37.7418 40.3242C38.3178 41.2202 38.6058 42.2842 38.6058 43.5162C38.6058 44.7482 38.3178 45.8122 37.7418 46.7082C37.1658 47.6042 36.3418 48.2922 35.2698 48.7722C34.2138 49.2522 32.9418 49.4922 31.4538 49.4922H26.2698L27.6618 48.0282V54.3402H24.5418ZM27.6618 48.3642L26.2698 46.8522H31.3098C32.6858 46.8522 33.7178 46.5642 34.4058 45.9882C35.1098 45.3962 35.4618 44.5722 35.4618 43.5162C35.4618 42.4442 35.1098 41.6202 34.4058 41.0442C33.7178 40.4682 32.6858 40.1802 31.3098 40.1802H26.2698L27.6618 38.6442V48.3642ZM47.1466 54.5082C45.8346 54.5082 44.6666 54.2282 43.6426 53.6682C42.6186 53.0922 41.8106 52.3082 41.2186 51.3162C40.6266 50.3242 40.3306 49.1962 40.3306 47.9322C40.3306 46.6522 40.6266 45.5242 41.2186 44.5482C41.8106 43.5562 42.6186 42.7802 43.6426 42.2202C44.6666 41.6602 45.8346 41.3802 47.1466 41.3802C48.4746 41.3802 49.6506 41.6602 50.6746 42.2202C51.7146 42.7802 52.5226 43.5482 53.0986 44.5242C53.6906 45.5002 53.9866 46.6362 53.9866 47.9322C53.9866 49.1962 53.6906 50.3242 53.0986 51.3162C52.5226 52.3082 51.7146 53.0922 50.6746 53.6682C49.6506 54.2282 48.4746 54.5082 47.1466 54.5082ZM47.1466 51.9402C47.8826 51.9402 48.5386 51.7802 49.1146 51.4602C49.6906 51.1402 50.1386 50.6762 50.4586 50.0682C50.7946 49.4602 50.9626 48.7482 50.9626 47.9322C50.9626 47.1002 50.7946 46.3882 50.4586 45.7962C50.1386 45.1882 49.6906 44.7242 49.1146 44.4042C48.5386 44.0842 47.8906 43.9242 47.1706 43.9242C46.4346 43.9242 45.7786 44.0842 45.2026 44.4042C44.6426 44.7242 44.1946 45.1882 43.8586 45.7962C43.5226 46.3882 43.3546 47.1002 43.3546 47.9322C43.3546 48.7482 43.5226 49.4602 43.8586 50.0682C44.1946 50.6762 44.6426 51.1402 45.2026 51.4602C45.7786 51.7802 46.4266 51.9402 47.1466 51.9402ZM56.8553 54.3402V41.5242H59.7113V45.0522L59.3753 44.0202C59.7593 43.1562 60.3593 42.5002 61.1753 42.0522C62.0073 41.6042 63.0393 41.3802 64.2713 41.3802V44.2362C64.1433 44.2042 64.0233 44.1882 63.9113 44.1882C63.7993 44.1722 63.6873 44.1642 63.5753 44.1642C62.4393 44.1642 61.5353 44.5002 60.8633 45.1722C60.1913 45.8282 59.8553 46.8122 59.8553 48.1242V54.3402H56.8553ZM72.109 54.5082C70.701 54.5082 69.613 54.1482 68.845 53.4282C68.077 52.6922 67.693 51.6122 67.693 50.1882V38.6922H70.693V50.1162C70.693 50.7242 70.845 51.1962 71.149 51.5322C71.469 51.8682 71.909 52.0362 72.469 52.0362C73.141 52.0362 73.701 51.8602 74.149 51.5082L74.989 53.6442C74.637 53.9322 74.205 54.1482 73.693 54.2922C73.181 54.4362 72.653 54.5082 72.109 54.5082ZM65.581 44.0202V41.6202H74.125V44.0202H65.581ZM87.2337 45.2682H95.6097V47.9082H87.2337V45.2682ZM87.4977 54.3402H84.3777V37.5402H96.6417V40.1562H87.4977V54.3402ZM104.779 54.5082C103.467 54.5082 102.299 54.2282 101.275 53.6682C100.251 53.0922 99.4434 52.3082 98.8514 51.3162C98.2594 50.3242 97.9634 49.1962 97.9634 47.9322C97.9634 46.6522 98.2594 45.5242 98.8514 44.5482C99.4434 43.5562 100.251 42.7802 101.275 42.2202C102.299 41.6602 103.467 41.3802 104.779 41.3802C106.107 41.3802 107.283 41.6602 108.307 42.2202C109.347 42.7802 110.155 43.5482 110.731 44.5242C111.323 45.5002 111.619 46.6362 111.619 47.9322C111.619 49.1962 111.323 50.3242 110.731 51.3162C110.155 52.3082 109.347 53.0922 108.307 53.6682C107.283 54.2282 106.107 54.5082 104.779 54.5082ZM104.779 51.9402C105.515 51.9402 106.171 51.7802 106.747 51.4602C107.323 51.1402 107.771 50.6762 108.091 50.0682C108.427 49.4602 108.595 48.7482 108.595 47.9322C108.595 47.1002 108.427 46.3882 108.091 45.7962C107.771 45.1882 107.323 44.7242 106.747 44.4042C106.171 44.0842 105.523 43.9242 104.803 43.9242C104.067 43.9242 103.411 44.0842 102.835 44.4042C102.275 44.7242 101.827 45.1882 101.491 45.7962C101.155 46.3882 100.987 47.1002 100.987 47.9322C100.987 48.7482 101.155 49.4602 101.491 50.0682C101.827 50.6762 102.275 51.1402 102.835 51.4602C103.411 51.7802 104.059 51.9402 104.779 51.9402ZM114.488 54.3402V41.5242H117.344V45.0522L117.008 44.0202C117.392 43.1562 117.992 42.5002 118.808 42.0522C119.64 41.6042 120.672 41.3802 121.904 41.3802V44.2362C121.776 44.2042 121.656 44.1882 121.544 44.1882C121.432 44.1722 121.32 44.1642 121.208 44.1642C120.072 44.1642 119.168 44.5002 118.496 45.1722C117.824 45.8282 117.488 46.8122 117.488 48.1242V54.3402H114.488ZM130.356 54.5082C128.932 54.5082 127.684 54.2282 126.612 53.6682C125.556 53.0922 124.732 52.3082 124.14 51.3162C123.564 50.3242 123.276 49.1962 123.276 47.9322C123.276 46.6522 123.556 45.5242 124.116 44.5482C124.692 43.5562 125.476 42.7802 126.468 42.2202C127.476 41.6602 128.62 41.3802 129.9 41.3802C131.148 41.3802 132.26 41.6522 133.236 42.1962C134.212 42.7402 134.98 43.5082 135.54 44.5002C136.1 45.4922 136.38 46.6602 136.38 48.0042C136.38 48.1322 136.372 48.2762 136.356 48.4362C136.356 48.5962 136.348 48.7482 136.332 48.8922H125.652V46.9002H134.748L133.572 47.5242C133.588 46.7882 133.436 46.1402 133.116 45.5802C132.796 45.0202 132.356 44.5802 131.796 44.2602C131.252 43.9402 130.62 43.7802 129.9 43.7802C129.164 43.7802 128.516 43.9402 127.956 44.2602C127.412 44.5802 126.98 45.0282 126.66 45.6042C126.356 46.1642 126.204 46.8282 126.204 47.5962V48.0762C126.204 48.8442 126.38 49.5242 126.732 50.1162C127.084 50.7082 127.58 51.1642 128.22 51.4842C128.86 51.8042 129.596 51.9642 130.428 51.9642C131.148 51.9642 131.796 51.8522 132.372 51.6282C132.948 51.4042 133.46 51.0522 133.908 50.5722L135.516 52.4202C134.94 53.0922 134.212 53.6122 133.332 53.9802C132.468 54.3322 131.476 54.5082 130.356 54.5082ZM145.142 54.5082C143.798 54.5082 142.598 54.2282 141.542 53.6682C140.502 53.0922 139.686 52.3082 139.094 51.3162C138.502 50.3242 138.206 49.1962 138.206 47.9322C138.206 46.6522 138.502 45.5242 139.094 44.5482C139.686 43.5562 140.502 42.7802 141.542 42.2202C142.598 41.6602 143.798 41.3802 145.142 41.3802C146.39 41.3802 147.486 41.6362 148.43 42.1482C149.39 42.6442 150.118 43.3802 150.614 44.3562L148.31 45.7002C147.926 45.0922 147.454 44.6442 146.894 44.3562C146.35 44.0682 145.758 43.9242 145.118 43.9242C144.382 43.9242 143.718 44.0842 143.126 44.4042C142.534 44.7242 142.07 45.1882 141.734 45.7962C141.398 46.3882 141.23 47.1002 141.23 47.9322C141.23 48.7642 141.398 49.4842 141.734 50.0922C142.07 50.6842 142.534 51.1402 143.126 51.4602C143.718 51.7802 144.382 51.9402 145.118 51.9402C145.758 51.9402 146.35 51.7962 146.894 51.5082C147.454 51.2202 147.926 50.7722 148.31 50.1642L150.614 51.5082C150.118 52.4682 149.39 53.2122 148.43 53.7402C147.486 54.2522 146.39 54.5082 145.142 54.5082ZM161.103 54.3402V51.7482L160.935 51.1962V46.6602C160.935 45.7802 160.671 45.1002 160.143 44.6202C159.615 44.1242 158.815 43.8762 157.743 43.8762C157.023 43.8762 156.311 43.9882 155.607 44.2122C154.919 44.4362 154.335 44.7482 153.855 45.1482L152.679 42.9642C153.367 42.4362 154.183 42.0442 155.127 41.7882C156.087 41.5162 157.079 41.3802 158.103 41.3802C159.959 41.3802 161.391 41.8282 162.399 42.7242C163.423 43.6042 163.935 44.9722 163.935 46.8282V54.3402H161.103ZM157.071 54.5082C156.111 54.5082 155.271 54.3482 154.551 54.0282C153.831 53.6922 153.271 53.2362 152.871 52.6602C152.487 52.0682 152.295 51.4042 152.295 50.6682C152.295 49.9482 152.463 49.3002 152.799 48.7242C153.151 48.1482 153.719 47.6922 154.503 47.3562C155.287 47.0202 156.327 46.8522 157.623 46.8522H161.343V48.8442H157.839C156.815 48.8442 156.127 49.0122 155.775 49.3482C155.423 49.6682 155.247 50.0682 155.247 50.5482C155.247 51.0922 155.463 51.5242 155.895 51.8442C156.327 52.1642 156.927 52.3242 157.695 52.3242C158.431 52.3242 159.087 52.1562 159.663 51.8202C160.255 51.4842 160.679 50.9882 160.935 50.3322L161.439 52.1322C161.151 52.8842 160.631 53.4682 159.879 53.8842C159.143 54.3002 158.207 54.5082 157.071 54.5082ZM171.745 54.5082C170.673 54.5082 169.641 54.3722 168.649 54.1002C167.673 53.8122 166.897 53.4682 166.321 53.0682L167.473 50.7882C168.049 51.1562 168.737 51.4602 169.537 51.7002C170.337 51.9402 171.137 52.0602 171.937 52.0602C172.881 52.0602 173.561 51.9322 173.977 51.6762C174.409 51.4202 174.625 51.0762 174.625 50.6442C174.625 50.2922 174.481 50.0282 174.193 49.8522C173.905 49.6602 173.529 49.5162 173.065 49.4202C172.601 49.3242 172.081 49.2362 171.505 49.1562C170.945 49.0762 170.377 48.9722 169.801 48.8442C169.241 48.7002 168.729 48.5002 168.265 48.2442C167.801 47.9722 167.425 47.6122 167.137 47.1642C166.849 46.7162 166.705 46.1242 166.705 45.3882C166.705 44.5722 166.937 43.8682 167.401 43.2762C167.865 42.6682 168.513 42.2042 169.345 41.8842C170.193 41.5482 171.193 41.3802 172.345 41.3802C173.209 41.3802 174.081 41.4762 174.961 41.6682C175.841 41.8602 176.569 42.1322 177.145 42.4842L175.993 44.7642C175.385 44.3962 174.769 44.1482 174.145 44.0202C173.537 43.8762 172.929 43.8042 172.321 43.8042C171.409 43.8042 170.729 43.9402 170.281 44.2122C169.849 44.4842 169.633 44.8282 169.633 45.2442C169.633 45.6282 169.777 45.9162 170.065 46.1082C170.353 46.3002 170.729 46.4522 171.193 46.5642C171.657 46.6762 172.169 46.7722 172.729 46.8522C173.305 46.9162 173.873 47.0202 174.433 47.1642C174.993 47.3082 175.505 47.5082 175.969 47.7642C176.449 48.0042 176.833 48.3482 177.121 48.7962C177.409 49.2442 177.553 49.8282 177.553 50.5482C177.553 51.3482 177.313 52.0442 176.833 52.6362C176.369 53.2282 175.705 53.6922 174.841 54.0282C173.977 54.3482 172.945 54.5082 171.745 54.5082ZM184.961 54.5082C183.553 54.5082 182.465 54.1482 181.697 53.4282C180.929 52.6922 180.545 51.6122 180.545 50.1882V38.6922H183.545V50.1162C183.545 50.7242 183.697 51.1962 184.001 51.5322C184.321 51.8682 184.761 52.0362 185.321 52.0362C185.993 52.0362 186.553 51.8602 187.001 51.5082L187.841 53.6442C187.489 53.9322 187.057 54.1482 186.545 54.2922C186.033 54.4362 185.505 54.5082 184.961 54.5082ZM178.433 44.0202V41.6202H186.977V44.0202H178.433Z" fill="white"/>
<g>
<path d="M23.8591 79.2416V67.4077H28.9646C30.2832 67.4077 31.3032 67.6726 32.0245 68.2023C32.7571 68.732 33.1234 69.4815 33.1234 70.4507C33.1234 71.0931 32.9712 71.6341 32.6669 72.0736C32.3739 72.5132 31.9682 72.8457 31.4497 73.0711C30.9426 73.2965 30.3847 73.4092 29.7761 73.4092L30.0635 73.0034C30.8186 73.0034 31.4666 73.1218 32.0076 73.3585C32.5599 73.5839 32.9881 73.9276 33.2924 74.3897C33.5967 74.8405 33.7489 75.404 33.7489 76.0803C33.7489 77.0833 33.377 77.861 32.6331 78.4132C31.9005 78.9655 30.7904 79.2416 29.3027 79.2416H23.8591ZM25.1101 78.2104H29.2858C30.3227 78.2104 31.1173 78.0357 31.6695 77.6863C32.2218 77.3256 32.4979 76.7565 32.4979 75.9788C32.4979 75.2124 32.2218 74.6546 31.6695 74.3052C31.1173 73.9445 30.3227 73.7642 29.2858 73.7642H24.9749V72.733H28.8801C29.8268 72.733 30.5594 72.5526 31.0778 72.192C31.6075 71.8313 31.8724 71.296 31.8724 70.5859C31.8724 69.8646 31.6075 69.3293 31.0778 68.9799C30.5594 68.6193 29.8268 68.4389 28.8801 68.4389H25.1101V78.2104ZM36.3508 79.2416V70.3662H37.5003V72.7837L37.382 72.361C37.63 71.6848 38.047 71.172 38.633 70.8226C39.2191 70.462 39.946 70.2816 40.8138 70.2816V71.4481C40.7688 71.4481 40.7237 71.4481 40.6786 71.4481C40.6335 71.4369 40.5884 71.4312 40.5433 71.4312C39.6079 71.4312 38.8753 71.7186 38.3456 72.2934C37.8159 72.8569 37.5511 73.6628 37.5511 74.7109V79.2416H36.3508ZM43.004 79.2416V70.3662H44.2043V79.2416H43.004ZM43.6126 68.4051C43.3647 68.4051 43.1562 68.3206 42.9871 68.1515C42.8181 67.9825 42.7335 67.7796 42.7335 67.5429C42.7335 67.3063 42.8181 67.109 42.9871 66.9512C43.1562 66.7822 43.3647 66.6977 43.6126 66.6977C43.8606 66.6977 44.0691 66.7766 44.2381 66.9343C44.4072 67.0921 44.4917 67.2894 44.4917 67.526C44.4917 67.774 44.4072 67.9825 44.2381 68.1515C44.0804 68.3206 43.8719 68.4051 43.6126 68.4051ZM50.3504 79.3261C49.5164 79.3261 48.874 79.1007 48.4232 78.6499C47.9724 78.1991 47.747 77.5623 47.747 76.7396V68.4051H48.9473V76.672C48.9473 77.1904 49.0769 77.5905 49.3361 77.8723C49.6066 78.154 49.9898 78.2949 50.4857 78.2949C51.0154 78.2949 51.4549 78.1427 51.8043 77.8384L52.227 78.7006C51.9903 78.9148 51.7029 79.0726 51.3648 79.174C51.0379 79.2754 50.6998 79.3261 50.3504 79.3261ZM46.1579 71.3636V70.3662H51.6522V71.3636H46.1579ZM54.412 79.2416V70.3662H55.6123V79.2416H54.412ZM55.0206 68.4051C54.7727 68.4051 54.5642 68.3206 54.3951 68.1515C54.226 67.9825 54.1415 67.7796 54.1415 67.5429C54.1415 67.3063 54.226 67.109 54.3951 66.9512C54.5642 66.7822 54.7727 66.6977 55.0206 66.6977C55.2686 66.6977 55.4771 66.7766 55.6461 66.9343C55.8152 67.0921 55.8997 67.2894 55.8997 67.526C55.8997 67.774 55.8152 67.9825 55.6461 68.1515C55.4883 68.3206 55.2798 68.4051 55.0206 68.4051ZM61.3358 79.3261C60.6032 79.3261 59.9101 79.2247 59.2564 79.0218C58.6027 78.8077 58.0899 78.5428 57.718 78.2273L58.2589 77.2806C58.6196 77.551 59.0817 77.7877 59.6452 77.9906C60.2087 78.1822 60.8004 78.278 61.4203 78.278C62.2656 78.278 62.8742 78.1484 63.2461 77.8892C63.618 77.6187 63.804 77.2637 63.804 76.8241C63.804 76.4973 63.6969 76.2437 63.4828 76.0634C63.2799 75.8718 63.0094 75.7309 62.6713 75.6407C62.3332 75.5393 61.9556 75.4548 61.5386 75.3871C61.1216 75.3195 60.7046 75.2406 60.2876 75.1505C59.8819 75.0603 59.51 74.9307 59.1718 74.7616C58.8337 74.5813 58.5576 74.339 58.3435 74.0347C58.1406 73.7304 58.0392 73.3247 58.0392 72.8175C58.0392 72.3329 58.1744 71.8989 58.4449 71.5158C58.7154 71.1326 59.1099 70.8339 59.6283 70.6198C60.158 70.3944 60.8004 70.2816 61.5555 70.2816C62.1303 70.2816 62.7051 70.3605 63.2799 70.5183C63.8547 70.6648 64.3281 70.8621 64.7 71.11L64.1759 72.0736C63.7814 71.8032 63.3588 71.6116 62.908 71.4988C62.4572 71.3749 62.0064 71.3129 61.5555 71.3129C60.7553 71.3129 60.1636 71.4538 59.7804 71.7355C59.4085 72.006 59.2226 72.3554 59.2226 72.7837C59.2226 73.1218 59.324 73.3866 59.5269 73.5782C59.741 73.7698 60.0171 73.922 60.3552 74.0347C60.7046 74.1361 61.0822 74.2206 61.4879 74.2883C61.9049 74.3559 62.3163 74.4404 62.722 74.5419C63.139 74.632 63.5166 74.7616 63.8547 74.9307C64.2041 75.0885 64.4802 75.3195 64.6831 75.6238C64.8972 75.9168 65.0043 76.3057 65.0043 76.7903C65.0043 77.3087 64.8578 77.7596 64.5647 78.1427C64.283 78.5147 63.866 78.8077 63.3137 79.0218C62.7727 79.2247 62.1134 79.3261 61.3358 79.3261ZM71.7375 70.2816C72.4588 70.2816 73.0899 70.4225 73.6309 70.7043C74.1831 70.9748 74.6114 71.3918 74.9157 71.9553C75.2313 72.5188 75.3891 73.2289 75.3891 74.0854V79.2416H74.1888V74.2037C74.1888 73.2683 73.9521 72.5639 73.4787 72.0905C73.0166 71.6059 72.363 71.3636 71.5177 71.3636C70.8865 71.3636 70.3343 71.4932 69.8609 71.7524C69.3988 72.0004 69.0382 72.3667 68.779 72.8513C68.531 73.3247 68.4071 73.8994 68.4071 74.5757V79.2416H67.2068V66.6977H68.4071V72.8006L68.1704 72.3441C68.4521 71.7017 68.903 71.2002 69.5228 70.8395C70.1427 70.4676 70.8809 70.2816 71.7375 70.2816ZM85.9973 79.2416L82.0076 67.4077H83.2924L87.0286 78.5485H86.3861L90.2406 67.4077H91.3902L95.194 78.5485H94.5853L98.3553 67.4077H99.5556L95.5659 79.2416H94.2472L90.6125 68.6756H90.9506L87.299 79.2416H85.9973ZM104.689 79.3261C103.765 79.3261 102.953 79.1345 102.254 78.7513C101.556 78.3569 101.009 77.8215 100.615 77.1453C100.22 76.4578 100.023 75.6745 100.023 74.7954C100.023 73.9163 100.209 73.1387 100.581 72.4625C100.964 71.7862 101.482 71.2565 102.136 70.8733C102.801 70.4789 103.545 70.2816 104.368 70.2816C105.202 70.2816 105.94 70.4732 106.582 70.8564C107.236 71.2284 107.749 71.7581 108.121 72.4456C108.493 73.1218 108.679 73.9051 108.679 74.7954C108.679 74.8518 108.673 74.9138 108.662 74.9814C108.662 75.0378 108.662 75.0997 108.662 75.1674H100.936V74.2714H108.019L107.546 74.6264C107.546 73.984 107.405 73.4148 107.123 72.9189C106.853 72.4118 106.481 72.0173 106.007 71.7355C105.534 71.4538 104.987 71.3129 104.368 71.3129C103.759 71.3129 103.212 71.4538 102.728 71.7355C102.243 72.0173 101.866 72.4118 101.595 72.9189C101.325 73.4261 101.189 74.0065 101.189 74.6602V74.8462C101.189 75.5224 101.336 76.1197 101.629 76.6381C101.933 77.1453 102.35 77.5454 102.88 77.8384C103.421 78.1202 104.035 78.2611 104.723 78.2611C105.264 78.2611 105.765 78.1653 106.227 77.9737C106.701 77.7821 107.106 77.4891 107.444 77.0946L108.121 77.8723C107.726 78.3456 107.23 78.7063 106.633 78.9542C106.047 79.2022 105.399 79.3261 104.689 79.3261ZM116.436 79.2416V77.2806L116.385 76.9594V73.6797C116.385 72.9246 116.171 72.3441 115.743 71.9384C115.326 71.5327 114.7 71.3298 113.866 71.3298C113.292 71.3298 112.745 71.4256 112.226 71.6172C111.708 71.8088 111.268 72.0624 110.908 72.3779L110.367 71.4819C110.818 71.0988 111.359 70.8057 111.99 70.6029C112.621 70.3887 113.286 70.2816 113.985 70.2816C115.134 70.2816 116.019 70.569 116.639 71.1438C117.27 71.7074 117.586 72.5695 117.586 73.7304V79.2416H116.436ZM113.376 79.3261C112.711 79.3261 112.131 79.2191 111.635 79.0049C111.15 78.7795 110.778 78.4752 110.519 78.092C110.26 77.6976 110.13 77.2467 110.13 76.7396C110.13 76.2775 110.237 75.8605 110.451 75.4886C110.677 75.1054 111.037 74.8011 111.533 74.5757C112.041 74.339 112.717 74.2206 113.562 74.2206H116.622V75.1166H113.596C112.739 75.1166 112.142 75.2688 111.804 75.5731C111.477 75.8774 111.314 76.255 111.314 76.7058C111.314 77.2129 111.511 77.6187 111.905 77.923C112.3 78.2273 112.852 78.3794 113.562 78.3794C114.238 78.3794 114.819 78.2273 115.303 77.923C115.799 77.6074 116.16 77.1566 116.385 76.5705L116.656 77.3989C116.43 77.985 116.036 78.4527 115.472 78.8021C114.92 79.1514 114.221 79.3261 113.376 79.3261ZM123.652 79.3261C122.818 79.3261 122.176 79.1007 121.725 78.6499C121.274 78.1991 121.049 77.5623 121.049 76.7396V68.4051H122.249V76.672C122.249 77.1904 122.378 77.5905 122.638 77.8723C122.908 78.154 123.291 78.2949 123.787 78.2949C124.317 78.2949 124.756 78.1427 125.106 77.8384L125.529 78.7006C125.292 78.9148 125.004 79.0726 124.666 79.174C124.339 79.2754 124.001 79.3261 123.652 79.3261ZM119.459 71.3636V70.3662H124.954V71.3636H119.459ZM132.244 70.2816C132.966 70.2816 133.597 70.4225 134.138 70.7043C134.69 70.9748 135.118 71.3918 135.423 71.9553C135.738 72.5188 135.896 73.2289 135.896 74.0854V79.2416H134.696V74.2037C134.696 73.2683 134.459 72.5639 133.986 72.0905C133.523 71.6059 132.87 71.3636 132.024 71.3636C131.393 71.3636 130.841 71.4932 130.368 71.7524C129.906 72.0004 129.545 72.3667 129.286 72.8513C129.038 73.3247 128.914 73.8994 128.914 74.5757V79.2416H127.714V66.6977H128.914V72.8006L128.677 72.3441C128.959 71.7017 129.41 71.2002 130.03 70.8395C130.649 70.4676 131.388 70.2816 132.244 70.2816ZM142.908 79.3261C141.984 79.3261 141.172 79.1345 140.474 78.7513C139.775 78.3569 139.228 77.8215 138.834 77.1453C138.439 76.4578 138.242 75.6745 138.242 74.7954C138.242 73.9163 138.428 73.1387 138.8 72.4625C139.183 71.7862 139.702 71.2565 140.355 70.8733C141.02 70.4789 141.764 70.2816 142.587 70.2816C143.421 70.2816 144.159 70.4732 144.801 70.8564C145.455 71.2284 145.968 71.7581 146.34 72.4456C146.712 73.1218 146.898 73.9051 146.898 74.7954C146.898 74.8518 146.892 74.9138 146.881 74.9814C146.881 75.0378 146.881 75.0997 146.881 75.1674H139.155V74.2714H146.238L145.765 74.6264C145.765 73.984 145.624 73.4148 145.342 72.9189C145.072 72.4118 144.7 72.0173 144.227 71.7355C143.753 71.4538 143.207 71.3129 142.587 71.3129C141.978 71.3129 141.432 71.4538 140.947 71.7355C140.462 72.0173 140.085 72.4118 139.814 72.9189C139.544 73.4261 139.409 74.0065 139.409 74.6602V74.8462C139.409 75.5224 139.555 76.1197 139.848 76.6381C140.152 77.1453 140.569 77.5454 141.099 77.8384C141.64 78.1202 142.254 78.2611 142.942 78.2611C143.483 78.2611 143.984 78.1653 144.446 77.9737C144.92 77.7821 145.325 77.4891 145.664 77.0946L146.34 77.8723C145.945 78.3456 145.449 78.7063 144.852 78.9542C144.266 79.2022 143.618 79.3261 142.908 79.3261ZM149.341 79.2416V70.3662H150.49V72.7837L150.372 72.361C150.62 71.6848 151.037 71.172 151.623 70.8226C152.209 70.462 152.936 70.2816 153.804 70.2816V71.4481C153.759 71.4481 153.714 71.4481 153.669 71.4481C153.624 71.4369 153.578 71.4312 153.533 71.4312C152.598 71.4312 151.865 71.7186 151.336 72.2934C150.806 72.8569 150.541 73.6628 150.541 74.7109V79.2416H149.341Z" fill="white"/>
</g>
<g opacity="0.7" clip-path="url(#clip0_77_36)">
<path d="M220.334 40.9891C212.154 40.9891 205.499 47.6445 205.499 55.825C205.499 64.0056 212.154 70.661 220.334 70.661C228.515 70.661 235.17 64.0056 235.17 55.825C235.17 47.6445 228.515 40.9891 220.334 40.9891ZM225.784 56.7786L218.591 63.9719C218.327 64.2352 217.982 64.3669 217.637 64.3669C217.292 64.3669 216.947 64.2353 216.683 63.9719C216.157 63.4452 216.157 62.5912 216.683 62.0645L222.923 55.8248L216.683 49.5854C216.157 49.0588 216.157 48.2048 216.683 47.678C217.21 47.1513 218.064 47.1513 218.591 47.678L225.784 54.871C226.037 55.124 226.179 55.467 226.179 55.8247C226.179 56.1825 226.037 56.5257 225.784 56.7786Z" fill="white"/>
</g>
<defs>
<linearGradient id="paint0_linear_77_36" x1="138.33" y1="9.19781" x2="138.33" y2="102.452" gradientUnits="userSpaceOnUse">
<stop stop-color="#4C5A80"/>
<stop offset="1" stop-color="#60627D"/>
</linearGradient>
<clipPath id="clip0_77_36">
<rect width="29.6719" height="29.6719" fill="white" transform="translate(205.499 40.9891)"/>
</clipPath>
</defs>
</svg>
