<svg width="43" height="31" viewBox="0 0 43 31" fill="none" xmlns="http://www.w3.org/2000/svg">
<path d="M18.4077 30.0302H3.78282V21.3657C1.37025 19.1415 0 16.0317 0 12.7273C0 6.24427 5.27452 0.970245 11.757 0.970245C17.0497 0.970245 21.7151 4.53526 23.1016 9.64016L23.1448 9.79749L23.2324 11.7253L26.7807 16.7009L23.6616 18.9664V20.699C23.6616 22.7856 21.9639 24.4838 19.8758 24.4838H18.4082L18.4077 30.0302ZM6.73278 27.0803H15.4578V21.5349H19.8753C20.3365 21.5349 20.7111 21.1597 20.7111 20.6995V17.4644L22.6807 16.0337L20.3237 12.7297L20.2121 10.2636C19.1236 6.52107 15.6687 3.92118 11.7565 3.92118C6.90043 3.92118 2.94946 7.87215 2.94946 12.7283C2.94946 15.3832 4.13043 17.87 6.18999 19.551L6.73229 19.9935L6.73278 27.0803Z" fill="white"/>
<path d="M30.0659 22.0108L27.9803 19.9252C29.3107 18.5943 29.3107 16.429 27.9798 15.0976L30.0664 13.012C32.5468 15.4929 32.5468 19.5304 30.0659 22.0108Z" fill="white"/>
<path d="M34.0479 25.152L31.9623 23.0664C35.0248 20.0038 35.0248 15.0199 31.9623 11.9568L34.0479 9.87123C38.2599 14.0843 38.2599 20.9395 34.0479 25.152Z" fill="white"/>
<path d="M38.6223 28.097L36.5357 26.0114C41.2217 21.3244 41.2217 13.6988 36.5367 9.01231L38.6223 6.9267C44.4592 12.7622 44.4592 22.2596 38.6223 28.097Z" fill="white"/>
</svg>
