<svg width="392" height="158" viewBox="0 0 392 158" fill="none" xmlns="http://www.w3.org/2000/svg">
<g filter="url(#filter0_d_15_2)">
<path d="M13 130V20C13 13.9249 17.9249 9 24 9H367.848C373.923 9 378.848 13.9249 378.848 20V130C378.848 136.075 373.923 141 367.848 141H24C17.9249 141 13 136.075 13 130Z" fill="url(#paint0_linear_15_2)" fill-opacity="0.42" shape-rendering="crispEdges"/>
<path d="M8.5 20V130C8.5 138.56 15.4396 145.5 24 145.5H367.848C376.408 145.5 383.348 138.56 383.348 130V20C383.348 11.4396 376.408 4.5 367.848 4.5H24C15.4396 4.5 8.5 11.4396 8.5 20Z" stroke="#999999" stroke-opacity="0.23" stroke-width="9" stroke-linejoin="round" shape-rendering="crispEdges"/>
</g>
<path d="M33.6857 68V48H41.9143C43.6857 48 45.2 48.2857 46.4571 48.8571C47.7333 49.4286 48.7143 50.2476 49.4 51.3143C50.0857 52.381 50.4286 53.6476 50.4286 55.1143C50.4286 56.581 50.0857 57.8476 49.4 58.9143C48.7143 59.981 47.7333 60.8 46.4571 61.3714C45.2 61.9429 43.6857 62.2286 41.9143 62.2286H35.7429L37.4 60.4857V68H33.6857ZM37.4 60.8857L35.7429 59.0857H41.7429C43.381 59.0857 44.6095 58.7429 45.4286 58.0571C46.2667 57.3524 46.6857 56.3714 46.6857 55.1143C46.6857 53.8381 46.2667 52.8571 45.4286 52.1714C44.6095 51.4857 43.381 51.1429 41.7429 51.1429H35.7429L37.4 49.3143V60.8857ZM60.5962 68.2C59.0343 68.2 57.6438 67.8667 56.4248 67.2C55.2057 66.5143 54.2438 65.581 53.5391 64.4C52.8343 63.219 52.4819 61.8762 52.4819 60.3714C52.4819 58.8476 52.8343 57.5048 53.5391 56.3429C54.2438 55.1619 55.2057 54.2381 56.4248 53.5714C57.6438 52.9048 59.0343 52.5714 60.5962 52.5714C62.1772 52.5714 63.5772 52.9048 64.7962 53.5714C66.0343 54.2381 66.9962 55.1524 67.6819 56.3143C68.3867 57.4762 68.7391 58.8286 68.7391 60.3714C68.7391 61.8762 68.3867 63.219 67.6819 64.4C66.9962 65.581 66.0343 66.5143 64.7962 67.2C63.5772 67.8667 62.1772 68.2 60.5962 68.2ZM60.5962 65.1429C61.4724 65.1429 62.2533 64.9524 62.9391 64.5714C63.6248 64.1905 64.1581 63.6381 64.5391 62.9143C64.9391 62.1905 65.1391 61.3429 65.1391 60.3714C65.1391 59.381 64.9391 58.5333 64.5391 57.8286C64.1581 57.1048 63.6248 56.5524 62.9391 56.1714C62.2533 55.7905 61.4819 55.6 60.6248 55.6C59.7486 55.6 58.9676 55.7905 58.2819 56.1714C57.6153 56.5524 57.0819 57.1048 56.6819 57.8286C56.2819 58.5333 56.0819 59.381 56.0819 60.3714C56.0819 61.3429 56.2819 62.1905 56.6819 62.9143C57.0819 63.6381 57.6153 64.1905 58.2819 64.5714C58.9676 64.9524 59.7391 65.1429 60.5962 65.1429ZM72.1542 68V52.7429H75.5542V56.9429L75.1542 55.7143C75.6114 54.6857 76.3257 53.9048 77.2971 53.3714C78.2876 52.8381 79.5161 52.5714 80.9828 52.5714V55.9714C80.8304 55.9333 80.6876 55.9143 80.5542 55.9143C80.4209 55.8952 80.2876 55.8857 80.1542 55.8857C78.8019 55.8857 77.7257 56.2857 76.9257 57.0857C76.1257 57.8667 75.7257 59.0381 75.7257 60.6V68H72.1542ZM90.3134 68.2C88.6372 68.2 87.342 67.7714 86.4277 66.9143C85.5134 66.0381 85.0562 64.7524 85.0562 63.0571V49.3714H88.6277V62.9714C88.6277 63.6952 88.8086 64.2571 89.1705 64.6571C89.5515 65.0571 90.0753 65.2571 90.742 65.2571C91.542 65.2571 92.2086 65.0476 92.742 64.6286L93.742 67.1714C93.3229 67.5143 92.8086 67.7714 92.1991 67.9429C91.5896 68.1143 90.961 68.2 90.3134 68.2ZM82.542 55.7143V52.8571H92.7134V55.7143H82.542ZM108.319 57.2H118.29V60.3429H108.319V57.2ZM108.633 68H104.919V48H119.519V51.1143H108.633V68ZM129.207 68.2C127.645 68.2 126.254 67.8667 125.035 67.2C123.816 66.5143 122.854 65.581 122.15 64.4C121.445 63.219 121.092 61.8762 121.092 60.3714C121.092 58.8476 121.445 57.5048 122.15 56.3429C122.854 55.1619 123.816 54.2381 125.035 53.5714C126.254 52.9048 127.645 52.5714 129.207 52.5714C130.788 52.5714 132.188 52.9048 133.407 53.5714C134.645 54.2381 135.607 55.1524 136.292 56.3143C136.997 57.4762 137.35 58.8286 137.35 60.3714C137.35 61.8762 136.997 63.219 136.292 64.4C135.607 65.581 134.645 66.5143 133.407 67.2C132.188 67.8667 130.788 68.2 129.207 68.2ZM129.207 65.1429C130.083 65.1429 130.864 64.9524 131.55 64.5714C132.235 64.1905 132.769 63.6381 133.15 62.9143C133.55 62.1905 133.75 61.3429 133.75 60.3714C133.75 59.381 133.55 58.5333 133.15 57.8286C132.769 57.1048 132.235 56.5524 131.55 56.1714C130.864 55.7905 130.092 55.6 129.235 55.6C128.359 55.6 127.578 55.7905 126.892 56.1714C126.226 56.5524 125.692 57.1048 125.292 57.8286C124.892 58.5333 124.692 59.381 124.692 60.3714C124.692 61.3429 124.892 62.1905 125.292 62.9143C125.692 63.6381 126.226 64.1905 126.892 64.5714C127.578 64.9524 128.35 65.1429 129.207 65.1429ZM140.765 68V52.7429H144.165V56.9429L143.765 55.7143C144.222 54.6857 144.936 53.9048 145.908 53.3714C146.898 52.8381 148.127 52.5714 149.593 52.5714V55.9714C149.441 55.9333 149.298 55.9143 149.165 55.9143C149.031 55.8952 148.898 55.8857 148.765 55.8857C147.412 55.8857 146.336 56.2857 145.536 57.0857C144.736 57.8667 144.336 59.0381 144.336 60.6V68H140.765ZM159.655 68.2C157.96 68.2 156.474 67.8667 155.198 67.2C153.941 66.5143 152.96 65.581 152.255 64.4C151.569 63.219 151.226 61.8762 151.226 60.3714C151.226 58.8476 151.56 57.5048 152.226 56.3429C152.912 55.1619 153.845 54.2381 155.026 53.5714C156.226 52.9048 157.588 52.5714 159.112 52.5714C160.598 52.5714 161.922 52.8952 163.083 53.5429C164.245 54.1905 165.16 55.1048 165.826 56.2857C166.493 57.4667 166.826 58.8571 166.826 60.4571C166.826 60.6095 166.817 60.781 166.798 60.9714C166.798 61.1619 166.788 61.3429 166.769 61.5143H154.055V59.1429H164.883L163.483 59.8857C163.503 59.0095 163.322 58.2381 162.941 57.5714C162.56 56.9048 162.036 56.381 161.369 56C160.722 55.619 159.969 55.4286 159.112 55.4286C158.236 55.4286 157.464 55.619 156.798 56C156.15 56.381 155.636 56.9143 155.255 57.6C154.893 58.2667 154.712 59.0571 154.712 59.9714V60.5429C154.712 61.4571 154.922 62.2667 155.341 62.9714C155.76 63.6762 156.35 64.219 157.112 64.6C157.874 64.981 158.75 65.1714 159.741 65.1714C160.598 65.1714 161.369 65.0381 162.055 64.7714C162.741 64.5048 163.35 64.0857 163.883 63.5143L165.798 65.7143C165.112 66.5143 164.245 67.1333 163.198 67.5714C162.169 67.9905 160.988 68.2 159.655 68.2ZM177.257 68.2C175.657 68.2 174.228 67.8667 172.971 67.2C171.733 66.5143 170.762 65.581 170.057 64.4C169.352 63.219 169 61.8762 169 60.3714C169 58.8476 169.352 57.5048 170.057 56.3429C170.762 55.1619 171.733 54.2381 172.971 53.5714C174.228 52.9048 175.657 52.5714 177.257 52.5714C178.743 52.5714 180.047 52.8762 181.171 53.4857C182.314 54.0762 183.181 54.9524 183.771 56.1143L181.028 57.7143C180.571 56.9905 180.009 56.4571 179.343 56.1143C178.695 55.7714 177.99 55.6 177.228 55.6C176.352 55.6 175.562 55.7905 174.857 56.1714C174.152 56.5524 173.6 57.1048 173.2 57.8286C172.8 58.5333 172.6 59.381 172.6 60.3714C172.6 61.3619 172.8 62.219 173.2 62.9429C173.6 63.6476 174.152 64.1905 174.857 64.5714C175.562 64.9524 176.352 65.1429 177.228 65.1429C177.99 65.1429 178.695 64.9714 179.343 64.6286C180.009 64.2857 180.571 63.7524 181.028 63.0286L183.771 64.6286C183.181 65.7714 182.314 66.6571 181.171 67.2857C180.047 67.8952 178.743 68.2 177.257 68.2ZM196.258 68V64.9143L196.058 64.2571V58.8571C196.058 57.8095 195.744 57 195.116 56.4286C194.487 55.8381 193.535 55.5429 192.258 55.5429C191.401 55.5429 190.554 55.6762 189.716 55.9429C188.897 56.2095 188.201 56.581 187.63 57.0571L186.23 54.4571C187.049 53.8286 188.02 53.3619 189.144 53.0571C190.287 52.7333 191.468 52.5714 192.687 52.5714C194.897 52.5714 196.601 53.1048 197.801 54.1714C199.02 55.219 199.63 56.8476 199.63 59.0571V68H196.258ZM191.458 68.2C190.316 68.2 189.316 68.0095 188.458 67.6286C187.601 67.2286 186.935 66.6857 186.458 66C186.001 65.2952 185.773 64.5048 185.773 63.6286C185.773 62.7714 185.973 62 186.373 61.3143C186.792 60.6286 187.468 60.0857 188.401 59.6857C189.335 59.2857 190.573 59.0857 192.116 59.0857H196.544V61.4571H192.373C191.154 61.4571 190.335 61.6571 189.916 62.0571C189.497 62.4381 189.287 62.9143 189.287 63.4857C189.287 64.1333 189.544 64.6476 190.058 65.0286C190.573 65.4095 191.287 65.6 192.201 65.6C193.078 65.6 193.858 65.4 194.544 65C195.249 64.6 195.754 64.0095 196.058 63.2286L196.658 65.3714C196.316 66.2667 195.697 66.9619 194.801 67.4571C193.925 67.9524 192.811 68.2 191.458 68.2ZM208.928 68.2C207.651 68.2 206.423 68.0381 205.242 67.7143C204.08 67.3714 203.156 66.9619 202.471 66.4857L203.842 63.7714C204.528 64.2095 205.347 64.5714 206.299 64.8571C207.251 65.1429 208.204 65.2857 209.156 65.2857C210.28 65.2857 211.09 65.1333 211.585 64.8286C212.099 64.5238 212.356 64.1143 212.356 63.6C212.356 63.181 212.185 62.8667 211.842 62.6571C211.499 62.4286 211.051 62.2571 210.499 62.1429C209.947 62.0286 209.328 61.9238 208.642 61.8286C207.975 61.7333 207.299 61.6095 206.613 61.4571C205.947 61.2857 205.337 61.0476 204.785 60.7429C204.232 60.419 203.785 59.9905 203.442 59.4571C203.099 58.9238 202.928 58.219 202.928 57.3429C202.928 56.3714 203.204 55.5333 203.756 54.8286C204.309 54.1048 205.08 53.5524 206.071 53.1714C207.08 52.7714 208.271 52.5714 209.642 52.5714C210.671 52.5714 211.709 52.6857 212.756 52.9143C213.804 53.1429 214.671 53.4667 215.356 53.8857L213.985 56.6C213.261 56.1619 212.528 55.8667 211.785 55.7143C211.061 55.5429 210.337 55.4571 209.613 55.4571C208.528 55.4571 207.718 55.619 207.185 55.9429C206.671 56.2667 206.413 56.6762 206.413 57.1714C206.413 57.6286 206.585 57.9714 206.928 58.2C207.271 58.4286 207.718 58.6095 208.271 58.7429C208.823 58.8762 209.432 58.9905 210.099 59.0857C210.785 59.1619 211.461 59.2857 212.128 59.4571C212.794 59.6286 213.404 59.8667 213.956 60.1714C214.528 60.4571 214.985 60.8667 215.328 61.4C215.671 61.9333 215.842 62.6286 215.842 63.4857C215.842 64.4381 215.556 65.2667 214.985 65.9714C214.432 66.6762 213.642 67.2286 212.613 67.6286C211.585 68.0095 210.356 68.2 208.928 68.2ZM224.66 68.2C222.984 68.2 221.689 67.7714 220.775 66.9143C219.86 66.0381 219.403 64.7524 219.403 63.0571V49.3714H222.975V62.9714C222.975 63.6952 223.156 64.2571 223.518 64.6571C223.899 65.0571 224.422 65.2571 225.089 65.2571C225.889 65.2571 226.556 65.0476 227.089 64.6286L228.089 67.1714C227.67 67.5143 227.156 67.7714 226.546 67.9429C225.937 68.1143 225.308 68.2 224.66 68.2ZM216.889 55.7143V52.8571H227.06V55.7143H216.889Z" fill="white"/>
<g filter="url(#filter1_d_15_2)">
<path d="M32.9272 101V89.1661H38.0327C39.3514 89.1661 40.3713 89.4309 41.0926 89.9607C41.8252 90.4904 42.1915 91.2398 42.1915 92.2091C42.1915 92.8515 42.0393 93.3925 41.735 93.832C41.442 94.2716 41.0363 94.6041 40.5178 94.8295C40.0107 95.0549 39.4528 95.1676 38.8442 95.1676L39.1316 94.7618C39.8867 94.7618 40.5348 94.8802 41.0757 95.1169C41.628 95.3423 42.0563 95.686 42.3606 96.1481C42.6649 96.5989 42.817 97.1624 42.817 97.8387C42.817 98.8417 42.4451 99.6194 41.7012 100.172C40.9687 100.724 39.8585 101 38.3708 101H32.9272ZM34.1782 99.9688H38.3539C39.3908 99.9688 40.1854 99.7941 40.7376 99.4447C41.2899 99.084 41.566 98.5149 41.566 97.7372C41.566 96.9708 41.2899 96.413 40.7376 96.0636C40.1854 95.7029 39.3908 95.5226 38.3539 95.5226H34.043V94.4913H37.9482C38.8949 94.4913 39.6275 94.311 40.1459 93.9504C40.6756 93.5897 40.9405 93.0544 40.9405 92.3443C40.9405 91.623 40.6756 91.0877 40.1459 90.7383C39.6275 90.3777 38.8949 90.1973 37.9482 90.1973H34.1782V99.9688ZM45.4189 101V92.1246H46.5685V94.5421L46.4501 94.1194C46.6981 93.4432 47.1151 92.9304 47.7011 92.581C48.2872 92.2204 49.0141 92.04 49.882 92.04V93.2065C49.8369 93.2065 49.7918 93.2065 49.7467 93.2065C49.7016 93.1953 49.6565 93.1896 49.6115 93.1896C48.676 93.1896 47.9434 93.477 47.4137 94.0518C46.884 94.6153 46.6192 95.4212 46.6192 96.4693V101H45.4189ZM52.0722 101V92.1246H53.2724V101H52.0722ZM52.6808 90.1635C52.4328 90.1635 52.2243 90.079 52.0552 89.9099C51.8862 89.7409 51.8017 89.538 51.8017 89.3013C51.8017 89.0647 51.8862 88.8674 52.0552 88.7096C52.2243 88.5406 52.4328 88.4561 52.6808 88.4561C52.9287 88.4561 53.1372 88.5349 53.3063 88.6927C53.4753 88.8505 53.5598 89.0478 53.5598 89.2844C53.5598 89.5324 53.4753 89.7409 53.3063 89.9099C53.1485 90.079 52.94 90.1635 52.6808 90.1635ZM59.4186 101.085C58.5845 101.085 57.9421 100.859 57.4913 100.408C57.0405 99.9575 56.8151 99.3207 56.8151 98.498V90.1635H58.0154V98.4304C58.0154 98.9488 58.145 99.3489 58.4042 99.6306C58.6747 99.9124 59.0579 100.053 59.5538 100.053C60.0835 100.053 60.5231 99.9011 60.8724 99.5968L61.2951 100.459C61.0584 100.673 60.771 100.831 60.4329 100.932C60.106 101.034 59.7679 101.085 59.4186 101.085ZM55.226 93.122V92.1246H60.7203V93.122H55.226ZM63.4801 101V92.1246H64.6804V101H63.4801ZM64.0887 90.1635C63.8408 90.1635 63.6323 90.079 63.4632 89.9099C63.2942 89.7409 63.2096 89.538 63.2096 89.3013C63.2096 89.0647 63.2942 88.8674 63.4632 88.7096C63.6323 88.5406 63.8408 88.4561 64.0887 88.4561C64.3367 88.4561 64.5452 88.5349 64.7142 88.6927C64.8833 88.8505 64.9678 89.0478 64.9678 89.2844C64.9678 89.5324 64.8833 89.7409 64.7142 89.9099C64.5564 90.079 64.3479 90.1635 64.0887 90.1635ZM70.4039 101.085C69.6713 101.085 68.9782 100.983 68.3245 100.78C67.6708 100.566 67.158 100.301 66.7861 99.9857L67.3271 99.039C67.6877 99.3094 68.1498 99.5461 68.7133 99.749C69.2768 99.9406 69.8685 100.036 70.4884 100.036C71.3337 100.036 71.9423 99.9068 72.3142 99.6476C72.6861 99.3771 72.8721 99.022 72.8721 98.5825C72.8721 98.2557 72.765 98.0021 72.5509 97.8218C72.348 97.6302 72.0775 97.4893 71.7394 97.3991C71.4013 97.2977 71.0238 97.2131 70.6067 97.1455C70.1897 97.0779 69.7727 96.999 69.3557 96.9088C68.95 96.8187 68.5781 96.6891 68.24 96.52C67.9019 96.3397 67.6257 96.0974 67.4116 95.7931C67.2087 95.4888 67.1073 95.083 67.1073 94.5759C67.1073 94.0913 67.2425 93.6573 67.513 93.2741C67.7835 92.891 68.178 92.5923 68.6964 92.3782C69.2261 92.1527 69.8685 92.04 70.6237 92.04C71.1984 92.04 71.7732 92.1189 72.348 92.2767C72.9228 92.4232 73.3962 92.6205 73.7681 92.8684L73.244 93.832C72.8496 93.5615 72.4269 93.3699 71.9761 93.2572C71.5253 93.1333 71.0745 93.0713 70.6237 93.0713C69.8235 93.0713 69.2318 93.2122 68.8486 93.4939C68.4766 93.7644 68.2907 94.1138 68.2907 94.5421C68.2907 94.8802 68.3921 95.145 68.595 95.3366C68.8091 95.5282 69.0852 95.6804 69.4234 95.7931C69.7727 95.8945 70.1503 95.979 70.556 96.0467C70.973 96.1143 71.3844 96.1988 71.7901 96.3002C72.2071 96.3904 72.5847 96.52 72.9228 96.6891C73.2722 96.8469 73.5483 97.0779 73.7512 97.3822C73.9653 97.6752 74.0724 98.0641 74.0724 98.5487C74.0724 99.0671 73.9259 99.5179 73.6328 99.9011C73.3511 100.273 72.9341 100.566 72.3818 100.78C71.8409 100.983 71.1815 101.085 70.4039 101.085ZM80.8056 92.04C81.5269 92.04 82.158 92.1809 82.699 92.4627C83.2512 92.7332 83.6795 93.1502 83.9838 93.7137C84.2994 94.2772 84.4572 94.9872 84.4572 95.8438V101H83.2569V95.9621C83.2569 95.0267 83.0202 94.3223 82.5468 93.8489C82.0848 93.3643 81.4311 93.122 80.5858 93.122C79.9547 93.122 79.4024 93.2516 78.929 93.5108C78.467 93.7588 78.1063 94.1251 77.8471 94.6097C77.5991 95.083 77.4752 95.6578 77.4752 96.3341V101H76.2749V88.4561H77.4752V94.559L77.2385 94.1025C77.5203 93.4601 77.9711 92.9586 78.5909 92.5979C79.2108 92.226 79.949 92.04 80.8056 92.04ZM95.0654 101L91.0757 89.1661H92.3605L96.0967 100.307H95.4543L99.3087 89.1661H100.458L104.262 100.307H103.653L107.423 89.1661H108.624L104.634 101H103.315L99.6807 90.434H100.019L96.3672 101H95.0654ZM113.757 101.085C112.833 101.085 112.021 100.893 111.323 100.51C110.624 100.115 110.077 99.5799 109.683 98.9037C109.288 98.2162 109.091 97.4329 109.091 96.5538C109.091 95.6747 109.277 94.8971 109.649 94.2209C110.032 93.5446 110.551 93.0149 111.204 92.6317C111.869 92.2373 112.613 92.04 113.436 92.04C114.27 92.04 115.008 92.2316 115.65 92.6148C116.304 92.9868 116.817 93.5165 117.189 94.204C117.561 94.8802 117.747 95.6635 117.747 96.5538C117.747 96.6102 117.741 96.6722 117.73 96.7398C117.73 96.7961 117.73 96.8581 117.73 96.9258H110.004V96.0298H117.087L116.614 96.3848C116.614 95.7424 116.473 95.1732 116.191 94.6773C115.921 94.1701 115.549 93.7757 115.076 93.4939C114.602 93.2122 114.056 93.0713 113.436 93.0713C112.827 93.0713 112.281 93.2122 111.796 93.4939C111.311 93.7757 110.934 94.1701 110.663 94.6773C110.393 95.1845 110.257 95.7649 110.257 96.4186V96.6045C110.257 97.2808 110.404 97.8781 110.697 98.3965C111.001 98.9037 111.418 99.3038 111.948 99.5968C112.489 99.8786 113.103 100.019 113.791 100.019C114.332 100.019 114.833 99.9237 115.295 99.7321C115.769 99.5405 116.174 99.2475 116.513 98.853L117.189 99.6306C116.794 100.104 116.298 100.465 115.701 100.713C115.115 100.961 114.467 101.085 113.757 101.085ZM125.504 101V99.039L125.453 98.7177V95.4381C125.453 94.6829 125.239 94.1025 124.811 93.6968C124.394 93.2911 123.768 93.0882 122.934 93.0882C122.36 93.0882 121.813 93.184 121.295 93.3756C120.776 93.5672 120.337 93.8208 119.976 94.1363L119.435 93.2403C119.886 92.8571 120.427 92.5641 121.058 92.3612C121.689 92.1471 122.354 92.04 123.053 92.04C124.202 92.04 125.087 92.3274 125.707 92.9022C126.338 93.4657 126.654 94.3279 126.654 95.4888V101H125.504ZM122.444 101.085C121.779 101.085 121.199 100.977 120.703 100.763C120.218 100.538 119.846 100.234 119.587 99.8504C119.328 99.456 119.198 99.0051 119.198 98.498C119.198 98.0359 119.305 97.6189 119.519 97.247C119.745 96.8638 120.106 96.5595 120.601 96.3341C121.109 96.0974 121.785 95.979 122.63 95.979H125.69V96.875H122.664C121.807 96.875 121.21 97.0272 120.872 97.3315C120.545 97.6358 120.382 98.0133 120.382 98.4642C120.382 98.9713 120.579 99.3771 120.973 99.6814C121.368 99.9857 121.92 100.138 122.63 100.138C123.306 100.138 123.887 99.9857 124.371 99.6814C124.867 99.3658 125.228 98.915 125.453 98.3289L125.724 99.1573C125.498 99.7434 125.104 100.211 124.54 100.56C123.988 100.91 123.289 101.085 122.444 101.085ZM132.72 101.085C131.886 101.085 131.244 100.859 130.793 100.408C130.342 99.9575 130.117 99.3207 130.117 98.498V90.1635H131.317V98.4304C131.317 98.9488 131.447 99.3489 131.706 99.6306C131.976 99.9124 132.359 100.053 132.855 100.053C133.385 100.053 133.825 99.9011 134.174 99.5968L134.597 100.459C134.36 100.673 134.073 100.831 133.734 100.932C133.408 101.034 133.069 101.085 132.72 101.085ZM128.528 93.122V92.1246H134.022V93.122H128.528ZM141.312 92.04C142.034 92.04 142.665 92.1809 143.206 92.4627C143.758 92.7332 144.186 93.1502 144.491 93.7137C144.806 94.2772 144.964 94.9872 144.964 95.8438V101H143.764V95.9621C143.764 95.0267 143.527 94.3223 143.054 93.8489C142.592 93.3643 141.938 93.122 141.093 93.122C140.461 93.122 139.909 93.2516 139.436 93.5108C138.974 93.7588 138.613 94.1251 138.354 94.6097C138.106 95.083 137.982 95.6578 137.982 96.3341V101H136.782V88.4561H137.982V94.559L137.745 94.1025C138.027 93.4601 138.478 92.9586 139.098 92.5979C139.718 92.226 140.456 92.04 141.312 92.04ZM151.976 101.085C151.052 101.085 150.24 100.893 149.542 100.51C148.843 100.115 148.296 99.5799 147.902 98.9037C147.507 98.2162 147.31 97.4329 147.31 96.5538C147.31 95.6747 147.496 94.8971 147.868 94.2209C148.251 93.5446 148.77 93.0149 149.423 92.6317C150.088 92.2373 150.832 92.04 151.655 92.04C152.489 92.04 153.227 92.2316 153.87 92.6148C154.523 92.9868 155.036 93.5165 155.408 94.204C155.78 94.8802 155.966 95.6635 155.966 96.5538C155.966 96.6102 155.96 96.6722 155.949 96.7398C155.949 96.7961 155.949 96.8581 155.949 96.9258H148.223V96.0298H155.307L154.833 96.3848C154.833 95.7424 154.692 95.1732 154.411 94.6773C154.14 94.1701 153.768 93.7757 153.295 93.4939C152.821 93.2122 152.275 93.0713 151.655 93.0713C151.046 93.0713 150.5 93.2122 150.015 93.4939C149.53 93.7757 149.153 94.1701 148.882 94.6773C148.612 95.1845 148.477 95.7649 148.477 96.4186V96.6045C148.477 97.2808 148.623 97.8781 148.916 98.3965C149.22 98.9037 149.637 99.3038 150.167 99.5968C150.708 99.8786 151.322 100.019 152.01 100.019C152.551 100.019 153.052 99.9237 153.515 99.7321C153.988 99.5405 154.394 99.2475 154.732 98.853L155.408 99.6306C155.013 100.104 154.518 100.465 153.92 100.713C153.334 100.961 152.686 101.085 151.976 101.085ZM158.409 101V92.1246H159.559V94.5421L159.44 94.1194C159.688 93.4432 160.105 92.9304 160.691 92.581C161.277 92.2204 162.004 92.04 162.872 92.04V93.2065C162.827 93.2065 162.782 93.2065 162.737 93.2065C162.692 93.1953 162.647 93.1896 162.602 93.1896C161.666 93.1896 160.934 93.477 160.404 94.0518C159.874 94.6153 159.609 95.4212 159.609 96.4693V101H158.409ZM173.135 101.101C172.256 101.101 171.411 100.961 170.599 100.679C169.799 100.386 169.179 100.014 168.74 99.563L169.23 98.5994C169.647 99.0051 170.205 99.3489 170.904 99.6306C171.614 99.9011 172.358 100.036 173.135 100.036C173.879 100.036 174.482 99.9462 174.944 99.7659C175.417 99.5743 175.761 99.3207 175.975 99.0051C176.201 98.6896 176.313 98.3402 176.313 97.957C176.313 97.4949 176.178 97.123 175.908 96.8412C175.648 96.5595 175.305 96.3397 174.876 96.1819C174.448 96.0129 173.975 95.8663 173.456 95.7424C172.938 95.6184 172.419 95.4888 171.901 95.3535C171.383 95.207 170.904 95.0154 170.464 94.7787C170.036 94.5421 169.686 94.2321 169.416 93.8489C169.157 93.4545 169.027 92.9417 169.027 92.3105C169.027 91.7245 169.179 91.1891 169.484 90.7045C169.799 90.2086 170.278 89.8141 170.921 89.5211C171.563 89.2168 172.386 89.0647 173.389 89.0647C174.054 89.0647 174.713 89.1605 175.367 89.3521C176.02 89.5324 176.584 89.786 177.057 90.1128L176.635 91.1102C176.127 90.7721 175.586 90.5242 175.012 90.3664C174.448 90.2086 173.902 90.1297 173.372 90.1297C172.662 90.1297 172.076 90.2255 171.614 90.4171C171.152 90.6087 170.808 90.8679 170.582 91.1948C170.368 91.5103 170.261 91.871 170.261 92.2767C170.261 92.7388 170.391 93.1107 170.65 93.3925C170.921 93.6742 171.27 93.894 171.698 94.0518C172.138 94.2096 172.617 94.3505 173.135 94.4744C173.654 94.5984 174.166 94.7337 174.674 94.8802C175.192 95.0267 175.665 95.2183 176.094 95.455C176.533 95.6804 176.883 95.9847 177.142 96.3679C177.412 96.7511 177.548 97.2526 177.548 97.8725C177.548 98.4473 177.39 98.9826 177.074 99.4785C176.759 99.9631 176.274 100.358 175.62 100.662C174.978 100.955 174.149 101.101 173.135 101.101ZM182.826 101.085C181.992 101.085 181.35 100.859 180.899 100.408C180.448 99.9575 180.223 99.3207 180.223 98.498V90.1635H181.423V98.4304C181.423 98.9488 181.552 99.3489 181.812 99.6306C182.082 99.9124 182.465 100.053 182.961 100.053C183.491 100.053 183.931 99.9011 184.28 99.5968L184.703 100.459C184.466 100.673 184.178 100.831 183.84 100.932C183.514 101.034 183.175 101.085 182.826 101.085ZM178.633 93.122V92.1246H184.128V93.122H178.633ZM192.45 101V99.039L192.399 98.7177V95.4381C192.399 94.6829 192.185 94.1025 191.756 93.6968C191.339 93.2911 190.714 93.0882 189.88 93.0882C189.305 93.0882 188.758 93.184 188.24 93.3756C187.722 93.5672 187.282 93.8208 186.921 94.1363L186.38 93.2403C186.831 92.8571 187.372 92.5641 188.003 92.3612C188.634 92.1471 189.299 92.04 189.998 92.04C191.148 92.04 192.033 92.3274 192.652 92.9022C193.284 93.4657 193.599 94.3279 193.599 95.4888V101H192.45ZM189.39 101.085C188.725 101.085 188.144 100.977 187.648 100.763C187.164 100.538 186.792 100.234 186.533 99.8504C186.273 99.456 186.144 99.0051 186.144 98.498C186.144 98.0359 186.251 97.6189 186.465 97.247C186.69 96.8638 187.051 96.5595 187.547 96.3341C188.054 96.0974 188.73 95.979 189.576 95.979H192.635V96.875H189.609C188.753 96.875 188.156 97.0272 187.817 97.3315C187.491 97.6358 187.327 98.0133 187.327 98.4642C187.327 98.9713 187.524 99.3771 187.919 99.6814C188.313 99.9857 188.866 100.138 189.576 100.138C190.252 100.138 190.832 99.9857 191.317 99.6814C191.813 99.3658 192.173 98.915 192.399 98.3289L192.669 99.1573C192.444 99.7434 192.049 100.211 191.486 100.56C190.934 100.91 190.235 101.085 189.39 101.085ZM199.666 101.085C198.832 101.085 198.189 100.859 197.738 100.408C197.288 99.9575 197.062 99.3207 197.062 98.498V90.1635H198.262V98.4304C198.262 98.9488 198.392 99.3489 198.651 99.6306C198.922 99.9124 199.305 100.053 199.801 100.053C200.331 100.053 200.77 99.9011 201.119 99.5968L201.542 100.459C201.305 100.673 201.018 100.831 200.68 100.932C200.353 101.034 200.015 101.085 199.666 101.085ZM195.473 93.122V92.1246H200.967V93.122H195.473ZM203.727 101V92.1246H204.927V101H203.727ZM204.336 90.1635C204.088 90.1635 203.879 90.079 203.71 89.9099C203.541 89.7409 203.457 89.538 203.457 89.3013C203.457 89.0647 203.541 88.8674 203.71 88.7096C203.879 88.5406 204.088 88.4561 204.336 88.4561C204.584 88.4561 204.792 88.5349 204.961 88.6927C205.13 88.8505 205.215 89.0478 205.215 89.2844C205.215 89.5324 205.13 89.7409 204.961 89.9099C204.803 90.079 204.595 90.1635 204.336 90.1635ZM211.885 101.085C211.028 101.085 210.256 100.893 209.569 100.51C208.893 100.115 208.357 99.5799 207.963 98.9037C207.568 98.2162 207.371 97.4329 207.371 96.5538C207.371 95.6635 207.568 94.8802 207.963 94.204C208.357 93.5277 208.893 92.998 209.569 92.6148C210.245 92.2316 211.017 92.04 211.885 92.04C212.764 92.04 213.542 92.2316 214.218 92.6148C214.905 92.998 215.441 93.5277 215.824 94.204C216.218 94.8802 216.416 95.6635 216.416 96.5538C216.416 97.4329 216.218 98.2162 215.824 98.9037C215.441 99.5799 214.905 100.115 214.218 100.51C213.53 100.893 212.753 101.085 211.885 101.085ZM211.885 100.019C212.527 100.019 213.097 99.8786 213.592 99.5968C214.088 99.3038 214.477 98.8981 214.759 98.3796C215.052 97.8499 215.198 97.2413 215.198 96.5538C215.198 95.8551 215.052 95.2465 214.759 94.728C214.477 94.2096 214.088 93.8095 213.592 93.5277C213.097 93.2347 212.533 93.0882 211.902 93.0882C211.271 93.0882 210.707 93.2347 210.211 93.5277C209.715 93.8095 209.321 94.2096 209.028 94.728C208.735 95.2465 208.588 95.8551 208.588 96.5538C208.588 97.2413 208.735 97.8499 209.028 98.3796C209.321 98.8981 209.715 99.3038 210.211 99.5968C210.707 99.8786 211.265 100.019 211.885 100.019ZM223.397 92.04C224.118 92.04 224.749 92.1809 225.29 92.4627C225.843 92.7332 226.271 93.1502 226.575 93.7137C226.891 94.2772 227.049 94.9872 227.049 95.8438V101H225.848V95.9621C225.848 95.0267 225.612 94.3223 225.138 93.8489C224.676 93.3643 224.022 93.122 223.177 93.122C222.546 93.122 221.994 93.2516 221.52 93.5108C221.058 93.7588 220.698 94.1251 220.438 94.6097C220.19 95.083 220.067 95.6578 220.067 96.3341V101H218.866V92.1246H220.016V94.559L219.83 94.1025C220.112 93.4601 220.562 92.9586 221.182 92.5979C221.802 92.226 222.54 92.04 223.397 92.04Z" fill="white"/>
</g>
<g opacity="0.7" clip-path="url(#clip0_15_2)">
<path d="M312 54C300.421 54 291 63.4206 291 75C291 86.5794 300.421 96 312 96C323.579 96 333 86.5794 333 75C333 63.4206 323.579 54 312 54ZM319.713 76.3497L309.532 86.5318C309.159 86.9045 308.67 87.0909 308.182 87.0909C307.693 87.0909 307.205 86.9046 306.832 86.5317C306.086 85.7862 306.086 84.5774 306.832 83.8318L315.664 74.9996L306.832 66.1679C306.086 65.4225 306.086 64.2136 306.832 63.4681C307.577 62.7225 308.786 62.7225 309.532 63.4681L319.714 73.6496C320.072 74.0077 320.273 74.4932 320.273 74.9995C320.273 75.506 320.072 75.9917 319.713 76.3497Z" fill="white"/>
</g>
<defs>
<filter id="filter0_d_15_2" x="0" y="0" width="391.848" height="158" filterUnits="userSpaceOnUse" color-interpolation-filters="sRGB">
<feFlood flood-opacity="0" result="BackgroundImageFix"/>
<feColorMatrix in="SourceAlpha" type="matrix" values="0 0 0 0 0 0 0 0 0 0 0 0 0 0 0 0 0 0 127 0" result="hardAlpha"/>
<feOffset dy="4"/>
<feGaussianBlur stdDeviation="2"/>
<feComposite in2="hardAlpha" operator="out"/>
<feColorMatrix type="matrix" values="0 0 0 0 0 0 0 0 0 0 0 0 0 0 0 0 0 0 0.25 0"/>
<feBlend mode="normal" in2="BackgroundImageFix" result="effect1_dropShadow_15_2"/>
<feBlend mode="normal" in="SourceGraphic" in2="effect1_dropShadow_15_2" result="shape"/>
</filter>
<filter id="filter1_d_15_2" x="28.9272" y="88.4561" width="202.121" height="20.6454" filterUnits="userSpaceOnUse" color-interpolation-filters="sRGB">
<feFlood flood-opacity="0" result="BackgroundImageFix"/>
<feColorMatrix in="SourceAlpha" type="matrix" values="0 0 0 0 0 0 0 0 0 0 0 0 0 0 0 0 0 0 127 0" result="hardAlpha"/>
<feOffset dy="4"/>
<feGaussianBlur stdDeviation="2"/>
<feComposite in2="hardAlpha" operator="out"/>
<feColorMatrix type="matrix" values="0 0 0 0 0 0 0 0 0 0 0 0 0 0 0 0 0 0 0.25 0"/>
<feBlend mode="normal" in2="BackgroundImageFix" result="effect1_dropShadow_15_2"/>
<feBlend mode="normal" in="SourceGraphic" in2="effect1_dropShadow_15_2" result="shape"/>
</filter>
<linearGradient id="paint0_linear_15_2" x1="195.924" y1="9" x2="195.924" y2="141" gradientUnits="userSpaceOnUse">
<stop stop-color="#7CB8FF" stop-opacity="0.46"/>
<stop offset="1" stop-color="#F8FBFF" stop-opacity="0.45"/>
</linearGradient>
<clipPath id="clip0_15_2">
<rect width="42" height="42" fill="white" transform="translate(291 54)"/>
</clipPath>
</defs>
</svg>
