<svg width="320" height="133" viewBox="0 0 320 133" fill="none" xmlns="http://www.w3.org/2000/svg">
<g filter="url(#filter0_d_77_30)">
<path d="M13 104.077V20C13 13.9249 17.9249 9 24 9H296C302.075 9 307 13.9249 307 20V104.077C307 110.152 302.075 115.077 296 115.077H24C17.9249 115.077 13 110.152 13 104.077Z" fill="url(#paint0_linear_77_30)" fill-opacity="0.42"/>
<path d="M8.5 20V104.077C8.5 112.637 15.4396 119.577 24 119.577H296C304.56 119.577 311.5 112.637 311.5 104.077V20C311.5 11.4396 304.56 4.5 296 4.5H24C15.4396 4.5 8.5 11.4396 8.5 20Z" stroke="#999999" stroke-opacity="0.23" stroke-width="9" stroke-linejoin="round"/>
<path d="M30.2834 67.1687V47.1687H39.6548C42.0548 47.1687 43.8834 47.6449 45.1405 48.5972C46.3977 49.5306 47.0262 50.7877 47.0262 52.3687C47.0262 53.4353 46.7786 54.3496 46.2834 55.1115C45.7881 55.8544 45.1215 56.4353 44.2834 56.8544C43.4643 57.2544 42.5691 57.4544 41.5977 57.4544L42.1119 56.4258C43.2358 56.4258 44.2453 56.6353 45.1405 57.0544C46.0358 57.4544 46.7405 58.0449 47.2548 58.8258C47.7881 59.6068 48.0548 60.5782 48.0548 61.7401C48.0548 63.4544 47.3977 64.7877 46.0834 65.7401C44.7691 66.6925 42.8167 67.1687 40.2262 67.1687H30.2834ZM33.9977 64.2544H39.9977C41.3881 64.2544 42.4548 64.0258 43.1977 63.5687C43.9405 63.1115 44.3119 62.3782 44.3119 61.3687C44.3119 60.3782 43.9405 59.6544 43.1977 59.1972C42.4548 58.721 41.3881 58.483 39.9977 58.483H33.7119V55.5972H39.2548C40.55 55.5972 41.5405 55.3687 42.2262 54.9115C42.931 54.4544 43.2834 53.7687 43.2834 52.8544C43.2834 51.921 42.931 51.2258 42.2262 50.7687C41.5405 50.3115 40.55 50.0829 39.2548 50.0829H33.9977V64.2544ZM58.5331 67.3687C56.9712 67.3687 55.5808 67.0353 54.3617 66.3687C53.1427 65.683 52.1808 64.7496 51.476 63.5687C50.7712 62.3877 50.4189 61.0449 50.4189 59.5401C50.4189 58.0163 50.7712 56.6734 51.476 55.5115C52.1808 54.3306 53.1427 53.4068 54.3617 52.7401C55.5808 52.0734 56.9712 51.7401 58.5331 51.7401C60.1141 51.7401 61.5141 52.0734 62.7331 52.7401C63.9712 53.4068 64.9331 54.321 65.6189 55.483C66.3236 56.6449 66.676 57.9972 66.676 59.5401C66.676 61.0449 66.3236 62.3877 65.6189 63.5687C64.9331 64.7496 63.9712 65.683 62.7331 66.3687C61.5141 67.0353 60.1141 67.3687 58.5331 67.3687ZM58.5331 64.3115C59.4093 64.3115 60.1903 64.121 60.876 63.7401C61.5617 63.3591 62.0951 62.8068 62.476 62.083C62.876 61.3591 63.076 60.5115 63.076 59.5401C63.076 58.5496 62.876 57.702 62.476 56.9972C62.0951 56.2734 61.5617 55.721 60.876 55.3401C60.1903 54.9591 59.4189 54.7687 58.5617 54.7687C57.6855 54.7687 56.9046 54.9591 56.2189 55.3401C55.5522 55.721 55.0189 56.2734 54.6189 56.9972C54.2189 57.702 54.0189 58.5496 54.0189 59.5401C54.0189 60.5115 54.2189 61.3591 54.6189 62.083C55.0189 62.8068 55.5522 63.3591 56.2189 63.7401C56.9046 64.121 57.676 64.3115 58.5331 64.3115ZM70.0912 67.1687V51.9115H73.4912V56.1115L73.0912 54.883C73.5483 53.8544 74.2626 53.0734 75.234 52.5401C76.2245 52.0068 77.4531 51.7401 78.9198 51.7401V55.1401C78.7674 55.102 78.6245 55.083 78.4912 55.083C78.3578 55.0639 78.2245 55.0544 78.0912 55.0544C76.7388 55.0544 75.6626 55.4544 74.8626 56.2544C74.0626 57.0353 73.6626 58.2068 73.6626 59.7687V67.1687H70.0912ZM81.9494 67.1687V51.9115H85.5209V67.1687H81.9494ZM83.7494 49.3972C83.0828 49.3972 82.5304 49.1877 82.0923 48.7687C81.6732 48.3496 81.4637 47.8449 81.4637 47.2544C81.4637 46.6449 81.6732 46.1401 82.0923 45.7401C82.5304 45.321 83.0828 45.1115 83.7494 45.1115C84.4161 45.1115 84.959 45.3115 85.378 45.7115C85.8161 46.0925 86.0352 46.5782 86.0352 47.1687C86.0352 47.7972 85.8256 48.3306 85.4066 48.7687C84.9875 49.1877 84.4352 49.3972 83.7494 49.3972ZM98.8655 51.7401C100.085 51.7401 101.17 51.9782 102.123 52.4544C103.094 52.9306 103.856 53.6639 104.408 54.6544C104.961 55.6258 105.237 56.883 105.237 58.4258V67.1687H101.666V58.883C101.666 57.5306 101.342 56.521 100.694 55.8544C100.066 55.1877 99.1798 54.8544 98.0369 54.8544C97.1988 54.8544 96.456 55.0258 95.8084 55.3687C95.1608 55.7115 94.656 56.2258 94.2941 56.9115C93.9512 57.5782 93.7798 58.4258 93.7798 59.4544V67.1687H90.2084V51.9115H93.6084V56.0258L93.0084 54.7687C93.5417 53.7972 94.3131 53.0544 95.3227 52.5401C96.3512 52.0068 97.5322 51.7401 98.8655 51.7401ZM116.71 72.9115C115.3 72.9115 113.919 72.721 112.567 72.3401C111.234 71.9782 110.138 71.4449 109.281 70.7401L110.881 68.0544C111.548 68.6068 112.386 69.0449 113.395 69.3687C114.424 69.7115 115.462 69.883 116.51 69.883C118.186 69.883 119.414 69.4925 120.195 68.7115C120.976 67.9496 121.367 66.7972 121.367 65.2544V62.5401L121.653 59.083L121.538 55.6258V51.9115H124.938V64.8544C124.938 67.6163 124.234 69.6449 122.824 70.9401C121.414 72.2544 119.376 72.9115 116.71 72.9115ZM116.253 66.483C114.805 66.483 113.491 66.1782 112.31 65.5687C111.148 64.9401 110.224 64.0734 109.538 62.9687C108.872 61.8639 108.538 60.5687 108.538 59.083C108.538 57.6163 108.872 56.3306 109.538 55.2258C110.224 54.121 111.148 53.2639 112.31 52.6544C113.491 52.0449 114.805 51.7401 116.253 51.7401C117.548 51.7401 118.71 51.9972 119.738 52.5115C120.767 53.0258 121.586 53.8258 122.195 54.9115C122.824 55.9972 123.138 57.3877 123.138 59.083C123.138 60.7782 122.824 62.1782 122.195 63.283C121.586 64.3687 120.767 65.1782 119.738 65.7115C118.71 66.2258 117.548 66.483 116.253 66.483ZM116.795 63.4544C117.691 63.4544 118.491 63.2734 119.195 62.9115C119.9 62.5306 120.443 62.0163 120.824 61.3687C121.224 60.702 121.424 59.9401 121.424 59.083C121.424 58.2258 121.224 57.4734 120.824 56.8258C120.443 56.1591 119.9 55.6544 119.195 55.3115C118.491 54.9496 117.691 54.7687 116.795 54.7687C115.9 54.7687 115.091 54.9496 114.367 55.3115C113.662 55.6544 113.11 56.1591 112.71 56.8258C112.329 57.4734 112.138 58.2258 112.138 59.083C112.138 59.9401 112.329 60.702 112.71 61.3687C113.11 62.0163 113.662 62.5306 114.367 62.9115C115.091 63.2734 115.9 63.4544 116.795 63.4544Z" fill="white"/>
<g filter="url(#filter1_d_77_30)">
<path d="M29.5249 91.2032V79.3693H30.7759V90.1213H37.4029V91.2032H29.5249ZM42.8643 91.2878C41.9402 91.2878 41.1287 91.0962 40.4299 90.713C39.7312 90.3185 39.1845 89.7832 38.7901 89.1069C38.3956 88.4195 38.1984 87.6362 38.1984 86.7571C38.1984 85.878 38.3843 85.1003 38.7563 84.4241C39.1395 83.7479 39.6579 83.2182 40.3116 82.835C40.9765 82.4405 41.7204 82.2433 42.5431 82.2433C43.3771 82.2433 44.1153 82.4349 44.7577 82.8181C45.4114 83.19 45.9242 83.7197 46.2962 84.4072C46.6681 85.0834 46.854 85.8667 46.854 86.7571C46.854 86.8134 46.8484 86.8754 46.8371 86.943C46.8371 86.9994 46.8371 87.0614 46.8371 87.129H39.1113V86.233H46.1947L45.7214 86.588C45.7214 85.9456 45.5805 85.3764 45.2987 84.8806C45.0282 84.3734 44.6563 83.9789 44.183 83.6972C43.7096 83.4154 43.163 83.2745 42.5431 83.2745C41.9345 83.2745 41.3879 83.4154 40.9033 83.6972C40.4186 83.9789 40.0411 84.3734 39.7706 84.8806C39.5001 85.3877 39.3649 85.9681 39.3649 86.6218V86.8078C39.3649 87.484 39.5114 88.0813 39.8044 88.5998C40.1087 89.1069 40.5257 89.507 41.0554 89.8001C41.5964 90.0818 42.2106 90.2227 42.8981 90.2227C43.4391 90.2227 43.9406 90.1269 44.4027 89.9353C44.8761 89.7437 45.2818 89.4507 45.6199 89.0562L46.2962 89.8339C45.9017 90.3072 45.4058 90.6679 44.8085 90.9158C44.2224 91.1638 43.5744 91.2878 42.8643 91.2878ZM52.9826 91.2878C52.1035 91.2878 51.3146 91.0962 50.6158 90.713C49.9283 90.3185 49.3873 89.7832 48.9929 89.1069C48.5984 88.4195 48.4012 87.6362 48.4012 86.7571C48.4012 85.8667 48.5984 85.0834 48.9929 84.4072C49.3873 83.731 49.9283 83.2013 50.6158 82.8181C51.3146 82.4349 52.1035 82.2433 52.9826 82.2433C53.7377 82.2433 54.4196 82.3898 55.0282 82.6828C55.6368 82.9759 56.1157 83.4154 56.4651 84.0015L55.5691 84.6101C55.2648 84.1592 54.8873 83.8268 54.4365 83.6126C53.9856 83.3985 53.4954 83.2914 52.9657 83.2914C52.3345 83.2914 51.7654 83.4379 51.2582 83.731C50.751 84.0127 50.3509 84.4128 50.0579 84.9313C49.7649 85.4497 49.6184 86.0583 49.6184 86.7571C49.6184 87.4558 49.7649 88.0644 50.0579 88.5829C50.3509 89.1013 50.751 89.507 51.2582 89.8001C51.7654 90.0818 52.3345 90.2227 52.9657 90.2227C53.4954 90.2227 53.9856 90.1156 54.4365 89.9015C54.8873 89.6874 55.2648 89.3605 55.5691 88.921L56.4651 89.5296C56.1157 90.1044 55.6368 90.5439 55.0282 90.8482C54.4196 91.1413 53.7377 91.2878 52.9826 91.2878ZM61.7284 91.2878C60.8944 91.2878 60.252 91.0624 59.8012 90.6115C59.3504 90.1607 59.125 89.524 59.125 88.7012V80.3668H60.3253V88.6336C60.3253 89.152 60.4549 89.5521 60.7141 89.8339C60.9846 90.1156 61.3678 90.2565 61.8637 90.2565C62.3934 90.2565 62.8329 90.1044 63.1823 89.8001L63.605 90.6623C63.3683 90.8764 63.0809 91.0342 62.7428 91.1356C62.4159 91.2371 62.0778 91.2878 61.7284 91.2878ZM57.5359 83.3252V82.3278H63.0302V83.3252H57.5359ZM69.4585 91.2878C68.7034 91.2878 68.0441 91.1469 67.4806 90.8651C66.9171 90.5834 66.4775 90.1607 66.1619 89.5972C65.8576 89.0337 65.7055 88.3293 65.7055 87.484V82.3278H66.9058V87.3488C66.9058 88.2955 67.1368 89.0111 67.5989 89.4958C68.0723 89.9691 68.7316 90.2058 69.5769 90.2058C70.1967 90.2058 70.7321 90.0818 71.1829 89.8339C71.645 89.5747 71.9944 89.2027 72.231 88.7181C72.479 88.2335 72.603 87.6531 72.603 86.9768V82.3278H73.8033V91.2032H72.6537V88.7688L72.8396 89.2084C72.5579 89.8621 72.1183 90.3749 71.521 90.7468C70.9349 91.1074 70.2475 91.2878 69.4585 91.2878ZM77.1485 91.2032V82.3278H78.298V84.7453L78.1797 84.3227C78.4276 83.6464 78.8446 83.1336 79.4307 82.7843C80.0168 82.4236 80.7437 82.2433 81.6115 82.2433V83.4098C81.5664 83.4098 81.5214 83.4098 81.4763 83.4098C81.4312 83.3985 81.3861 83.3929 81.341 83.3929C80.4056 83.3929 79.673 83.6803 79.1433 84.255C78.6136 84.8186 78.3487 85.6244 78.3487 86.6725V91.2032H77.1485ZM87.4891 91.2878C86.565 91.2878 85.7535 91.0962 85.0547 90.713C84.356 90.3185 83.8093 89.7832 83.4149 89.1069C83.0204 88.4195 82.8232 87.6362 82.8232 86.7571C82.8232 85.878 83.0091 85.1003 83.3811 84.4241C83.7643 83.7479 84.2827 83.2182 84.9364 82.835C85.6013 82.4405 86.3452 82.2433 87.1679 82.2433C88.0019 82.2433 88.7401 82.4349 89.3825 82.8181C90.0362 83.19 90.549 83.7197 90.921 84.4072C91.2929 85.0834 91.4788 85.8667 91.4788 86.7571C91.4788 86.8134 91.4732 86.8754 91.4619 86.943C91.4619 86.9994 91.4619 87.0614 91.4619 87.129H83.7361V86.233H90.8195L90.3462 86.588C90.3462 85.9456 90.2053 85.3764 89.9235 84.8806C89.653 84.3734 89.2811 83.9789 88.8078 83.6972C88.3344 83.4154 87.7878 83.2745 87.1679 83.2745C86.5593 83.2745 86.0127 83.4154 85.5281 83.6972C85.0434 83.9789 84.6659 84.3734 84.3954 84.8806C84.1249 85.3877 83.9897 85.9681 83.9897 86.6218V86.8078C83.9897 87.484 84.1362 88.0813 84.4292 88.5998C84.7335 89.1069 85.1505 89.507 85.6802 89.8001C86.2212 90.0818 86.8354 90.2227 87.5229 90.2227C88.0639 90.2227 88.5654 90.1269 89.0275 89.9353C89.5009 89.7437 89.9066 89.4507 90.2447 89.0562L90.921 89.8339C90.5265 90.3072 90.0306 90.6679 89.4333 90.9158C88.8472 91.1638 88.1992 91.2878 87.4891 91.2878ZM96.3056 91.2878C95.5731 91.2878 94.8799 91.1863 94.2263 90.9835C93.5726 90.7693 93.0598 90.5045 92.6879 90.1889L93.2288 89.2422C93.5895 89.5127 94.0516 89.7494 94.6151 89.9522C95.1786 90.1438 95.7703 90.2396 96.3902 90.2396C97.2355 90.2396 97.8441 90.11 98.216 89.8508C98.5879 89.5803 98.7739 89.2253 98.7739 88.7857C98.7739 88.4589 98.6668 88.2053 98.4527 88.025C98.2498 87.8334 97.9793 87.6925 97.6412 87.6023C97.3031 87.5009 96.9255 87.4164 96.5085 87.3488C96.0915 87.2811 95.6745 87.2023 95.2575 87.1121C94.8518 87.0219 94.4798 86.8923 94.1417 86.7233C93.8036 86.5429 93.5275 86.3006 93.3134 85.9963C93.1105 85.692 93.0091 85.2863 93.0091 84.7791C93.0091 84.2945 93.1443 83.8606 93.4148 83.4774C93.6853 83.0942 94.0797 82.7955 94.5982 82.5814C95.1279 82.356 95.7703 82.2433 96.5254 82.2433C97.1002 82.2433 97.675 82.3222 98.2498 82.48C98.8246 82.6265 99.2979 82.8237 99.6699 83.0717L99.1458 84.0353C98.7513 83.7648 98.3287 83.5732 97.8779 83.4605C97.4271 83.3365 96.9762 83.2745 96.5254 83.2745C95.7252 83.2745 95.1335 83.4154 94.7503 83.6972C94.3784 83.9676 94.1924 84.317 94.1924 84.7453C94.1924 85.0834 94.2939 85.3483 94.4967 85.5399C94.7109 85.7315 94.987 85.8836 95.3251 85.9963C95.6745 86.0978 96.0521 86.1823 96.4578 86.2499C96.8748 86.3175 97.2862 86.4021 97.6919 86.5035C98.1089 86.5936 98.4865 86.7233 98.8246 86.8923C99.174 87.0501 99.4501 87.2811 99.653 87.5854C99.8671 87.8785 99.9742 88.2673 99.9742 88.7519C99.9742 89.2704 99.8276 89.7212 99.5346 90.1044C99.2529 90.4763 98.8358 90.7693 98.2836 90.9835C97.7426 91.1863 97.0833 91.2878 96.3056 91.2878Z" fill="white"/>
</g>
<g opacity="0.7" clip-path="url(#clip0_77_30)">
<path d="M253.28 50.0285C243.975 50.0285 236.405 57.599 236.405 66.9044C236.405 76.2097 243.975 83.7803 253.28 83.7803C262.586 83.7803 270.156 76.2097 270.156 66.9044C270.156 57.599 262.586 50.0285 253.28 50.0285ZM259.479 67.989L251.297 76.1715C250.997 76.471 250.605 76.6208 250.212 76.6208C249.819 76.6208 249.427 76.4711 249.127 76.1714C248.528 75.5723 248.528 74.6009 249.127 74.0018L256.225 66.9041L249.127 59.8068C248.528 59.2078 248.528 58.2363 249.127 57.6372C249.726 57.038 250.698 57.038 251.297 57.6372L259.479 65.8192C259.767 66.1069 259.929 66.4971 259.929 66.904C259.928 67.311 259.767 67.7013 259.479 67.989Z" fill="white"/>
</g>
</g>
<defs>
<filter id="filter0_d_77_30" x="0" y="0" width="320" height="132.077" filterUnits="userSpaceOnUse" color-interpolation-filters="sRGB">
<feFlood flood-opacity="0" result="BackgroundImageFix"/>
<feColorMatrix in="SourceAlpha" type="matrix" values="0 0 0 0 0 0 0 0 0 0 0 0 0 0 0 0 0 0 127 0" result="hardAlpha"/>
<feOffset dy="4"/>
<feGaussianBlur stdDeviation="2"/>
<feComposite in2="hardAlpha" operator="out"/>
<feColorMatrix type="matrix" values="0 0 0 0 0 0 0 0 0 0 0 0 0 0 0 0 0 0 0.25 0"/>
<feBlend mode="normal" in2="BackgroundImageFix" result="effect1_dropShadow_77_30"/>
<feBlend mode="normal" in="SourceGraphic" in2="effect1_dropShadow_77_30" result="shape"/>
</filter>
<filter id="filter1_d_77_30" x="25.5249" y="79.3693" width="78.4492" height="19.9184" filterUnits="userSpaceOnUse" color-interpolation-filters="sRGB">
<feFlood flood-opacity="0" result="BackgroundImageFix"/>
<feColorMatrix in="SourceAlpha" type="matrix" values="0 0 0 0 0 0 0 0 0 0 0 0 0 0 0 0 0 0 127 0" result="hardAlpha"/>
<feOffset dy="4"/>
<feGaussianBlur stdDeviation="2"/>
<feComposite in2="hardAlpha" operator="out"/>
<feColorMatrix type="matrix" values="0 0 0 0 0 0 0 0 0 0 0 0 0 0 0 0 0 0 0.25 0"/>
<feBlend mode="normal" in2="BackgroundImageFix" result="effect1_dropShadow_77_30"/>
<feBlend mode="normal" in="SourceGraphic" in2="effect1_dropShadow_77_30" result="shape"/>
</filter>
<linearGradient id="paint0_linear_77_30" x1="160" y1="9" x2="160" y2="115.077" gradientUnits="userSpaceOnUse">
<stop stop-color="#7CB8FF" stop-opacity="0.46"/>
<stop offset="1" stop-color="#F8FBFF" stop-opacity="0.45"/>
</linearGradient>
<clipPath id="clip0_77_30">
<rect width="33.7517" height="33.7517" fill="white" transform="translate(236.405 50.0285)"/>
</clipPath>
</defs>
</svg>
