<svg width="366" height="132" viewBox="0 0 366 132" fill="none" xmlns="http://www.w3.org/2000/svg">
<path d="M0 121V11C0 4.92487 4.92486 0 11 0H354.848C360.923 0 365.848 4.92487 365.848 11V121C365.848 127.075 360.923 132 354.848 132H11C4.92487 132 0 127.075 0 121Z" fill="url(#paint0_linear_15_2)" fill-opacity="0.42"/>
<path d="M20.6857 59V39H28.9143C30.6857 39 32.2 39.2857 33.4571 39.8571C34.7333 40.4286 35.7143 41.2476 36.4 42.3143C37.0857 43.381 37.4286 44.6476 37.4286 46.1143C37.4286 47.581 37.0857 48.8476 36.4 49.9143C35.7143 50.981 34.7333 51.8 33.4571 52.3714C32.2 52.9429 30.6857 53.2286 28.9143 53.2286H22.7429L24.4 51.4857V59H20.6857ZM24.4 51.8857L22.7429 50.0857H28.7429C30.381 50.0857 31.6095 49.7429 32.4286 49.0571C33.2667 48.3524 33.6857 47.3714 33.6857 46.1143C33.6857 44.8381 33.2667 43.8571 32.4286 43.1714C31.6095 42.4857 30.381 42.1429 28.7429 42.1429H22.7429L24.4 40.3143V51.8857ZM47.5962 59.2C46.0343 59.2 44.6438 58.8667 43.4248 58.2C42.2057 57.5143 41.2438 56.581 40.5391 55.4C39.8343 54.219 39.4819 52.8762 39.4819 51.3714C39.4819 49.8476 39.8343 48.5048 40.5391 47.3429C41.2438 46.1619 42.2057 45.2381 43.4248 44.5714C44.6438 43.9048 46.0343 43.5714 47.5962 43.5714C49.1772 43.5714 50.5772 43.9048 51.7962 44.5714C53.0343 45.2381 53.9962 46.1524 54.6819 47.3143C55.3867 48.4762 55.7391 49.8286 55.7391 51.3714C55.7391 52.8762 55.3867 54.219 54.6819 55.4C53.9962 56.581 53.0343 57.5143 51.7962 58.2C50.5772 58.8667 49.1772 59.2 47.5962 59.2ZM47.5962 56.1429C48.4724 56.1429 49.2533 55.9524 49.9391 55.5714C50.6248 55.1905 51.1581 54.6381 51.5391 53.9143C51.9391 53.1905 52.1391 52.3429 52.1391 51.3714C52.1391 50.381 51.9391 49.5333 51.5391 48.8286C51.1581 48.1048 50.6248 47.5524 49.9391 47.1714C49.2533 46.7905 48.4819 46.6 47.6248 46.6C46.7486 46.6 45.9676 46.7905 45.2819 47.1714C44.6153 47.5524 44.0819 48.1048 43.6819 48.8286C43.2819 49.5333 43.0819 50.381 43.0819 51.3714C43.0819 52.3429 43.2819 53.1905 43.6819 53.9143C44.0819 54.6381 44.6153 55.1905 45.2819 55.5714C45.9676 55.9524 46.7391 56.1429 47.5962 56.1429ZM59.1542 59V43.7429H62.5542V47.9429L62.1542 46.7143C62.6114 45.6857 63.3257 44.9048 64.2971 44.3714C65.2876 43.8381 66.5161 43.5714 67.9828 43.5714V46.9714C67.8304 46.9333 67.6876 46.9143 67.5542 46.9143C67.4209 46.8952 67.2876 46.8857 67.1542 46.8857C65.8019 46.8857 64.7257 47.2857 63.9257 48.0857C63.1257 48.8667 62.7257 50.0381 62.7257 51.6V59H59.1542ZM77.3134 59.2C75.6372 59.2 74.342 58.7714 73.4277 57.9143C72.5134 57.0381 72.0562 55.7524 72.0562 54.0571V40.3714H75.6277V53.9714C75.6277 54.6952 75.8086 55.2571 76.1705 55.6571C76.5515 56.0571 77.0753 56.2571 77.742 56.2571C78.542 56.2571 79.2086 56.0476 79.742 55.6286L80.742 58.1714C80.3229 58.5143 79.8086 58.7714 79.1991 58.9429C78.5896 59.1143 77.961 59.2 77.3134 59.2ZM69.542 46.7143V43.8571H79.7134V46.7143H69.542ZM95.319 48.2H105.29V51.3429H95.319V48.2ZM95.6333 59H91.919V39H106.519V42.1143H95.6333V59ZM116.207 59.2C114.645 59.2 113.254 58.8667 112.035 58.2C110.816 57.5143 109.854 56.581 109.15 55.4C108.445 54.219 108.092 52.8762 108.092 51.3714C108.092 49.8476 108.445 48.5048 109.15 47.3429C109.854 46.1619 110.816 45.2381 112.035 44.5714C113.254 43.9048 114.645 43.5714 116.207 43.5714C117.788 43.5714 119.188 43.9048 120.407 44.5714C121.645 45.2381 122.607 46.1524 123.292 47.3143C123.997 48.4762 124.35 49.8286 124.35 51.3714C124.35 52.8762 123.997 54.219 123.292 55.4C122.607 56.581 121.645 57.5143 120.407 58.2C119.188 58.8667 117.788 59.2 116.207 59.2ZM116.207 56.1429C117.083 56.1429 117.864 55.9524 118.55 55.5714C119.235 55.1905 119.769 54.6381 120.15 53.9143C120.55 53.1905 120.75 52.3429 120.75 51.3714C120.75 50.381 120.55 49.5333 120.15 48.8286C119.769 48.1048 119.235 47.5524 118.55 47.1714C117.864 46.7905 117.092 46.6 116.235 46.6C115.359 46.6 114.578 46.7905 113.892 47.1714C113.226 47.5524 112.692 48.1048 112.292 48.8286C111.892 49.5333 111.692 50.381 111.692 51.3714C111.692 52.3429 111.892 53.1905 112.292 53.9143C112.692 54.6381 113.226 55.1905 113.892 55.5714C114.578 55.9524 115.35 56.1429 116.207 56.1429ZM127.765 59V43.7429H131.165V47.9429L130.765 46.7143C131.222 45.6857 131.936 44.9048 132.908 44.3714C133.898 43.8381 135.127 43.5714 136.593 43.5714V46.9714C136.441 46.9333 136.298 46.9143 136.165 46.9143C136.031 46.8952 135.898 46.8857 135.765 46.8857C134.412 46.8857 133.336 47.2857 132.536 48.0857C131.736 48.8667 131.336 50.0381 131.336 51.6V59H127.765ZM146.655 59.2C144.96 59.2 143.474 58.8667 142.198 58.2C140.941 57.5143 139.96 56.581 139.255 55.4C138.569 54.219 138.226 52.8762 138.226 51.3714C138.226 49.8476 138.56 48.5048 139.226 47.3429C139.912 46.1619 140.845 45.2381 142.026 44.5714C143.226 43.9048 144.588 43.5714 146.112 43.5714C147.598 43.5714 148.922 43.8952 150.083 44.5429C151.245 45.1905 152.16 46.1048 152.826 47.2857C153.493 48.4667 153.826 49.8571 153.826 51.4571C153.826 51.6095 153.817 51.781 153.798 51.9714C153.798 52.1619 153.788 52.3429 153.769 52.5143H141.055V50.1429H151.883L150.483 50.8857C150.503 50.0095 150.322 49.2381 149.941 48.5714C149.56 47.9048 149.036 47.381 148.369 47C147.722 46.619 146.969 46.4286 146.112 46.4286C145.236 46.4286 144.464 46.619 143.798 47C143.15 47.381 142.636 47.9143 142.255 48.6C141.893 49.2667 141.712 50.0571 141.712 50.9714V51.5429C141.712 52.4571 141.922 53.2667 142.341 53.9714C142.76 54.6762 143.35 55.219 144.112 55.6C144.874 55.981 145.75 56.1714 146.741 56.1714C147.598 56.1714 148.369 56.0381 149.055 55.7714C149.741 55.5048 150.35 55.0857 150.883 54.5143L152.798 56.7143C152.112 57.5143 151.245 58.1333 150.198 58.5714C149.169 58.9905 147.988 59.2 146.655 59.2ZM164.257 59.2C162.657 59.2 161.228 58.8667 159.971 58.2C158.733 57.5143 157.762 56.581 157.057 55.4C156.352 54.219 156 52.8762 156 51.3714C156 49.8476 156.352 48.5048 157.057 47.3429C157.762 46.1619 158.733 45.2381 159.971 44.5714C161.228 43.9048 162.657 43.5714 164.257 43.5714C165.743 43.5714 167.047 43.8762 168.171 44.4857C169.314 45.0762 170.181 45.9524 170.771 47.1143L168.028 48.7143C167.571 47.9905 167.009 47.4571 166.343 47.1143C165.695 46.7714 164.99 46.6 164.228 46.6C163.352 46.6 162.562 46.7905 161.857 47.1714C161.152 47.5524 160.6 48.1048 160.2 48.8286C159.8 49.5333 159.6 50.381 159.6 51.3714C159.6 52.3619 159.8 53.219 160.2 53.9429C160.6 54.6476 161.152 55.1905 161.857 55.5714C162.562 55.9524 163.352 56.1429 164.228 56.1429C164.99 56.1429 165.695 55.9714 166.343 55.6286C167.009 55.2857 167.571 54.7524 168.028 54.0286L170.771 55.6286C170.181 56.7714 169.314 57.6571 168.171 58.2857C167.047 58.8952 165.743 59.2 164.257 59.2ZM183.258 59V55.9143L183.058 55.2571V49.8571C183.058 48.8095 182.744 48 182.116 47.4286C181.487 46.8381 180.535 46.5429 179.258 46.5429C178.401 46.5429 177.554 46.6762 176.716 46.9429C175.897 47.2095 175.201 47.581 174.63 48.0571L173.23 45.4571C174.049 44.8286 175.02 44.3619 176.144 44.0571C177.287 43.7333 178.468 43.5714 179.687 43.5714C181.897 43.5714 183.601 44.1048 184.801 45.1714C186.02 46.219 186.63 47.8476 186.63 50.0571V59H183.258ZM178.458 59.2C177.316 59.2 176.316 59.0095 175.458 58.6286C174.601 58.2286 173.935 57.6857 173.458 57C173.001 56.2952 172.773 55.5048 172.773 54.6286C172.773 53.7714 172.973 53 173.373 52.3143C173.792 51.6286 174.468 51.0857 175.401 50.6857C176.335 50.2857 177.573 50.0857 179.116 50.0857H183.544V52.4571H179.373C178.154 52.4571 177.335 52.6571 176.916 53.0571C176.497 53.4381 176.287 53.9143 176.287 54.4857C176.287 55.1333 176.544 55.6476 177.058 56.0286C177.573 56.4095 178.287 56.6 179.201 56.6C180.078 56.6 180.858 56.4 181.544 56C182.249 55.6 182.754 55.0095 183.058 54.2286L183.658 56.3714C183.316 57.2667 182.697 57.9619 181.801 58.4571C180.925 58.9524 179.811 59.2 178.458 59.2ZM195.928 59.2C194.651 59.2 193.423 59.0381 192.242 58.7143C191.08 58.3714 190.156 57.9619 189.471 57.4857L190.842 54.7714C191.528 55.2095 192.347 55.5714 193.299 55.8571C194.251 56.1429 195.204 56.2857 196.156 56.2857C197.28 56.2857 198.09 56.1333 198.585 55.8286C199.099 55.5238 199.356 55.1143 199.356 54.6C199.356 54.181 199.185 53.8667 198.842 53.6571C198.499 53.4286 198.051 53.2571 197.499 53.1429C196.947 53.0286 196.328 52.9238 195.642 52.8286C194.975 52.7333 194.299 52.6095 193.613 52.4571C192.947 52.2857 192.337 52.0476 191.785 51.7429C191.232 51.419 190.785 50.9905 190.442 50.4571C190.099 49.9238 189.928 49.219 189.928 48.3429C189.928 47.3714 190.204 46.5333 190.756 45.8286C191.309 45.1048 192.08 44.5524 193.071 44.1714C194.08 43.7714 195.271 43.5714 196.642 43.5714C197.671 43.5714 198.709 43.6857 199.756 43.9143C200.804 44.1429 201.671 44.4667 202.356 44.8857L200.985 47.6C200.261 47.1619 199.528 46.8667 198.785 46.7143C198.061 46.5429 197.337 46.4571 196.613 46.4571C195.528 46.4571 194.718 46.619 194.185 46.9429C193.671 47.2667 193.413 47.6762 193.413 48.1714C193.413 48.6286 193.585 48.9714 193.928 49.2C194.271 49.4286 194.718 49.6095 195.271 49.7429C195.823 49.8762 196.432 49.9905 197.099 50.0857C197.785 50.1619 198.461 50.2857 199.128 50.4571C199.794 50.6286 200.404 50.8667 200.956 51.1714C201.528 51.4571 201.985 51.8667 202.328 52.4C202.671 52.9333 202.842 53.6286 202.842 54.4857C202.842 55.4381 202.556 56.2667 201.985 56.9714C201.432 57.6762 200.642 58.2286 199.613 58.6286C198.585 59.0095 197.356 59.2 195.928 59.2ZM211.66 59.2C209.984 59.2 208.689 58.7714 207.775 57.9143C206.86 57.0381 206.403 55.7524 206.403 54.0571V40.3714H209.975V53.9714C209.975 54.6952 210.156 55.2571 210.518 55.6571C210.899 56.0571 211.422 56.2571 212.089 56.2571C212.889 56.2571 213.556 56.0476 214.089 55.6286L215.089 58.1714C214.67 58.5143 214.156 58.7714 213.546 58.9429C212.937 59.1143 212.308 59.2 211.66 59.2ZM203.889 46.7143V43.8571H214.06V46.7143H203.889Z" fill="white"/>
<g filter="url(#filter0_d_15_2)">
<path d="M19.9272 92V80.1661H25.0327C26.3514 80.1661 27.3713 80.4309 28.0926 80.9607C28.8252 81.4904 29.1915 82.2398 29.1915 83.2091C29.1915 83.8515 29.0393 84.3925 28.735 84.832C28.442 85.2716 28.0363 85.6041 27.5178 85.8295C27.0107 86.0549 26.4528 86.1676 25.8442 86.1676L26.1316 85.7618C26.8867 85.7618 27.5348 85.8802 28.0757 86.1169C28.628 86.3423 29.0563 86.686 29.3606 87.1481C29.6649 87.5989 29.817 88.1624 29.817 88.8387C29.817 89.8417 29.4451 90.6194 28.7012 91.1716C27.9687 91.7239 26.8585 92 25.3708 92H19.9272ZM21.1782 90.9688H25.3539C26.3908 90.9688 27.1854 90.7941 27.7376 90.4447C28.2899 90.084 28.566 89.5149 28.566 88.7372C28.566 87.9708 28.2899 87.413 27.7376 87.0636C27.1854 86.7029 26.3908 86.5226 25.3539 86.5226H21.043V85.4913H24.9482C25.8949 85.4913 26.6275 85.311 27.1459 84.9504C27.6756 84.5897 27.9405 84.0544 27.9405 83.3443C27.9405 82.623 27.6756 82.0877 27.1459 81.7383C26.6275 81.3777 25.8949 81.1973 24.9482 81.1973H21.1782V90.9688ZM32.4189 92V83.1246H33.5685V85.5421L33.4501 85.1194C33.6981 84.4432 34.1151 83.9304 34.7011 83.581C35.2872 83.2204 36.0141 83.04 36.882 83.04V84.2065C36.8369 84.2065 36.7918 84.2065 36.7467 84.2065C36.7016 84.1953 36.6565 84.1896 36.6115 84.1896C35.676 84.1896 34.9434 84.477 34.4137 85.0518C33.884 85.6153 33.6192 86.4212 33.6192 87.4693V92H32.4189ZM39.0722 92V83.1246H40.2724V92H39.0722ZM39.6808 81.1635C39.4328 81.1635 39.2243 81.079 39.0552 80.9099C38.8862 80.7409 38.8017 80.538 38.8017 80.3013C38.8017 80.0647 38.8862 79.8674 39.0552 79.7096C39.2243 79.5406 39.4328 79.4561 39.6808 79.4561C39.9287 79.4561 40.1372 79.5349 40.3063 79.6927C40.4753 79.8505 40.5598 80.0478 40.5598 80.2844C40.5598 80.5324 40.4753 80.7409 40.3063 80.9099C40.1485 81.079 39.94 81.1635 39.6808 81.1635ZM46.4186 92.0845C45.5845 92.0845 44.9421 91.8591 44.4913 91.4083C44.0405 90.9575 43.8151 90.3207 43.8151 89.498V81.1635H45.0154V89.4304C45.0154 89.9488 45.145 90.3489 45.4042 90.6306C45.6747 90.9124 46.0579 91.0533 46.5538 91.0533C47.0835 91.0533 47.5231 90.9011 47.8724 90.5968L48.2951 91.459C48.0584 91.6732 47.771 91.8309 47.4329 91.9324C47.106 92.0338 46.7679 92.0845 46.4186 92.0845ZM42.226 84.122V83.1246H47.7203V84.122H42.226ZM50.4801 92V83.1246H51.6804V92H50.4801ZM51.0887 81.1635C50.8408 81.1635 50.6323 81.079 50.4632 80.9099C50.2942 80.7409 50.2096 80.538 50.2096 80.3013C50.2096 80.0647 50.2942 79.8674 50.4632 79.7096C50.6323 79.5406 50.8408 79.4561 51.0887 79.4561C51.3367 79.4561 51.5452 79.5349 51.7142 79.6927C51.8833 79.8505 51.9678 80.0478 51.9678 80.2844C51.9678 80.5324 51.8833 80.7409 51.7142 80.9099C51.5564 81.079 51.3479 81.1635 51.0887 81.1635ZM57.4039 92.0845C56.6713 92.0845 55.9782 91.9831 55.3245 91.7802C54.6708 91.5661 54.158 91.3012 53.7861 90.9857L54.3271 90.039C54.6877 90.3094 55.1498 90.5461 55.7133 90.749C56.2768 90.9406 56.8685 91.0364 57.4884 91.0364C58.3337 91.0364 58.9423 90.9068 59.3142 90.6476C59.6861 90.3771 59.8721 90.022 59.8721 89.5825C59.8721 89.2557 59.765 89.0021 59.5509 88.8218C59.348 88.6302 59.0775 88.4893 58.7394 88.3991C58.4013 88.2977 58.0238 88.2131 57.6067 88.1455C57.1897 88.0779 56.7727 87.999 56.3557 87.9088C55.95 87.8187 55.5781 87.6891 55.24 87.52C54.9019 87.3397 54.6257 87.0974 54.4116 86.7931C54.2087 86.4888 54.1073 86.083 54.1073 85.5759C54.1073 85.0913 54.2425 84.6573 54.513 84.2741C54.7835 83.891 55.178 83.5923 55.6964 83.3782C56.2261 83.1527 56.8685 83.04 57.6237 83.04C58.1984 83.04 58.7732 83.1189 59.348 83.2767C59.9228 83.4232 60.3962 83.6205 60.7681 83.8684L60.244 84.832C59.8496 84.5615 59.4269 84.3699 58.9761 84.2572C58.5253 84.1333 58.0745 84.0713 57.6237 84.0713C56.8235 84.0713 56.2318 84.2122 55.8486 84.4939C55.4766 84.7644 55.2907 85.1138 55.2907 85.5421C55.2907 85.8802 55.3921 86.145 55.595 86.3366C55.8091 86.5282 56.0852 86.6804 56.4234 86.7931C56.7727 86.8945 57.1503 86.979 57.556 87.0467C57.973 87.1143 58.3844 87.1988 58.7901 87.3002C59.2071 87.3904 59.5847 87.52 59.9228 87.6891C60.2722 87.8469 60.5483 88.0779 60.7512 88.3822C60.9653 88.6752 61.0724 89.0641 61.0724 89.5487C61.0724 90.0671 60.9259 90.5179 60.6328 90.9011C60.3511 91.2731 59.9341 91.5661 59.3818 91.7802C58.8409 91.9831 58.1815 92.0845 57.4039 92.0845ZM67.8056 83.04C68.5269 83.04 69.158 83.1809 69.699 83.4627C70.2512 83.7332 70.6795 84.1502 70.9838 84.7137C71.2994 85.2772 71.4572 85.9872 71.4572 86.8438V92H70.2569V86.9621C70.2569 86.0267 70.0202 85.3223 69.5468 84.8489C69.0848 84.3643 68.4311 84.122 67.5858 84.122C66.9547 84.122 66.4024 84.2516 65.929 84.5108C65.467 84.7588 65.1063 85.1251 64.8471 85.6097C64.5991 86.083 64.4752 86.6578 64.4752 87.3341V92H63.2749V79.4561H64.4752V85.559L64.2385 85.1025C64.5203 84.4601 64.9711 83.9586 65.5909 83.5979C66.2108 83.226 66.949 83.04 67.8056 83.04ZM82.0654 92L78.0757 80.1661H79.3605L83.0967 91.3069H82.4543L86.3087 80.1661H87.4583L91.2621 91.3069H90.6535L94.4234 80.1661H95.6237L91.634 92H90.3154L86.6807 81.434H87.0188L83.3672 92H82.0654ZM100.757 92.0845C99.8328 92.0845 99.0213 91.8929 98.3225 91.5097C97.6238 91.1153 97.0771 90.5799 96.6827 89.9037C96.2882 89.2162 96.091 88.4329 96.091 87.5538C96.091 86.6747 96.2769 85.8971 96.6489 85.2209C97.0321 84.5446 97.5505 84.0149 98.2042 83.6317C98.8691 83.2373 99.613 83.04 100.436 83.04C101.27 83.04 102.008 83.2316 102.65 83.6148C103.304 83.9868 103.817 84.5165 104.189 85.204C104.561 85.8802 104.747 86.6635 104.747 87.5538C104.747 87.6102 104.741 87.6722 104.73 87.7398C104.73 87.7961 104.73 87.8581 104.73 87.9258H97.0039V87.0298H104.087L103.614 87.3848C103.614 86.7424 103.473 86.1732 103.191 85.6773C102.921 85.1701 102.549 84.7757 102.076 84.4939C101.602 84.2122 101.056 84.0713 100.436 84.0713C99.8271 84.0713 99.2805 84.2122 98.7959 84.4939C98.3113 84.7757 97.9337 85.1701 97.6632 85.6773C97.3927 86.1845 97.2575 86.7649 97.2575 87.4186V87.6045C97.2575 88.2808 97.404 88.8781 97.697 89.3965C98.0013 89.9037 98.4183 90.3038 98.948 90.5968C99.489 90.8786 100.103 91.0195 100.791 91.0195C101.332 91.0195 101.833 90.9237 102.295 90.7321C102.769 90.5405 103.174 90.2475 103.513 89.853L104.189 90.6306C103.794 91.104 103.298 91.4647 102.701 91.7126C102.115 91.9606 101.467 92.0845 100.757 92.0845ZM112.504 92V90.039L112.453 89.7177V86.4381C112.453 85.6829 112.239 85.1025 111.811 84.6968C111.394 84.2911 110.768 84.0882 109.934 84.0882C109.36 84.0882 108.813 84.184 108.295 84.3756C107.776 84.5672 107.337 84.8208 106.976 85.1363L106.435 84.2403C106.886 83.8571 107.427 83.5641 108.058 83.3612C108.689 83.1471 109.354 83.04 110.053 83.04C111.202 83.04 112.087 83.3274 112.707 83.9022C113.338 84.4657 113.654 85.3279 113.654 86.4888V92H112.504ZM109.444 92.0845C108.779 92.0845 108.199 91.9775 107.703 91.7633C107.218 91.5379 106.846 91.2336 106.587 90.8504C106.328 90.456 106.198 90.0051 106.198 89.498C106.198 89.0359 106.305 88.6189 106.519 88.247C106.745 87.8638 107.106 87.5595 107.601 87.3341C108.109 87.0974 108.785 86.979 109.63 86.979H112.69V87.875H109.664C108.807 87.875 108.21 88.0272 107.872 88.3315C107.545 88.6358 107.382 89.0133 107.382 89.4642C107.382 89.9713 107.579 90.3771 107.973 90.6814C108.368 90.9857 108.92 91.1378 109.63 91.1378C110.306 91.1378 110.887 90.9857 111.371 90.6814C111.867 90.3658 112.228 89.915 112.453 89.3289L112.724 90.1573C112.498 90.7434 112.104 91.2111 111.54 91.5605C110.988 91.9098 110.289 92.0845 109.444 92.0845ZM119.72 92.0845C118.886 92.0845 118.244 91.8591 117.793 91.4083C117.342 90.9575 117.117 90.3207 117.117 89.498V81.1635H118.317V89.4304C118.317 89.9488 118.447 90.3489 118.706 90.6306C118.976 90.9124 119.359 91.0533 119.855 91.0533C120.385 91.0533 120.825 90.9011 121.174 90.5968L121.597 91.459C121.36 91.6732 121.073 91.8309 120.734 91.9324C120.408 92.0338 120.069 92.0845 119.72 92.0845ZM115.528 84.122V83.1246H121.022V84.122H115.528ZM128.312 83.04C129.034 83.04 129.665 83.1809 130.206 83.4627C130.758 83.7332 131.186 84.1502 131.491 84.7137C131.806 85.2772 131.964 85.9872 131.964 86.8438V92H130.764V86.9621C130.764 86.0267 130.527 85.3223 130.054 84.8489C129.592 84.3643 128.938 84.122 128.093 84.122C127.461 84.122 126.909 84.2516 126.436 84.5108C125.974 84.7588 125.613 85.1251 125.354 85.6097C125.106 86.083 124.982 86.6578 124.982 87.3341V92H123.782V79.4561H124.982V85.559L124.745 85.1025C125.027 84.4601 125.478 83.9586 126.098 83.5979C126.718 83.226 127.456 83.04 128.312 83.04ZM138.976 92.0845C138.052 92.0845 137.24 91.8929 136.542 91.5097C135.843 91.1153 135.296 90.5799 134.902 89.9037C134.507 89.2162 134.31 88.4329 134.31 87.5538C134.31 86.6747 134.496 85.8971 134.868 85.2209C135.251 84.5446 135.77 84.0149 136.423 83.6317C137.088 83.2373 137.832 83.04 138.655 83.04C139.489 83.04 140.227 83.2316 140.87 83.6148C141.523 83.9868 142.036 84.5165 142.408 85.204C142.78 85.8802 142.966 86.6635 142.966 87.5538C142.966 87.6102 142.96 87.6722 142.949 87.7398C142.949 87.7961 142.949 87.8581 142.949 87.9258H135.223V87.0298H142.307L141.833 87.3848C141.833 86.7424 141.692 86.1732 141.411 85.6773C141.14 85.1701 140.768 84.7757 140.295 84.4939C139.821 84.2122 139.275 84.0713 138.655 84.0713C138.046 84.0713 137.5 84.2122 137.015 84.4939C136.53 84.7757 136.153 85.1701 135.882 85.6773C135.612 86.1845 135.477 86.7649 135.477 87.4186V87.6045C135.477 88.2808 135.623 88.8781 135.916 89.3965C136.22 89.9037 136.637 90.3038 137.167 90.5968C137.708 90.8786 138.322 91.0195 139.01 91.0195C139.551 91.0195 140.052 90.9237 140.515 90.7321C140.988 90.5405 141.394 90.2475 141.732 89.853L142.408 90.6306C142.013 91.104 141.518 91.4647 140.92 91.7126C140.334 91.9606 139.686 92.0845 138.976 92.0845ZM145.409 92V83.1246H146.559V85.5421L146.44 85.1194C146.688 84.4432 147.105 83.9304 147.691 83.581C148.277 83.2204 149.004 83.04 149.872 83.04V84.2065C149.827 84.2065 149.782 84.2065 149.737 84.2065C149.692 84.1953 149.647 84.1896 149.602 84.1896C148.666 84.1896 147.934 84.477 147.404 85.0518C146.874 85.6153 146.609 86.4212 146.609 87.4693V92H145.409ZM160.135 92.1014C159.256 92.1014 158.411 91.9606 157.599 91.6788C156.799 91.3858 156.179 91.0138 155.74 90.563L156.23 89.5994C156.647 90.0051 157.205 90.3489 157.904 90.6306C158.614 90.9011 159.358 91.0364 160.135 91.0364C160.879 91.0364 161.482 90.9462 161.944 90.7659C162.417 90.5743 162.761 90.3207 162.975 90.0051C163.201 89.6896 163.313 89.3402 163.313 88.957C163.313 88.4949 163.178 88.123 162.908 87.8412C162.648 87.5595 162.305 87.3397 161.876 87.1819C161.448 87.0129 160.975 86.8663 160.456 86.7424C159.938 86.6184 159.419 86.4888 158.901 86.3535C158.383 86.207 157.904 86.0154 157.464 85.7787C157.036 85.5421 156.686 85.2321 156.416 84.8489C156.157 84.4545 156.027 83.9417 156.027 83.3105C156.027 82.7245 156.179 82.1891 156.484 81.7045C156.799 81.2086 157.278 80.8141 157.921 80.5211C158.563 80.2168 159.386 80.0647 160.389 80.0647C161.054 80.0647 161.713 80.1605 162.367 80.3521C163.02 80.5324 163.584 80.786 164.057 81.1128L163.635 82.1102C163.127 81.7721 162.586 81.5242 162.012 81.3664C161.448 81.2086 160.902 81.1297 160.372 81.1297C159.662 81.1297 159.076 81.2255 158.614 81.4171C158.152 81.6087 157.808 81.8679 157.582 82.1948C157.368 82.5103 157.261 82.871 157.261 83.2767C157.261 83.7388 157.391 84.1107 157.65 84.3925C157.921 84.6742 158.27 84.894 158.698 85.0518C159.138 85.2096 159.617 85.3505 160.135 85.4744C160.654 85.5984 161.166 85.7337 161.674 85.8802C162.192 86.0267 162.665 86.2183 163.094 86.455C163.533 86.6804 163.883 86.9847 164.142 87.3679C164.412 87.7511 164.548 88.2526 164.548 88.8725C164.548 89.4473 164.39 89.9826 164.074 90.4785C163.759 90.9631 163.274 91.3576 162.62 91.6619C161.978 91.9549 161.149 92.1014 160.135 92.1014ZM169.826 92.0845C168.992 92.0845 168.35 91.8591 167.899 91.4083C167.448 90.9575 167.223 90.3207 167.223 89.498V81.1635H168.423V89.4304C168.423 89.9488 168.552 90.3489 168.812 90.6306C169.082 90.9124 169.465 91.0533 169.961 91.0533C170.491 91.0533 170.931 90.9011 171.28 90.5968L171.703 91.459C171.466 91.6732 171.178 91.8309 170.84 91.9324C170.514 92.0338 170.175 92.0845 169.826 92.0845ZM165.633 84.122V83.1246H171.128V84.122H165.633ZM179.45 92V90.039L179.399 89.7177V86.4381C179.399 85.6829 179.185 85.1025 178.756 84.6968C178.339 84.2911 177.714 84.0882 176.88 84.0882C176.305 84.0882 175.758 84.184 175.24 84.3756C174.722 84.5672 174.282 84.8208 173.921 85.1363L173.38 84.2403C173.831 83.8571 174.372 83.5641 175.003 83.3612C175.634 83.1471 176.299 83.04 176.998 83.04C178.148 83.04 179.033 83.3274 179.652 83.9022C180.284 84.4657 180.599 85.3279 180.599 86.4888V92H179.45ZM176.39 92.0845C175.725 92.0845 175.144 91.9775 174.648 91.7633C174.164 91.5379 173.792 91.2336 173.533 90.8504C173.273 90.456 173.144 90.0051 173.144 89.498C173.144 89.0359 173.251 88.6189 173.465 88.247C173.69 87.8638 174.051 87.5595 174.547 87.3341C175.054 87.0974 175.73 86.979 176.576 86.979H179.635V87.875H176.609C175.753 87.875 175.156 88.0272 174.817 88.3315C174.491 88.6358 174.327 89.0133 174.327 89.4642C174.327 89.9713 174.524 90.3771 174.919 90.6814C175.313 90.9857 175.866 91.1378 176.576 91.1378C177.252 91.1378 177.832 90.9857 178.317 90.6814C178.813 90.3658 179.173 89.915 179.399 89.3289L179.669 90.1573C179.444 90.7434 179.049 91.2111 178.486 91.5605C177.934 91.9098 177.235 92.0845 176.39 92.0845ZM186.666 92.0845C185.832 92.0845 185.189 91.8591 184.738 91.4083C184.288 90.9575 184.062 90.3207 184.062 89.498V81.1635H185.262V89.4304C185.262 89.9488 185.392 90.3489 185.651 90.6306C185.922 90.9124 186.305 91.0533 186.801 91.0533C187.331 91.0533 187.77 90.9011 188.119 90.5968L188.542 91.459C188.305 91.6732 188.018 91.8309 187.68 91.9324C187.353 92.0338 187.015 92.0845 186.666 92.0845ZM182.473 84.122V83.1246H187.967V84.122H182.473ZM190.727 92V83.1246H191.927V92H190.727ZM191.336 81.1635C191.088 81.1635 190.879 81.079 190.71 80.9099C190.541 80.7409 190.457 80.538 190.457 80.3013C190.457 80.0647 190.541 79.8674 190.71 79.7096C190.879 79.5406 191.088 79.4561 191.336 79.4561C191.584 79.4561 191.792 79.5349 191.961 79.6927C192.13 79.8505 192.215 80.0478 192.215 80.2844C192.215 80.5324 192.13 80.7409 191.961 80.9099C191.803 81.079 191.595 81.1635 191.336 81.1635ZM198.885 92.0845C198.028 92.0845 197.256 91.8929 196.569 91.5097C195.893 91.1153 195.357 90.5799 194.963 89.9037C194.568 89.2162 194.371 88.4329 194.371 87.5538C194.371 86.6635 194.568 85.8802 194.963 85.204C195.357 84.5277 195.893 83.998 196.569 83.6148C197.245 83.2316 198.017 83.04 198.885 83.04C199.764 83.04 200.542 83.2316 201.218 83.6148C201.905 83.998 202.441 84.5277 202.824 85.204C203.218 85.8802 203.416 86.6635 203.416 87.5538C203.416 88.4329 203.218 89.2162 202.824 89.9037C202.441 90.5799 201.905 91.1153 201.218 91.5097C200.53 91.8929 199.753 92.0845 198.885 92.0845ZM198.885 91.0195C199.527 91.0195 200.097 90.8786 200.592 90.5968C201.088 90.3038 201.477 89.8981 201.759 89.3796C202.052 88.8499 202.198 88.2413 202.198 87.5538C202.198 86.8551 202.052 86.2465 201.759 85.728C201.477 85.2096 201.088 84.8095 200.592 84.5277C200.097 84.2347 199.533 84.0882 198.902 84.0882C198.271 84.0882 197.707 84.2347 197.211 84.5277C196.715 84.8095 196.321 85.2096 196.028 85.728C195.735 86.2465 195.588 86.8551 195.588 87.5538C195.588 88.2413 195.735 88.8499 196.028 89.3796C196.321 89.8981 196.715 90.3038 197.211 90.5968C197.707 90.8786 198.265 91.0195 198.885 91.0195ZM210.397 83.04C211.118 83.04 211.749 83.1809 212.29 83.4627C212.843 83.7332 213.271 84.1502 213.575 84.7137C213.891 85.2772 214.049 85.9872 214.049 86.8438V92H212.848V86.9621C212.848 86.0267 212.612 85.3223 212.138 84.8489C211.676 84.3643 211.022 84.122 210.177 84.122C209.546 84.122 208.994 84.2516 208.52 84.5108C208.058 84.7588 207.698 85.1251 207.438 85.6097C207.19 86.083 207.067 86.6578 207.067 87.3341V92H205.866V83.1246H207.016V85.559L206.83 85.1025C207.112 84.4601 207.562 83.9586 208.182 83.5979C208.802 83.226 209.54 83.04 210.397 83.04Z" fill="white"/>
</g>
<g opacity="0.7" clip-path="url(#clip0_15_2)">
<path d="M299 45C287.421 45 278 54.4206 278 66C278 77.5794 287.421 87 299 87C310.579 87 320 77.5794 320 66C320 54.4206 310.579 45 299 45ZM306.713 67.3497L296.532 77.5318C296.159 77.9045 295.67 78.0909 295.182 78.0909C294.693 78.0909 294.205 77.9046 293.832 77.5317C293.086 76.7862 293.086 75.5774 293.832 74.8318L302.664 65.9996L293.832 57.1679C293.086 56.4225 293.086 55.2136 293.832 54.4681C294.577 53.7225 295.786 53.7225 296.532 54.4681L306.714 64.6496C307.072 65.0077 307.273 65.4932 307.273 65.9995C307.273 66.506 307.072 66.9917 306.713 67.3497Z" fill="white"/>
</g>
<defs>
<filter id="filter0_d_15_2" x="15.9272" y="79.4561" width="202.121" height="20.6454" filterUnits="userSpaceOnUse" color-interpolation-filters="sRGB">
<feFlood flood-opacity="0" result="BackgroundImageFix"/>
<feColorMatrix in="SourceAlpha" type="matrix" values="0 0 0 0 0 0 0 0 0 0 0 0 0 0 0 0 0 0 127 0" result="hardAlpha"/>
<feOffset dy="4"/>
<feGaussianBlur stdDeviation="2"/>
<feComposite in2="hardAlpha" operator="out"/>
<feColorMatrix type="matrix" values="0 0 0 0 0 0 0 0 0 0 0 0 0 0 0 0 0 0 0.25 0"/>
<feBlend mode="normal" in2="BackgroundImageFix" result="effect1_dropShadow_15_2"/>
<feBlend mode="normal" in="SourceGraphic" in2="effect1_dropShadow_15_2" result="shape"/>
</filter>
<linearGradient id="paint0_linear_15_2" x1="182.924" y1="0" x2="182.924" y2="132" gradientUnits="userSpaceOnUse">
<stop stop-color="#7CB8FF" stop-opacity="0.46"/>
<stop offset="1" stop-color="#F8FBFF" stop-opacity="0.45"/>
</linearGradient>
<clipPath id="clip0_15_2">
<rect width="42" height="42" fill="white" transform="translate(278 45)"/>
</clipPath>
</defs>
</svg>
