<svg width="285" height="121" viewBox="0 0 285 121" fill="none" xmlns="http://www.w3.org/2000/svg">
<g filter="url(#filter0_d_77_30)">
<path d="M13.0989 92.2215V20.967C13.0989 14.8919 18.0238 9.96704 24.0989 9.96704H260.56C266.636 9.96704 271.56 14.8919 271.56 20.967V92.2215C271.56 98.2966 266.636 103.221 260.56 103.221H24.0989C18.0237 103.221 13.0989 98.2966 13.0989 92.2215Z" fill="url(#paint0_linear_77_30)" fill-opacity="0.42"/>
<path d="M8.59888 20.967V92.2215C8.59888 100.782 15.5385 107.721 24.0989 107.721H260.56C269.121 107.721 276.06 100.782 276.06 92.2215V20.967C276.06 12.4066 269.121 5.46704 260.56 5.46704H24.0989C15.5385 5.46704 8.59888 12.4066 8.59888 20.967Z" stroke="#999999" stroke-opacity="0.23" stroke-width="9" stroke-linejoin="round"/>
<path d="M28.1879 59.4889V42.6889H36.0599C38.0759 42.6889 39.6119 43.0889 40.6679 43.8889C41.7239 44.6729 42.2519 45.7289 42.2519 47.0569C42.2519 47.9529 42.0439 48.7209 41.6279 49.3609C41.2119 49.9849 40.6519 50.4729 39.9479 50.8249C39.2599 51.1609 38.5079 51.3289 37.6919 51.3289L38.1239 50.4649C39.0679 50.4649 39.9159 50.6409 40.6679 50.9929C41.4199 51.3289 42.0119 51.8249 42.4439 52.4809C42.8919 53.1369 43.1159 53.9529 43.1159 54.9289C43.1159 56.3689 42.5639 57.4889 41.4599 58.2889C40.3559 59.0889 38.7159 59.4889 36.5399 59.4889H28.1879ZM31.3079 57.0409H36.3479C37.5159 57.0409 38.4119 56.8489 39.0359 56.4649C39.6599 56.0809 39.9719 55.4649 39.9719 54.6169C39.9719 53.7849 39.6599 53.1769 39.0359 52.7929C38.4119 52.3929 37.5159 52.1929 36.3479 52.1929H31.0679V49.7689H35.7239C36.8119 49.7689 37.6439 49.5769 38.2199 49.1929C38.8119 48.8089 39.1079 48.2329 39.1079 47.4649C39.1079 46.6809 38.8119 46.0969 38.2199 45.7129C37.6439 45.3289 36.8119 45.1369 35.7239 45.1369H31.3079V57.0409ZM51.9177 59.6569C50.6057 59.6569 49.4377 59.3769 48.4137 58.8169C47.3897 58.2409 46.5817 57.4569 45.9897 56.4649C45.3977 55.4729 45.1017 54.3449 45.1017 53.0809C45.1017 51.8009 45.3977 50.6729 45.9897 49.6969C46.5817 48.7049 47.3897 47.9289 48.4137 47.3689C49.4377 46.8089 50.6057 46.5289 51.9177 46.5289C53.2457 46.5289 54.4217 46.8089 55.4457 47.3689C56.4857 47.9289 57.2937 48.6969 57.8697 49.6729C58.4617 50.6489 58.7577 51.7849 58.7577 53.0809C58.7577 54.3449 58.4617 55.4729 57.8697 56.4649C57.2937 57.4569 56.4857 58.2409 55.4457 58.8169C54.4217 59.3769 53.2457 59.6569 51.9177 59.6569ZM51.9177 57.0889C52.6537 57.0889 53.3097 56.9289 53.8857 56.6089C54.4617 56.2889 54.9097 55.8249 55.2297 55.2169C55.5657 54.6089 55.7337 53.8969 55.7337 53.0809C55.7337 52.2489 55.5657 51.5369 55.2297 50.9449C54.9097 50.3369 54.4617 49.8729 53.8857 49.5529C53.3097 49.2329 52.6617 49.0729 51.9417 49.0729C51.2057 49.0729 50.5497 49.2329 49.9737 49.5529C49.4137 49.8729 48.9657 50.3369 48.6297 50.9449C48.2937 51.5369 48.1257 52.2489 48.1257 53.0809C48.1257 53.8969 48.2937 54.6089 48.6297 55.2169C48.9657 55.8249 49.4137 56.2889 49.9737 56.6089C50.5497 56.9289 51.1977 57.0889 51.9177 57.0889ZM61.6264 59.4889V46.6729H64.4824V50.2009L64.1464 49.1689C64.5304 48.3049 65.1304 47.6489 65.9464 47.2009C66.7784 46.7529 67.8104 46.5289 69.0424 46.5289V49.3849C68.9144 49.3529 68.7944 49.3369 68.6824 49.3369C68.5704 49.3209 68.4584 49.3129 68.3464 49.3129C67.2104 49.3129 66.3064 49.6489 65.6344 50.3209C64.9624 50.9769 64.6264 51.9609 64.6264 53.2729V59.4889H61.6264ZM71.5874 59.4889V46.6729H74.5874V59.4889H71.5874ZM73.0994 44.5609C72.5394 44.5609 72.0754 44.3849 71.7074 44.0329C71.3554 43.6809 71.1794 43.2569 71.1794 42.7609C71.1794 42.2489 71.3554 41.8249 71.7074 41.4889C72.0754 41.1369 72.5394 40.9609 73.0994 40.9609C73.6594 40.9609 74.1154 41.1289 74.4674 41.4649C74.8354 41.7849 75.0194 42.1929 75.0194 42.6889C75.0194 43.2169 74.8434 43.6649 74.4914 44.0329C74.1394 44.3849 73.6754 44.5609 73.0994 44.5609ZM85.7969 46.5289C86.8209 46.5289 87.7329 46.7289 88.5329 47.1289C89.3489 47.5289 89.9889 48.1449 90.4529 48.9769C90.9169 49.7929 91.1489 50.8489 91.1489 52.1449V59.4889H88.1489V52.5289C88.1489 51.3929 87.8769 50.5449 87.3329 49.9849C86.8049 49.4249 86.0609 49.1449 85.1009 49.1449C84.3969 49.1449 83.7729 49.2889 83.2289 49.5769C82.6849 49.8649 82.2609 50.2969 81.9569 50.8729C81.6689 51.4329 81.5249 52.1449 81.5249 53.0089V59.4889H78.5249V46.6729H81.3809V50.1289L80.8769 49.0729C81.3249 48.2569 81.9729 47.6329 82.8209 47.2009C83.6849 46.7529 84.6769 46.5289 85.7969 46.5289ZM100.786 64.3129C99.602 64.3129 98.442 64.1529 97.306 63.8329C96.186 63.5289 95.266 63.0809 94.546 62.4889L95.89 60.2329C96.45 60.6969 97.154 61.0649 98.002 61.3369C98.866 61.6249 99.738 61.7689 100.618 61.7689C102.026 61.7689 103.058 61.4409 103.714 60.7849C104.37 60.1449 104.698 59.1769 104.698 57.8809V55.6009L104.938 52.6969L104.842 49.7929V46.6729H107.698V57.5449C107.698 59.8649 107.106 61.5689 105.922 62.6569C104.738 63.7609 103.026 64.3129 100.786 64.3129ZM100.402 58.9129C99.186 58.9129 98.082 58.6569 97.09 58.1449C96.114 57.6169 95.338 56.8889 94.762 55.9609C94.202 55.0329 93.922 53.9449 93.922 52.6969C93.922 51.4649 94.202 50.3849 94.762 49.4569C95.338 48.5289 96.114 47.8089 97.09 47.2969C98.082 46.7849 99.186 46.5289 100.402 46.5289C101.49 46.5289 102.466 46.7449 103.33 47.1769C104.194 47.6089 104.882 48.2809 105.394 49.1929C105.922 50.1049 106.186 51.2729 106.186 52.6969C106.186 54.1209 105.922 55.2969 105.394 56.2249C104.882 57.1369 104.194 57.8169 103.33 58.2649C102.466 58.6969 101.49 58.9129 100.402 58.9129ZM100.858 56.3689C101.61 56.3689 102.282 56.2169 102.874 55.9129C103.466 55.5929 103.922 55.1609 104.242 54.6169C104.578 54.0569 104.746 53.4169 104.746 52.6969C104.746 51.9769 104.578 51.3449 104.242 50.8009C103.922 50.2409 103.466 49.8169 102.874 49.5289C102.282 49.2249 101.61 49.0729 100.858 49.0729C100.106 49.0729 99.426 49.2249 98.818 49.5289C98.226 49.8169 97.762 50.2409 97.426 50.8009C97.106 51.3449 96.946 51.9769 96.946 52.6969C96.946 53.4169 97.106 54.0569 97.426 54.6169C97.762 55.1609 98.226 55.5929 98.818 55.9129C99.426 56.2169 100.106 56.3689 100.858 56.3689Z" fill="white"/>
<g filter="url(#filter1_d_77_30)">
<path d="M27.8591 84.2886V72.4547H29.1101V83.2066H35.7371V84.2886H27.8591ZM41.1986 84.3731C40.2744 84.3731 39.4629 84.1815 38.7641 83.7983C38.0654 83.4038 37.5188 82.8685 37.1243 82.1923C36.7298 81.5048 36.5326 80.7215 36.5326 79.8424C36.5326 78.9633 36.7186 78.1857 37.0905 77.5094C37.4737 76.8332 37.9921 76.3035 38.6458 75.9203C39.3108 75.5258 40.0546 75.3286 40.8773 75.3286C41.7114 75.3286 42.4496 75.5202 43.092 75.9034C43.7457 76.2753 44.2585 76.805 44.6304 77.4925C45.0023 78.1687 45.1883 78.952 45.1883 79.8424C45.1883 79.8988 45.1826 79.9607 45.1714 80.0284C45.1714 80.0847 45.1714 80.1467 45.1714 80.2143H37.4455V79.3183H44.529L44.0556 79.6733C44.0556 79.0309 43.9147 78.4618 43.633 77.9659C43.3625 77.4587 42.9905 77.0643 42.5172 76.7825C42.0438 76.5007 41.4972 76.3599 40.8773 76.3599C40.2687 76.3599 39.7221 76.5007 39.2375 76.7825C38.7529 77.0643 38.3753 77.4587 38.1048 77.9659C37.8343 78.473 37.6991 79.0535 37.6991 79.7072V79.8931C37.6991 80.5693 37.8456 81.1667 38.1386 81.6851C38.4429 82.1923 38.8599 82.5924 39.3897 82.8854C39.9306 83.1672 40.5449 83.308 41.2324 83.308C41.7733 83.308 42.2749 83.2122 42.737 83.0207C43.2103 82.8291 43.6161 82.536 43.9542 82.1416L44.6304 82.9192C44.2359 83.3926 43.74 83.7532 43.1427 84.0012C42.5566 84.2491 41.9086 84.3731 41.1986 84.3731ZM51.3168 84.3731C50.4377 84.3731 49.6488 84.1815 48.95 83.7983C48.2625 83.4038 47.7216 82.8685 47.3271 82.1923C46.9326 81.5048 46.7354 80.7215 46.7354 79.8424C46.7354 78.952 46.9326 78.1687 47.3271 77.4925C47.7216 76.8163 48.2625 76.2866 48.95 75.9034C49.6488 75.5202 50.4377 75.3286 51.3168 75.3286C52.0719 75.3286 52.7538 75.4751 53.3624 75.7682C53.971 76.0612 54.45 76.5007 54.7994 77.0868L53.9034 77.6954C53.5991 77.2446 53.2215 76.9121 52.7707 76.698C52.3199 76.4838 51.8296 76.3768 51.2999 76.3768C50.6688 76.3768 50.0996 76.5233 49.5924 76.8163C49.0853 77.0981 48.6852 77.4982 48.3921 78.0166C48.0991 78.535 47.9526 79.1436 47.9526 79.8424C47.9526 80.5412 48.0991 81.1498 48.3921 81.6682C48.6852 82.1866 49.0853 82.5924 49.5924 82.8854C50.0996 83.1672 50.6688 83.308 51.2999 83.308C51.8296 83.308 52.3199 83.201 52.7707 82.9868C53.2215 82.7727 53.5991 82.4459 53.9034 82.0063L54.7994 82.6149C54.45 83.1897 53.971 83.6293 53.3624 83.9336C52.7538 84.2266 52.0719 84.3731 51.3168 84.3731ZM60.0627 84.3731C59.2287 84.3731 58.5863 84.1477 58.1354 83.6969C57.6846 83.2461 57.4592 82.6093 57.4592 81.7865V73.4521H58.6595V81.7189C58.6595 82.2374 58.7891 82.6375 59.0483 82.9192C59.3188 83.201 59.702 83.3419 60.1979 83.3419C60.7276 83.3419 61.1672 83.1897 61.5166 82.8854L61.9392 83.7476C61.7025 83.9617 61.4151 84.1195 61.077 84.2209C60.7502 84.3224 60.4121 84.3731 60.0627 84.3731ZM55.8701 76.4106V75.4131H61.3644V76.4106H55.8701ZM67.7928 84.3731C67.0376 84.3731 66.3783 84.2322 65.8148 83.9505C65.2513 83.6687 64.8117 83.2461 64.4962 82.6825C64.1919 82.119 64.0397 81.4146 64.0397 80.5693V75.4131H65.24V80.4341C65.24 81.3808 65.4711 82.0965 65.9331 82.5811C66.4065 83.0545 67.0658 83.2911 67.9111 83.2911C68.531 83.2911 69.0663 83.1672 69.5171 82.9192C69.9792 82.66 70.3286 82.2881 70.5653 81.8034C70.8132 81.3188 70.9372 80.7384 70.9372 80.0622V75.4131H72.1375V84.2886H70.9879V81.8542L71.1739 82.2937C70.8921 82.9474 70.4526 83.4602 69.8552 83.8321C69.2692 84.1928 68.5817 84.3731 67.7928 84.3731ZM75.4827 84.2886V75.4131H76.6323V77.8306L76.5139 77.408C76.7619 76.7318 77.1789 76.219 77.7649 75.8696C78.351 75.5089 79.0779 75.3286 79.9458 75.3286V76.4951C79.9007 76.4951 79.8556 76.4951 79.8105 76.4951C79.7654 76.4838 79.7203 76.4782 79.6753 76.4782C78.7398 76.4782 78.0072 76.7656 77.4775 77.3404C76.9478 77.9039 76.683 78.7097 76.683 79.7579V84.2886H75.4827ZM85.8234 84.3731C84.8992 84.3731 84.0877 84.1815 83.3889 83.7983C82.6902 83.4038 82.1436 82.8685 81.7491 82.1923C81.3546 81.5048 81.1574 80.7215 81.1574 79.8424C81.1574 78.9633 81.3434 78.1857 81.7153 77.5094C82.0985 76.8332 82.6169 76.3035 83.2706 75.9203C83.9356 75.5258 84.6794 75.3286 85.5021 75.3286C86.3362 75.3286 87.0744 75.5202 87.7168 75.9034C88.3705 76.2753 88.8833 76.805 89.2552 77.4925C89.6271 78.1687 89.8131 78.952 89.8131 79.8424C89.8131 79.8988 89.8074 79.9607 89.7962 80.0284C89.7962 80.0847 89.7962 80.1467 89.7962 80.2143H82.0703V79.3183H89.1538L88.6804 79.6733C88.6804 79.0309 88.5395 78.4618 88.2578 77.9659C87.9873 77.4587 87.6153 77.0643 87.142 76.7825C86.6686 76.5007 86.122 76.3599 85.5021 76.3599C84.8935 76.3599 84.3469 76.5007 83.8623 76.7825C83.3777 77.0643 83.0001 77.4587 82.7296 77.9659C82.4591 78.473 82.3239 79.0535 82.3239 79.7072V79.8931C82.3239 80.5693 82.4704 81.1667 82.7634 81.6851C83.0677 82.1923 83.4847 82.5924 84.0145 82.8854C84.5554 83.1672 85.1697 83.308 85.8572 83.308C86.3981 83.308 86.8997 83.2122 87.3618 83.0207C87.8351 82.8291 88.2409 82.536 88.579 82.1416L89.2552 82.9192C88.8607 83.3926 88.3648 83.7532 87.7675 84.0012C87.1814 84.2491 86.5334 84.3731 85.8234 84.3731ZM94.6399 84.3731C93.9073 84.3731 93.2142 84.2717 92.5605 84.0688C91.9068 83.8547 91.394 83.5898 91.0221 83.2742L91.5631 82.3275C91.9237 82.598 92.3858 82.8347 92.9493 83.0376C93.5128 83.2292 94.1045 83.325 94.7244 83.325C95.5697 83.325 96.1783 83.1953 96.5502 82.9361C96.9221 82.6656 97.1081 82.3106 97.1081 81.8711C97.1081 81.5442 97.001 81.2906 96.7869 81.1103C96.584 80.9187 96.3135 80.7778 95.9754 80.6877C95.6373 80.5862 95.2597 80.5017 94.8427 80.4341C94.4257 80.3665 94.0087 80.2876 93.5917 80.1974C93.186 80.1073 92.8141 79.9776 92.476 79.8086C92.1378 79.6283 91.8617 79.386 91.6476 79.0816C91.4447 78.7773 91.3433 78.3716 91.3433 77.8644C91.3433 77.3798 91.4785 76.9459 91.749 76.5627C92.0195 76.1795 92.414 75.8809 92.9324 75.6667C93.4621 75.4413 94.1045 75.3286 94.8596 75.3286C95.4344 75.3286 96.0092 75.4075 96.584 75.5653C97.1588 75.7118 97.6322 75.909 98.0041 76.157L97.48 77.1206C97.0855 76.8501 96.6629 76.6585 96.2121 76.5458C95.7613 76.4218 95.3105 76.3599 94.8596 76.3599C94.0595 76.3599 93.4678 76.5007 93.0846 76.7825C92.7126 77.053 92.5267 77.4024 92.5267 77.8306C92.5267 78.1687 92.6281 78.4336 92.831 78.6252C93.0451 78.8168 93.3212 78.9689 93.6594 79.0816C94.0087 79.1831 94.3863 79.2676 94.792 79.3352C95.209 79.4029 95.6204 79.4874 96.0261 79.5888C96.4431 79.679 96.8207 79.8086 97.1588 79.9776C97.5082 80.1354 97.7843 80.3665 97.9872 80.6708C98.2013 80.9638 98.3084 81.3526 98.3084 81.8373C98.3084 82.3557 98.1619 82.8065 97.8688 83.1897C97.5871 83.5616 97.1701 83.8547 96.6178 84.0688C96.0769 84.2717 95.4175 84.3731 94.6399 84.3731Z" fill="white"/>
</g>
<g opacity="0.7" clip-path="url(#clip0_77_30)">
<path d="M224.334 46.0361C216.154 46.0361 209.499 52.6915 209.499 60.872C209.499 69.0525 216.154 75.7079 224.334 75.7079C232.515 75.7079 239.17 69.0525 239.17 60.872C239.17 52.6915 232.515 46.0361 224.334 46.0361ZM229.784 61.8255L222.591 69.0189C222.327 69.2822 221.982 69.4139 221.637 69.4139C221.292 69.4139 220.947 69.2823 220.683 69.0188C220.157 68.4922 220.157 67.6382 220.683 67.1115L226.923 60.8717L220.683 54.6324C220.157 54.1057 220.157 53.2517 220.683 52.725C221.21 52.1983 222.064 52.1983 222.591 52.725L229.784 59.918C230.037 60.1709 230.179 60.514 230.179 60.8716C230.179 61.2295 230.037 61.5726 229.784 61.8255Z" fill="white"/>
</g>
</g>
<defs>
<filter id="filter0_d_77_30" x="0.098877" y="0.967041" width="284.462" height="119.254" filterUnits="userSpaceOnUse" color-interpolation-filters="sRGB">
<feFlood flood-opacity="0" result="BackgroundImageFix"/>
<feColorMatrix in="SourceAlpha" type="matrix" values="0 0 0 0 0 0 0 0 0 0 0 0 0 0 0 0 0 0 127 0" result="hardAlpha"/>
<feOffset dy="4"/>
<feGaussianBlur stdDeviation="2"/>
<feComposite in2="hardAlpha" operator="out"/>
<feColorMatrix type="matrix" values="0 0 0 0 0 0 0 0 0 0 0 0 0 0 0 0 0 0 0.25 0"/>
<feBlend mode="normal" in2="BackgroundImageFix" result="effect1_dropShadow_77_30"/>
<feBlend mode="normal" in="SourceGraphic" in2="effect1_dropShadow_77_30" result="shape"/>
</filter>
<filter id="filter1_d_77_30" x="23.8591" y="72.4547" width="78.4492" height="19.9184" filterUnits="userSpaceOnUse" color-interpolation-filters="sRGB">
<feFlood flood-opacity="0" result="BackgroundImageFix"/>
<feColorMatrix in="SourceAlpha" type="matrix" values="0 0 0 0 0 0 0 0 0 0 0 0 0 0 0 0 0 0 127 0" result="hardAlpha"/>
<feOffset dy="4"/>
<feGaussianBlur stdDeviation="2"/>
<feComposite in2="hardAlpha" operator="out"/>
<feColorMatrix type="matrix" values="0 0 0 0 0 0 0 0 0 0 0 0 0 0 0 0 0 0 0.25 0"/>
<feBlend mode="normal" in2="BackgroundImageFix" result="effect1_dropShadow_77_30"/>
<feBlend mode="normal" in="SourceGraphic" in2="effect1_dropShadow_77_30" result="shape"/>
</filter>
<linearGradient id="paint0_linear_77_30" x1="142.33" y1="9.96704" x2="142.33" y2="103.221" gradientUnits="userSpaceOnUse">
<stop stop-color="#7CB8FF" stop-opacity="0.46"/>
<stop offset="1" stop-color="#F8FBFF" stop-opacity="0.45"/>
</linearGradient>
<clipPath id="clip0_77_30">
<rect width="29.6719" height="29.6719" fill="white" transform="translate(209.499 46.0361)"/>
</clipPath>
</defs>
</svg>
