<svg width="277" height="113" viewBox="0 0 277 113" fill="none" xmlns="http://www.w3.org/2000/svg">
<path d="M4.59888 20.967V92.2215C4.59888 100.782 11.5385 107.721 20.0989 107.721H256.56C265.121 107.721 272.06 100.782 272.06 92.2215V20.967C272.06 12.4066 265.121 5.46704 256.56 5.46704H20.0989C11.5385 5.46704 4.59888 12.4066 4.59888 20.967Z" fill="url(#paint0_linear_77_30)" stroke="#4C4F6C" stroke-width="9" stroke-linejoin="round"/>
<path d="M24.1879 59.4889V42.6889H32.0599C34.0759 42.6889 35.6119 43.0889 36.6679 43.8889C37.7239 44.6729 38.2519 45.7289 38.2519 47.0569C38.2519 47.9529 38.0439 48.7209 37.6279 49.3609C37.2119 49.9849 36.6519 50.4729 35.9479 50.8249C35.2599 51.1609 34.5079 51.3289 33.6919 51.3289L34.1239 50.4649C35.0679 50.4649 35.9159 50.6409 36.6679 50.9929C37.4199 51.3289 38.0119 51.8249 38.4439 52.4809C38.8919 53.1369 39.1159 53.9529 39.1159 54.9289C39.1159 56.3689 38.5639 57.4889 37.4599 58.2889C36.3559 59.0889 34.7159 59.4889 32.5399 59.4889H24.1879ZM27.3079 57.0409H32.3479C33.5159 57.0409 34.4119 56.8489 35.0359 56.4649C35.6599 56.0809 35.9719 55.4649 35.9719 54.6169C35.9719 53.7849 35.6599 53.1769 35.0359 52.7929C34.4119 52.3929 33.5159 52.1929 32.3479 52.1929H27.0679V49.7689H31.7239C32.8119 49.7689 33.6439 49.5769 34.2199 49.1929C34.8119 48.8089 35.1079 48.2329 35.1079 47.4649C35.1079 46.6809 34.8119 46.0969 34.2199 45.7129C33.6439 45.3289 32.8119 45.1369 31.7239 45.1369H27.3079V57.0409ZM47.9177 59.6569C46.6057 59.6569 45.4377 59.3769 44.4137 58.8169C43.3897 58.2409 42.5817 57.4569 41.9897 56.4649C41.3977 55.4729 41.1017 54.3449 41.1017 53.0809C41.1017 51.8009 41.3977 50.6729 41.9897 49.6969C42.5817 48.7049 43.3897 47.9289 44.4137 47.3689C45.4377 46.8089 46.6057 46.5289 47.9177 46.5289C49.2457 46.5289 50.4217 46.8089 51.4457 47.3689C52.4857 47.9289 53.2937 48.6969 53.8697 49.6729C54.4617 50.6489 54.7577 51.7849 54.7577 53.0809C54.7577 54.3449 54.4617 55.4729 53.8697 56.4649C53.2937 57.4569 52.4857 58.2409 51.4457 58.8169C50.4217 59.3769 49.2457 59.6569 47.9177 59.6569ZM47.9177 57.0889C48.6537 57.0889 49.3097 56.9289 49.8857 56.6089C50.4617 56.2889 50.9097 55.8249 51.2297 55.2169C51.5657 54.6089 51.7337 53.8969 51.7337 53.0809C51.7337 52.2489 51.5657 51.5369 51.2297 50.9449C50.9097 50.3369 50.4617 49.8729 49.8857 49.5529C49.3097 49.2329 48.6617 49.0729 47.9417 49.0729C47.2057 49.0729 46.5497 49.2329 45.9737 49.5529C45.4137 49.8729 44.9657 50.3369 44.6297 50.9449C44.2937 51.5369 44.1257 52.2489 44.1257 53.0809C44.1257 53.8969 44.2937 54.6089 44.6297 55.2169C44.9657 55.8249 45.4137 56.2889 45.9737 56.6089C46.5497 56.9289 47.1977 57.0889 47.9177 57.0889ZM57.6264 59.4889V46.6729H60.4824V50.2009L60.1464 49.1689C60.5304 48.3049 61.1304 47.6489 61.9464 47.2009C62.7784 46.7529 63.8104 46.5289 65.0424 46.5289V49.3849C64.9144 49.3529 64.7944 49.3369 64.6824 49.3369C64.5704 49.3209 64.4584 49.3129 64.3464 49.3129C63.2104 49.3129 62.3064 49.6489 61.6344 50.3209C60.9624 50.9769 60.6264 51.9609 60.6264 53.2729V59.4889H57.6264ZM67.5874 59.4889V46.6729H70.5874V59.4889H67.5874ZM69.0994 44.5609C68.5394 44.5609 68.0754 44.3849 67.7074 44.0329C67.3554 43.6809 67.1794 43.2569 67.1794 42.7609C67.1794 42.2489 67.3554 41.8249 67.7074 41.4889C68.0754 41.1369 68.5394 40.9609 69.0994 40.9609C69.6594 40.9609 70.1154 41.1289 70.4674 41.4649C70.8354 41.7849 71.0194 42.1929 71.0194 42.6889C71.0194 43.2169 70.8434 43.6649 70.4914 44.0329C70.1394 44.3849 69.6754 44.5609 69.0994 44.5609ZM81.7969 46.5289C82.8209 46.5289 83.7329 46.7289 84.5329 47.1289C85.3489 47.5289 85.9889 48.1449 86.4529 48.9769C86.9169 49.7929 87.1489 50.8489 87.1489 52.1449V59.4889H84.1489V52.5289C84.1489 51.3929 83.8769 50.5449 83.3329 49.9849C82.8049 49.4249 82.0609 49.1449 81.1009 49.1449C80.3969 49.1449 79.7729 49.2889 79.2289 49.5769C78.6849 49.8649 78.2609 50.2969 77.9569 50.8729C77.6689 51.4329 77.5249 52.1449 77.5249 53.0089V59.4889H74.5249V46.6729H77.3809V50.1289L76.8769 49.0729C77.3249 48.2569 77.9729 47.6329 78.8209 47.2009C79.6849 46.7529 80.6769 46.5289 81.7969 46.5289ZM96.786 64.3129C95.602 64.3129 94.442 64.1529 93.306 63.8329C92.186 63.5289 91.266 63.0809 90.546 62.4889L91.89 60.2329C92.45 60.6969 93.154 61.0649 94.002 61.3369C94.866 61.6249 95.738 61.7689 96.618 61.7689C98.026 61.7689 99.058 61.4409 99.714 60.7849C100.37 60.1449 100.698 59.1769 100.698 57.8809V55.6009L100.938 52.6969L100.842 49.7929V46.6729H103.698V57.5449C103.698 59.8649 103.106 61.5689 101.922 62.6569C100.738 63.7609 99.026 64.3129 96.786 64.3129ZM96.402 58.9129C95.186 58.9129 94.082 58.6569 93.09 58.1449C92.114 57.6169 91.338 56.8889 90.762 55.9609C90.202 55.0329 89.922 53.9449 89.922 52.6969C89.922 51.4649 90.202 50.3849 90.762 49.4569C91.338 48.5289 92.114 47.8089 93.09 47.2969C94.082 46.7849 95.186 46.5289 96.402 46.5289C97.49 46.5289 98.466 46.7449 99.33 47.1769C100.194 47.6089 100.882 48.2809 101.394 49.1929C101.922 50.1049 102.186 51.2729 102.186 52.6969C102.186 54.1209 101.922 55.2969 101.394 56.2249C100.882 57.1369 100.194 57.8169 99.33 58.2649C98.466 58.6969 97.49 58.9129 96.402 58.9129ZM96.858 56.3689C97.61 56.3689 98.282 56.2169 98.874 55.9129C99.466 55.5929 99.922 55.1609 100.242 54.6169C100.578 54.0569 100.746 53.4169 100.746 52.6969C100.746 51.9769 100.578 51.3449 100.242 50.8009C99.922 50.2409 99.466 49.8169 98.874 49.5289C98.282 49.2249 97.61 49.0729 96.858 49.0729C96.106 49.0729 95.426 49.2249 94.818 49.5289C94.226 49.8169 93.762 50.2409 93.426 50.8009C93.106 51.3449 92.946 51.9769 92.946 52.6969C92.946 53.4169 93.106 54.0569 93.426 54.6169C93.762 55.1609 94.226 55.5929 94.818 55.9129C95.426 56.2169 96.106 56.3689 96.858 56.3689Z" fill="white"/>
<g>
<path d="M23.8591 84.2886V72.4547H25.1101V83.2066H31.7371V84.2886H23.8591ZM37.1986 84.3731C36.2744 84.3731 35.4629 84.1815 34.7641 83.7983C34.0654 83.4038 33.5188 82.8685 33.1243 82.1923C32.7298 81.5048 32.5326 80.7215 32.5326 79.8424C32.5326 78.9633 32.7186 78.1857 33.0905 77.5094C33.4737 76.8332 33.9921 76.3035 34.6458 75.9203C35.3108 75.5258 36.0546 75.3286 36.8773 75.3286C37.7114 75.3286 38.4496 75.5202 39.092 75.9034C39.7457 76.2753 40.2585 76.805 40.6304 77.4925C41.0023 78.1687 41.1883 78.952 41.1883 79.8424C41.1883 79.8988 41.1826 79.9607 41.1714 80.0284C41.1714 80.0847 41.1714 80.1467 41.1714 80.2143H33.4455V79.3183H40.529L40.0556 79.6733C40.0556 79.0309 39.9147 78.4618 39.633 77.9659C39.3625 77.4587 38.9905 77.0643 38.5172 76.7825C38.0438 76.5007 37.4972 76.3599 36.8773 76.3599C36.2687 76.3599 35.7221 76.5007 35.2375 76.7825C34.7529 77.0643 34.3753 77.4587 34.1048 77.9659C33.8343 78.473 33.6991 79.0535 33.6991 79.7072V79.8931C33.6991 80.5693 33.8456 81.1667 34.1386 81.6851C34.4429 82.1923 34.8599 82.5924 35.3897 82.8854C35.9306 83.1672 36.5449 83.308 37.2324 83.308C37.7733 83.308 38.2749 83.2122 38.737 83.0207C39.2103 82.8291 39.6161 82.536 39.9542 82.1416L40.6304 82.9192C40.2359 83.3926 39.74 83.7532 39.1427 84.0012C38.5566 84.2491 37.9086 84.3731 37.1986 84.3731ZM47.3168 84.3731C46.4377 84.3731 45.6488 84.1815 44.95 83.7983C44.2625 83.4038 43.7216 82.8685 43.3271 82.1923C42.9326 81.5048 42.7354 80.7215 42.7354 79.8424C42.7354 78.952 42.9326 78.1687 43.3271 77.4925C43.7216 76.8163 44.2625 76.2866 44.95 75.9034C45.6488 75.5202 46.4377 75.3286 47.3168 75.3286C48.0719 75.3286 48.7538 75.4751 49.3624 75.7682C49.971 76.0612 50.45 76.5007 50.7994 77.0868L49.9034 77.6954C49.5991 77.2446 49.2215 76.9121 48.7707 76.698C48.3199 76.4838 47.8296 76.3768 47.2999 76.3768C46.6688 76.3768 46.0996 76.5233 45.5924 76.8163C45.0853 77.0981 44.6852 77.4982 44.3921 78.0166C44.0991 78.535 43.9526 79.1436 43.9526 79.8424C43.9526 80.5412 44.0991 81.1498 44.3921 81.6682C44.6852 82.1866 45.0853 82.5924 45.5924 82.8854C46.0996 83.1672 46.6688 83.308 47.2999 83.308C47.8296 83.308 48.3199 83.201 48.7707 82.9868C49.2215 82.7727 49.5991 82.4459 49.9034 82.0063L50.7994 82.6149C50.45 83.1897 49.971 83.6293 49.3624 83.9336C48.7538 84.2266 48.0719 84.3731 47.3168 84.3731ZM56.0627 84.3731C55.2287 84.3731 54.5863 84.1477 54.1354 83.6969C53.6846 83.2461 53.4592 82.6093 53.4592 81.7865V73.4521H54.6595V81.7189C54.6595 82.2374 54.7891 82.6375 55.0483 82.9192C55.3188 83.201 55.702 83.3419 56.1979 83.3419C56.7276 83.3419 57.1672 83.1897 57.5166 82.8854L57.9392 83.7476C57.7025 83.9617 57.4151 84.1195 57.077 84.2209C56.7502 84.3224 56.4121 84.3731 56.0627 84.3731ZM51.8701 76.4106V75.4131H57.3644V76.4106H51.8701ZM63.7928 84.3731C63.0376 84.3731 62.3783 84.2322 61.8148 83.9505C61.2513 83.6687 60.8117 83.2461 60.4962 82.6825C60.1919 82.119 60.0397 81.4146 60.0397 80.5693V75.4131H61.24V80.4341C61.24 81.3808 61.4711 82.0965 61.9331 82.5811C62.4065 83.0545 63.0658 83.2911 63.9111 83.2911C64.531 83.2911 65.0663 83.1672 65.5171 82.9192C65.9792 82.66 66.3286 82.2881 66.5653 81.8034C66.8132 81.3188 66.9372 80.7384 66.9372 80.0622V75.4131H68.1375V84.2886H66.9879V81.8542L67.1739 82.2937C66.8921 82.9474 66.4526 83.4602 65.8552 83.8321C65.2692 84.1928 64.5817 84.3731 63.7928 84.3731ZM71.4827 84.2886V75.4131H72.6323V77.8306L72.5139 77.408C72.7619 76.7318 73.1789 76.219 73.7649 75.8696C74.351 75.5089 75.0779 75.3286 75.9458 75.3286V76.4951C75.9007 76.4951 75.8556 76.4951 75.8105 76.4951C75.7654 76.4838 75.7203 76.4782 75.6753 76.4782C74.7398 76.4782 74.0072 76.7656 73.4775 77.3404C72.9478 77.9039 72.683 78.7097 72.683 79.7579V84.2886H71.4827ZM81.8234 84.3731C80.8992 84.3731 80.0877 84.1815 79.3889 83.7983C78.6902 83.4038 78.1436 82.8685 77.7491 82.1923C77.3546 81.5048 77.1574 80.7215 77.1574 79.8424C77.1574 78.9633 77.3434 78.1857 77.7153 77.5094C78.0985 76.8332 78.6169 76.3035 79.2706 75.9203C79.9356 75.5258 80.6794 75.3286 81.5021 75.3286C82.3362 75.3286 83.0744 75.5202 83.7168 75.9034C84.3705 76.2753 84.8833 76.805 85.2552 77.4925C85.6271 78.1687 85.8131 78.952 85.8131 79.8424C85.8131 79.8988 85.8074 79.9607 85.7962 80.0284C85.7962 80.0847 85.7962 80.1467 85.7962 80.2143H78.0703V79.3183H85.1538L84.6804 79.6733C84.6804 79.0309 84.5395 78.4618 84.2578 77.9659C83.9873 77.4587 83.6153 77.0643 83.142 76.7825C82.6686 76.5007 82.122 76.3599 81.5021 76.3599C80.8935 76.3599 80.3469 76.5007 79.8623 76.7825C79.3777 77.0643 79.0001 77.4587 78.7296 77.9659C78.4591 78.473 78.3239 79.0535 78.3239 79.7072V79.8931C78.3239 80.5693 78.4704 81.1667 78.7634 81.6851C79.0677 82.1923 79.4847 82.5924 80.0145 82.8854C80.5554 83.1672 81.1697 83.308 81.8572 83.308C82.3981 83.308 82.8997 83.2122 83.3618 83.0207C83.8351 82.8291 84.2409 82.536 84.579 82.1416L85.2552 82.9192C84.8607 83.3926 84.3648 83.7532 83.7675 84.0012C83.1814 84.2491 82.5334 84.3731 81.8234 84.3731ZM90.6399 84.3731C89.9073 84.3731 89.2142 84.2717 88.5605 84.0688C87.9068 83.8547 87.394 83.5898 87.0221 83.2742L87.5631 82.3275C87.9237 82.598 88.3858 82.8347 88.9493 83.0376C89.5128 83.2292 90.1045 83.325 90.7244 83.325C91.5697 83.325 92.1783 83.1953 92.5502 82.9361C92.9221 82.6656 93.1081 82.3106 93.1081 81.8711C93.1081 81.5442 93.001 81.2906 92.7869 81.1103C92.584 80.9187 92.3135 80.7778 91.9754 80.6877C91.6373 80.5862 91.2597 80.5017 90.8427 80.4341C90.4257 80.3665 90.0087 80.2876 89.5917 80.1974C89.186 80.1073 88.8141 79.9776 88.476 79.8086C88.1378 79.6283 87.8617 79.386 87.6476 79.0816C87.4447 78.7773 87.3433 78.3716 87.3433 77.8644C87.3433 77.3798 87.4785 76.9459 87.749 76.5627C88.0195 76.1795 88.414 75.8809 88.9324 75.6667C89.4621 75.4413 90.1045 75.3286 90.8596 75.3286C91.4344 75.3286 92.0092 75.4075 92.584 75.5653C93.1588 75.7118 93.6322 75.909 94.0041 76.157L93.48 77.1206C93.0855 76.8501 92.6629 76.6585 92.2121 76.5458C91.7613 76.4218 91.3105 76.3599 90.8596 76.3599C90.0595 76.3599 89.4678 76.5007 89.0846 76.7825C88.7126 77.053 88.5267 77.4024 88.5267 77.8306C88.5267 78.1687 88.6281 78.4336 88.831 78.6252C89.0451 78.8168 89.3212 78.9689 89.6594 79.0816C90.0087 79.1831 90.3863 79.2676 90.792 79.3352C91.209 79.4029 91.6204 79.4874 92.0261 79.5888C92.4431 79.679 92.8207 79.8086 93.1588 79.9776C93.5082 80.1354 93.7843 80.3665 93.9872 80.6708C94.2013 80.9638 94.3084 81.3526 94.3084 81.8373C94.3084 82.3557 94.1619 82.8065 93.8688 83.1897C93.5871 83.5616 93.1701 83.8547 92.6178 84.0688C92.0769 84.2717 91.4175 84.3731 90.6399 84.3731Z" fill="white"/>
</g>
<g opacity="0.7" clip-path="url(#clip0_77_30)">
<path d="M220.334 46.0361C212.154 46.0361 205.499 52.6915 205.499 60.872C205.499 69.0525 212.154 75.7079 220.334 75.7079C228.515 75.7079 235.17 69.0525 235.17 60.872C235.17 52.6915 228.515 46.0361 220.334 46.0361ZM225.784 61.8255L218.591 69.0189C218.327 69.2822 217.982 69.4139 217.637 69.4139C217.292 69.4139 216.947 69.2823 216.683 69.0188C216.157 68.4922 216.157 67.6382 216.683 67.1115L222.923 60.8717L216.683 54.6324C216.157 54.1057 216.157 53.2517 216.683 52.725C217.21 52.1983 218.064 52.1983 218.591 52.725L225.784 59.918C226.037 60.1709 226.179 60.514 226.179 60.8716C226.179 61.2295 226.037 61.5726 225.784 61.8255Z" fill="white"/>
</g>
<defs>
<linearGradient id="paint0_linear_77_30" x1="138.33" y1="9.96704" x2="138.33" y2="103.221" gradientUnits="userSpaceOnUse">
<stop stop-color="#4C5A80"/>
<stop offset="1" stop-color="#60627D"/>
</linearGradient>
<clipPath id="clip0_77_30">
<rect width="29.6719" height="29.6719" fill="white" transform="translate(205.499 46.0361)"/>
</clipPath>
</defs>
</svg>
