<svg width="374" height="140" viewBox="0 0 374 140" fill="none" xmlns="http://www.w3.org/2000/svg">
<g filter="url(#filter0_d_15_2)">
<path d="M4 121V11C4 4.92487 8.92486 0 15 0H358.848C364.923 0 369.848 4.92487 369.848 11V121C369.848 127.075 364.923 132 358.848 132H15C8.92487 132 4 127.075 4 121Z" fill="url(#paint0_linear_15_2)" fill-opacity="0.42" shape-rendering="crispEdges"/>
</g>
<g filter="url(#filter1_d_15_2)">
<path d="M24.6857 59V39H34.0571C36.4571 39 38.2857 39.4762 39.5429 40.4286C40.8 41.3619 41.4286 42.619 41.4286 44.2C41.4286 45.2667 41.181 46.181 40.6857 46.9429C40.1905 47.6857 39.5238 48.2667 38.6857 48.6857C37.8667 49.0857 36.9714 49.2857 36 49.2857L36.5143 48.2571C37.6381 48.2571 38.6476 48.4667 39.5429 48.8857C40.4381 49.2857 41.1429 49.8762 41.6571 50.6571C42.1905 51.4381 42.4571 52.4095 42.4571 53.5714C42.4571 55.2857 41.8 56.619 40.4857 57.5714C39.1714 58.5238 37.219 59 34.6286 59H24.6857ZM28.4 56.0857H34.4C35.7905 56.0857 36.8571 55.8571 37.6 55.4C38.3429 54.9429 38.7143 54.2095 38.7143 53.2C38.7143 52.2095 38.3429 51.4857 37.6 51.0286C36.8571 50.5524 35.7905 50.3143 34.4 50.3143H28.1143V47.4286H33.6571C34.9524 47.4286 35.9429 47.2 36.6286 46.7429C37.3333 46.2857 37.6857 45.6 37.6857 44.6857C37.6857 43.7524 37.3333 43.0571 36.6286 42.6C35.9429 42.1429 34.9524 41.9143 33.6571 41.9143H28.4V56.0857ZM52.9355 59.2C51.3736 59.2 49.9831 58.8667 48.7641 58.2C47.545 57.5143 46.5831 56.581 45.8783 55.4C45.1736 54.219 44.8212 52.8762 44.8212 51.3714C44.8212 49.8476 45.1736 48.5048 45.8783 47.3429C46.5831 46.1619 47.545 45.2381 48.7641 44.5714C49.9831 43.9048 51.3736 43.5714 52.9355 43.5714C54.5164 43.5714 55.9164 43.9048 57.1355 44.5714C58.3736 45.2381 59.3355 46.1524 60.0212 47.3143C60.726 48.4762 61.0783 49.8286 61.0783 51.3714C61.0783 52.8762 60.726 54.219 60.0212 55.4C59.3355 56.581 58.3736 57.5143 57.1355 58.2C55.9164 58.8667 54.5164 59.2 52.9355 59.2ZM52.9355 56.1429C53.8117 56.1429 54.5926 55.9524 55.2783 55.5714C55.9641 55.1905 56.4974 54.6381 56.8783 53.9143C57.2783 53.1905 57.4783 52.3429 57.4783 51.3714C57.4783 50.381 57.2783 49.5333 56.8783 48.8286C56.4974 48.1048 55.9641 47.5524 55.2783 47.1714C54.5926 46.7905 53.8212 46.6 52.9641 46.6C52.0879 46.6 51.3069 46.7905 50.6212 47.1714C49.9545 47.5524 49.4212 48.1048 49.0212 48.8286C48.6212 49.5333 48.4212 50.381 48.4212 51.3714C48.4212 52.3429 48.6212 53.1905 49.0212 53.9143C49.4212 54.6381 49.9545 55.1905 50.6212 55.5714C51.3069 55.9524 52.0783 56.1429 52.9355 56.1429ZM64.4935 59V43.7429H67.8935V47.9429L67.4935 46.7143C67.9507 45.6857 68.665 44.9048 69.6364 44.3714C70.6269 43.8381 71.8554 43.5714 73.3221 43.5714V46.9714C73.1697 46.9333 73.0269 46.9143 72.8935 46.9143C72.7602 46.8952 72.6269 46.8857 72.4935 46.8857C71.1411 46.8857 70.065 47.2857 69.265 48.0857C68.465 48.8667 68.065 50.0381 68.065 51.6V59H64.4935ZM76.3518 59V43.7429H79.9232V59H76.3518ZM78.1518 41.2286C77.4851 41.2286 76.9327 41.019 76.4946 40.6C76.0756 40.181 75.8661 39.6762 75.8661 39.0857C75.8661 38.4762 76.0756 37.9714 76.4946 37.5714C76.9327 37.1524 77.4851 36.9429 78.1518 36.9429C78.8185 36.9429 79.3613 37.1429 79.7804 37.5429C80.2185 37.9238 80.4375 38.4095 80.4375 39C80.4375 39.6286 80.228 40.1619 79.8089 40.6C79.3899 41.019 78.8375 41.2286 78.1518 41.2286ZM93.2679 43.5714C94.4869 43.5714 95.5726 43.8095 96.525 44.2857C97.4964 44.7619 98.2583 45.4952 98.8107 46.4857C99.3631 47.4571 99.6393 48.7143 99.6393 50.2571V59H96.0679V50.7143C96.0679 49.3619 95.744 48.3524 95.0964 47.6857C94.4679 47.019 93.5821 46.6857 92.4393 46.6857C91.6012 46.6857 90.8583 46.8571 90.2107 47.2C89.5631 47.5429 89.0583 48.0571 88.6964 48.7429C88.3536 49.4095 88.1821 50.2571 88.1821 51.2857V59H84.6107V43.7429H88.0107V47.8571L87.4107 46.6C87.944 45.6286 88.7155 44.8857 89.725 44.3714C90.7536 43.8381 91.9345 43.5714 93.2679 43.5714ZM111.112 64.7429C109.703 64.7429 108.322 64.5524 106.969 64.1714C105.636 63.8095 104.541 63.2762 103.683 62.5714L105.283 59.8857C105.95 60.4381 106.788 60.8762 107.798 61.2C108.826 61.5429 109.864 61.7143 110.912 61.7143C112.588 61.7143 113.817 61.3238 114.598 60.5429C115.379 59.781 115.769 58.6286 115.769 57.0857V54.3714L116.055 50.9143L115.941 47.4571V43.7429H119.341V56.6857C119.341 59.4476 118.636 61.4762 117.226 62.7714C115.817 64.0857 113.779 64.7429 111.112 64.7429ZM110.655 58.3143C109.207 58.3143 107.893 58.0095 106.712 57.4C105.55 56.7714 104.626 55.9048 103.941 54.8C103.274 53.6952 102.941 52.4 102.941 50.9143C102.941 49.4476 103.274 48.1619 103.941 47.0571C104.626 45.9524 105.55 45.0952 106.712 44.4857C107.893 43.8762 109.207 43.5714 110.655 43.5714C111.95 43.5714 113.112 43.8286 114.141 44.3429C115.169 44.8571 115.988 45.6571 116.598 46.7429C117.226 47.8286 117.541 49.219 117.541 50.9143C117.541 52.6095 117.226 54.0095 116.598 55.1143C115.988 56.2 115.169 57.0095 114.141 57.5429C113.112 58.0571 111.95 58.3143 110.655 58.3143ZM111.198 55.2857C112.093 55.2857 112.893 55.1048 113.598 54.7429C114.303 54.3619 114.845 53.8476 115.226 53.2C115.626 52.5333 115.826 51.7714 115.826 50.9143C115.826 50.0571 115.626 49.3048 115.226 48.6571C114.845 47.9905 114.303 47.4857 113.598 47.1429C112.893 46.781 112.093 46.6 111.198 46.6C110.303 46.6 109.493 46.781 108.769 47.1429C108.064 47.4857 107.512 47.9905 107.112 48.6571C106.731 49.3048 106.541 50.0571 106.541 50.9143C106.541 51.7714 106.731 52.5333 107.112 53.2C107.512 53.8476 108.064 54.3619 108.769 54.7429C109.493 55.1048 110.303 55.2857 111.198 55.2857ZM135.304 59L129.704 43.7429H133.075L137.875 57.2H136.275L141.304 43.7429H144.304L149.189 57.2H147.618L152.561 43.7429H155.732L150.104 59H146.675L142.218 47.0857H143.275L138.732 59H135.304ZM164.941 59.2C163.245 59.2 161.76 58.8667 160.483 58.2C159.226 57.5143 158.245 56.581 157.541 55.4C156.855 54.219 156.512 52.8762 156.512 51.3714C156.512 49.8476 156.845 48.5048 157.512 47.3429C158.198 46.1619 159.131 45.2381 160.312 44.5714C161.512 43.9048 162.874 43.5714 164.398 43.5714C165.883 43.5714 167.207 43.8952 168.369 44.5429C169.531 45.1905 170.445 46.1048 171.112 47.2857C171.779 48.4667 172.112 49.8571 172.112 51.4571C172.112 51.6095 172.103 51.781 172.083 51.9714C172.083 52.1619 172.074 52.3429 172.055 52.5143H159.341V50.1429H170.169L168.769 50.8857C168.788 50.0095 168.607 49.2381 168.226 48.5714C167.845 47.9048 167.322 47.381 166.655 47C166.007 46.619 165.255 46.4286 164.398 46.4286C163.522 46.4286 162.75 46.619 162.083 47C161.436 47.381 160.922 47.9143 160.541 48.6C160.179 49.2667 159.998 50.0571 159.998 50.9714V51.5429C159.998 52.4571 160.207 53.2667 160.626 53.9714C161.045 54.6762 161.636 55.219 162.398 55.6C163.16 55.981 164.036 56.1714 165.026 56.1714C165.883 56.1714 166.655 56.0381 167.341 55.7714C168.026 55.5048 168.636 55.0857 169.169 54.5143L171.083 56.7143C170.398 57.5143 169.531 58.1333 168.483 58.5714C167.455 58.9905 166.274 59.2 164.941 59.2ZM184.524 59V55.9143L184.324 55.2571V49.8571C184.324 48.8095 184.01 48 183.381 47.4286C182.753 46.8381 181.8 46.5429 180.524 46.5429C179.667 46.5429 178.819 46.6762 177.981 46.9429C177.162 47.2095 176.467 47.581 175.896 48.0571L174.496 45.4571C175.315 44.8286 176.286 44.3619 177.41 44.0571C178.553 43.7333 179.734 43.5714 180.953 43.5714C183.162 43.5714 184.867 44.1048 186.067 45.1714C187.286 46.219 187.896 47.8476 187.896 50.0571V59H184.524ZM179.724 59.2C178.581 59.2 177.581 59.0095 176.724 58.6286C175.867 58.2286 175.2 57.6857 174.724 57C174.267 56.2952 174.038 55.5048 174.038 54.6286C174.038 53.7714 174.238 53 174.638 52.3143C175.057 51.6286 175.734 51.0857 176.667 50.6857C177.6 50.2857 178.838 50.0857 180.381 50.0857H184.81V52.4571H180.638C179.419 52.4571 178.6 52.6571 178.181 53.0571C177.762 53.4381 177.553 53.9143 177.553 54.4857C177.553 55.1333 177.81 55.6476 178.324 56.0286C178.838 56.4095 179.553 56.6 180.467 56.6C181.343 56.6 182.124 56.4 182.81 56C183.515 55.6 184.019 55.0095 184.324 54.2286L184.924 56.3714C184.581 57.2667 183.962 57.9619 183.067 58.4571C182.191 58.9524 181.076 59.2 179.724 59.2ZM198.222 59.2C196.546 59.2 195.25 58.7714 194.336 57.9143C193.422 57.0381 192.965 55.7524 192.965 54.0571V40.3714H196.536V53.9714C196.536 54.6952 196.717 55.2571 197.079 55.6571C197.46 56.0571 197.984 56.2571 198.65 56.2571C199.45 56.2571 200.117 56.0476 200.65 55.6286L201.65 58.1714C201.231 58.5143 200.717 58.7714 200.108 58.9429C199.498 59.1143 198.869 59.2 198.222 59.2ZM190.45 46.7143V43.8571H200.622V46.7143H190.45ZM213.246 43.5714C214.465 43.5714 215.55 43.8095 216.503 44.2857C217.474 44.7619 218.236 45.4952 218.788 46.4857C219.341 47.4571 219.617 48.7143 219.617 50.2571V59H216.046V50.7143C216.046 49.3619 215.722 48.3524 215.074 47.6857C214.446 47.019 213.56 46.6857 212.417 46.6857C211.579 46.6857 210.836 46.8571 210.188 47.2C209.541 47.5429 209.036 48.0571 208.674 48.7429C208.331 49.4095 208.16 50.2571 208.16 51.2857V59H204.588V37.8H208.16V47.8571L207.388 46.6C207.922 45.6286 208.693 44.8857 209.703 44.3714C210.731 43.8381 211.912 43.5714 213.246 43.5714ZM231.347 59.2C229.652 59.2 228.166 58.8667 226.89 58.2C225.633 57.5143 224.652 56.581 223.947 55.4C223.261 54.219 222.918 52.8762 222.918 51.3714C222.918 49.8476 223.252 48.5048 223.918 47.3429C224.604 46.1619 225.537 45.2381 226.718 44.5714C227.918 43.9048 229.28 43.5714 230.804 43.5714C232.29 43.5714 233.614 43.8952 234.775 44.5429C235.937 45.1905 236.852 46.1048 237.518 47.2857C238.185 48.4667 238.518 49.8571 238.518 51.4571C238.518 51.6095 238.509 51.781 238.49 51.9714C238.49 52.1619 238.48 52.3429 238.461 52.5143H225.747V50.1429H236.575L235.175 50.8857C235.194 50.0095 235.014 49.2381 234.633 48.5714C234.252 47.9048 233.728 47.381 233.061 47C232.414 46.619 231.661 46.4286 230.804 46.4286C229.928 46.4286 229.156 46.619 228.49 47C227.842 47.381 227.328 47.9143 226.947 48.6C226.585 49.2667 226.404 50.0571 226.404 50.9714V51.5429C226.404 52.4571 226.614 53.2667 227.033 53.9714C227.452 54.6762 228.042 55.219 228.804 55.6C229.566 55.981 230.442 56.1714 231.433 56.1714C232.29 56.1714 233.061 56.0381 233.747 55.7714C234.433 55.5048 235.042 55.0857 235.575 54.5143L237.49 56.7143C236.804 57.5143 235.937 58.1333 234.89 58.5714C233.861 58.9905 232.68 59.2 231.347 59.2ZM241.949 59V43.7429H245.349V47.9429L244.949 46.7143C245.406 45.6857 246.12 44.9048 247.092 44.3714C248.082 43.8381 249.311 43.5714 250.777 43.5714V46.9714C250.625 46.9333 250.482 46.9143 250.349 46.9143C250.216 46.8952 250.082 46.8857 249.949 46.8857C248.596 46.8857 247.52 47.2857 246.72 48.0857C245.92 48.8667 245.52 50.0381 245.52 51.6V59H241.949Z" fill="white"/>
</g>
<g filter="url(#filter2_d_15_2)">
<path d="M26.6152 92L22.6255 80.1661H23.9103L27.6465 91.3069H27.0041L30.8585 80.1661H32.0081L35.8119 91.3069H35.2033L38.9732 80.1661H40.1735L36.1838 92H34.8652L31.2304 81.434H31.5686L27.917 92H26.6152ZM45.3067 92.0845C44.3826 92.0845 43.5711 91.8929 42.8723 91.5097C42.1736 91.1153 41.6269 90.5799 41.2325 89.9037C40.838 89.2162 40.6408 88.4329 40.6408 87.5538C40.6408 86.6747 40.8267 85.8971 41.1987 85.2209C41.5819 84.5446 42.1003 84.0149 42.754 83.6317C43.4189 83.2373 44.1628 83.04 44.9855 83.04C45.8195 83.04 46.5577 83.2316 47.2002 83.6148C47.8538 83.9868 48.3666 84.5165 48.7386 85.204C49.1105 85.8802 49.2964 86.6635 49.2964 87.5538C49.2964 87.6102 49.2908 87.6722 49.2795 87.7398C49.2795 87.7961 49.2795 87.8581 49.2795 87.9258H41.5537V87.0298H48.6371L48.1638 87.3848C48.1638 86.7424 48.0229 86.1732 47.7411 85.6773C47.4706 85.1701 47.0987 84.7757 46.6254 84.4939C46.152 84.2122 45.6054 84.0713 44.9855 84.0713C44.3769 84.0713 43.8303 84.2122 43.3457 84.4939C42.8611 84.7757 42.4835 85.1701 42.213 85.6773C41.9425 86.1845 41.8073 86.7649 41.8073 87.4186V87.6045C41.8073 88.2808 41.9538 88.8781 42.2468 89.3965C42.5511 89.9037 42.9681 90.3038 43.4978 90.5968C44.0388 90.8786 44.653 91.0195 45.3405 91.0195C45.8815 91.0195 46.383 90.9237 46.8451 90.7321C47.3185 90.5405 47.7242 90.2475 48.0623 89.853L48.7386 90.6306C48.3441 91.104 47.8482 91.4647 47.2509 91.7126C46.6648 91.9606 46.0168 92.0845 45.3067 92.0845ZM57.0539 92V90.039L57.0031 89.7177V86.4381C57.0031 85.6829 56.789 85.1025 56.3607 84.6968C55.9437 84.2911 55.3182 84.0882 54.4842 84.0882C53.9094 84.0882 53.3628 84.184 52.8444 84.3756C52.3259 84.5672 51.8864 84.8208 51.5257 85.1363L50.9848 84.2403C51.4356 83.8571 51.9766 83.5641 52.6077 83.3612C53.2388 83.1471 53.9038 83.04 54.6026 83.04C55.7521 83.04 56.6369 83.3274 57.2567 83.9022C57.8879 84.4657 58.2034 85.3279 58.2034 86.4888V92H57.0539ZM53.994 92.0845C53.329 92.0845 52.7486 91.9775 52.2527 91.7633C51.768 91.5379 51.3961 91.2336 51.1369 90.8504C50.8777 90.456 50.7481 90.0051 50.7481 89.498C50.7481 89.0359 50.8551 88.6189 51.0693 88.247C51.2947 87.8638 51.6553 87.5595 52.1512 87.3341C52.6584 87.0974 53.3346 86.979 54.1799 86.979H57.2398V87.875H54.2137C53.3572 87.875 52.7598 88.0272 52.4217 88.3315C52.0949 88.6358 51.9315 89.0133 51.9315 89.4642C51.9315 89.9713 52.1287 90.3771 52.5232 90.6814C52.9176 90.9857 53.4699 91.1378 54.1799 91.1378C54.8561 91.1378 55.4366 90.9857 55.9212 90.6814C56.4171 90.3658 56.7777 89.915 57.0031 89.3289L57.2736 90.1573C57.0482 90.7434 56.6538 91.2111 56.0902 91.5605C55.538 91.9098 54.8392 92.0845 53.994 92.0845ZM64.2699 92.0845C63.4359 92.0845 62.7935 91.8591 62.3427 91.4083C61.8919 90.9575 61.6664 90.3207 61.6664 89.498V81.1635H62.8667V89.4304C62.8667 89.9488 62.9964 90.3489 63.2556 90.6306C63.5261 90.9124 63.9093 91.0533 64.4051 91.0533C64.9349 91.0533 65.3744 90.9011 65.7238 90.5968L66.1464 91.459C65.9097 91.6732 65.6224 91.8309 65.2842 91.9324C64.9574 92.0338 64.6193 92.0845 64.2699 92.0845ZM60.0773 84.122V83.1246H65.5716V84.122H60.0773ZM72.8622 83.04C73.5835 83.04 74.2146 83.1809 74.7556 83.4627C75.3078 83.7332 75.7361 84.1502 76.0404 84.7137C76.356 85.2772 76.5138 85.9872 76.5138 86.8438V92H75.3135V86.9621C75.3135 86.0267 75.0768 85.3223 74.6034 84.8489C74.1414 84.3643 73.4877 84.122 72.6424 84.122C72.0113 84.122 71.459 84.2516 70.9856 84.5108C70.5236 84.7588 70.1629 85.1251 69.9037 85.6097C69.6557 86.083 69.5318 86.6578 69.5318 87.3341V92H68.3315V79.4561H69.5318V85.559L69.2951 85.1025C69.5768 84.4601 70.0277 83.9586 70.6475 83.5979C71.2674 83.226 72.0056 83.04 72.8622 83.04ZM83.5259 92.0845C82.6017 92.0845 81.7903 91.8929 81.0915 91.5097C80.3927 91.1153 79.8461 90.5799 79.4516 89.9037C79.0572 89.2162 78.86 88.4329 78.86 87.5538C78.86 86.6747 79.0459 85.8971 79.4178 85.2209C79.801 84.5446 80.3195 84.0149 80.9731 83.6317C81.6381 83.2373 82.3819 83.04 83.2047 83.04C84.0387 83.04 84.7769 83.2316 85.4193 83.6148C86.073 83.9868 86.5858 84.5165 86.9577 85.204C87.3296 85.8802 87.5156 86.6635 87.5156 87.5538C87.5156 87.6102 87.51 87.6722 87.4987 87.7398C87.4987 87.7961 87.4987 87.8581 87.4987 87.9258H79.7729V87.0298H86.8563L86.3829 87.3848C86.3829 86.7424 86.2421 86.1732 85.9603 85.6773C85.6898 85.1701 85.3179 84.7757 84.8445 84.4939C84.3712 84.2122 83.8246 84.0713 83.2047 84.0713C82.5961 84.0713 82.0495 84.2122 81.5648 84.4939C81.0802 84.7757 80.7027 85.1701 80.4322 85.6773C80.1617 86.1845 80.0264 86.7649 80.0264 87.4186V87.6045C80.0264 88.2808 80.173 88.8781 80.466 89.3965C80.7703 89.9037 81.1873 90.3038 81.717 90.5968C82.258 90.8786 82.8722 91.0195 83.5597 91.0195C84.1007 91.0195 84.6022 90.9237 85.0643 90.7321C85.5377 90.5405 85.9434 90.2475 86.2815 89.853L86.9577 90.6306C86.5633 91.104 86.0674 91.4647 85.47 91.7126C84.884 91.9606 84.2359 92.0845 83.5259 92.0845ZM89.9587 92V83.1246H91.1083V85.5421L90.99 85.1194C91.2379 84.4432 91.6549 83.9304 92.241 83.581C92.827 83.2204 93.554 83.04 94.4218 83.04V84.2065C94.3767 84.2065 94.3316 84.2065 94.2866 84.2065C94.2415 84.1953 94.1964 84.1896 94.1513 84.1896C93.2159 84.1896 92.4833 84.477 91.9536 85.0518C91.4239 85.6153 91.159 86.4212 91.159 87.4693V92H89.9587ZM104.854 92.0845C103.975 92.0845 103.186 91.8929 102.487 91.5097C101.8 91.1153 101.259 90.5799 100.864 89.9037C100.47 89.2162 100.273 88.4329 100.273 87.5538C100.273 86.6635 100.47 85.8802 100.864 85.204C101.259 84.5277 101.8 83.998 102.487 83.6148C103.186 83.2316 103.975 83.04 104.854 83.04C105.609 83.04 106.291 83.1866 106.9 83.4796C107.508 83.7726 107.987 84.2122 108.337 84.7982L107.441 85.4068C107.136 84.956 106.759 84.6235 106.308 84.4094C105.857 84.1953 105.367 84.0882 104.837 84.0882C104.206 84.0882 103.637 84.2347 103.13 84.5277C102.622 84.8095 102.222 85.2096 101.929 85.728C101.636 86.2465 101.49 86.8551 101.49 87.5538C101.49 88.2526 101.636 88.8612 101.929 89.3796C102.222 89.8981 102.622 90.3038 103.13 90.5968C103.637 90.8786 104.206 91.0195 104.837 91.0195C105.367 91.0195 105.857 90.9124 106.308 90.6983C106.759 90.4841 107.136 90.1573 107.441 89.7177L108.337 90.3263C107.987 90.9011 107.508 91.3407 106.9 91.645C106.291 91.938 105.609 92.0845 104.854 92.0845ZM115.093 83.04C115.814 83.04 116.446 83.1809 116.987 83.4627C117.539 83.7332 117.967 84.1502 118.271 84.7137C118.587 85.2772 118.745 85.9872 118.745 86.8438V92H117.544V86.9621C117.544 86.0267 117.308 85.3223 116.834 84.8489C116.372 84.3643 115.719 84.122 114.873 84.122C114.242 84.122 113.69 84.2516 113.217 84.5108C112.755 84.7588 112.394 85.1251 112.135 85.6097C111.887 86.083 111.763 86.6578 111.763 87.3341V92H110.562V79.4561H111.763V85.559L111.526 85.1025C111.808 84.4601 112.259 83.9586 112.878 83.5979C113.498 83.226 114.237 83.04 115.093 83.04ZM127.549 92V90.039L127.498 89.7177V86.4381C127.498 85.6829 127.284 85.1025 126.856 84.6968C126.439 84.2911 125.813 84.0882 124.979 84.0882C124.404 84.0882 123.858 84.184 123.339 84.3756C122.821 84.5672 122.381 84.8208 122.021 85.1363L121.48 84.2403C121.931 83.8571 122.472 83.5641 123.103 83.3612C123.734 83.1471 124.399 83.04 125.098 83.04C126.247 83.04 127.132 83.3274 127.752 83.9022C128.383 84.4657 128.698 85.3279 128.698 86.4888V92H127.549ZM124.489 92.0845C123.824 92.0845 123.244 91.9775 122.748 91.7633C122.263 91.5379 121.891 91.2336 121.632 90.8504C121.373 90.456 121.243 90.0051 121.243 89.498C121.243 89.0359 121.35 88.6189 121.564 88.247C121.79 87.8638 122.15 87.5595 122.646 87.3341C123.153 87.0974 123.83 86.979 124.675 86.979H127.735V87.875H124.709C123.852 87.875 123.255 88.0272 122.917 88.3315C122.59 88.6358 122.426 89.0133 122.426 89.4642C122.426 89.9713 122.624 90.3771 123.018 90.6814C123.413 90.9857 123.965 91.1378 124.675 91.1378C125.351 91.1378 125.932 90.9857 126.416 90.6814C126.912 90.3658 127.273 89.915 127.498 89.3289L127.769 90.1573C127.543 90.7434 127.149 91.2111 126.585 91.5605C126.033 91.9098 125.334 92.0845 124.489 92.0845ZM136.489 83.04C137.211 83.04 137.842 83.1809 138.383 83.4627C138.935 83.7332 139.363 84.1502 139.667 84.7137C139.983 85.2772 140.141 85.9872 140.141 86.8438V92H138.941V86.9621C138.941 86.0267 138.704 85.3223 138.231 84.8489C137.768 84.3643 137.115 84.122 136.269 84.122C135.638 84.122 135.086 84.2516 134.613 84.5108C134.151 84.7588 133.79 85.1251 133.531 85.6097C133.283 86.083 133.159 86.6578 133.159 87.3341V92H131.959V83.1246H133.108V85.559L132.922 85.1025C133.204 84.4601 133.655 83.9586 134.275 83.5979C134.894 83.226 135.633 83.04 136.489 83.04ZM147.914 83.04C148.635 83.04 149.266 83.1809 149.807 83.4627C150.359 83.7332 150.788 84.1502 151.092 84.7137C151.408 85.2772 151.565 85.9872 151.565 86.8438V92H150.365V86.9621C150.365 86.0267 150.128 85.3223 149.655 84.8489C149.193 84.3643 148.539 84.122 147.694 84.122C147.063 84.122 146.511 84.2516 146.037 84.5108C145.575 84.7588 145.214 85.1251 144.955 85.6097C144.707 86.083 144.583 86.6578 144.583 87.3341V92H143.383V83.1246H144.533V85.559L144.347 85.1025C144.628 84.4601 145.079 83.9586 145.699 83.5979C146.319 83.226 147.057 83.04 147.914 83.04ZM158.577 92.0845C157.653 92.0845 156.842 91.8929 156.143 91.5097C155.444 91.1153 154.898 90.5799 154.503 89.9037C154.109 89.2162 153.912 88.4329 153.912 87.5538C153.912 86.6747 154.097 85.8971 154.469 85.2209C154.853 84.5446 155.371 84.0149 156.025 83.6317C156.69 83.2373 157.434 83.04 158.256 83.04C159.09 83.04 159.828 83.2316 160.471 83.6148C161.125 83.9868 161.637 84.5165 162.009 85.204C162.381 85.8802 162.567 86.6635 162.567 87.5538C162.567 87.6102 162.562 87.6722 162.55 87.7398C162.55 87.7961 162.55 87.8581 162.55 87.9258H154.824V87.0298H161.908L161.434 87.3848C161.434 86.7424 161.294 86.1732 161.012 85.6773C160.741 85.1701 160.369 84.7757 159.896 84.4939C159.423 84.2122 158.876 84.0713 158.256 84.0713C157.648 84.0713 157.101 84.2122 156.616 84.4939C156.132 84.7757 155.754 85.1701 155.484 85.6773C155.213 86.1845 155.078 86.7649 155.078 87.4186V87.6045C155.078 88.2808 155.225 88.8781 155.518 89.3965C155.822 89.9037 156.239 90.3038 156.769 90.5968C157.31 90.8786 157.924 91.0195 158.611 91.0195C159.152 91.0195 159.654 90.9237 160.116 90.7321C160.589 90.5405 160.995 90.2475 161.333 89.853L162.009 90.6306C161.615 91.104 161.119 91.4647 160.522 91.7126C159.936 91.9606 159.287 92.0845 158.577 92.0845ZM165.01 92V79.4561H166.211V92H165.01Z" fill="white"/>
</g>
<g clip-path="url(#clip0_15_2)" filter="url(#filter3_d_15_2)">
<path d="M303 45.1667C291.5 45.1667 282.167 54.5 282.167 66C282.167 77.5 291.5 86.8333 303 86.8333C314.5 86.8333 323.833 77.5 323.833 66C323.833 54.5 314.5 45.1667 303 45.1667ZM297.792 75.375V56.625L312.375 66L297.792 75.375Z" fill="white"/>
</g>
<defs>
<filter id="filter0_d_15_2" x="0" y="0" width="373.848" height="140" filterUnits="userSpaceOnUse" color-interpolation-filters="sRGB">
<feFlood flood-opacity="0" result="BackgroundImageFix"/>
<feColorMatrix in="SourceAlpha" type="matrix" values="0 0 0 0 0 0 0 0 0 0 0 0 0 0 0 0 0 0 127 0" result="hardAlpha"/>
<feOffset dy="4"/>
<feGaussianBlur stdDeviation="2"/>
<feComposite in2="hardAlpha" operator="out"/>
<feColorMatrix type="matrix" values="0 0 0 0 0 0 0 0 0 0 0 0 0 0 0 0 0 0 0.25 0"/>
<feBlend mode="normal" in2="BackgroundImageFix" result="effect1_dropShadow_15_2"/>
<feBlend mode="normal" in="SourceGraphic" in2="effect1_dropShadow_15_2" result="shape"/>
</filter>
<filter id="filter1_d_15_2" x="20.6857" y="36.9429" width="234.092" height="35.8" filterUnits="userSpaceOnUse" color-interpolation-filters="sRGB">
<feFlood flood-opacity="0" result="BackgroundImageFix"/>
<feColorMatrix in="SourceAlpha" type="matrix" values="0 0 0 0 0 0 0 0 0 0 0 0 0 0 0 0 0 0 127 0" result="hardAlpha"/>
<feOffset dy="4"/>
<feGaussianBlur stdDeviation="2"/>
<feComposite in2="hardAlpha" operator="out"/>
<feColorMatrix type="matrix" values="0 0 0 0 0 0 0 0 0 0 0 0 0 0 0 0 0 0 0.25 0"/>
<feBlend mode="normal" in2="BackgroundImageFix" result="effect1_dropShadow_15_2"/>
<feBlend mode="normal" in="SourceGraphic" in2="effect1_dropShadow_15_2" result="shape"/>
</filter>
<filter id="filter2_d_15_2" x="18.6255" y="79.4561" width="151.585" height="20.6285" filterUnits="userSpaceOnUse" color-interpolation-filters="sRGB">
<feFlood flood-opacity="0" result="BackgroundImageFix"/>
<feColorMatrix in="SourceAlpha" type="matrix" values="0 0 0 0 0 0 0 0 0 0 0 0 0 0 0 0 0 0 127 0" result="hardAlpha"/>
<feOffset dy="4"/>
<feGaussianBlur stdDeviation="2"/>
<feComposite in2="hardAlpha" operator="out"/>
<feColorMatrix type="matrix" values="0 0 0 0 0 0 0 0 0 0 0 0 0 0 0 0 0 0 0.25 0"/>
<feBlend mode="normal" in2="BackgroundImageFix" result="effect1_dropShadow_15_2"/>
<feBlend mode="normal" in="SourceGraphic" in2="effect1_dropShadow_15_2" result="shape"/>
</filter>
<filter id="filter3_d_15_2" x="274" y="41" width="58" height="58" filterUnits="userSpaceOnUse" color-interpolation-filters="sRGB">
<feFlood flood-opacity="0" result="BackgroundImageFix"/>
<feColorMatrix in="SourceAlpha" type="matrix" values="0 0 0 0 0 0 0 0 0 0 0 0 0 0 0 0 0 0 127 0" result="hardAlpha"/>
<feOffset dy="4"/>
<feGaussianBlur stdDeviation="2"/>
<feComposite in2="hardAlpha" operator="out"/>
<feColorMatrix type="matrix" values="0 0 0 0 0 0 0 0 0 0 0 0 0 0 0 0 0 0 0.25 0"/>
<feBlend mode="normal" in2="BackgroundImageFix" result="effect1_dropShadow_15_2"/>
<feBlend mode="normal" in="SourceGraphic" in2="effect1_dropShadow_15_2" result="shape"/>
</filter>
<linearGradient id="paint0_linear_15_2" x1="186.924" y1="0" x2="186.924" y2="132" gradientUnits="userSpaceOnUse">
<stop stop-color="#7CB8FF" stop-opacity="0.46"/>
<stop offset="1" stop-color="#F8FBFF" stop-opacity="0.45"/>
</linearGradient>
<clipPath id="clip0_15_2">
<rect width="50" height="50" fill="white" transform="translate(278 41)"/>
</clipPath>
</defs>
</svg>
