<svg width="171" height="62" viewBox="0 0 171 62" fill="none" xmlns="http://www.w3.org/2000/svg">
<g>
<path d="M16.905 34V9.5H28.875C31.955 9.5 34.265 10.0833 35.805 11.25C37.3683 12.4167 38.15 13.9567 38.15 15.87C38.15 17.1533 37.835 18.2733 37.205 19.23C36.575 20.1633 35.7117 20.8867 34.615 21.4C33.5183 21.9133 32.2583 22.17 30.835 22.17L31.5 20.735C33.04 20.735 34.405 20.9917 35.595 21.505C36.785 21.995 37.7067 22.73 38.36 23.71C39.0367 24.69 39.375 25.8917 39.375 27.315C39.375 29.415 38.5467 31.06 36.89 32.25C35.2333 33.4167 32.795 34 29.575 34H16.905ZM22.54 29.73H29.155C30.625 29.73 31.7333 29.4967 32.48 29.03C33.25 28.54 33.635 27.77 33.635 26.72C33.635 25.6933 33.25 24.935 32.48 24.445C31.7333 23.9317 30.625 23.675 29.155 23.675H22.12V19.545H28.175C29.5517 19.545 30.6017 19.3117 31.325 18.845C32.0717 18.355 32.445 17.62 32.445 16.64C32.445 15.6833 32.0717 14.9717 31.325 14.505C30.6017 14.015 29.5517 13.77 28.175 13.77H22.54V29.73ZM52.2427 34.28C50.236 34.28 48.451 33.86 46.8877 33.02C45.3477 32.18 44.1227 31.0367 43.2127 29.59C42.326 28.12 41.8827 26.4517 41.8827 24.585C41.8827 22.695 42.326 21.0267 43.2127 19.58C44.1227 18.11 45.3477 16.9667 46.8877 16.15C48.451 15.31 50.236 14.89 52.2427 14.89C54.226 14.89 55.9994 15.31 57.5627 16.15C59.126 16.9667 60.351 18.0983 61.2377 19.545C62.1244 20.9917 62.5677 22.6717 62.5677 24.585C62.5677 26.4517 62.1244 28.12 61.2377 29.59C60.351 31.0367 59.126 32.18 57.5627 33.02C55.9994 33.86 54.226 34.28 52.2427 34.28ZM52.2427 29.8C53.1527 29.8 53.9694 29.59 54.6927 29.17C55.416 28.75 55.9877 28.155 56.4077 27.385C56.8277 26.5917 57.0377 25.6583 57.0377 24.585C57.0377 23.4883 56.8277 22.555 56.4077 21.785C55.9877 21.015 55.416 20.42 54.6927 20C53.9694 19.58 53.1527 19.37 52.2427 19.37C51.3327 19.37 50.516 19.58 49.7927 20C49.0694 20.42 48.486 21.015 48.0427 21.785C47.6227 22.555 47.4127 23.4883 47.4127 24.585C47.4127 25.6583 47.6227 26.5917 48.0427 27.385C48.486 28.155 49.0694 28.75 49.7927 29.17C50.516 29.59 51.3327 29.8 52.2427 29.8ZM66.2173 34V15.17H71.4323V20.49L70.6973 18.95C71.2573 17.62 72.1556 16.6167 73.3923 15.94C74.6289 15.24 76.1339 14.89 77.9073 14.89V19.93C77.6739 19.9067 77.4639 19.895 77.2773 19.895C77.0906 19.8717 76.8923 19.86 76.6823 19.86C75.1889 19.86 73.9756 20.2917 73.0423 21.155C72.1323 21.995 71.6773 23.3133 71.6773 25.11V34H66.2173ZM90.3621 34.28C88.2154 34.28 86.3254 33.86 84.6921 33.02C83.0821 32.18 81.8337 31.0367 80.9471 29.59C80.0604 28.12 79.6171 26.4517 79.6171 24.585C79.6171 22.695 80.0487 21.0267 80.9121 19.58C81.7987 18.11 83.0004 16.9667 84.5171 16.15C86.0337 15.31 87.7487 14.89 89.6621 14.89C91.5054 14.89 93.1621 15.2867 94.6321 16.08C96.1254 16.85 97.3037 17.97 98.1671 19.44C99.0304 20.8867 99.4621 22.625 99.4621 24.655C99.4621 24.865 99.4504 25.11 99.4271 25.39C99.4037 25.6467 99.3804 25.8917 99.3571 26.125H84.0621V22.94H96.4871L94.3871 23.885C94.3871 22.905 94.1887 22.0533 93.7921 21.33C93.3954 20.6067 92.8471 20.0467 92.1471 19.65C91.4471 19.23 90.6304 19.02 89.6971 19.02C88.7637 19.02 87.9354 19.23 87.2121 19.65C86.5121 20.0467 85.9637 20.6183 85.5671 21.365C85.1704 22.0883 84.9721 22.9517 84.9721 23.955V24.795C84.9721 25.8217 85.1937 26.7317 85.6371 27.525C86.1037 28.295 86.7454 28.89 87.5621 29.31C88.4021 29.7067 89.3821 29.905 90.5021 29.905C91.5054 29.905 92.3804 29.7533 93.1271 29.45C93.8971 29.1467 94.5971 28.6917 95.2271 28.085L98.1321 31.235C97.2687 32.215 96.1837 32.9733 94.8771 33.51C93.5704 34.0233 92.0654 34.28 90.3621 34.28ZM103.482 34V9.5H108.172L118.602 26.79H116.117L126.372 9.5H131.027L131.097 34H125.777L125.742 17.655H126.722L118.532 31.41H115.977L107.612 17.655H108.802V34H103.482ZM145.87 34.28C143.723 34.28 141.833 33.86 140.2 33.02C138.59 32.18 137.342 31.0367 136.455 29.59C135.568 28.12 135.125 26.4517 135.125 24.585C135.125 22.695 135.557 21.0267 136.42 19.58C137.307 18.11 138.508 16.9667 140.025 16.15C141.542 15.31 143.257 14.89 145.17 14.89C147.013 14.89 148.67 15.2867 150.14 16.08C151.633 16.85 152.812 17.97 153.675 19.44C154.538 20.8867 154.97 22.625 154.97 24.655C154.97 24.865 154.958 25.11 154.935 25.39C154.912 25.6467 154.888 25.8917 154.865 26.125H139.57V22.94H151.995L149.895 23.885C149.895 22.905 149.697 22.0533 149.3 21.33C148.903 20.6067 148.355 20.0467 147.655 19.65C146.955 19.23 146.138 19.02 145.205 19.02C144.272 19.02 143.443 19.23 142.72 19.65C142.02 20.0467 141.472 20.6183 141.075 21.365C140.678 22.0883 140.48 22.9517 140.48 23.955V24.795C140.48 25.8217 140.702 26.7317 141.145 27.525C141.612 28.295 142.253 28.89 143.07 29.31C143.91 29.7067 144.89 29.905 146.01 29.905C147.013 29.905 147.888 29.7533 148.635 29.45C149.405 29.1467 150.105 28.6917 150.735 28.085L153.64 31.235C152.777 32.215 151.692 32.9733 150.385 33.51C149.078 34.0233 147.573 34.28 145.87 34.28Z" fill="white"/>
</g>
<path d="M14.865 55L19.545 44.5H21.945L26.64 55H24.09L20.25 45.73H21.21L17.355 55H14.865ZM17.205 52.75L17.85 50.905H23.25L23.91 52.75H17.205ZM27.7294 55V44.5H30.1594V55H27.7294ZM36.7343 55V46.93H38.9693V49.21L38.6543 48.55C38.8943 47.98 39.2793 47.55 39.8093 47.26C40.3393 46.96 40.9843 46.81 41.7443 46.81V48.97C41.6443 48.96 41.5543 48.955 41.4743 48.955C41.3943 48.945 41.3093 48.94 41.2193 48.94C40.5793 48.94 40.0593 49.125 39.6593 49.495C39.2693 49.855 39.0743 50.42 39.0743 51.19V55H36.7343ZM47.0821 55.12C46.1621 55.12 45.3521 54.94 44.6521 54.58C43.9621 54.22 43.4271 53.73 43.0471 53.11C42.6671 52.48 42.4771 51.765 42.4771 50.965C42.4771 50.155 42.6621 49.44 43.0321 48.82C43.4121 48.19 43.9271 47.7 44.5771 47.35C45.2271 46.99 45.9621 46.81 46.7821 46.81C47.5721 46.81 48.2821 46.98 48.9121 47.32C49.5521 47.65 50.0571 48.13 50.4271 48.76C50.7971 49.38 50.9821 50.125 50.9821 50.995C50.9821 51.085 50.9771 51.19 50.9671 51.31C50.9571 51.42 50.9471 51.525 50.9371 51.625H44.3821V50.26H49.7071L48.8071 50.665C48.8071 50.245 48.7221 49.88 48.5521 49.57C48.3821 49.26 48.1471 49.02 47.8471 48.85C47.5471 48.67 47.1971 48.58 46.7971 48.58C46.3971 48.58 46.0421 48.67 45.7321 48.85C45.4321 49.02 45.1971 49.265 45.0271 49.585C44.8571 49.895 44.7721 50.265 44.7721 50.695V51.055C44.7721 51.495 44.8671 51.885 45.0571 52.225C45.2571 52.555 45.5321 52.81 45.8821 52.99C46.2421 53.16 46.6621 53.245 47.1421 53.245C47.5721 53.245 47.9471 53.18 48.2671 53.05C48.5971 52.92 48.8971 52.725 49.1671 52.465L50.4121 53.815C50.0421 54.235 49.5771 54.56 49.0171 54.79C48.4571 55.01 47.8121 55.12 47.0821 55.12ZM52.825 55V46.75C52.825 45.84 53.095 45.115 53.635 44.575C54.175 44.025 54.945 43.75 55.945 43.75C56.285 43.75 56.61 43.785 56.92 43.855C57.24 43.925 57.51 44.035 57.73 44.185L57.115 45.88C56.985 45.79 56.84 45.72 56.68 45.67C56.52 45.62 56.35 45.595 56.17 45.595C55.83 45.595 55.565 45.695 55.375 45.895C55.195 46.085 55.105 46.375 55.105 46.765V47.515L55.165 48.52V55H52.825ZM51.58 48.91V47.11H57.175V48.91H51.58ZM58.3993 55V46.93H60.6343V49.21L60.3193 48.55C60.5593 47.98 60.9443 47.55 61.4743 47.26C62.0043 46.96 62.6493 46.81 63.4093 46.81V48.97C63.3093 48.96 63.2193 48.955 63.1393 48.955C63.0593 48.945 62.9743 48.94 62.8843 48.94C62.2443 48.94 61.7243 49.125 61.3243 49.495C60.9343 49.855 60.7393 50.42 60.7393 51.19V55H58.3993ZM68.7471 55.12C67.8271 55.12 67.0171 54.94 66.3171 54.58C65.6271 54.22 65.0921 53.73 64.7121 53.11C64.3321 52.48 64.1421 51.765 64.1421 50.965C64.1421 50.155 64.3271 49.44 64.6971 48.82C65.0771 48.19 65.5921 47.7 66.2421 47.35C66.8921 46.99 67.6271 46.81 68.4471 46.81C69.2371 46.81 69.9471 46.98 70.5771 47.32C71.2171 47.65 71.7221 48.13 72.0921 48.76C72.4621 49.38 72.6471 50.125 72.6471 50.995C72.6471 51.085 72.6421 51.19 72.6321 51.31C72.6221 51.42 72.6121 51.525 72.6021 51.625H66.0471V50.26H71.3721L70.4721 50.665C70.4721 50.245 70.3871 49.88 70.2171 49.57C70.0471 49.26 69.8121 49.02 69.5121 48.85C69.2121 48.67 68.8621 48.58 68.4621 48.58C68.0621 48.58 67.7071 48.67 67.3971 48.85C67.0971 49.02 66.8621 49.265 66.6921 49.585C66.5221 49.895 66.4371 50.265 66.4371 50.695V51.055C66.4371 51.495 66.5321 51.885 66.7221 52.225C66.9221 52.555 67.1971 52.81 67.5471 52.99C67.9071 53.16 68.3271 53.245 68.8071 53.245C69.2371 53.245 69.6121 53.18 69.9321 53.05C70.2621 52.92 70.5621 52.725 70.8321 52.465L72.0771 53.815C71.7071 54.235 71.2421 54.56 70.6821 54.79C70.1221 55.01 69.4771 55.12 68.7471 55.12ZM76.92 55.12C76.23 55.12 75.565 55.04 74.925 54.88C74.295 54.71 73.795 54.5 73.425 54.25L74.205 52.57C74.575 52.8 75.01 52.99 75.51 53.14C76.02 53.28 76.52 53.35 77.01 53.35C77.55 53.35 77.93 53.285 78.15 53.155C78.38 53.025 78.495 52.845 78.495 52.615C78.495 52.425 78.405 52.285 78.225 52.195C78.055 52.095 77.825 52.02 77.535 51.97C77.245 51.92 76.925 51.87 76.575 51.82C76.235 51.77 75.89 51.705 75.54 51.625C75.19 51.535 74.87 51.405 74.58 51.235C74.29 51.065 74.055 50.835 73.875 50.545C73.705 50.255 73.62 49.88 73.62 49.42C73.62 48.91 73.765 48.46 74.055 48.07C74.355 47.68 74.785 47.375 75.345 47.155C75.905 46.925 76.575 46.81 77.355 46.81C77.905 46.81 78.465 46.87 79.035 46.99C79.605 47.11 80.08 47.285 80.46 47.515L79.68 49.18C79.29 48.95 78.895 48.795 78.495 48.715C78.105 48.625 77.725 48.58 77.355 48.58C76.835 48.58 76.455 48.65 76.215 48.79C75.975 48.93 75.855 49.11 75.855 49.33C75.855 49.53 75.94 49.68 76.11 49.78C76.29 49.88 76.525 49.96 76.815 50.02C77.105 50.08 77.42 50.135 77.76 50.185C78.11 50.225 78.46 50.29 78.81 50.38C79.16 50.47 79.475 50.6 79.755 50.77C80.045 50.93 80.28 51.155 80.46 51.445C80.64 51.725 80.73 52.095 80.73 52.555C80.73 53.055 80.58 53.5 80.28 53.89C79.98 54.27 79.545 54.57 78.975 54.79C78.415 55.01 77.73 55.12 76.92 55.12ZM87.0788 46.81C87.7188 46.81 88.2888 46.94 88.7888 47.2C89.2988 47.45 89.6988 47.84 89.9888 48.37C90.2788 48.89 90.4238 49.56 90.4238 50.38V55H88.0838V50.74C88.0838 50.09 87.9388 49.61 87.6488 49.3C87.3688 48.99 86.9688 48.835 86.4488 48.835C86.0788 48.835 85.7438 48.915 85.4438 49.075C85.1538 49.225 84.9238 49.46 84.7538 49.78C84.5938 50.1 84.5138 50.51 84.5138 51.01V55H82.1738V43.87H84.5138V49.165L83.9888 48.49C84.2788 47.95 84.6938 47.535 85.2338 47.245C85.7738 46.955 86.3888 46.81 87.0788 46.81ZM96.6084 55.12C95.6884 55.12 94.8784 54.94 94.1784 54.58C93.4884 54.22 92.9534 53.73 92.5734 53.11C92.1934 52.48 92.0034 51.765 92.0034 50.965C92.0034 50.155 92.1884 49.44 92.5584 48.82C92.9384 48.19 93.4534 47.7 94.1034 47.35C94.7534 46.99 95.4884 46.81 96.3084 46.81C97.0984 46.81 97.8084 46.98 98.4384 47.32C99.0784 47.65 99.5834 48.13 99.9534 48.76C100.323 49.38 100.508 50.125 100.508 50.995C100.508 51.085 100.503 51.19 100.493 51.31C100.483 51.42 100.473 51.525 100.463 51.625H93.9084V50.26H99.2334L98.3334 50.665C98.3334 50.245 98.2484 49.88 98.0784 49.57C97.9084 49.26 97.6734 49.02 97.3734 48.85C97.0734 48.67 96.7234 48.58 96.3234 48.58C95.9234 48.58 95.5684 48.67 95.2584 48.85C94.9584 49.02 94.7234 49.265 94.5534 49.585C94.3834 49.895 94.2984 50.265 94.2984 50.695V51.055C94.2984 51.495 94.3934 51.885 94.5834 52.225C94.7834 52.555 95.0584 52.81 95.4084 52.99C95.7684 53.16 96.1884 53.245 96.6684 53.245C97.0984 53.245 97.4734 53.18 97.7934 53.05C98.1234 52.92 98.4234 52.725 98.6934 52.465L99.9384 53.815C99.5684 54.235 99.1034 54.56 98.5434 54.79C97.9834 55.01 97.3384 55.12 96.6084 55.12ZM105.531 55.12C104.771 55.12 104.086 54.95 103.476 54.61C102.866 54.26 102.381 53.775 102.021 53.155C101.671 52.535 101.496 51.805 101.496 50.965C101.496 50.115 101.671 49.38 102.021 48.76C102.381 48.14 102.866 47.66 103.476 47.32C104.086 46.98 104.771 46.81 105.531 46.81C106.211 46.81 106.806 46.96 107.316 47.26C107.826 47.56 108.221 48.015 108.501 48.625C108.781 49.235 108.921 50.015 108.921 50.965C108.921 51.905 108.786 52.685 108.516 53.305C108.246 53.915 107.856 54.37 107.346 54.67C106.846 54.97 106.241 55.12 105.531 55.12ZM105.936 53.2C106.316 53.2 106.661 53.11 106.971 52.93C107.281 52.75 107.526 52.495 107.706 52.165C107.896 51.825 107.991 51.425 107.991 50.965C107.991 50.495 107.896 50.095 107.706 49.765C107.526 49.435 107.281 49.18 106.971 49C106.661 48.82 106.316 48.73 105.936 48.73C105.546 48.73 105.196 48.82 104.886 49C104.576 49.18 104.326 49.435 104.136 49.765C103.956 50.095 103.866 50.495 103.866 50.965C103.866 51.425 103.956 51.825 104.136 52.165C104.326 52.495 104.576 52.75 104.886 52.93C105.196 53.11 105.546 53.2 105.936 53.2ZM108.051 55V53.35L108.096 50.95L107.946 48.565V43.87H110.286V55H108.051ZM120.165 55.12C119.405 55.12 118.72 54.95 118.11 54.61C117.5 54.26 117.015 53.775 116.655 53.155C116.305 52.535 116.13 51.805 116.13 50.965C116.13 50.115 116.305 49.38 116.655 48.76C117.015 48.14 117.5 47.66 118.11 47.32C118.72 46.98 119.405 46.81 120.165 46.81C120.845 46.81 121.44 46.96 121.95 47.26C122.46 47.56 122.855 48.015 123.135 48.625C123.415 49.235 123.555 50.015 123.555 50.965C123.555 51.905 123.42 52.685 123.15 53.305C122.88 53.915 122.49 54.37 121.98 54.67C121.48 54.97 120.875 55.12 120.165 55.12ZM120.57 53.2C120.95 53.2 121.295 53.11 121.605 52.93C121.915 52.75 122.16 52.495 122.34 52.165C122.53 51.825 122.625 51.425 122.625 50.965C122.625 50.495 122.53 50.095 122.34 49.765C122.16 49.435 121.915 49.18 121.605 49C121.295 48.82 120.95 48.73 120.57 48.73C120.18 48.73 119.83 48.82 119.52 49C119.21 49.18 118.96 49.435 118.77 49.765C118.59 50.095 118.5 50.495 118.5 50.965C118.5 51.425 118.59 51.825 118.77 52.165C118.96 52.495 119.21 52.75 119.52 52.93C119.83 53.11 120.18 53.2 120.57 53.2ZM122.685 55V53.35L122.73 50.95L122.58 48.565V43.87H124.92V55H122.685ZM132.036 55V53.425L131.886 53.08V50.26C131.886 49.76 131.731 49.37 131.421 49.09C131.121 48.81 130.656 48.67 130.026 48.67C129.596 48.67 129.171 48.74 128.751 48.88C128.341 49.01 127.991 49.19 127.701 49.42L126.861 47.785C127.301 47.475 127.831 47.235 128.451 47.065C129.071 46.895 129.701 46.81 130.341 46.81C131.571 46.81 132.526 47.1 133.206 47.68C133.886 48.26 134.226 49.165 134.226 50.395V55H132.036ZM129.576 55.12C128.946 55.12 128.406 55.015 127.956 54.805C127.506 54.585 127.161 54.29 126.921 53.92C126.681 53.55 126.561 53.135 126.561 52.675C126.561 52.195 126.676 51.775 126.906 51.415C127.146 51.055 127.521 50.775 128.031 50.575C128.541 50.365 129.206 50.26 130.026 50.26H132.171V51.625H130.281C129.731 51.625 129.351 51.715 129.141 51.895C128.941 52.075 128.841 52.3 128.841 52.57C128.841 52.87 128.956 53.11 129.186 53.29C129.426 53.46 129.751 53.545 130.161 53.545C130.551 53.545 130.901 53.455 131.211 53.275C131.521 53.085 131.746 52.81 131.886 52.45L132.246 53.53C132.076 54.05 131.766 54.445 131.316 54.715C130.866 54.985 130.286 55.12 129.576 55.12ZM136.344 55V46.93H138.684V55H136.344ZM137.514 45.805C137.084 45.805 136.734 45.68 136.464 45.43C136.194 45.18 136.059 44.87 136.059 44.5C136.059 44.13 136.194 43.82 136.464 43.57C136.734 43.32 137.084 43.195 137.514 43.195C137.944 43.195 138.294 43.315 138.564 43.555C138.834 43.785 138.969 44.085 138.969 44.455C138.969 44.845 138.834 45.17 138.564 45.43C138.304 45.68 137.954 45.805 137.514 45.805ZM140.855 55V43.87H143.195V55H140.855ZM146.387 58.03C145.967 58.03 145.552 57.965 145.142 57.835C144.732 57.705 144.397 57.525 144.137 57.295L144.992 55.63C145.172 55.79 145.377 55.915 145.607 56.005C145.847 56.095 146.082 56.14 146.312 56.14C146.642 56.14 146.902 56.06 147.092 55.9C147.292 55.75 147.472 55.495 147.632 55.135L148.052 54.145L148.232 53.89L151.127 46.93H153.377L149.732 55.495C149.472 56.145 149.172 56.655 148.832 57.025C148.502 57.395 148.132 57.655 147.722 57.805C147.322 57.955 146.877 58.03 146.387 58.03ZM147.767 55.315L144.167 46.93H146.582L149.372 53.68L147.767 55.315ZM154.734 55.12C154.334 55.12 153.989 54.985 153.699 54.715C153.419 54.435 153.279 54.08 153.279 53.65C153.279 53.22 153.419 52.875 153.699 52.615C153.989 52.345 154.334 52.21 154.734 52.21C155.144 52.21 155.489 52.345 155.769 52.615C156.049 52.875 156.189 53.22 156.189 53.65C156.189 54.08 156.049 54.435 155.769 54.715C155.489 54.985 155.144 55.12 154.734 55.12Z" fill="#FFE600"/>
<defs>
</defs>
</svg>
