<svg width="475" height="167" viewBox="0 0 475 167" fill="none" xmlns="http://www.w3.org/2000/svg">
<g filter="url(#filter0_d_76_18)">
<path d="M32.048 94.152C26.672 94.152 21.52 93.448 16.592 92.04C11.664 90.568 7.696 88.68 4.688 86.376L9.968 74.664C12.848 76.712 16.24 78.408 20.144 79.752C24.112 81.032 28.112 81.672 32.144 81.672C35.216 81.672 37.68 81.384 39.536 80.808C41.456 80.168 42.864 79.304 43.76 78.216C44.656 77.128 45.104 75.88 45.104 74.472C45.104 72.68 44.4 71.272 42.992 70.248C41.584 69.16 39.728 68.296 37.424 67.656C35.12 66.952 32.56 66.312 29.744 65.736C26.992 65.096 24.208 64.328 21.392 63.432C18.64 62.536 16.112 61.384 13.808 59.976C11.504 58.568 9.616 56.712 8.144 54.408C6.736 52.104 6.032 49.16 6.032 45.576C6.032 41.736 7.056 38.248 9.104 35.112C11.216 31.912 14.352 29.384 18.512 27.528C22.736 25.608 28.016 24.648 34.352 24.648C38.576 24.648 42.736 25.16 46.832 26.184C50.928 27.144 54.544 28.616 57.68 30.6L52.88 42.408C49.744 40.616 46.608 39.304 43.472 38.472C40.336 37.576 37.264 37.128 34.256 37.128C31.248 37.128 28.784 37.48 26.864 38.184C24.944 38.888 23.568 39.816 22.736 40.968C21.904 42.056 21.488 43.336 21.488 44.808C21.488 46.536 22.192 47.944 23.6 49.032C25.008 50.056 26.864 50.888 29.168 51.528C31.472 52.168 34 52.808 36.752 53.448C39.568 54.088 42.352 54.824 45.104 55.656C47.92 56.488 50.48 57.608 52.784 59.016C55.088 60.424 56.944 62.28 58.352 64.584C59.824 66.888 60.56 69.8 60.56 73.32C60.56 77.096 59.504 80.552 57.392 83.688C55.28 86.824 52.112 89.352 47.888 91.272C43.728 93.192 38.448 94.152 32.048 94.152ZM70.1308 93V21.768H85.1068V93H70.1308ZM124.638 93.768C118.75 93.768 113.566 92.616 109.086 90.312C104.67 88.008 101.246 84.872 98.8138 80.904C96.3818 76.872 95.1658 72.296 95.1658 67.176C95.1658 61.992 96.3498 57.416 98.7178 53.448C101.15 49.416 104.446 46.28 108.606 44.04C112.766 41.736 117.47 40.584 122.718 40.584C127.774 40.584 132.318 41.672 136.35 43.848C140.446 45.96 143.678 49.032 146.046 53.064C148.414 57.032 149.598 61.8 149.598 67.368C149.598 67.944 149.566 68.616 149.502 69.384C149.438 70.088 149.374 70.76 149.31 71.4H107.358V62.664H141.438L135.678 65.256C135.678 62.568 135.134 60.232 134.046 58.248C132.958 56.264 131.454 54.728 129.534 53.64C127.614 52.488 125.374 51.912 122.814 51.912C120.254 51.912 117.982 52.488 115.998 53.64C114.078 54.728 112.574 56.296 111.486 58.344C110.398 60.328 109.854 62.696 109.854 65.448V67.752C109.854 70.568 110.462 73.064 111.678 75.24C112.958 77.352 114.718 78.984 116.958 80.136C119.262 81.224 121.95 81.768 125.022 81.768C127.774 81.768 130.174 81.352 132.222 80.52C134.334 79.688 136.254 78.44 137.982 76.776L145.95 85.416C143.582 88.104 140.606 90.184 137.022 91.656C133.438 93.064 129.31 93.768 124.638 93.768ZM185.2 93.768C179.312 93.768 174.128 92.616 169.648 90.312C165.232 88.008 161.808 84.872 159.376 80.904C156.944 76.872 155.728 72.296 155.728 67.176C155.728 61.992 156.912 57.416 159.28 53.448C161.712 49.416 165.008 46.28 169.168 44.04C173.328 41.736 178.032 40.584 183.28 40.584C188.336 40.584 192.88 41.672 196.912 43.848C201.008 45.96 204.24 49.032 206.608 53.064C208.976 57.032 210.16 61.8 210.16 67.368C210.16 67.944 210.128 68.616 210.064 69.384C210 70.088 209.936 70.76 209.872 71.4H167.92V62.664H202L196.24 65.256C196.24 62.568 195.696 60.232 194.608 58.248C193.52 56.264 192.016 54.728 190.096 53.64C188.176 52.488 185.936 51.912 183.376 51.912C180.816 51.912 178.544 52.488 176.56 53.64C174.64 54.728 173.136 56.296 172.048 58.344C170.96 60.328 170.416 62.696 170.416 65.448V67.752C170.416 70.568 171.024 73.064 172.24 75.24C173.52 77.352 175.28 78.984 177.52 80.136C179.824 81.224 182.512 81.768 185.584 81.768C188.336 81.768 190.736 81.352 192.784 80.52C194.896 79.688 196.816 78.44 198.544 76.776L206.512 85.416C204.144 88.104 201.168 90.184 197.584 91.656C194 93.064 189.872 93.768 185.2 93.768ZM250.659 93.768C246.307 93.768 242.499 92.808 239.235 90.888C235.971 88.968 233.411 86.056 231.555 82.152C229.763 78.184 228.867 73.192 228.867 67.176C228.867 61.096 229.731 56.104 231.459 52.2C233.187 48.296 235.683 45.384 238.947 43.464C242.211 41.544 246.115 40.584 250.659 40.584C255.523 40.584 259.875 41.704 263.715 43.944C267.619 46.12 270.691 49.192 272.931 53.16C275.235 57.128 276.387 61.8 276.387 67.176C276.387 72.616 275.235 77.32 272.931 81.288C270.691 85.256 267.619 88.328 263.715 90.504C259.875 92.68 255.523 93.768 250.659 93.768ZM220.131 111.624V41.352H234.435V51.912L234.147 67.272L235.107 82.536V111.624H220.131ZM248.067 81.48C250.563 81.48 252.771 80.904 254.691 79.752C256.675 78.6 258.243 76.968 259.395 74.856C260.611 72.68 261.219 70.12 261.219 67.176C261.219 64.168 260.611 61.608 259.395 59.496C258.243 57.384 256.675 55.752 254.691 54.6C252.771 53.448 250.563 52.872 248.067 52.872C245.571 52.872 243.331 53.448 241.347 54.6C239.363 55.752 237.795 57.384 236.643 59.496C235.491 61.608 234.915 64.168 234.915 67.176C234.915 70.12 235.491 72.68 236.643 74.856C237.795 76.968 239.363 78.6 241.347 79.752C243.331 80.904 245.571 81.48 248.067 81.48ZM286.412 93V21.768H301.388V93H286.412ZM340.919 93.768C335.031 93.768 329.847 92.616 325.367 90.312C320.951 88.008 317.527 84.872 315.095 80.904C312.663 76.872 311.447 72.296 311.447 67.176C311.447 61.992 312.631 57.416 314.999 53.448C317.431 49.416 320.727 46.28 324.887 44.04C329.047 41.736 333.751 40.584 338.999 40.584C344.055 40.584 348.599 41.672 352.631 43.848C356.727 45.96 359.959 49.032 362.327 53.064C364.695 57.032 365.879 61.8 365.879 67.368C365.879 67.944 365.847 68.616 365.783 69.384C365.719 70.088 365.655 70.76 365.591 71.4H323.639V62.664H357.719L351.959 65.256C351.959 62.568 351.415 60.232 350.327 58.248C349.239 56.264 347.735 54.728 345.815 53.64C343.895 52.488 341.655 51.912 339.095 51.912C336.535 51.912 334.263 52.488 332.279 53.64C330.359 54.728 328.855 56.296 327.767 58.344C326.679 60.328 326.135 62.696 326.135 65.448V67.752C326.135 70.568 326.743 73.064 327.959 75.24C329.239 77.352 330.999 78.984 333.239 80.136C335.543 81.224 338.231 81.768 341.303 81.768C344.055 81.768 346.455 81.352 348.503 80.52C350.615 79.688 352.535 78.44 354.263 76.776L362.231 85.416C359.863 88.104 356.887 90.184 353.303 91.656C349.719 93.064 345.591 93.768 340.919 93.768ZM393.226 93.768C388.81 93.768 384.554 93.256 380.458 92.232C376.426 91.144 373.226 89.8 370.858 88.2L375.85 77.448C378.218 78.92 381.002 80.136 384.202 81.096C387.466 81.992 390.666 82.44 393.802 82.44C397.258 82.44 399.69 82.024 401.098 81.192C402.57 80.36 403.306 79.208 403.306 77.736C403.306 76.52 402.73 75.624 401.578 75.048C400.49 74.408 399.018 73.928 397.161 73.608C395.306 73.288 393.258 72.968 391.018 72.648C388.842 72.328 386.634 71.912 384.394 71.4C382.154 70.824 380.106 69.992 378.25 68.904C376.394 67.816 374.89 66.344 373.738 64.488C372.65 62.632 372.105 60.232 372.105 57.288C372.105 54.024 373.034 51.144 374.89 48.648C376.81 46.152 379.562 44.2 383.146 42.792C386.73 41.32 391.018 40.584 396.01 40.584C399.53 40.584 403.114 40.968 406.762 41.736C410.41 42.504 413.45 43.624 415.882 45.096L410.89 55.752C408.394 54.28 405.866 53.288 403.306 52.776C400.81 52.2 398.378 51.912 396.01 51.912C392.682 51.912 390.25 52.36 388.714 53.256C387.178 54.152 386.41 55.304 386.41 56.712C386.41 57.992 386.954 58.952 388.042 59.592C389.194 60.232 390.698 60.744 392.554 61.128C394.41 61.512 396.426 61.864 398.602 62.184C400.842 62.44 403.082 62.856 405.322 63.432C407.562 64.008 409.578 64.84 411.37 65.928C413.226 66.952 414.73 68.392 415.882 70.248C417.034 72.04 417.61 74.408 417.61 77.352C417.61 80.552 416.65 83.4 414.73 85.896C412.81 88.328 410.026 90.248 406.378 91.656C402.794 93.064 398.41 93.768 393.226 93.768ZM444.226 93.768C439.81 93.768 435.554 93.256 431.458 92.232C427.426 91.144 424.226 89.8 421.858 88.2L426.85 77.448C429.218 78.92 432.002 80.136 435.202 81.096C438.466 81.992 441.666 82.44 444.802 82.44C448.258 82.44 450.69 82.024 452.098 81.192C453.57 80.36 454.306 79.208 454.306 77.736C454.306 76.52 453.73 75.624 452.578 75.048C451.49 74.408 450.018 73.928 448.161 73.608C446.306 73.288 444.258 72.968 442.018 72.648C439.842 72.328 437.634 71.912 435.394 71.4C433.154 70.824 431.106 69.992 429.25 68.904C427.394 67.816 425.89 66.344 424.738 64.488C423.65 62.632 423.105 60.232 423.105 57.288C423.105 54.024 424.034 51.144 425.89 48.648C427.81 46.152 430.562 44.2 434.146 42.792C437.73 41.32 442.018 40.584 447.01 40.584C450.53 40.584 454.114 40.968 457.762 41.736C461.41 42.504 464.45 43.624 466.882 45.096L461.89 55.752C459.394 54.28 456.866 53.288 454.306 52.776C451.81 52.2 449.378 51.912 447.01 51.912C443.682 51.912 441.25 52.36 439.714 53.256C438.178 54.152 437.41 55.304 437.41 56.712C437.41 57.992 437.954 58.952 439.042 59.592C440.194 60.232 441.698 60.744 443.554 61.128C445.41 61.512 447.426 61.864 449.602 62.184C451.842 62.44 454.082 62.856 456.322 63.432C458.562 64.008 460.578 64.84 462.37 65.928C464.226 66.952 465.73 68.392 466.882 70.248C468.034 72.04 468.61 74.408 468.61 77.352C468.61 80.552 467.65 83.4 465.73 85.896C463.81 88.328 461.026 90.248 457.378 91.656C453.794 93.064 449.41 93.768 444.226 93.768Z" fill="white"/>
</g>
<path d="M43.64 158L56.12 130H62.52L75.04 158H68.24L58 133.28H60.56L50.28 158H43.64ZM49.88 152L51.6 147.08H66L67.76 152H49.88ZM77.945 158V130H84.425V158H77.945ZM89.55 164.16L92.19 154.56L93.07 158.16C91.9233 158.16 90.9767 157.827 90.23 157.16C89.51 156.493 89.15 155.573 89.15 154.4C89.15 153.227 89.5233 152.293 90.27 151.6C91.0167 150.907 91.9367 150.56 93.03 150.56C94.15 150.56 95.07 150.92 95.79 151.64C96.51 152.333 96.87 153.253 96.87 154.4C96.87 154.747 96.8433 155.093 96.79 155.44C96.7367 155.76 96.63 156.16 96.47 156.64C96.3367 157.093 96.11 157.68 95.79 158.4L93.51 164.16H89.55ZM112.427 158V136.48H118.387V142.56L117.547 140.8C118.187 139.28 119.214 138.133 120.627 137.36C122.04 136.56 123.76 136.16 125.787 136.16V141.92C125.52 141.893 125.28 141.88 125.067 141.88C124.854 141.853 124.627 141.84 124.387 141.84C122.68 141.84 121.294 142.333 120.227 143.32C119.187 144.28 118.667 145.787 118.667 147.84V158H112.427ZM140.021 158.32C137.568 158.32 135.408 157.84 133.541 156.88C131.701 155.92 130.274 154.613 129.261 152.96C128.248 151.28 127.741 149.373 127.741 147.24C127.741 145.08 128.234 143.173 129.221 141.52C130.234 139.84 131.608 138.533 133.341 137.6C135.074 136.64 137.034 136.16 139.221 136.16C141.328 136.16 143.221 136.613 144.901 137.52C146.608 138.4 147.954 139.68 148.941 141.36C149.928 143.013 150.421 145 150.421 147.32C150.421 147.56 150.408 147.84 150.381 148.16C150.354 148.453 150.328 148.733 150.301 149H132.821V145.36H147.021L144.621 146.44C144.621 145.32 144.394 144.347 143.941 143.52C143.488 142.693 142.861 142.053 142.061 141.6C141.261 141.12 140.328 140.88 139.261 140.88C138.194 140.88 137.248 141.12 136.421 141.6C135.621 142.053 134.994 142.707 134.541 143.56C134.088 144.387 133.861 145.373 133.861 146.52V147.48C133.861 148.653 134.114 149.693 134.621 150.6C135.154 151.48 135.888 152.16 136.821 152.64C137.781 153.093 138.901 153.32 140.181 153.32C141.328 153.32 142.328 153.147 143.181 152.8C144.061 152.453 144.861 151.933 145.581 151.24L148.901 154.84C147.914 155.96 146.674 156.827 145.181 157.44C143.688 158.027 141.968 158.32 140.021 158.32ZM155.335 158V136C155.335 133.573 156.055 131.64 157.495 130.2C158.935 128.733 160.989 128 163.655 128C164.562 128 165.429 128.093 166.255 128.28C167.109 128.467 167.829 128.76 168.415 129.16L166.775 133.68C166.429 133.44 166.042 133.253 165.615 133.12C165.189 132.987 164.735 132.92 164.255 132.92C163.349 132.92 162.642 133.187 162.135 133.72C161.655 134.227 161.415 135 161.415 136.04V138.04L161.575 140.72V158H155.335ZM152.015 141.76V136.96H166.935V141.76H152.015ZM170.2 158V136.48H176.16V142.56L175.32 140.8C175.96 139.28 176.987 138.133 178.4 137.36C179.814 136.56 181.534 136.16 183.56 136.16V141.92C183.294 141.893 183.054 141.88 182.84 141.88C182.627 141.853 182.4 141.84 182.16 141.84C180.454 141.84 179.067 142.333 178 143.32C176.96 144.28 176.44 145.787 176.44 147.84V158H170.2ZM197.794 158.32C195.341 158.32 193.181 157.84 191.314 156.88C189.474 155.92 188.048 154.613 187.034 152.96C186.021 151.28 185.514 149.373 185.514 147.24C185.514 145.08 186.008 143.173 186.994 141.52C188.008 139.84 189.381 138.533 191.114 137.6C192.848 136.64 194.808 136.16 196.994 136.16C199.101 136.16 200.994 136.613 202.674 137.52C204.381 138.4 205.728 139.68 206.714 141.36C207.701 143.013 208.194 145 208.194 147.32C208.194 147.56 208.181 147.84 208.154 148.16C208.128 148.453 208.101 148.733 208.074 149H190.594V145.36H204.794L202.394 146.44C202.394 145.32 202.168 144.347 201.714 143.52C201.261 142.693 200.634 142.053 199.834 141.6C199.034 141.12 198.101 140.88 197.034 140.88C195.968 140.88 195.021 141.12 194.194 141.6C193.394 142.053 192.768 142.707 192.314 143.56C191.861 144.387 191.634 145.373 191.634 146.52V147.48C191.634 148.653 191.888 149.693 192.394 150.6C192.928 151.48 193.661 152.16 194.594 152.64C195.554 153.093 196.674 153.32 197.954 153.32C199.101 153.32 200.101 153.147 200.954 152.8C201.834 152.453 202.634 151.933 203.354 151.24L206.674 154.84C205.688 155.96 204.448 156.827 202.954 157.44C201.461 158.027 199.741 158.32 197.794 158.32ZM219.589 158.32C217.749 158.32 215.975 158.107 214.269 157.68C212.589 157.227 211.255 156.667 210.269 156L212.349 151.52C213.335 152.133 214.495 152.64 215.829 153.04C217.189 153.413 218.522 153.6 219.829 153.6C221.269 153.6 222.282 153.427 222.869 153.08C223.482 152.733 223.789 152.253 223.789 151.64C223.789 151.133 223.549 150.76 223.069 150.52C222.615 150.253 222.002 150.053 221.229 149.92C220.455 149.787 219.602 149.653 218.669 149.52C217.762 149.387 216.842 149.213 215.909 149C214.975 148.76 214.122 148.413 213.349 147.96C212.575 147.507 211.949 146.893 211.469 146.12C211.015 145.347 210.789 144.347 210.789 143.12C210.789 141.76 211.175 140.56 211.949 139.52C212.749 138.48 213.895 137.667 215.389 137.08C216.882 136.467 218.669 136.16 220.749 136.16C222.215 136.16 223.709 136.32 225.229 136.64C226.749 136.96 228.015 137.427 229.029 138.04L226.949 142.48C225.909 141.867 224.855 141.453 223.789 141.24C222.749 141 221.735 140.88 220.749 140.88C219.362 140.88 218.349 141.067 217.709 141.44C217.069 141.813 216.749 142.293 216.749 142.88C216.749 143.413 216.975 143.813 217.429 144.08C217.909 144.347 218.535 144.56 219.309 144.72C220.082 144.88 220.922 145.027 221.829 145.16C222.762 145.267 223.695 145.44 224.629 145.68C225.562 145.92 226.402 146.267 227.149 146.72C227.922 147.147 228.549 147.747 229.029 148.52C229.509 149.267 229.749 150.253 229.749 151.48C229.749 152.813 229.349 154 228.549 155.04C227.749 156.053 226.589 156.853 225.069 157.44C223.575 158.027 221.749 158.32 219.589 158.32ZM246.679 136.16C248.385 136.16 249.905 136.507 251.239 137.2C252.599 137.867 253.665 138.907 254.439 140.32C255.212 141.707 255.599 143.493 255.599 145.68V158H249.359V146.64C249.359 144.907 248.972 143.627 248.199 142.8C247.452 141.973 246.385 141.56 244.999 141.56C244.012 141.56 243.119 141.773 242.319 142.2C241.545 142.6 240.932 143.227 240.479 144.08C240.052 144.933 239.839 146.027 239.839 147.36V158H233.599V128.32H239.839V142.44L238.439 140.64C239.212 139.2 240.319 138.093 241.759 137.32C243.199 136.547 244.839 136.16 246.679 136.16ZM272.091 158.32C269.638 158.32 267.478 157.84 265.611 156.88C263.771 155.92 262.345 154.613 261.331 152.96C260.318 151.28 259.811 149.373 259.811 147.24C259.811 145.08 260.305 143.173 261.291 141.52C262.305 139.84 263.678 138.533 265.411 137.6C267.145 136.64 269.105 136.16 271.291 136.16C273.398 136.16 275.291 136.613 276.971 137.52C278.678 138.4 280.025 139.68 281.011 141.36C281.998 143.013 282.491 145 282.491 147.32C282.491 147.56 282.478 147.84 282.451 148.16C282.425 148.453 282.398 148.733 282.371 149H264.891V145.36H279.091L276.691 146.44C276.691 145.32 276.465 144.347 276.011 143.52C275.558 142.693 274.931 142.053 274.131 141.6C273.331 141.12 272.398 140.88 271.331 140.88C270.265 140.88 269.318 141.12 268.491 141.6C267.691 142.053 267.065 142.707 266.611 143.56C266.158 144.387 265.931 145.373 265.931 146.52V147.48C265.931 148.653 266.185 149.693 266.691 150.6C267.225 151.48 267.958 152.16 268.891 152.64C269.851 153.093 270.971 153.32 272.251 153.32C273.398 153.32 274.398 153.147 275.251 152.8C276.131 152.453 276.931 151.933 277.651 151.24L280.971 154.84C279.985 155.96 278.745 156.827 277.251 157.44C275.758 158.027 274.038 158.32 272.091 158.32ZM295.886 158.32C293.859 158.32 292.032 157.867 290.406 156.96C288.779 156.027 287.486 154.733 286.526 153.08C285.592 151.427 285.126 149.48 285.126 147.24C285.126 144.973 285.592 143.013 286.526 141.36C287.486 139.707 288.779 138.427 290.406 137.52C292.032 136.613 293.859 136.16 295.886 136.16C297.699 136.16 299.286 136.56 300.646 137.36C302.006 138.16 303.059 139.373 303.806 141C304.552 142.627 304.926 144.707 304.926 147.24C304.926 149.747 304.566 151.827 303.846 153.48C303.126 155.107 302.086 156.32 300.726 157.12C299.392 157.92 297.779 158.32 295.886 158.32ZM296.966 153.2C297.979 153.2 298.899 152.96 299.726 152.48C300.552 152 301.206 151.32 301.686 150.44C302.192 149.533 302.446 148.467 302.446 147.24C302.446 145.987 302.192 144.92 301.686 144.04C301.206 143.16 300.552 142.48 299.726 142C298.899 141.52 297.979 141.28 296.966 141.28C295.926 141.28 294.992 141.52 294.166 142C293.339 142.48 292.672 143.16 292.166 144.04C291.686 144.92 291.446 145.987 291.446 147.24C291.446 148.467 291.686 149.533 292.166 150.44C292.672 151.32 293.339 152 294.166 152.48C294.992 152.96 295.926 153.2 296.966 153.2ZM302.606 158V153.6L302.726 147.2L302.326 140.84V128.32H308.566V158H302.606ZM334.909 158.32C332.882 158.32 331.056 157.867 329.429 156.96C327.802 156.027 326.509 154.733 325.549 153.08C324.616 151.427 324.149 149.48 324.149 147.24C324.149 144.973 324.616 143.013 325.549 141.36C326.509 139.707 327.802 138.427 329.429 137.52C331.056 136.613 332.882 136.16 334.909 136.16C336.722 136.16 338.309 136.56 339.669 137.36C341.029 138.16 342.082 139.373 342.829 141C343.576 142.627 343.949 144.707 343.949 147.24C343.949 149.747 343.589 151.827 342.869 153.48C342.149 155.107 341.109 156.32 339.749 157.12C338.416 157.92 336.802 158.32 334.909 158.32ZM335.989 153.2C337.002 153.2 337.922 152.96 338.749 152.48C339.576 152 340.229 151.32 340.709 150.44C341.216 149.533 341.469 148.467 341.469 147.24C341.469 145.987 341.216 144.92 340.709 144.04C340.229 143.16 339.576 142.48 338.749 142C337.922 141.52 337.002 141.28 335.989 141.28C334.949 141.28 334.016 141.52 333.189 142C332.362 142.48 331.696 143.16 331.189 144.04C330.709 144.92 330.469 145.987 330.469 147.24C330.469 148.467 330.709 149.533 331.189 150.44C331.696 151.32 332.362 152 333.189 152.48C334.016 152.96 334.949 153.2 335.989 153.2ZM341.629 158V153.6L341.749 147.2L341.349 140.84V128.32H347.589V158H341.629ZM366.564 158V153.8L366.164 152.88V145.36C366.164 144.027 365.751 142.987 364.924 142.24C364.124 141.493 362.884 141.12 361.204 141.12C360.058 141.12 358.924 141.307 357.804 141.68C356.711 142.027 355.778 142.507 355.004 143.12L352.764 138.76C353.938 137.933 355.351 137.293 357.004 136.84C358.658 136.387 360.338 136.16 362.044 136.16C365.324 136.16 367.871 136.933 369.684 138.48C371.498 140.027 372.404 142.44 372.404 145.72V158H366.564ZM360.004 158.32C358.324 158.32 356.884 158.04 355.684 157.48C354.484 156.893 353.564 156.107 352.924 155.12C352.284 154.133 351.964 153.027 351.964 151.8C351.964 150.52 352.271 149.4 352.884 148.44C353.524 147.48 354.524 146.733 355.884 146.2C357.244 145.64 359.018 145.36 361.204 145.36H366.924V149H361.884C360.418 149 359.404 149.24 358.844 149.72C358.311 150.2 358.044 150.8 358.044 151.52C358.044 152.32 358.351 152.96 358.964 153.44C359.604 153.893 360.471 154.12 361.564 154.12C362.604 154.12 363.538 153.88 364.364 153.4C365.191 152.893 365.791 152.16 366.164 151.2L367.124 154.08C366.671 155.467 365.844 156.52 364.644 157.24C363.444 157.96 361.898 158.32 360.004 158.32ZM378.052 158V136.48H384.292V158H378.052ZM381.172 133.48C380.025 133.48 379.092 133.147 378.372 132.48C377.652 131.813 377.292 130.987 377.292 130C377.292 129.013 377.652 128.187 378.372 127.52C379.092 126.853 380.025 126.52 381.172 126.52C382.319 126.52 383.252 126.84 383.972 127.48C384.692 128.093 385.052 128.893 385.052 129.88C385.052 130.92 384.692 131.787 383.972 132.48C383.279 133.147 382.345 133.48 381.172 133.48ZM390.083 158V128.32H396.323V158H390.083ZM404.834 166.08C403.714 166.08 402.608 165.907 401.514 165.56C400.421 165.213 399.528 164.733 398.834 164.12L401.114 159.68C401.594 160.107 402.141 160.44 402.754 160.68C403.394 160.92 404.021 161.04 404.634 161.04C405.514 161.04 406.208 160.827 406.714 160.4C407.248 160 407.728 159.32 408.154 158.36L409.274 155.72L409.754 155.04L417.474 136.48H423.474L413.754 159.32C413.061 161.053 412.261 162.413 411.354 163.4C410.474 164.387 409.488 165.08 408.394 165.48C407.328 165.88 406.141 166.08 404.834 166.08ZM408.514 158.84L398.914 136.48H405.354L412.794 154.48L408.514 158.84ZM427.092 158.32C426.025 158.32 425.105 157.96 424.332 157.24C423.585 156.493 423.212 155.547 423.212 154.4C423.212 153.253 423.585 152.333 424.332 151.64C425.105 150.92 426.025 150.56 427.092 150.56C428.185 150.56 429.105 150.92 429.852 151.64C430.598 152.333 430.972 153.253 430.972 154.4C430.972 155.547 430.598 156.493 429.852 157.24C429.105 157.96 428.185 158.32 427.092 158.32Z" fill="#FFE600"/>
<defs>
<filter id="filter0_d_76_18" x="0.687988" y="21.7679" width="471.922" height="97.8561" filterUnits="userSpaceOnUse" color-interpolation-filters="sRGB">
<feFlood flood-opacity="0" result="BackgroundImageFix"/>
<feColorMatrix in="SourceAlpha" type="matrix" values="0 0 0 0 0 0 0 0 0 0 0 0 0 0 0 0 0 0 127 0" result="hardAlpha"/>
<feOffset dy="4"/>
<feGaussianBlur stdDeviation="2"/>
<feComposite in2="hardAlpha" operator="out"/>
<feColorMatrix type="matrix" values="0 0 0 0 0 0 0 0 0 0 0 0 0 0 0 0 0 0 0.25 0"/>
<feBlend mode="normal" in2="BackgroundImageFix" result="effect1_dropShadow_76_18"/>
<feBlend mode="normal" in="SourceGraphic" in2="effect1_dropShadow_76_18" result="shape"/>
</filter>
</defs>
</svg>
