
<svg width="202" height="46" viewBox="0 0 202 46" fill="none" xmlns="http://www.w3.org/2000/svg">
<g>
<path d="M15.52 30.48C13.28 30.48 11.1333 30.1867 9.08 29.6C7.02667 28.9867 5.37333 28.2 4.12 27.24L6.32 22.36C7.52 23.2133 8.93333 23.92 10.56 24.48C12.2133 25.0133 13.88 25.28 15.56 25.28C16.84 25.28 17.8667 25.16 18.64 24.92C19.44 24.6533 20.0267 24.2933 20.4 23.84C20.7733 23.3867 20.96 22.8667 20.96 22.28C20.96 21.5333 20.6667 20.9467 20.08 20.52C19.4933 20.0667 18.72 19.7067 17.76 19.44C16.8 19.1467 15.7333 18.88 14.56 18.64C13.4133 18.3733 12.2533 18.0533 11.08 17.68C9.93333 17.3067 8.88 16.8267 7.92 16.24C6.96 15.6533 6.17333 14.88 5.56 13.92C4.97333 12.96 4.68 11.7333 4.68 10.24C4.68 8.64 5.10667 7.18667 5.96 5.88C6.84 4.54666 8.14667 3.49333 9.88 2.72C11.64 1.92 13.84 1.52 16.48 1.52C18.24 1.52 19.9733 1.73333 21.68 2.16C23.3867 2.56 24.8933 3.17333 26.2 4L24.2 8.92C22.8933 8.17333 21.5867 7.62667 20.28 7.28C18.9733 6.90667 17.6933 6.72 16.44 6.72C15.1867 6.72 14.16 6.86667 13.36 7.16C12.56 7.45333 11.9867 7.84 11.64 8.32C11.2933 8.77333 11.12 9.30667 11.12 9.92C11.12 10.64 11.4133 11.2267 12 11.68C12.5867 12.1067 13.36 12.4533 14.32 12.72C15.28 12.9867 16.3333 13.2533 17.48 13.52C18.6533 13.7867 19.8133 14.0933 20.96 14.44C22.1333 14.7867 23.2 15.2533 24.16 15.84C25.12 16.4267 25.8933 17.2 26.48 18.16C27.0933 19.12 27.4 20.3333 27.4 21.8C27.4 23.3733 26.96 24.8133 26.08 26.12C25.2 27.4267 23.88 28.48 22.12 29.28C20.3867 30.08 18.1867 30.48 15.52 30.48ZM31.3878 30V0.319998H37.6278V30H31.3878ZM54.0991 30.32C51.6457 30.32 49.4857 29.84 47.6191 28.88C45.7791 27.92 44.3524 26.6133 43.3391 24.96C42.3257 23.28 41.8191 21.3733 41.8191 19.24C41.8191 17.08 42.3124 15.1733 43.2991 13.52C44.3124 11.84 45.6857 10.5333 47.4191 9.6C49.1524 8.64 51.1124 8.16 53.2991 8.16C55.4057 8.16 57.2991 8.61333 58.9791 9.52C60.6857 10.4 62.0324 11.68 63.0191 13.36C64.0057 15.0133 64.4991 17 64.4991 19.32C64.4991 19.56 64.4857 19.84 64.4591 20.16C64.4324 20.4533 64.4057 20.7333 64.3791 21H46.8991V17.36H61.0991L58.6991 18.44C58.6991 17.32 58.4724 16.3467 58.0191 15.52C57.5657 14.6933 56.9391 14.0533 56.1391 13.6C55.3391 13.12 54.4057 12.88 53.3391 12.88C52.2724 12.88 51.3257 13.12 50.4991 13.6C49.6991 14.0533 49.0724 14.7067 48.6191 15.56C48.1657 16.3867 47.9391 17.3733 47.9391 18.52V19.48C47.9391 20.6533 48.1924 21.6933 48.6991 22.6C49.2324 23.48 49.9657 24.16 50.8991 24.64C51.8591 25.0933 52.9791 25.32 54.2591 25.32C55.4057 25.32 56.4057 25.1467 57.2591 24.8C58.1391 24.4533 58.9391 23.9333 59.6591 23.24L62.9791 26.84C61.9924 27.96 60.7524 28.8267 59.2591 29.44C57.7657 30.0267 56.0457 30.32 54.0991 30.32ZM79.3334 30.32C76.8801 30.32 74.7201 29.84 72.8534 28.88C71.0134 27.92 69.5868 26.6133 68.5734 24.96C67.5601 23.28 67.0534 21.3733 67.0534 19.24C67.0534 17.08 67.5468 15.1733 68.5334 13.52C69.5468 11.84 70.9201 10.5333 72.6534 9.6C74.3868 8.64 76.3468 8.16 78.5334 8.16C80.6401 8.16 82.5334 8.61333 84.2134 9.52C85.9201 10.4 87.2668 11.68 88.2534 13.36C89.2401 15.0133 89.7334 17 89.7334 19.32C89.7334 19.56 89.7201 19.84 89.6934 20.16C89.6668 20.4533 89.6401 20.7333 89.6134 21H72.1334V17.36H86.3334L83.9334 18.44C83.9334 17.32 83.7068 16.3467 83.2534 15.52C82.8001 14.6933 82.1734 14.0533 81.3734 13.6C80.5734 13.12 79.6401 12.88 78.5734 12.88C77.5068 12.88 76.5601 13.12 75.7334 13.6C74.9334 14.0533 74.3068 14.7067 73.8534 15.56C73.4001 16.3867 73.1734 17.3733 73.1734 18.52V19.48C73.1734 20.6533 73.4268 21.6933 73.9334 22.6C74.4668 23.48 75.2001 24.16 76.1334 24.64C77.0934 25.0933 78.2134 25.32 79.4934 25.32C80.6401 25.32 81.6401 25.1467 82.4934 24.8C83.3734 24.4533 84.1734 23.9333 84.8934 23.24L88.2134 26.84C87.2268 27.96 85.9868 28.8267 84.4934 29.44C83.0001 30.0267 81.2801 30.32 79.3334 30.32ZM106.608 30.32C104.794 30.32 103.208 29.92 101.848 29.12C100.488 28.32 99.4211 27.1067 98.6478 25.48C97.9011 23.8267 97.5278 21.7467 97.5278 19.24C97.5278 16.7067 97.8878 14.6267 98.6078 13C99.3278 11.3733 100.368 10.16 101.728 9.36C103.088 8.56 104.714 8.16 106.608 8.16C108.634 8.16 110.448 8.62667 112.048 9.56C113.674 10.4667 114.954 11.7467 115.888 13.4C116.848 15.0533 117.328 17 117.328 19.24C117.328 21.5067 116.848 23.4667 115.888 25.12C114.954 26.7733 113.674 28.0533 112.048 28.96C110.448 29.8667 108.634 30.32 106.608 30.32ZM93.8878 37.76V8.48H99.8478V12.88L99.7278 19.28L100.128 25.64V37.76H93.8878ZM105.528 25.2C106.568 25.2 107.488 24.96 108.288 24.48C109.114 24 109.768 23.32 110.248 22.44C110.754 21.5333 111.008 20.4667 111.008 19.24C111.008 17.9867 110.754 16.92 110.248 16.04C109.768 15.16 109.114 14.48 108.288 14C107.488 13.52 106.568 13.28 105.528 13.28C104.488 13.28 103.554 13.52 102.728 14C101.901 14.48 101.248 15.16 100.768 16.04C100.288 16.92 100.048 17.9867 100.048 19.24C100.048 20.4667 100.288 21.5333 100.768 22.44C101.248 23.32 101.901 24 102.728 24.48C103.554 24.96 104.488 25.2 105.528 25.2ZM121.505 30V0.319998H127.745V30H121.505ZM144.216 30.32C141.763 30.32 139.603 29.84 137.736 28.88C135.896 27.92 134.47 26.6133 133.456 24.96C132.443 23.28 131.936 21.3733 131.936 19.24C131.936 17.08 132.43 15.1733 133.416 13.52C134.43 11.84 135.803 10.5333 137.536 9.6C139.27 8.64 141.23 8.16 143.416 8.16C145.523 8.16 147.416 8.61333 149.096 9.52C150.803 10.4 152.15 11.68 153.136 13.36C154.123 15.0133 154.616 17 154.616 19.32C154.616 19.56 154.603 19.84 154.576 20.16C154.55 20.4533 154.523 20.7333 154.496 21H137.016V17.36H151.216L148.816 18.44C148.816 17.32 148.59 16.3467 148.136 15.52C147.683 14.6933 147.056 14.0533 146.256 13.6C145.456 13.12 144.523 12.88 143.456 12.88C142.39 12.88 141.443 13.12 140.616 13.6C139.816 14.0533 139.19 14.7067 138.736 15.56C138.283 16.3867 138.056 17.3733 138.056 18.52V19.48C138.056 20.6533 138.31 21.6933 138.816 22.6C139.35 23.48 140.083 24.16 141.016 24.64C141.976 25.0933 143.096 25.32 144.376 25.32C145.523 25.32 146.523 25.1467 147.376 24.8C148.256 24.4533 149.056 23.9333 149.776 23.24L153.096 26.84C152.11 27.96 150.87 28.8267 149.376 29.44C147.883 30.0267 146.163 30.32 144.216 30.32ZM166.011 30.32C164.171 30.32 162.397 30.1067 160.691 29.68C159.011 29.2267 157.677 28.6667 156.691 28L158.771 23.52C159.757 24.1333 160.917 24.64 162.251 25.04C163.611 25.4133 164.944 25.6 166.251 25.6C167.691 25.6 168.704 25.4267 169.291 25.08C169.904 24.7333 170.211 24.2533 170.211 23.64C170.211 23.1333 169.971 22.76 169.491 22.52C169.037 22.2533 168.424 22.0533 167.651 21.92C166.877 21.7867 166.024 21.6533 165.091 21.52C164.184 21.3867 163.264 21.2133 162.331 21C161.397 20.76 160.544 20.4133 159.771 19.96C158.997 19.5067 158.371 18.8933 157.891 18.12C157.437 17.3467 157.211 16.3467 157.211 15.12C157.211 13.76 157.597 12.56 158.371 11.52C159.171 10.48 160.317 9.66667 161.811 9.08C163.304 8.46667 165.091 8.16 167.171 8.16C168.637 8.16 170.131 8.32 171.651 8.64C173.171 8.96 174.437 9.42667 175.451 10.04L173.371 14.48C172.331 13.8667 171.277 13.4533 170.211 13.24C169.171 13 168.157 12.88 167.171 12.88C165.784 12.88 164.771 13.0667 164.131 13.44C163.491 13.8133 163.171 14.2933 163.171 14.88C163.171 15.4133 163.397 15.8133 163.851 16.08C164.331 16.3467 164.957 16.56 165.731 16.72C166.504 16.88 167.344 17.0267 168.251 17.16C169.184 17.2667 170.117 17.44 171.051 17.68C171.984 17.92 172.824 18.2667 173.571 18.72C174.344 19.1467 174.971 19.7467 175.451 20.52C175.931 21.2667 176.171 22.2533 176.171 23.48C176.171 24.8133 175.771 26 174.971 27.04C174.171 28.0533 173.011 28.8533 171.491 29.44C169.997 30.0267 168.171 30.32 166.011 30.32ZM187.261 30.32C185.421 30.32 183.647 30.1067 181.941 29.68C180.261 29.2267 178.927 28.6667 177.941 28L180.021 23.52C181.007 24.1333 182.167 24.64 183.501 25.04C184.861 25.4133 186.194 25.6 187.501 25.6C188.941 25.6 189.954 25.4267 190.541 25.08C191.154 24.7333 191.461 24.2533 191.461 23.64C191.461 23.1333 191.221 22.76 190.741 22.52C190.287 22.2533 189.674 22.0533 188.901 21.92C188.127 21.7867 187.274 21.6533 186.341 21.52C185.434 21.3867 184.514 21.2133 183.581 21C182.647 20.76 181.794 20.4133 181.021 19.96C180.247 19.5067 179.621 18.8933 179.141 18.12C178.687 17.3467 178.461 16.3467 178.461 15.12C178.461 13.76 178.847 12.56 179.621 11.52C180.421 10.48 181.567 9.66667 183.061 9.08C184.554 8.46667 186.341 8.16 188.421 8.16C189.887 8.16 191.381 8.32 192.901 8.64C194.421 8.96 195.687 9.42667 196.701 10.04L194.621 14.48C193.581 13.8667 192.527 13.4533 191.461 13.24C190.421 13 189.407 12.88 188.421 12.88C187.034 12.88 186.021 13.0667 185.381 13.44C184.741 13.8133 184.421 14.2933 184.421 14.88C184.421 15.4133 184.647 15.8133 185.101 16.08C185.581 16.3467 186.207 16.56 186.981 16.72C187.754 16.88 188.594 17.0267 189.501 17.16C190.434 17.2667 191.367 17.44 192.301 17.68C193.234 17.92 194.074 18.2667 194.821 18.72C195.594 19.1467 196.221 19.7467 196.701 20.52C197.181 21.2667 197.421 22.2533 197.421 23.48C197.421 24.8133 197.021 26 196.221 27.04C195.421 28.0533 194.261 28.8533 192.741 29.44C191.247 30.0267 189.421 30.32 187.261 30.32Z" fill="white"/>
</g>
<defs>
</defs>
</svg>
