<svg width="179" height="62" viewBox="0 0 179 62" fill="none" xmlns="http://www.w3.org/2000/svg">
<g>
<path d="M14.955 34.42C12.995 34.42 11.1167 34.1633 9.32 33.65C7.52333 33.1133 6.07667 32.425 4.98 31.585L6.905 27.315C7.955 28.0617 9.19167 28.68 10.615 29.17C12.0617 29.6367 13.52 29.87 14.99 29.87C16.11 29.87 17.0083 29.765 17.685 29.555C18.385 29.3217 18.8983 29.0067 19.225 28.61C19.5517 28.2133 19.715 27.7583 19.715 27.245C19.715 26.5917 19.4583 26.0783 18.945 25.705C18.4317 25.3083 17.755 24.9933 16.915 24.76C16.075 24.5033 15.1417 24.27 14.115 24.06C13.1117 23.8267 12.0967 23.5467 11.07 23.22C10.0667 22.8933 9.145 22.4733 8.305 21.96C7.465 21.4467 6.77667 20.77 6.24 19.93C5.72667 19.09 5.47 18.0167 5.47 16.71C5.47 15.31 5.84333 14.0383 6.59 12.895C7.36 11.7283 8.50333 10.8067 10.02 10.13C11.56 9.43 13.485 9.08 15.795 9.08C17.335 9.08 18.8517 9.26667 20.345 9.64C21.8383 9.99 23.1567 10.5267 24.3 11.25L22.55 15.555C21.4067 14.9017 20.2633 14.4233 19.12 14.12C17.9767 13.7933 16.8567 13.63 15.76 13.63C14.6633 13.63 13.765 13.7583 13.065 14.015C12.365 14.2717 11.8633 14.61 11.56 15.03C11.2567 15.4267 11.105 15.8933 11.105 16.43C11.105 17.06 11.3617 17.5733 11.875 17.97C12.3883 18.3433 13.065 18.6467 13.905 18.88C14.745 19.1133 15.6667 19.3467 16.67 19.58C17.6967 19.8133 18.7117 20.0817 19.715 20.385C20.7417 20.6883 21.675 21.0967 22.515 21.61C23.355 22.1233 24.0317 22.8 24.545 23.64C25.0817 24.48 25.35 25.5417 25.35 26.825C25.35 28.2017 24.965 29.4617 24.195 30.605C23.425 31.7483 22.27 32.67 20.73 33.37C19.2133 34.07 17.2883 34.42 14.955 34.42ZM28.8393 34V8.03H34.2993V34H28.8393ZM48.7117 34.28C46.565 34.28 44.675 33.86 43.0417 33.02C41.4317 32.18 40.1833 31.0367 39.2967 29.59C38.41 28.12 37.9667 26.4517 37.9667 24.585C37.9667 22.695 38.3983 21.0267 39.2617 19.58C40.1483 18.11 41.35 16.9667 42.8667 16.15C44.3833 15.31 46.0983 14.89 48.0117 14.89C49.855 14.89 51.5117 15.2867 52.9817 16.08C54.475 16.85 55.6533 17.97 56.5167 19.44C57.38 20.8867 57.8117 22.625 57.8117 24.655C57.8117 24.865 57.8 25.11 57.7767 25.39C57.7533 25.6467 57.73 25.8917 57.7067 26.125H42.4117V22.94H54.8367L52.7367 23.885C52.7367 22.905 52.5383 22.0533 52.1417 21.33C51.745 20.6067 51.1967 20.0467 50.4967 19.65C49.7967 19.23 48.98 19.02 48.0467 19.02C47.1133 19.02 46.285 19.23 45.5617 19.65C44.8617 20.0467 44.3133 20.6183 43.9167 21.365C43.52 22.0883 43.3217 22.9517 43.3217 23.955V24.795C43.3217 25.8217 43.5433 26.7317 43.9867 27.525C44.4533 28.295 45.095 28.89 45.9117 29.31C46.7517 29.7067 47.7317 29.905 48.8517 29.905C49.855 29.905 50.73 29.7533 51.4767 29.45C52.2467 29.1467 52.9467 28.6917 53.5767 28.085L56.4817 31.235C55.6183 32.215 54.5333 32.9733 53.2267 33.51C51.92 34.0233 50.415 34.28 48.7117 34.28ZM70.7918 34.28C68.6451 34.28 66.7551 33.86 65.1218 33.02C63.5118 32.18 62.2634 31.0367 61.3768 29.59C60.4901 28.12 60.0468 26.4517 60.0468 24.585C60.0468 22.695 60.4784 21.0267 61.3418 19.58C62.2284 18.11 63.4301 16.9667 64.9468 16.15C66.4634 15.31 68.1784 14.89 70.0918 14.89C71.9351 14.89 73.5918 15.2867 75.0618 16.08C76.5551 16.85 77.7334 17.97 78.5968 19.44C79.4601 20.8867 79.8918 22.625 79.8918 24.655C79.8918 24.865 79.8801 25.11 79.8568 25.39C79.8334 25.6467 79.8101 25.8917 79.7868 26.125H64.4918V22.94H76.9168L74.8168 23.885C74.8168 22.905 74.6184 22.0533 74.2218 21.33C73.8251 20.6067 73.2768 20.0467 72.5768 19.65C71.8768 19.23 71.0601 19.02 70.1268 19.02C69.1934 19.02 68.3651 19.23 67.6418 19.65C66.9418 20.0467 66.3934 20.6183 65.9968 21.365C65.6001 22.0883 65.4018 22.9517 65.4018 23.955V24.795C65.4018 25.8217 65.6234 26.7317 66.0668 27.525C66.5334 28.295 67.1751 28.89 67.9918 29.31C68.8318 29.7067 69.8118 29.905 70.9318 29.905C71.9351 29.905 72.8101 29.7533 73.5568 29.45C74.3268 29.1467 75.0268 28.6917 75.6568 28.085L78.5618 31.235C77.6984 32.215 76.6134 32.9733 75.3068 33.51C74.0001 34.0233 72.4951 34.28 70.7918 34.28ZM94.6568 34.28C93.0702 34.28 91.6818 33.93 90.4918 33.23C89.3018 32.53 88.3685 31.4683 87.6918 30.045C87.0385 28.5983 86.7118 26.7783 86.7118 24.585C86.7118 22.3683 87.0268 20.5483 87.6568 19.125C88.2868 17.7017 89.1968 16.64 90.3868 15.94C91.5768 15.24 93.0002 14.89 94.6568 14.89C96.4302 14.89 98.0168 15.2983 99.4168 16.115C100.84 16.9083 101.96 18.0283 102.777 19.475C103.617 20.9217 104.037 22.625 104.037 24.585C104.037 26.5683 103.617 28.2833 102.777 29.73C101.96 31.1767 100.84 32.2967 99.4168 33.09C98.0168 33.8833 96.4302 34.28 94.6568 34.28ZM83.5268 40.79V15.17H88.7418V19.02L88.6368 24.62L88.9868 30.185V40.79H83.5268ZM93.7118 29.8C94.6218 29.8 95.4268 29.59 96.1268 29.17C96.8502 28.75 97.4218 28.155 97.8418 27.385C98.2852 26.5917 98.5068 25.6583 98.5068 24.585C98.5068 23.4883 98.2852 22.555 97.8418 21.785C97.4218 21.015 96.8502 20.42 96.1268 20C95.4268 19.58 94.6218 19.37 93.7118 19.37C92.8018 19.37 91.9852 19.58 91.2618 20C90.5385 20.42 89.9668 21.015 89.5468 21.785C89.1268 22.555 88.9168 23.4883 88.9168 24.585C88.9168 25.6583 89.1268 26.5917 89.5468 27.385C89.9668 28.155 90.5385 28.75 91.2618 29.17C91.9852 29.59 92.8018 29.8 93.7118 29.8ZM107.692 34V8.03H113.152V34H107.692ZM127.564 34.28C125.418 34.28 123.528 33.86 121.894 33.02C120.284 32.18 119.036 31.0367 118.149 29.59C117.263 28.12 116.819 26.4517 116.819 24.585C116.819 22.695 117.251 21.0267 118.114 19.58C119.001 18.11 120.203 16.9667 121.719 16.15C123.236 15.31 124.951 14.89 126.864 14.89C128.708 14.89 130.364 15.2867 131.834 16.08C133.328 16.85 134.506 17.97 135.369 19.44C136.233 20.8867 136.664 22.625 136.664 24.655C136.664 24.865 136.653 25.11 136.629 25.39C136.606 25.6467 136.583 25.8917 136.559 26.125H121.264V22.94H133.689L131.589 23.885C131.589 22.905 131.391 22.0533 130.994 21.33C130.598 20.6067 130.049 20.0467 129.349 19.65C128.649 19.23 127.833 19.02 126.899 19.02C125.966 19.02 125.138 19.23 124.414 19.65C123.714 20.0467 123.166 20.6183 122.769 21.365C122.373 22.0883 122.174 22.9517 122.174 23.955V24.795C122.174 25.8217 122.396 26.7317 122.839 27.525C123.306 28.295 123.948 28.89 124.764 29.31C125.604 29.7067 126.584 29.905 127.704 29.905C128.708 29.905 129.583 29.7533 130.329 29.45C131.099 29.1467 131.799 28.6917 132.429 28.085L135.334 31.235C134.471 32.215 133.386 32.9733 132.079 33.51C130.773 34.0233 129.268 34.28 127.564 34.28ZM146.634 34.28C145.024 34.28 143.473 34.0933 141.979 33.72C140.509 33.3233 139.343 32.8333 138.479 32.25L140.299 28.33C141.163 28.8667 142.178 29.31 143.344 29.66C144.534 29.9867 145.701 30.15 146.844 30.15C148.104 30.15 148.991 29.9983 149.504 29.695C150.041 29.3917 150.309 28.9717 150.309 28.435C150.309 27.9917 150.099 27.665 149.679 27.455C149.283 27.2217 148.746 27.0467 148.069 26.93C147.393 26.8133 146.646 26.6967 145.829 26.58C145.036 26.4633 144.231 26.3117 143.414 26.125C142.598 25.915 141.851 25.6117 141.174 25.215C140.498 24.8183 139.949 24.2817 139.529 23.605C139.133 22.9283 138.934 22.0533 138.934 20.98C138.934 19.79 139.273 18.74 139.949 17.83C140.649 16.92 141.653 16.2083 142.959 15.695C144.266 15.1583 145.829 14.89 147.649 14.89C148.933 14.89 150.239 15.03 151.569 15.31C152.899 15.59 154.008 15.9983 154.894 16.535L153.074 20.42C152.164 19.8833 151.243 19.5217 150.309 19.335C149.399 19.125 148.513 19.02 147.649 19.02C146.436 19.02 145.549 19.1833 144.989 19.51C144.429 19.8367 144.149 20.2567 144.149 20.77C144.149 21.2367 144.348 21.5867 144.744 21.82C145.164 22.0533 145.713 22.24 146.389 22.38C147.066 22.52 147.801 22.6483 148.594 22.765C149.411 22.8583 150.228 23.01 151.044 23.22C151.861 23.43 152.596 23.7333 153.249 24.13C153.926 24.5033 154.474 25.0283 154.894 25.705C155.314 26.3583 155.524 27.2217 155.524 28.295C155.524 29.4617 155.174 30.5 154.474 31.41C153.774 32.2967 152.759 32.9967 151.429 33.51C150.123 34.0233 148.524 34.28 146.634 34.28ZM165.228 34.28C163.618 34.28 162.066 34.0933 160.573 33.72C159.103 33.3233 157.936 32.8333 157.073 32.25L158.893 28.33C159.756 28.8667 160.771 29.31 161.938 29.66C163.128 29.9867 164.295 30.15 165.438 30.15C166.698 30.15 167.585 29.9983 168.098 29.695C168.635 29.3917 168.903 28.9717 168.903 28.435C168.903 27.9917 168.693 27.665 168.273 27.455C167.876 27.2217 167.34 27.0467 166.663 26.93C165.986 26.8133 165.24 26.6967 164.423 26.58C163.63 26.4633 162.825 26.3117 162.008 26.125C161.191 25.915 160.445 25.6117 159.768 25.215C159.091 24.8183 158.543 24.2817 158.123 23.605C157.726 22.9283 157.528 22.0533 157.528 20.98C157.528 19.79 157.866 18.74 158.543 17.83C159.243 16.92 160.246 16.2083 161.553 15.695C162.86 15.1583 164.423 14.89 166.243 14.89C167.526 14.89 168.833 15.03 170.163 15.31C171.493 15.59 172.601 15.9983 173.488 16.535L171.668 20.42C170.758 19.8833 169.836 19.5217 168.903 19.335C167.993 19.125 167.106 19.02 166.243 19.02C165.03 19.02 164.143 19.1833 163.583 19.51C163.023 19.8367 162.743 20.2567 162.743 20.77C162.743 21.2367 162.941 21.5867 163.338 21.82C163.758 22.0533 164.306 22.24 164.983 22.38C165.66 22.52 166.395 22.6483 167.188 22.765C168.005 22.8583 168.821 23.01 169.638 23.22C170.455 23.43 171.19 23.7333 171.843 24.13C172.52 24.5033 173.068 25.0283 173.488 25.705C173.908 26.3583 174.118 27.2217 174.118 28.295C174.118 29.4617 173.768 30.5 173.068 31.41C172.368 32.2967 171.353 32.9967 170.023 33.51C168.716 34.0233 167.118 34.28 165.228 34.28Z" fill="white"/>
</g>
<path d="M8.847 58L14.151 46.1H16.871L22.192 58H19.302L14.95 47.494H16.038L11.669 58H8.847ZM11.499 55.45L12.23 53.359H18.35L19.098 55.45H11.499ZM23.4266 58V46.1H26.1806V58H23.4266ZM33.6322 58V48.854H36.1652V51.438L35.8082 50.69C36.0802 50.044 36.5165 49.5567 37.1172 49.228C37.7179 48.888 38.4489 48.718 39.3102 48.718V51.166C39.1969 51.1547 39.0949 51.149 39.0042 51.149C38.9135 51.1377 38.8172 51.132 38.7152 51.132C37.9899 51.132 37.4005 51.3417 36.9472 51.761C36.5052 52.169 36.2842 52.8093 36.2842 53.682V58H33.6322ZM45.3597 58.136C44.317 58.136 43.399 57.932 42.6057 57.524C41.8237 57.116 41.2173 56.5607 40.7867 55.858C40.356 55.144 40.1407 54.3337 40.1407 53.427C40.1407 52.509 40.3503 51.6987 40.7697 50.996C41.2003 50.282 41.784 49.7267 42.5207 49.33C43.2573 48.922 44.0903 48.718 45.0197 48.718C45.915 48.718 46.7197 48.9107 47.4337 49.296C48.159 49.67 48.7313 50.214 49.1507 50.928C49.57 51.6307 49.7797 52.475 49.7797 53.461C49.7797 53.563 49.774 53.682 49.7627 53.818C49.7513 53.9427 49.74 54.0617 49.7287 54.175H42.2997V52.628H48.3347L47.3147 53.087C47.3147 52.611 47.2183 52.1973 47.0257 51.846C46.833 51.4947 46.5667 51.2227 46.2267 51.03C45.8867 50.826 45.49 50.724 45.0367 50.724C44.5833 50.724 44.181 50.826 43.8297 51.03C43.4897 51.2227 43.2233 51.5003 43.0307 51.863C42.838 52.2143 42.7417 52.6337 42.7417 53.121V53.529C42.7417 54.0277 42.8493 54.4697 43.0647 54.855C43.2913 55.229 43.603 55.518 43.9997 55.722C44.4077 55.9147 44.8837 56.011 45.4277 56.011C45.915 56.011 46.34 55.9373 46.7027 55.79C47.0767 55.6427 47.4167 55.4217 47.7227 55.127L49.1337 56.657C48.7143 57.133 48.1873 57.5013 47.5527 57.762C46.918 58.0113 46.187 58.136 45.3597 58.136ZM51.8683 58V48.65C51.8683 47.6187 52.1743 46.797 52.7863 46.185C53.3983 45.5617 54.271 45.25 55.4043 45.25C55.7896 45.25 56.158 45.2897 56.5093 45.369C56.872 45.4483 57.178 45.573 57.4273 45.743L56.7303 47.664C56.583 47.562 56.4186 47.4827 56.2373 47.426C56.056 47.3693 55.8633 47.341 55.6593 47.341C55.274 47.341 54.9736 47.4543 54.7583 47.681C54.5543 47.8963 54.4523 48.225 54.4523 48.667V49.517L54.5203 50.656V58H51.8683ZM50.4573 51.098V49.058H56.7983V51.098H50.4573ZM58.1859 58V48.854H60.7189V51.438L60.3619 50.69C60.6339 50.044 61.0702 49.5567 61.6709 49.228C62.2716 48.888 63.0026 48.718 63.8639 48.718V51.166C63.7506 51.1547 63.6486 51.149 63.5579 51.149C63.4672 51.1377 63.3709 51.132 63.2689 51.132C62.5436 51.132 61.9542 51.3417 61.5009 51.761C61.0589 52.169 60.8379 52.8093 60.8379 53.682V58H58.1859ZM69.9134 58.136C68.8707 58.136 67.9527 57.932 67.1594 57.524C66.3774 57.116 65.7711 56.5607 65.3404 55.858C64.9097 55.144 64.6944 54.3337 64.6944 53.427C64.6944 52.509 64.9041 51.6987 65.3234 50.996C65.7541 50.282 66.3377 49.7267 67.0744 49.33C67.8111 48.922 68.6441 48.718 69.5734 48.718C70.4687 48.718 71.2734 48.9107 71.9874 49.296C72.7127 49.67 73.2851 50.214 73.7044 50.928C74.1237 51.6307 74.3334 52.475 74.3334 53.461C74.3334 53.563 74.3277 53.682 74.3164 53.818C74.3051 53.9427 74.2937 54.0617 74.2824 54.175H66.8534V52.628H72.8884L71.8684 53.087C71.8684 52.611 71.7721 52.1973 71.5794 51.846C71.3867 51.4947 71.1204 51.2227 70.7804 51.03C70.4404 50.826 70.0437 50.724 69.5904 50.724C69.1371 50.724 68.7347 50.826 68.3834 51.03C68.0434 51.2227 67.7771 51.5003 67.5844 51.863C67.3917 52.2143 67.2954 52.6337 67.2954 53.121V53.529C67.2954 54.0277 67.4031 54.4697 67.6184 54.855C67.8451 55.229 68.1567 55.518 68.5534 55.722C68.9614 55.9147 69.4374 56.011 69.9814 56.011C70.4687 56.011 70.8937 55.9373 71.2564 55.79C71.6304 55.6427 71.9704 55.4217 72.2764 55.127L73.6874 56.657C73.2681 57.133 72.7411 57.5013 72.1064 57.762C71.4717 58.0113 70.7407 58.136 69.9134 58.136ZM79.176 58.136C78.394 58.136 77.6403 58.0453 76.915 57.864C76.201 57.6713 75.6343 57.4333 75.215 57.15L76.099 55.246C76.5183 55.5067 77.0113 55.722 77.578 55.892C78.156 56.0507 78.7227 56.13 79.278 56.13C79.89 56.13 80.3207 56.0563 80.57 55.909C80.8307 55.7617 80.961 55.5577 80.961 55.297C80.961 55.0817 80.859 54.923 80.655 54.821C80.4623 54.7077 80.2017 54.6227 79.873 54.566C79.5443 54.5093 79.1817 54.4527 78.785 54.396C78.3997 54.3393 78.0087 54.2657 77.612 54.175C77.2153 54.073 76.8527 53.9257 76.524 53.733C76.1953 53.5403 75.929 53.2797 75.725 52.951C75.5323 52.6223 75.436 52.1973 75.436 51.676C75.436 51.098 75.6003 50.588 75.929 50.146C76.269 49.704 76.7563 49.3583 77.391 49.109C78.0257 48.8483 78.785 48.718 79.669 48.718C80.2923 48.718 80.927 48.786 81.573 48.922C82.219 49.058 82.7573 49.2563 83.188 49.517L82.304 51.404C81.862 51.1433 81.4143 50.9677 80.961 50.877C80.519 50.775 80.0883 50.724 79.669 50.724C79.0797 50.724 78.649 50.8033 78.377 50.962C78.105 51.1207 77.969 51.3247 77.969 51.574C77.969 51.8007 78.0653 51.9707 78.258 52.084C78.462 52.1973 78.7283 52.288 79.057 52.356C79.3857 52.424 79.7427 52.4863 80.128 52.543C80.5247 52.5883 80.9213 52.662 81.318 52.764C81.7147 52.866 82.0717 53.0133 82.389 53.206C82.7177 53.3873 82.984 53.6423 83.188 53.971C83.392 54.2883 83.494 54.7077 83.494 55.229C83.494 55.7957 83.324 56.3 82.984 56.742C82.644 57.1727 82.151 57.5127 81.505 57.762C80.8703 58.0113 80.094 58.136 79.176 58.136ZM90.6893 48.718C91.4146 48.718 92.0606 48.8653 92.6273 49.16C93.2053 49.4433 93.6586 49.8853 93.9873 50.486C94.3159 51.0753 94.4803 51.8347 94.4803 52.764V58H91.8283V53.172C91.8283 52.4353 91.6639 51.8913 91.3353 51.54C91.0179 51.1887 90.5646 51.013 89.9753 51.013C89.5559 51.013 89.1763 51.1037 88.8363 51.285C88.5076 51.455 88.2469 51.7213 88.0543 52.084C87.8729 52.4467 87.7823 52.9113 87.7823 53.478V58H85.1303V45.386H87.7823V51.387L87.1873 50.622C87.5159 50.01 87.9863 49.5397 88.5983 49.211C89.2103 48.8823 89.9073 48.718 90.6893 48.718ZM101.49 58.136C100.447 58.136 99.5289 57.932 98.7356 57.524C97.9536 57.116 97.3472 56.5607 96.9166 55.858C96.4859 55.144 96.2706 54.3337 96.2706 53.427C96.2706 52.509 96.4802 51.6987 96.8996 50.996C97.3302 50.282 97.9139 49.7267 98.6506 49.33C99.3872 48.922 100.22 48.718 101.15 48.718C102.045 48.718 102.85 48.9107 103.564 49.296C104.289 49.67 104.861 50.214 105.281 50.928C105.7 51.6307 105.91 52.475 105.91 53.461C105.91 53.563 105.904 53.682 105.893 53.818C105.881 53.9427 105.87 54.0617 105.859 54.175H98.4296V52.628H104.465L103.445 53.087C103.445 52.611 103.348 52.1973 103.156 51.846C102.963 51.4947 102.697 51.2227 102.357 51.03C102.017 50.826 101.62 50.724 101.167 50.724C100.713 50.724 100.311 50.826 99.9596 51.03C99.6196 51.2227 99.3532 51.5003 99.1606 51.863C98.9679 52.2143 98.8716 52.6337 98.8716 53.121V53.529C98.8716 54.0277 98.9792 54.4697 99.1946 54.855C99.4212 55.229 99.7329 55.518 100.13 55.722C100.538 55.9147 101.014 56.011 101.558 56.011C102.045 56.011 102.47 55.9373 102.833 55.79C103.207 55.6427 103.547 55.4217 103.853 55.127L105.264 56.657C104.844 57.133 104.317 57.5013 103.683 57.762C103.048 58.0113 102.317 58.136 101.49 58.136ZM111.602 58.136C110.741 58.136 109.965 57.9433 109.273 57.558C108.582 57.1613 108.032 56.6117 107.624 55.909C107.228 55.2063 107.029 54.379 107.029 53.427C107.029 52.4637 107.228 51.6307 107.624 50.928C108.032 50.2253 108.582 49.6813 109.273 49.296C109.965 48.9107 110.741 48.718 111.602 48.718C112.373 48.718 113.047 48.888 113.625 49.228C114.203 49.568 114.651 50.0837 114.968 50.775C115.286 51.4663 115.444 52.3503 115.444 53.427C115.444 54.4923 115.291 55.3763 114.985 56.079C114.679 56.7703 114.237 57.286 113.659 57.626C113.093 57.966 112.407 58.136 111.602 58.136ZM112.061 55.96C112.492 55.96 112.883 55.858 113.234 55.654C113.586 55.45 113.863 55.161 114.067 54.787C114.283 54.4017 114.39 53.9483 114.39 53.427C114.39 52.8943 114.283 52.441 114.067 52.067C113.863 51.693 113.586 51.404 113.234 51.2C112.883 50.996 112.492 50.894 112.061 50.894C111.619 50.894 111.223 50.996 110.871 51.2C110.52 51.404 110.237 51.693 110.021 52.067C109.817 52.441 109.715 52.8943 109.715 53.427C109.715 53.9483 109.817 54.4017 110.021 54.787C110.237 55.161 110.52 55.45 110.871 55.654C111.223 55.858 111.619 55.96 112.061 55.96ZM114.458 58V56.13L114.509 53.41L114.339 50.707V45.386H116.991V58H114.458ZM128.187 58.136C127.326 58.136 126.549 57.9433 125.858 57.558C125.167 57.1613 124.617 56.6117 124.209 55.909C123.812 55.2063 123.614 54.379 123.614 53.427C123.614 52.4637 123.812 51.6307 124.209 50.928C124.617 50.2253 125.167 49.6813 125.858 49.296C126.549 48.9107 127.326 48.718 128.187 48.718C128.958 48.718 129.632 48.888 130.21 49.228C130.788 49.568 131.236 50.0837 131.553 50.775C131.87 51.4663 132.029 52.3503 132.029 53.427C132.029 54.4923 131.876 55.3763 131.57 56.079C131.264 56.7703 130.822 57.286 130.244 57.626C129.677 57.966 128.992 58.136 128.187 58.136ZM128.646 55.96C129.077 55.96 129.468 55.858 129.819 55.654C130.17 55.45 130.448 55.161 130.652 54.787C130.867 54.4017 130.975 53.9483 130.975 53.427C130.975 52.8943 130.867 52.441 130.652 52.067C130.448 51.693 130.17 51.404 129.819 51.2C129.468 50.996 129.077 50.894 128.646 50.894C128.204 50.894 127.807 50.996 127.456 51.2C127.105 51.404 126.821 51.693 126.606 52.067C126.402 52.441 126.3 52.8943 126.3 53.427C126.3 53.9483 126.402 54.4017 126.606 54.787C126.821 55.161 127.105 55.45 127.456 55.654C127.807 55.858 128.204 55.96 128.646 55.96ZM131.043 58V56.13L131.094 53.41L130.924 50.707V45.386H133.576V58H131.043ZM141.641 58V56.215L141.471 55.824V52.628C141.471 52.0613 141.295 51.6193 140.944 51.302C140.604 50.9847 140.077 50.826 139.363 50.826C138.875 50.826 138.394 50.9053 137.918 51.064C137.453 51.2113 137.056 51.4153 136.728 51.676L135.776 49.823C136.274 49.4717 136.875 49.1997 137.578 49.007C138.28 48.8143 138.994 48.718 139.72 48.718C141.114 48.718 142.196 49.0467 142.967 49.704C143.737 50.3613 144.123 51.387 144.123 52.781V58H141.641ZM138.853 58.136C138.139 58.136 137.527 58.017 137.017 57.779C136.507 57.5297 136.116 57.1953 135.844 56.776C135.572 56.3567 135.436 55.8863 135.436 55.365C135.436 54.821 135.566 54.345 135.827 53.937C136.099 53.529 136.524 53.2117 137.102 52.985C137.68 52.747 138.433 52.628 139.363 52.628H141.794V54.175H139.652C139.028 54.175 138.598 54.277 138.36 54.481C138.133 54.685 138.02 54.94 138.02 55.246C138.02 55.586 138.15 55.858 138.411 56.062C138.683 56.2547 139.051 56.351 139.516 56.351C139.958 56.351 140.354 56.249 140.706 56.045C141.057 55.8297 141.312 55.518 141.471 55.11L141.879 56.334C141.686 56.9233 141.335 57.371 140.825 57.677C140.315 57.983 139.657 58.136 138.853 58.136ZM146.523 58V48.854H149.175V58H146.523ZM147.849 47.579C147.361 47.579 146.965 47.4373 146.659 47.154C146.353 46.8707 146.2 46.5193 146.2 46.1C146.2 45.6807 146.353 45.3293 146.659 45.046C146.965 44.7627 147.361 44.621 147.849 44.621C148.336 44.621 148.733 44.757 149.039 45.029C149.345 45.2897 149.498 45.6297 149.498 46.049C149.498 46.491 149.345 46.8593 149.039 47.154C148.744 47.4373 148.347 47.579 147.849 47.579ZM151.636 58V45.386H154.288V58H151.636ZM157.905 61.434C157.429 61.434 156.959 61.3603 156.494 61.213C156.03 61.0657 155.65 60.8617 155.355 60.601L156.324 58.714C156.528 58.8953 156.761 59.037 157.021 59.139C157.293 59.241 157.56 59.292 157.82 59.292C158.194 59.292 158.489 59.2013 158.704 59.02C158.931 58.85 159.135 58.561 159.316 58.153L159.792 57.031L159.996 56.742L163.277 48.854H165.827L161.696 58.561C161.402 59.2977 161.062 59.8757 160.676 60.295C160.302 60.7143 159.883 61.009 159.418 61.179C158.965 61.349 158.461 61.434 157.905 61.434ZM159.469 58.357L155.389 48.854H158.126L161.288 56.504L159.469 58.357ZM167.365 58.136C166.911 58.136 166.52 57.983 166.192 57.677C165.874 57.3597 165.716 56.9573 165.716 56.47C165.716 55.9827 165.874 55.5917 166.192 55.297C166.52 54.991 166.911 54.838 167.365 54.838C167.829 54.838 168.22 54.991 168.538 55.297C168.855 55.5917 169.014 55.9827 169.014 56.47C169.014 56.9573 168.855 57.3597 168.538 57.677C168.22 57.983 167.829 58.136 167.365 58.136Z" fill="#FFE600"/>
<defs>
</defs>
</svg>
