<svg width="320" height="133" viewBox="0 0 320 133" fill="none" xmlns="http://www.w3.org/2000/svg">
<g filter="url(#filter0_d_77_19)">
<path d="M13 104.077V20C13 13.9249 17.9249 9 24 9H296C302.075 9 307 13.9249 307 20V104.077C307 110.152 302.075 115.077 296 115.077H24C17.9249 115.077 13 110.152 13 104.077Z" fill="url(#paint0_linear_77_19)" fill-opacity="0.42"/>
<path d="M8.5 20V104.077C8.5 112.637 15.4396 119.577 24 119.577H296C304.56 119.577 311.5 112.637 311.5 104.077V20C311.5 11.4396 304.56 4.5 296 4.5H24C15.4396 4.5 8.5 11.4396 8.5 20Z" stroke="#999999" stroke-opacity="0.23" stroke-width="9" stroke-linejoin="round"/>
<path d="M30.6857 62V42H33.7429L42.4857 56.6H40.8857L49.4857 42H52.5429L52.5714 62H49.0571L49.0286 47.5143H49.7714L42.4571 59.7143H40.8L33.3714 47.5143H34.2286V62H30.6857ZM64.8022 62.2C63.107 62.2 61.6213 61.8667 60.3451 61.2C59.0879 60.5143 58.107 59.581 57.4022 58.4C56.7165 57.219 56.3737 55.8762 56.3737 54.3714C56.3737 52.8476 56.707 51.5048 57.3737 50.3429C58.0594 49.1619 58.9927 48.2381 60.1737 47.5714C61.3737 46.9048 62.7356 46.5714 64.2594 46.5714C65.7451 46.5714 67.0689 46.8952 68.2308 47.5429C69.3927 48.1905 70.307 49.1048 70.9737 50.2857C71.6403 51.4667 71.9737 52.8571 71.9737 54.4571C71.9737 54.6095 71.9641 54.781 71.9451 54.9714C71.9451 55.1619 71.9356 55.3429 71.9165 55.5143H59.2022V53.1429H70.0308L68.6308 53.8857C68.6499 53.0095 68.4689 52.2381 68.0879 51.5714C67.707 50.9048 67.1832 50.381 66.5165 50C65.8689 49.619 65.1165 49.4286 64.2594 49.4286C63.3832 49.4286 62.6118 49.619 61.9451 50C61.2975 50.381 60.7832 50.9143 60.4022 51.6C60.0403 52.2667 59.8594 53.0571 59.8594 53.9714V54.5429C59.8594 55.4571 60.0689 56.2667 60.4879 56.9714C60.907 57.6762 61.4975 58.219 62.2594 58.6C63.0213 58.981 63.8975 59.1714 64.8879 59.1714C65.7451 59.1714 66.5165 59.0381 67.2022 58.7714C67.8879 58.5048 68.4975 58.0857 69.0308 57.5143L70.9451 59.7143C70.2594 60.5143 69.3927 61.1333 68.3451 61.5714C67.3165 61.9905 66.1356 62.2 64.8022 62.2ZM84.3857 62V58.9143L84.1857 58.2571V52.8571C84.1857 51.8095 83.8714 51 83.2429 50.4286C82.6143 49.8381 81.6619 49.5429 80.3857 49.5429C79.5286 49.5429 78.681 49.6762 77.8429 49.9429C77.0238 50.2095 76.3286 50.581 75.7571 51.0571L74.3571 48.4571C75.1762 47.8286 76.1476 47.3619 77.2714 47.0571C78.4143 46.7333 79.5952 46.5714 80.8143 46.5714C83.0238 46.5714 84.7286 47.1048 85.9286 48.1714C87.1476 49.219 87.7571 50.8476 87.7571 53.0571V62H84.3857ZM79.5857 62.2C78.4429 62.2 77.4429 62.0095 76.5857 61.6286C75.7286 61.2286 75.0619 60.6857 74.5857 60C74.1286 59.2952 73.9 58.5048 73.9 57.6286C73.9 56.7714 74.1 56 74.5 55.3143C74.919 54.6286 75.5952 54.0857 76.5286 53.6857C77.4619 53.2857 78.7 53.0857 80.2429 53.0857H84.6714V55.4571H80.5C79.281 55.4571 78.4619 55.6571 78.0429 56.0571C77.6238 56.4381 77.4143 56.9143 77.4143 57.4857C77.4143 58.1333 77.6714 58.6476 78.1857 59.0286C78.7 59.4095 79.4143 59.6 80.3286 59.6C81.2048 59.6 81.9857 59.4 82.6714 59C83.3762 58.6 83.881 58.0095 84.1857 57.2286L84.7857 59.3714C84.4429 60.2667 83.8238 60.9619 82.9286 61.4571C82.0524 61.9524 80.9381 62.2 79.5857 62.2ZM100.998 46.5714C102.217 46.5714 103.303 46.8095 104.255 47.2857C105.226 47.7619 105.988 48.4952 106.541 49.4857C107.093 50.4571 107.369 51.7143 107.369 53.2571V62H103.798V53.7143C103.798 52.3619 103.474 51.3524 102.826 50.6857C102.198 50.019 101.312 49.6857 100.169 49.6857C99.3311 49.6857 98.5882 49.8571 97.9406 50.2C97.293 50.5429 96.7882 51.0571 96.4263 51.7429C96.0835 52.4095 95.9121 53.2571 95.9121 54.2857V62H92.3406V46.7429H95.7406V50.8571L95.1406 49.6C95.674 48.6286 96.4454 47.8857 97.4549 47.3714C98.4835 46.8381 99.6644 46.5714 100.998 46.5714ZM118.385 62.2C116.918 62.2 115.594 61.8762 114.413 61.2286C113.251 60.5619 112.337 59.6476 111.671 58.4857C111.004 57.3238 110.671 55.9524 110.671 54.3714C110.671 52.7905 111.004 51.419 111.671 50.2571C112.337 49.0952 113.251 48.1905 114.413 47.5429C115.594 46.8952 116.918 46.5714 118.385 46.5714C119.661 46.5714 120.804 46.8571 121.813 47.4286C122.823 47.981 123.623 48.8286 124.213 49.9714C124.804 51.1143 125.099 52.581 125.099 54.3714C125.099 56.1429 124.813 57.6095 124.242 58.7714C123.671 59.9143 122.88 60.7714 121.871 61.3429C120.861 61.9143 119.699 62.2 118.385 62.2ZM118.813 59.1429C119.671 59.1429 120.432 58.9524 121.099 58.5714C121.785 58.1905 122.328 57.6381 122.728 56.9143C123.147 56.1905 123.356 55.3429 123.356 54.3714C123.356 53.381 123.147 52.5333 122.728 51.8286C122.328 51.1048 121.785 50.5524 121.099 50.1714C120.432 49.7905 119.671 49.6 118.813 49.6C117.956 49.6 117.185 49.7905 116.499 50.1714C115.832 50.5524 115.29 51.1048 114.871 51.8286C114.471 52.5333 114.271 53.381 114.271 54.3714C114.271 55.3429 114.471 56.1905 114.871 56.9143C115.29 57.6381 115.832 58.1905 116.499 58.5714C117.185 58.9524 117.956 59.1429 118.813 59.1429ZM123.442 62V58.4L123.585 54.3429L123.299 50.2857V40.8H126.842V62H123.442ZM138.714 62.2C137.019 62.2 135.533 61.8667 134.257 61.2C133 60.5143 132.019 59.581 131.314 58.4C130.628 57.219 130.285 55.8762 130.285 54.3714C130.285 52.8476 130.619 51.5048 131.285 50.3429C131.971 49.1619 132.905 48.2381 134.085 47.5714C135.285 46.9048 136.647 46.5714 138.171 46.5714C139.657 46.5714 140.981 46.8952 142.143 47.5429C143.305 48.1905 144.219 49.1048 144.885 50.2857C145.552 51.4667 145.885 52.8571 145.885 54.4571C145.885 54.6095 145.876 54.781 145.857 54.9714C145.857 55.1619 145.847 55.3429 145.828 55.5143H133.114V53.1429H143.943L142.543 53.8857C142.562 53.0095 142.381 52.2381 142 51.5714C141.619 50.9048 141.095 50.381 140.428 50C139.781 49.619 139.028 49.4286 138.171 49.4286C137.295 49.4286 136.524 49.619 135.857 50C135.209 50.381 134.695 50.9143 134.314 51.6C133.952 52.2667 133.771 53.0571 133.771 53.9714V54.5429C133.771 55.4571 133.981 56.2667 134.4 56.9714C134.819 57.6762 135.409 58.219 136.171 58.6C136.933 58.981 137.809 59.1714 138.8 59.1714C139.657 59.1714 140.428 59.0381 141.114 58.7714C141.8 58.5048 142.409 58.0857 142.943 57.5143L144.857 59.7143C144.171 60.5143 143.305 61.1333 142.257 61.5714C141.228 61.9905 140.047 62.2 138.714 62.2ZM149.316 62V46.7429H152.716V50.9429L152.316 49.7143C152.773 48.6857 153.487 47.9048 154.459 47.3714C155.449 46.8381 156.678 46.5714 158.145 46.5714V49.9714C157.992 49.9333 157.849 49.9143 157.716 49.9143C157.583 49.8952 157.449 49.8857 157.316 49.8857C155.964 49.8857 154.887 50.2857 154.087 51.0857C153.287 51.8667 152.887 53.0381 152.887 54.6V62H149.316ZM161.174 62V46.7429H164.746V62H161.174ZM162.974 44.2286C162.308 44.2286 161.755 44.019 161.317 43.6C160.898 43.181 160.689 42.6762 160.689 42.0857C160.689 41.4762 160.898 40.9714 161.317 40.5714C161.755 40.1524 162.308 39.9429 162.974 39.9429C163.641 39.9429 164.184 40.1429 164.603 40.5429C165.041 40.9238 165.26 41.4095 165.26 42C165.26 42.6286 165.051 43.1619 164.631 43.6C164.212 44.019 163.66 44.2286 162.974 44.2286ZM178.09 46.5714C179.309 46.5714 180.395 46.8095 181.348 47.2857C182.319 47.7619 183.081 48.4952 183.633 49.4857C184.186 50.4571 184.462 51.7143 184.462 53.2571V62H180.89V53.7143C180.89 52.3619 180.567 51.3524 179.919 50.6857C179.29 50.019 178.405 49.6857 177.262 49.6857C176.424 49.6857 175.681 49.8571 175.033 50.2C174.386 50.5429 173.881 51.0571 173.519 51.7429C173.176 52.4095 173.005 53.2571 173.005 54.2857V62H169.433V46.7429H172.833V50.8571L172.233 49.6C172.767 48.6286 173.538 47.8857 174.548 47.3714C175.576 46.8381 176.757 46.5714 178.09 46.5714ZM195.935 67.7429C194.525 67.7429 193.144 67.5524 191.792 67.1714C190.458 66.8095 189.363 66.2762 188.506 65.5714L190.106 62.8857C190.773 63.4381 191.611 63.8762 192.62 64.2C193.649 64.5429 194.687 64.7143 195.735 64.7143C197.411 64.7143 198.639 64.3238 199.42 63.5429C200.201 62.781 200.592 61.6286 200.592 60.0857V57.3714L200.877 53.9143L200.763 50.4571V46.7429H204.163V59.6857C204.163 62.4476 203.458 64.4762 202.049 65.7714C200.639 67.0857 198.601 67.7429 195.935 67.7429ZM195.477 61.3143C194.03 61.3143 192.716 61.0095 191.535 60.4C190.373 59.7714 189.449 58.9048 188.763 57.8C188.097 56.6952 187.763 55.4 187.763 53.9143C187.763 52.4476 188.097 51.1619 188.763 50.0571C189.449 48.9524 190.373 48.0952 191.535 47.4857C192.716 46.8762 194.03 46.5714 195.477 46.5714C196.773 46.5714 197.935 46.8286 198.963 47.3429C199.992 47.8571 200.811 48.6571 201.42 49.7429C202.049 50.8286 202.363 52.219 202.363 53.9143C202.363 55.6095 202.049 57.0095 201.42 58.1143C200.811 59.2 199.992 60.0095 198.963 60.5429C197.935 61.0571 196.773 61.3143 195.477 61.3143ZM196.02 58.2857C196.916 58.2857 197.716 58.1048 198.42 57.7429C199.125 57.3619 199.668 56.8476 200.049 56.2C200.449 55.5333 200.649 54.7714 200.649 53.9143C200.649 53.0571 200.449 52.3048 200.049 51.6571C199.668 50.9905 199.125 50.4857 198.42 50.1429C197.716 49.781 196.916 49.6 196.02 49.6C195.125 49.6 194.316 49.781 193.592 50.1429C192.887 50.4857 192.335 50.9905 191.935 51.6571C191.554 52.3048 191.363 53.0571 191.363 53.9143C191.363 54.7714 191.554 55.5333 191.935 56.2C192.335 56.8476 192.887 57.3619 193.592 57.7429C194.316 58.1048 195.125 58.2857 196.02 58.2857Z" fill="white"/>
<g filter="url(#filter1_d_77_19)">
<path d="M34.6642 86.4388C33.7738 86.4388 32.9511 86.2922 32.196 85.9992C31.4409 85.6949 30.7872 85.2723 30.2349 84.7313C29.6827 84.1903 29.2488 83.5535 28.9332 82.821C28.6289 82.0884 28.4767 81.2882 28.4767 80.4204C28.4767 79.5526 28.6289 78.7524 28.9332 78.0198C29.2488 77.2872 29.6827 76.6504 30.2349 76.1094C30.7984 75.5685 31.4578 75.1515 32.2129 74.8584C32.968 74.5541 33.7907 74.402 34.6811 74.402C35.5376 74.402 36.3435 74.5485 37.0986 74.8415C37.8537 75.1233 38.4905 75.5516 39.0089 76.1264L38.2144 76.9209C37.7297 76.425 37.1944 76.07 36.6083 75.8559C36.0223 75.6305 35.3911 75.5178 34.7149 75.5178C34.0049 75.5178 33.3456 75.6417 32.737 75.8897C32.1284 76.1264 31.5986 76.4701 31.1478 76.9209C30.697 77.3605 30.342 77.8789 30.0828 78.4762C29.8348 79.0623 29.7109 79.7103 29.7109 80.4204C29.7109 81.1304 29.8348 81.7841 30.0828 82.3814C30.342 82.9675 30.697 83.4859 31.1478 83.9367C31.5986 84.3763 32.1284 84.72 32.737 84.968C33.3456 85.2047 34.0049 85.323 34.7149 85.323C35.3911 85.323 36.0223 85.2103 36.6083 84.9849C37.1944 84.7595 37.7297 84.3988 38.2144 83.9029L39.0089 84.6975C38.4905 85.2723 37.8537 85.7062 37.0986 85.9992C36.3435 86.2922 35.532 86.4388 34.6642 86.4388ZM41.4222 86.3373V73.7934H42.6225V86.3373H41.4222ZM51.5242 86.3373V84.3763L51.4735 84.0551V80.7754C51.4735 80.0203 51.2594 79.4398 50.8311 79.0341C50.4141 78.6284 49.7886 78.4255 48.9546 78.4255C48.3798 78.4255 47.8332 78.5213 47.3147 78.7129C46.7963 78.9045 46.3567 79.1581 45.9961 79.4737L45.4551 78.5777C45.9059 78.1945 46.4469 77.9014 47.078 77.6986C47.7092 77.4844 48.3741 77.3774 49.0729 77.3774C50.2225 77.3774 51.1072 77.6648 51.7271 78.2396C52.3582 78.8031 52.6738 79.6653 52.6738 80.8261V86.3373H51.5242ZM48.4643 86.4219C47.7993 86.4219 47.2189 86.3148 46.723 86.1006C46.2384 85.8752 45.8665 85.5709 45.6073 85.1877C45.348 84.7933 45.2184 84.3425 45.2184 83.8353C45.2184 83.3732 45.3255 82.9562 45.5396 82.5843C45.765 82.2011 46.1257 81.8968 46.6216 81.6714C47.1288 81.4347 47.805 81.3164 48.6503 81.3164H51.7102V82.2124H48.6841C47.8275 82.2124 47.2302 82.3645 46.8921 82.6688C46.5652 82.9731 46.4018 83.3507 46.4018 83.8015C46.4018 84.3087 46.599 84.7144 46.9935 85.0187C47.388 85.323 47.9402 85.4751 48.6503 85.4751C49.3265 85.4751 49.9069 85.323 50.3915 85.0187C50.8874 84.7031 51.2481 84.2523 51.4735 83.6662L51.744 84.4946C51.5186 85.0807 51.1241 85.5484 50.5606 85.8978C50.0083 86.2472 49.3096 86.4219 48.4643 86.4219ZM58.3176 86.4219C57.585 86.4219 56.8919 86.3204 56.2382 86.1176C55.5845 85.9034 55.0717 85.6386 54.6998 85.323L55.2408 84.3763C55.6014 84.6468 56.0635 84.8834 56.6271 85.0863C57.1906 85.2779 57.7823 85.3737 58.4021 85.3737C59.2474 85.3737 59.856 85.2441 60.2279 84.9849C60.5999 84.7144 60.7858 84.3594 60.7858 83.9198C60.7858 83.593 60.6788 83.3394 60.4646 83.1591C60.2618 82.9675 59.9913 82.8266 59.6532 82.7364C59.315 82.635 58.9375 82.5505 58.5205 82.4829C58.1035 82.4152 57.6865 82.3363 57.2695 82.2462C56.8637 82.156 56.4918 82.0264 56.1537 81.8573C55.8156 81.677 55.5395 81.4347 55.3253 81.1304C55.1225 80.8261 55.021 80.4204 55.021 79.9132C55.021 79.4286 55.1563 78.9947 55.4268 78.6115C55.6972 78.2283 56.0917 77.9296 56.6101 77.7155C57.1399 77.4901 57.7823 77.3774 58.5374 77.3774C59.1122 77.3774 59.687 77.4563 60.2618 77.614C60.8365 77.7606 61.3099 77.9578 61.6818 78.2057L61.1577 79.1694C60.7633 78.8989 60.3406 78.7073 59.8898 78.5946C59.439 78.4706 58.9882 78.4086 58.5374 78.4086C57.7372 78.4086 57.1455 78.5495 56.7623 78.8312C56.3904 79.1017 56.2044 79.4511 56.2044 79.8794C56.2044 80.2175 56.3058 80.4824 56.5087 80.674C56.7229 80.8656 56.999 81.0177 57.3371 81.1304C57.6865 81.2318 58.064 81.3164 58.4698 81.384C58.8868 81.4516 59.2981 81.5361 59.7039 81.6376C60.1209 81.7277 60.4984 81.8573 60.8365 82.0264C61.1859 82.1842 61.4621 82.4152 61.6649 82.7195C61.8791 83.0126 61.9861 83.4014 61.9861 83.886C61.9861 84.4045 61.8396 84.8553 61.5466 85.2385C61.2648 85.6104 60.8478 85.9034 60.2956 86.1176C59.7546 86.3204 59.0953 86.4219 58.3176 86.4219ZM66.5723 86.4219C65.8397 86.4219 65.1466 86.3204 64.4929 86.1176C63.8392 85.9034 63.3264 85.6386 62.9545 85.323L63.4955 84.3763C63.8561 84.6468 64.3182 84.8834 64.8817 85.0863C65.4453 85.2779 66.0369 85.3737 66.6568 85.3737C67.5021 85.3737 68.1107 85.2441 68.4826 84.9849C68.8545 84.7144 69.0405 84.3594 69.0405 83.9198C69.0405 83.593 68.9334 83.3394 68.7193 83.1591C68.5164 82.9675 68.2459 82.8266 67.9078 82.7364C67.5697 82.635 67.1922 82.5505 66.7752 82.4829C66.3582 82.4152 65.9411 82.3363 65.5241 82.2462C65.1184 82.156 64.7465 82.0264 64.4084 81.8573C64.0703 81.677 63.7941 81.4347 63.58 81.1304C63.3771 80.8261 63.2757 80.4204 63.2757 79.9132C63.2757 79.4286 63.4109 78.9947 63.6814 78.6115C63.9519 78.2283 64.3464 77.9296 64.8648 77.7155C65.3945 77.4901 66.0369 77.3774 66.7921 77.3774C67.3669 77.3774 67.9416 77.4563 68.5164 77.614C69.0912 77.7606 69.5646 77.9578 69.9365 78.2057L69.4124 79.1694C69.018 78.8989 68.5953 78.7073 68.1445 78.5946C67.6937 78.4706 67.2429 78.4086 66.7921 78.4086C65.9919 78.4086 65.4002 78.5495 65.017 78.8312C64.6451 79.1017 64.4591 79.4511 64.4591 79.8794C64.4591 80.2175 64.5605 80.4824 64.7634 80.674C64.9775 80.8656 65.2537 81.0177 65.5918 81.1304C65.9411 81.2318 66.3187 81.3164 66.7244 81.384C67.1414 81.4516 67.5528 81.5361 67.9585 81.6376C68.3756 81.7277 68.7531 81.8573 69.0912 82.0264C69.4406 82.1842 69.7167 82.4152 69.9196 82.7195C70.1337 83.0126 70.2408 83.4014 70.2408 83.886C70.2408 84.4045 70.0943 84.8553 69.8013 85.2385C69.5195 85.6104 69.1025 85.9034 68.5502 86.1176C68.0093 86.3204 67.3499 86.4219 66.5723 86.4219ZM72.4433 86.3373V77.4619H73.6436V86.3373H72.4433ZM73.0519 75.5008C72.8039 75.5008 72.5954 75.4163 72.4264 75.2473C72.2573 75.0782 72.1728 74.8753 72.1728 74.6387C72.1728 74.402 72.2573 74.2048 72.4264 74.047C72.5954 73.8779 72.8039 73.7934 73.0519 73.7934C73.2998 73.7934 73.5083 73.8723 73.6774 74.0301C73.8464 74.1878 73.931 74.3851 73.931 74.6218C73.931 74.8697 73.8464 75.0782 73.6774 75.2473C73.5196 75.4163 73.3111 75.5008 73.0519 75.5008ZM80.6688 86.4219C79.7897 86.4219 79.0008 86.2303 78.302 85.8471C77.6145 85.4526 77.0735 84.9173 76.6791 84.241C76.2846 83.5535 76.0874 82.7702 76.0874 81.8912C76.0874 81.0008 76.2846 80.2175 76.6791 79.5413C77.0735 78.8651 77.6145 78.3353 78.302 77.9522C79.0008 77.569 79.7897 77.3774 80.6688 77.3774C81.4239 77.3774 82.1057 77.5239 82.7144 77.8169C83.323 78.1099 83.8019 78.5495 84.1513 79.1355L83.2553 79.7441C82.951 79.2933 82.5735 78.9609 82.1227 78.7467C81.6718 78.5326 81.1816 78.4255 80.6519 78.4255C80.0207 78.4255 79.4516 78.572 78.9444 78.8651C78.4372 79.1468 78.0371 79.5469 77.7441 80.0654C77.4511 80.5838 77.3046 81.1924 77.3046 81.8912C77.3046 82.5899 77.4511 83.1985 77.7441 83.717C78.0371 84.2354 78.4372 84.6411 78.9444 84.9342C79.4516 85.2159 80.0207 85.3568 80.6519 85.3568C81.1816 85.3568 81.6718 85.2497 82.1227 85.0356C82.5735 84.8215 82.951 84.4946 83.2553 84.0551L84.1513 84.6637C83.8019 85.2385 83.323 85.678 82.7144 85.9823C82.1057 86.2753 81.4239 86.4219 80.6688 86.4219ZM88.8929 86.4219C88.1604 86.4219 87.4672 86.3204 86.8136 86.1176C86.1599 85.9034 85.6471 85.6386 85.2752 85.323L85.8161 84.3763C86.1768 84.6468 86.6389 84.8834 87.2024 85.0863C87.7659 85.2779 88.3576 85.3737 88.9775 85.3737C89.8228 85.3737 90.4314 85.2441 90.8033 84.9849C91.1752 84.7144 91.3612 84.3594 91.3612 83.9198C91.3612 83.593 91.2541 83.3394 91.04 83.1591C90.8371 82.9675 90.5666 82.8266 90.2285 82.7364C89.8904 82.635 89.5128 82.5505 89.0958 82.4829C88.6788 82.4152 88.2618 82.3363 87.8448 82.2462C87.4391 82.156 87.0671 82.0264 86.729 81.8573C86.3909 81.677 86.1148 81.4347 85.9007 81.1304C85.6978 80.8261 85.5964 80.4204 85.5964 79.9132C85.5964 79.4286 85.7316 78.9947 86.0021 78.6115C86.2726 78.2283 86.667 77.9296 87.1855 77.7155C87.7152 77.4901 88.3576 77.3774 89.1127 77.3774C89.6875 77.3774 90.2623 77.4563 90.8371 77.614C91.4119 77.7606 91.8852 77.9578 92.2572 78.2057L91.7331 79.1694C91.3386 78.8989 90.916 78.7073 90.4652 78.5946C90.0143 78.4706 89.5635 78.4086 89.1127 78.4086C88.3125 78.4086 87.7208 78.5495 87.3376 78.8312C86.9657 79.1017 86.7797 79.4511 86.7797 79.8794C86.7797 80.2175 86.8812 80.4824 87.084 80.674C87.2982 80.8656 87.5743 81.0177 87.9124 81.1304C88.2618 81.2318 88.6394 81.3164 89.0451 81.384C89.4621 81.4516 89.8735 81.5361 90.2792 81.6376C90.6962 81.7277 91.0738 81.8573 91.4119 82.0264C91.7613 82.1842 92.0374 82.4152 92.2403 82.7195C92.4544 83.0126 92.5615 83.4014 92.5615 83.886C92.5615 84.4045 92.4149 84.8553 92.1219 85.2385C91.8402 85.6104 91.4231 85.9034 90.8709 86.1176C90.3299 86.3204 89.6706 86.4219 88.8929 86.4219Z" fill="white"/>
</g>
<g opacity="0.7" clip-path="url(#clip0_77_19)">
<path d="M253.28 45.1626C243.975 45.1626 236.405 52.7331 236.405 62.0385C236.405 71.3438 243.975 78.9143 253.28 78.9143C262.586 78.9143 270.156 71.3438 270.156 62.0385C270.156 52.7331 262.586 45.1626 253.28 45.1626ZM259.479 63.1231L251.297 71.3056C250.997 71.605 250.605 71.7549 250.212 71.7549C249.819 71.7549 249.427 71.6051 249.127 71.3055C248.528 70.7064 248.528 69.735 249.127 69.1359L256.225 62.0382L249.127 54.9409C248.528 54.3418 248.528 53.3704 249.127 52.7713C249.726 52.1721 250.698 52.1721 251.297 52.7713L259.479 60.9533C259.767 61.241 259.929 61.6312 259.929 62.0381C259.928 62.4451 259.767 62.8354 259.479 63.1231Z" fill="white"/>
</g>
</g>
<defs>
<filter id="filter0_d_77_19" x="0" y="0" width="320" height="132.077" filterUnits="userSpaceOnUse" color-interpolation-filters="sRGB">
<feFlood flood-opacity="0" result="BackgroundImageFix"/>
<feColorMatrix in="SourceAlpha" type="matrix" values="0 0 0 0 0 0 0 0 0 0 0 0 0 0 0 0 0 0 127 0" result="hardAlpha"/>
<feOffset dy="4"/>
<feGaussianBlur stdDeviation="2"/>
<feComposite in2="hardAlpha" operator="out"/>
<feColorMatrix type="matrix" values="0 0 0 0 0 0 0 0 0 0 0 0 0 0 0 0 0 0 0.25 0"/>
<feBlend mode="normal" in2="BackgroundImageFix" result="effect1_dropShadow_77_19"/>
<feBlend mode="normal" in="SourceGraphic" in2="effect1_dropShadow_77_19" result="shape"/>
</filter>
<filter id="filter1_d_77_19" x="24.4768" y="73.7934" width="72.0847" height="20.6454" filterUnits="userSpaceOnUse" color-interpolation-filters="sRGB">
<feFlood flood-opacity="0" result="BackgroundImageFix"/>
<feColorMatrix in="SourceAlpha" type="matrix" values="0 0 0 0 0 0 0 0 0 0 0 0 0 0 0 0 0 0 127 0" result="hardAlpha"/>
<feOffset dy="4"/>
<feGaussianBlur stdDeviation="2"/>
<feComposite in2="hardAlpha" operator="out"/>
<feColorMatrix type="matrix" values="0 0 0 0 0 0 0 0 0 0 0 0 0 0 0 0 0 0 0.25 0"/>
<feBlend mode="normal" in2="BackgroundImageFix" result="effect1_dropShadow_77_19"/>
<feBlend mode="normal" in="SourceGraphic" in2="effect1_dropShadow_77_19" result="shape"/>
</filter>
<linearGradient id="paint0_linear_77_19" x1="160" y1="9" x2="160" y2="115.077" gradientUnits="userSpaceOnUse">
<stop stop-color="#7CB8FF" stop-opacity="0.46"/>
<stop offset="1" stop-color="#F8FBFF" stop-opacity="0.45"/>
</linearGradient>
<clipPath id="clip0_77_19">
<rect width="33.7517" height="33.7517" fill="white" transform="translate(236.405 45.1626)"/>
</clipPath>
</defs>
</svg>
