<svg width="285" height="121" viewBox="0 0 285 121" fill="none" xmlns="http://www.w3.org/2000/svg">
<g filter="url(#filter0_d_77_19)">
<path d="M8.59888 20.8571V92.1116C8.59888 100.672 15.5385 107.612 24.0989 107.612H260.56C269.121 107.612 276.06 100.672 276.06 92.1116V20.8572C276.06 12.2967 269.121 5.35715 260.56 5.35715H24.0989C15.5385 5.35715 8.59888 12.2967 8.59888 20.8571Z" fill="url(#paint0_linear_77_19)" stroke="#4C4F6C" stroke-width="9" stroke-linejoin="round"/>
<path d="M28.5418 54.8352V38.0352H31.1098L38.4538 50.2992H37.1098L44.3338 38.0352H46.9018L46.9258 54.8352H43.9738L43.9498 42.6672H44.5738L38.4298 52.9152H37.0378L30.7978 42.6672H31.5178V54.8352H28.5418ZM57.1996 55.0032C55.7756 55.0032 54.5276 54.7232 53.4556 54.1632C52.3996 53.5872 51.5756 52.8032 50.9836 51.8112C50.4076 50.8192 50.1196 49.6912 50.1196 48.4272C50.1196 47.1472 50.3996 46.0192 50.9596 45.0432C51.5356 44.0512 52.3196 43.2752 53.3116 42.7152C54.3196 42.1552 55.4636 41.8752 56.7436 41.8752C57.9916 41.8752 59.1036 42.1472 60.0796 42.6912C61.0556 43.2352 61.8236 44.0032 62.3836 44.9952C62.9436 45.9872 63.2236 47.1552 63.2236 48.4992C63.2236 48.6272 63.2156 48.7712 63.1996 48.9312C63.1996 49.0912 63.1916 49.2432 63.1756 49.3872H52.4956V47.3952H61.5916L60.4156 48.0192C60.4316 47.2832 60.2796 46.6352 59.9596 46.0752C59.6396 45.5152 59.1996 45.0752 58.6396 44.7552C58.0956 44.4352 57.4636 44.2752 56.7436 44.2752C56.0076 44.2752 55.3596 44.4352 54.7996 44.7552C54.2556 45.0752 53.8236 45.5232 53.5036 46.0992C53.1996 46.6592 53.0476 47.3232 53.0476 48.0912V48.5712C53.0476 49.3392 53.2236 50.0192 53.5756 50.6112C53.9276 51.2032 54.4236 51.6592 55.0636 51.9792C55.7036 52.2992 56.4396 52.4592 57.2716 52.4592C57.9916 52.4592 58.6396 52.3472 59.2156 52.1232C59.7916 51.8992 60.3036 51.5472 60.7516 51.0672L62.3596 52.9152C61.7836 53.5872 61.0556 54.1072 60.1756 54.4752C59.3116 54.8272 58.3196 55.0032 57.1996 55.0032ZM73.6498 54.8352V52.2432L73.4818 51.6912V47.1552C73.4818 46.2752 73.2178 45.5952 72.6898 45.1152C72.1618 44.6192 71.3618 44.3712 70.2898 44.3712C69.5698 44.3712 68.8578 44.4832 68.1538 44.7072C67.4658 44.9312 66.8818 45.2432 66.4018 45.6432L65.2258 43.4592C65.9138 42.9312 66.7298 42.5392 67.6738 42.2832C68.6338 42.0112 69.6258 41.8752 70.6498 41.8752C72.5058 41.8752 73.9378 42.3232 74.9458 43.2192C75.9698 44.0992 76.4818 45.4672 76.4818 47.3232V54.8352H73.6498ZM69.6178 55.0032C68.6578 55.0032 67.8178 54.8432 67.0978 54.5232C66.3778 54.1872 65.8178 53.7312 65.4178 53.1552C65.0338 52.5632 64.8418 51.8992 64.8418 51.1632C64.8418 50.4432 65.0098 49.7952 65.3458 49.2192C65.6978 48.6432 66.2658 48.1872 67.0498 47.8512C67.8338 47.5152 68.8738 47.3472 70.1698 47.3472H73.8898V49.3392H70.3858C69.3618 49.3392 68.6738 49.5072 68.3218 49.8432C67.9698 50.1632 67.7938 50.5632 67.7938 51.0432C67.7938 51.5872 68.0098 52.0192 68.4418 52.3392C68.8738 52.6592 69.4738 52.8192 70.2418 52.8192C70.9778 52.8192 71.6338 52.6512 72.2098 52.3152C72.8018 51.9792 73.2258 51.4832 73.4818 50.8272L73.9858 52.6272C73.6978 53.3792 73.1778 53.9632 72.4258 54.3792C71.6898 54.7952 70.7538 55.0032 69.6178 55.0032ZM87.6039 41.8752C88.6279 41.8752 89.5399 42.0752 90.3399 42.4752C91.1559 42.8752 91.7959 43.4912 92.2599 44.3232C92.7239 45.1392 92.9559 46.1952 92.9559 47.4912V54.8352H89.9559V47.8752C89.9559 46.7392 89.6839 45.8912 89.1399 45.3312C88.6119 44.7712 87.8679 44.4912 86.9079 44.4912C86.2039 44.4912 85.5799 44.6352 85.0359 44.9232C84.4919 45.2112 84.0679 45.6432 83.7639 46.2192C83.4759 46.7792 83.3319 47.4912 83.3319 48.3552V54.8352H80.3319V42.0192H83.1879V45.4752L82.6839 44.4192C83.1319 43.6032 83.7799 42.9792 84.6279 42.5472C85.4919 42.0992 86.4839 41.8752 87.6039 41.8752ZM102.209 55.0032C100.977 55.0032 99.865 54.7312 98.873 54.1872C97.897 53.6272 97.129 52.8592 96.569 51.8832C96.009 50.9072 95.729 49.7552 95.729 48.4272C95.729 47.0992 96.009 45.9472 96.569 44.9712C97.129 43.9952 97.897 43.2352 98.873 42.6912C99.865 42.1472 100.977 41.8752 102.209 41.8752C103.281 41.8752 104.241 42.1152 105.089 42.5952C105.937 43.0592 106.609 43.7712 107.105 44.7312C107.601 45.6912 107.849 46.9232 107.849 48.4272C107.849 49.9152 107.609 51.1472 107.129 52.1232C106.649 53.0832 105.985 53.8032 105.137 54.2832C104.289 54.7632 103.313 55.0032 102.209 55.0032ZM102.569 52.4352C103.289 52.4352 103.929 52.2752 104.489 51.9552C105.065 51.6352 105.521 51.1712 105.857 50.5632C106.209 49.9552 106.385 49.2432 106.385 48.4272C106.385 47.5952 106.209 46.8832 105.857 46.2912C105.521 45.6832 105.065 45.2192 104.489 44.8992C103.929 44.5792 103.289 44.4192 102.569 44.4192C101.849 44.4192 101.201 44.5792 100.625 44.8992C100.065 45.2192 99.609 45.6832 99.257 46.2912C98.921 46.8832 98.753 47.5952 98.753 48.4272C98.753 49.2432 98.921 49.9552 99.257 50.5632C99.609 51.1712 100.065 51.6352 100.625 51.9552C101.201 52.2752 101.849 52.4352 102.569 52.4352ZM106.457 54.8352V51.8112L106.577 48.4032L106.337 44.9952V37.0272H109.313V54.8352H106.457ZM119.286 55.0032C117.862 55.0032 116.614 54.7232 115.542 54.1632C114.486 53.5872 113.662 52.8032 113.07 51.8112C112.494 50.8192 112.206 49.6912 112.206 48.4272C112.206 47.1472 112.486 46.0192 113.046 45.0432C113.622 44.0512 114.406 43.2752 115.398 42.7152C116.406 42.1552 117.55 41.8752 118.83 41.8752C120.078 41.8752 121.19 42.1472 122.166 42.6912C123.142 43.2352 123.91 44.0032 124.47 44.9952C125.03 45.9872 125.31 47.1552 125.31 48.4992C125.31 48.6272 125.302 48.7712 125.286 48.9312C125.286 49.0912 125.278 49.2432 125.262 49.3872H114.582V47.3952H123.678L122.502 48.0192C122.518 47.2832 122.366 46.6352 122.046 46.0752C121.726 45.5152 121.286 45.0752 120.726 44.7552C120.182 44.4352 119.55 44.2752 118.83 44.2752C118.094 44.2752 117.446 44.4352 116.886 44.7552C116.342 45.0752 115.91 45.5232 115.59 46.0992C115.286 46.6592 115.134 47.3232 115.134 48.0912V48.5712C115.134 49.3392 115.31 50.0192 115.662 50.6112C116.014 51.2032 116.51 51.6592 117.15 51.9792C117.79 52.2992 118.526 52.4592 119.358 52.4592C120.078 52.4592 120.726 52.3472 121.302 52.1232C121.878 51.8992 122.39 51.5472 122.838 51.0672L124.446 52.9152C123.87 53.5872 123.142 54.1072 122.262 54.4752C121.398 54.8272 120.406 55.0032 119.286 55.0032ZM128.191 54.8352V42.0192H131.047V45.5472L130.711 44.5152C131.095 43.6512 131.695 42.9952 132.511 42.5472C133.343 42.0992 134.375 41.8752 135.607 41.8752V44.7312C135.479 44.6992 135.359 44.6832 135.247 44.6832C135.135 44.6672 135.023 44.6592 134.911 44.6592C133.775 44.6592 132.871 44.9952 132.199 45.6672C131.527 46.3232 131.191 47.3072 131.191 48.6192V54.8352H128.191ZM138.152 54.8352V42.0192H141.152V54.8352H138.152ZM139.664 39.9072C139.104 39.9072 138.64 39.7312 138.272 39.3792C137.92 39.0272 137.744 38.6032 137.744 38.1072C137.744 37.5952 137.92 37.1712 138.272 36.8352C138.64 36.4832 139.104 36.3072 139.664 36.3072C140.224 36.3072 140.68 36.4752 141.032 36.8112C141.4 37.1312 141.584 37.5392 141.584 38.0352C141.584 38.5632 141.408 39.0112 141.056 39.3792C140.704 39.7312 140.24 39.9072 139.664 39.9072ZM152.362 41.8752C153.386 41.8752 154.298 42.0752 155.098 42.4752C155.914 42.8752 156.554 43.4912 157.018 44.3232C157.482 45.1392 157.714 46.1952 157.714 47.4912V54.8352H154.714V47.8752C154.714 46.7392 154.442 45.8912 153.898 45.3312C153.37 44.7712 152.626 44.4912 151.666 44.4912C150.962 44.4912 150.338 44.6352 149.794 44.9232C149.25 45.2112 148.826 45.6432 148.522 46.2192C148.234 46.7792 148.09 47.4912 148.09 48.3552V54.8352H145.09V42.0192H147.946V45.4752L147.442 44.4192C147.89 43.6032 148.538 42.9792 149.386 42.5472C150.25 42.0992 151.242 41.8752 152.362 41.8752ZM167.351 59.6592C166.167 59.6592 165.007 59.4992 163.871 59.1792C162.751 58.8752 161.831 58.4272 161.111 57.8352L162.455 55.5792C163.015 56.0432 163.719 56.4112 164.567 56.6832C165.431 56.9712 166.303 57.1152 167.183 57.1152C168.591 57.1152 169.623 56.7872 170.279 56.1312C170.935 55.4912 171.263 54.5232 171.263 53.2272V50.9472L171.503 48.0432L171.407 45.1392V42.0192H174.263V52.8912C174.263 55.2112 173.671 56.9152 172.487 58.0032C171.303 59.1072 169.591 59.6592 167.351 59.6592ZM166.967 54.2592C165.751 54.2592 164.647 54.0032 163.655 53.4912C162.679 52.9632 161.903 52.2352 161.327 51.3072C160.767 50.3792 160.487 49.2912 160.487 48.0432C160.487 46.8112 160.767 45.7312 161.327 44.8032C161.903 43.8752 162.679 43.1552 163.655 42.6432C164.647 42.1312 165.751 41.8752 166.967 41.8752C168.055 41.8752 169.031 42.0912 169.895 42.5232C170.759 42.9552 171.447 43.6272 171.959 44.5392C172.487 45.4512 172.751 46.6192 172.751 48.0432C172.751 49.4672 172.487 50.6432 171.959 51.5712C171.447 52.4832 170.759 53.1632 169.895 53.6112C169.031 54.0432 168.055 54.2592 166.967 54.2592ZM167.423 51.7152C168.175 51.7152 168.847 51.5632 169.439 51.2592C170.031 50.9392 170.487 50.5072 170.807 49.9632C171.143 49.4032 171.311 48.7632 171.311 48.0432C171.311 47.3232 171.143 46.6912 170.807 46.1472C170.487 45.5872 170.031 45.1632 169.439 44.8752C168.847 44.5712 168.175 44.4192 167.423 44.4192C166.671 44.4192 165.991 44.5712 165.383 44.8752C164.791 45.1632 164.327 45.5872 163.991 46.1472C163.671 46.6912 163.511 47.3232 163.511 48.0432C163.511 48.7632 163.671 49.4032 163.991 49.9632C164.327 50.5072 164.791 50.9392 165.383 51.2592C165.991 51.5632 166.671 51.7152 167.423 51.7152Z" fill="white"/>
<g filter="url(#filter1_d_77_19)">
<path d="M32.9984 80.0024C32.1081 80.0024 31.2853 79.8559 30.5302 79.5628C29.7751 79.2585 29.1214 78.8359 28.5692 78.2949C28.0169 77.7539 27.583 77.1172 27.2674 76.3846C26.9631 75.652 26.811 74.8518 26.811 73.984C26.811 73.1162 26.9631 72.316 27.2674 71.5834C27.583 70.8508 28.0169 70.214 28.5692 69.6731C29.1327 69.1321 29.792 68.7151 30.5471 68.4221C31.3022 68.1178 32.125 67.9656 33.0153 67.9656C33.8719 67.9656 34.6777 68.1121 35.4328 68.4052C36.1879 68.6869 36.8247 69.1152 37.3432 69.69L36.5486 70.4845C36.064 69.9886 35.5286 69.6336 34.9426 69.4195C34.3565 69.1941 33.7254 69.0814 33.0491 69.0814C32.3391 69.0814 31.6798 69.2053 31.0712 69.4533C30.4626 69.69 29.9329 70.0337 29.4821 70.4845C29.0312 70.9241 28.6762 71.4425 28.417 72.0399C28.1691 72.6259 28.0451 73.274 28.0451 73.984C28.0451 74.694 28.1691 75.3477 28.417 75.945C28.6762 76.5311 29.0312 77.0495 29.4821 77.5004C29.9329 77.9399 30.4626 78.2836 31.0712 78.5316C31.6798 78.7683 32.3391 78.8866 33.0491 78.8866C33.7254 78.8866 34.3565 78.7739 34.9426 78.5485C35.5286 78.3231 36.064 77.9624 36.5486 77.4665L37.3432 78.2611C36.8247 78.8359 36.1879 79.2698 35.4328 79.5628C34.6777 79.8559 33.8662 80.0024 32.9984 80.0024ZM39.7564 79.9009V67.357H40.9567V79.9009H39.7564ZM49.8584 79.9009V77.9399L49.8077 77.6187V74.339C49.8077 73.5839 49.5936 73.0035 49.1653 72.5977C48.7483 72.192 48.1228 71.9891 47.2888 71.9891C46.714 71.9891 46.1674 72.0849 45.6489 72.2765C45.1305 72.4681 44.691 72.7217 44.3303 73.0373L43.7893 72.1413C44.2401 71.7581 44.7811 71.4651 45.4123 71.2622C46.0434 71.0481 46.7084 70.941 47.4071 70.941C48.5567 70.941 49.4414 71.2284 50.0613 71.8032C50.6924 72.3667 51.008 73.2289 51.008 74.3897V79.9009H49.8584ZM46.7985 79.9855C46.1336 79.9855 45.5531 79.8784 45.0573 79.6643C44.5726 79.4389 44.2007 79.1346 43.9415 78.7514C43.6823 78.3569 43.5527 77.9061 43.5527 77.3989C43.5527 76.9368 43.6597 76.5198 43.8739 76.1479C44.0993 75.7647 44.4599 75.4604 44.9558 75.235C45.463 74.9983 46.1392 74.88 46.9845 74.88H50.0444V75.776H47.0183C46.1617 75.776 45.5644 75.9281 45.2263 76.2324C44.8995 76.5367 44.736 76.9143 44.736 77.3651C44.736 77.8723 44.9333 78.278 45.3277 78.5823C45.7222 78.8866 46.2745 79.0388 46.9845 79.0388C47.6607 79.0388 48.2411 78.8866 48.7258 78.5823C49.2217 78.2667 49.5823 77.8159 49.8077 77.2299L50.0782 78.0582C49.8528 78.6443 49.4583 79.112 48.8948 79.4614C48.3426 79.8108 47.6438 79.9855 46.7985 79.9855ZM56.6518 79.9855C55.9193 79.9855 55.2261 79.884 54.5725 79.6812C53.9188 79.467 53.406 79.2022 53.034 78.8866L53.575 77.9399C53.9357 78.2104 54.3978 78.4471 54.9613 78.6499C55.5248 78.8415 56.1165 78.9373 56.7364 78.9373C57.5816 78.9373 58.1902 78.8077 58.5622 78.5485C58.9341 78.278 59.1201 77.923 59.1201 77.4834C59.1201 77.1566 59.013 76.903 58.7988 76.7227C58.596 76.5311 58.3255 76.3902 57.9874 76.3001C57.6493 76.1986 57.2717 76.1141 56.8547 76.0465C56.4377 75.9789 56.0207 75.9 55.6037 75.8098C55.198 75.7196 54.826 75.59 54.4879 75.421C54.1498 75.2406 53.8737 74.9983 53.6596 74.694C53.4567 74.3897 53.3553 73.984 53.3553 73.4768C53.3553 72.9922 53.4905 72.5583 53.761 72.1751C54.0315 71.7919 54.4259 71.4932 54.9444 71.2791C55.4741 71.0537 56.1165 70.941 56.8716 70.941C57.4464 70.941 58.0212 71.0199 58.596 71.1777C59.1708 71.3242 59.6441 71.5214 60.0161 71.7694L59.492 72.733C59.0975 72.4625 58.6749 72.2709 58.2241 72.1582C57.7732 72.0342 57.3224 71.9722 56.8716 71.9722C56.0714 71.9722 55.4797 72.1131 55.0965 72.3949C54.7246 72.6654 54.5386 73.0147 54.5386 73.443C54.5386 73.7811 54.6401 74.046 54.8429 74.2376C55.0571 74.4292 55.3332 74.5813 55.6713 74.694C56.0207 74.7955 56.3983 74.88 56.804 74.9476C57.221 75.0152 57.6324 75.0998 58.0381 75.2012C58.4551 75.2914 58.8327 75.421 59.1708 75.59C59.5202 75.7478 59.7963 75.9789 59.9991 76.2832C60.2133 76.5762 60.3204 76.965 60.3204 77.4496C60.3204 77.9681 60.1738 78.4189 59.8808 78.8021C59.599 79.174 59.182 79.467 58.6298 79.6812C58.0888 79.884 57.4295 79.9855 56.6518 79.9855ZM64.9065 79.9855C64.1739 79.9855 63.4808 79.884 62.8271 79.6812C62.1734 79.467 61.6606 79.2022 61.2887 78.8866L61.8297 77.9399C62.1904 78.2104 62.6524 78.4471 63.216 78.6499C63.7795 78.8415 64.3712 78.9373 64.991 78.9373C65.8363 78.9373 66.4449 78.8077 66.8168 78.5485C67.1888 78.278 67.3747 77.923 67.3747 77.4834C67.3747 77.1566 67.2677 76.903 67.0535 76.7227C66.8507 76.5311 66.5802 76.3902 66.2421 76.3001C65.9039 76.1986 65.5264 76.1141 65.1094 76.0465C64.6924 75.9789 64.2754 75.9 63.8584 75.8098C63.4526 75.7196 63.0807 75.59 62.7426 75.421C62.4045 75.2406 62.1284 74.9983 61.9142 74.694C61.7114 74.3897 61.6099 73.984 61.6099 73.4768C61.6099 72.9922 61.7452 72.5583 62.0157 72.1751C62.2862 71.7919 62.6806 71.4932 63.1991 71.2791C63.7288 71.0537 64.3712 70.941 65.1263 70.941C65.7011 70.941 66.2759 71.0199 66.8507 71.1777C67.4255 71.3242 67.8988 71.5214 68.2707 71.7694L67.7467 72.733C67.3522 72.4625 66.9296 72.2709 66.4787 72.1582C66.0279 72.0342 65.5771 71.9722 65.1263 71.9722C64.3261 71.9722 63.7344 72.1131 63.3512 72.3949C62.9793 72.6654 62.7933 73.0147 62.7933 73.443C62.7933 73.7811 62.8948 74.046 63.0976 74.2376C63.3118 74.4292 63.5879 74.5813 63.926 74.694C64.2754 74.7955 64.6529 74.88 65.0587 74.9476C65.4757 75.0152 65.887 75.0998 66.2928 75.2012C66.7098 75.2914 67.0873 75.421 67.4255 75.59C67.7748 75.7478 68.051 75.9789 68.2538 76.2832C68.468 76.5762 68.575 76.965 68.575 77.4496C68.575 77.9681 68.4285 78.4189 68.1355 78.8021C67.8537 79.174 67.4367 79.467 66.8845 79.6812C66.3435 79.884 65.6842 79.9855 64.9065 79.9855ZM70.7775 79.9009V71.0255H71.9778V79.9009H70.7775ZM71.3861 69.0645C71.1382 69.0645 70.9297 68.9799 70.7606 68.8109C70.5916 68.6418 70.507 68.439 70.507 68.2023C70.507 67.9656 70.5916 67.7684 70.7606 67.6106C70.9297 67.4415 71.1382 67.357 71.3861 67.357C71.6341 67.357 71.8426 67.4359 72.0116 67.5937C72.1807 67.7515 72.2652 67.9487 72.2652 68.1854C72.2652 68.4333 72.1807 68.6418 72.0116 68.8109C71.8538 68.9799 71.6453 69.0645 71.3861 69.0645ZM79.003 79.9855C78.1239 79.9855 77.335 79.7939 76.6362 79.4107C75.9487 79.0162 75.4077 78.4809 75.0133 77.8047C74.6188 77.1172 74.4216 76.3339 74.4216 75.4548C74.4216 74.5644 74.6188 73.7811 75.0133 73.1049C75.4077 72.4287 75.9487 71.899 76.6362 71.5158C77.335 71.1326 78.1239 70.941 79.003 70.941C79.7581 70.941 80.44 71.0875 81.0486 71.3805C81.6572 71.6736 82.1362 72.1131 82.4856 72.6992L81.5896 73.3078C81.2853 72.857 80.9077 72.5245 80.4569 72.3103C80.0061 72.0962 79.5158 71.9891 78.9861 71.9891C78.355 71.9891 77.7858 72.1356 77.2786 72.4287C76.7715 72.7104 76.3714 73.1105 76.0783 73.629C75.7853 74.1474 75.6388 74.756 75.6388 75.4548C75.6388 76.1535 75.7853 76.7621 76.0783 77.2806C76.3714 77.799 76.7715 78.2048 77.2786 78.4978C77.7858 78.7795 78.355 78.9204 78.9861 78.9204C79.5158 78.9204 80.0061 78.8134 80.4569 78.5992C80.9077 78.3851 81.2853 78.0582 81.5896 77.6187L82.4856 78.2273C82.1362 78.8021 81.6572 79.2416 81.0486 79.5459C80.44 79.839 79.7581 79.9855 79.003 79.9855ZM87.2272 79.9855C86.4946 79.9855 85.8015 79.884 85.1478 79.6812C84.4941 79.467 83.9813 79.2022 83.6094 78.8866L84.1504 77.9399C84.511 78.2104 84.9731 78.4471 85.5366 78.6499C86.1001 78.8415 86.6918 78.9373 87.3117 78.9373C88.157 78.9373 88.7656 78.8077 89.1375 78.5485C89.5094 78.278 89.6954 77.923 89.6954 77.4834C89.6954 77.1566 89.5883 76.903 89.3742 76.7227C89.1713 76.5311 88.9008 76.3902 88.5627 76.3001C88.2246 76.1986 87.847 76.1141 87.43 76.0465C87.013 75.9789 86.596 75.9 86.179 75.8098C85.7733 75.7196 85.4014 75.59 85.0633 75.421C84.7251 75.2406 84.449 74.9983 84.2349 74.694C84.032 74.3897 83.9306 73.984 83.9306 73.4768C83.9306 72.9922 84.0658 72.5583 84.3363 72.1751C84.6068 71.7919 85.0013 71.4932 85.5197 71.2791C86.0494 71.0537 86.6918 70.941 87.4469 70.941C88.0217 70.941 88.5965 71.0199 89.1713 71.1777C89.7461 71.3242 90.2195 71.5214 90.5914 71.7694L90.0673 72.733C89.6728 72.4625 89.2502 72.2709 88.7994 72.1582C88.3486 72.0342 87.8978 71.9722 87.4469 71.9722C86.6467 71.9722 86.0551 72.1131 85.6719 72.3949C85.2999 72.6654 85.114 73.0147 85.114 73.443C85.114 73.7811 85.2154 74.046 85.4183 74.2376C85.6324 74.4292 85.9085 74.5813 86.2467 74.694C86.596 74.7955 86.9736 74.88 87.3793 74.9476C87.7963 75.0152 88.2077 75.0998 88.6134 75.2012C89.0304 75.2914 89.408 75.421 89.7461 75.59C90.0955 75.7478 90.3716 75.9789 90.5745 76.2832C90.7886 76.5762 90.8957 76.965 90.8957 77.4496C90.8957 77.9681 90.7492 78.4189 90.4561 78.8021C90.1744 79.174 89.7574 79.467 89.2051 79.6812C88.6641 79.884 88.0048 79.9855 87.2272 79.9855Z" fill="white"/>
</g>
<g opacity="0.7" clip-path="url(#clip0_77_19)">
<path d="M224.334 41.6484C216.154 41.6484 209.499 48.3038 209.499 56.4844C209.499 64.6649 216.154 71.3203 224.334 71.3203C232.515 71.3203 239.17 64.6649 239.17 56.4844C239.17 48.3038 232.515 41.6484 224.334 41.6484ZM229.784 57.4379L222.591 64.6313C222.327 64.8946 221.982 65.0263 221.637 65.0263C221.292 65.0263 220.947 64.8946 220.683 64.6312C220.157 64.1046 220.157 63.2506 220.683 62.7238L226.923 56.4841L220.683 50.2447C220.157 49.7181 220.157 48.8641 220.683 48.3374C221.21 47.8107 222.064 47.8107 222.591 48.3374L229.784 55.5304C230.037 55.7833 230.179 56.1263 230.179 56.484C230.179 56.8419 230.037 57.185 229.784 57.4379Z" fill="white"/>
</g>
</g>
<defs>
<filter id="filter0_d_77_19" x="0.098877" y="0.857147" width="284.462" height="119.254" filterUnits="userSpaceOnUse" color-interpolation-filters="sRGB">
<feFlood flood-opacity="0" result="BackgroundImageFix"/>
<feColorMatrix in="SourceAlpha" type="matrix" values="0 0 0 0 0 0 0 0 0 0 0 0 0 0 0 0 0 0 127 0" result="hardAlpha"/>
<feOffset dy="4"/>
<feGaussianBlur stdDeviation="2"/>
<feComposite in2="hardAlpha" operator="out"/>
<feColorMatrix type="matrix" values="0 0 0 0 0 0 0 0 0 0 0 0 0 0 0 0 0 0 0.25 0"/>
<feBlend mode="normal" in2="BackgroundImageFix" result="effect1_dropShadow_77_19"/>
<feBlend mode="normal" in="SourceGraphic" in2="effect1_dropShadow_77_19" result="shape"/>
</filter>
<filter id="filter1_d_77_19" x="22.811" y="67.357" width="72.0846" height="20.6454" filterUnits="userSpaceOnUse" color-interpolation-filters="sRGB">
<feFlood flood-opacity="0" result="BackgroundImageFix"/>
<feColorMatrix in="SourceAlpha" type="matrix" values="0 0 0 0 0 0 0 0 0 0 0 0 0 0 0 0 0 0 127 0" result="hardAlpha"/>
<feOffset dy="4"/>
<feGaussianBlur stdDeviation="2"/>
<feComposite in2="hardAlpha" operator="out"/>
<feColorMatrix type="matrix" values="0 0 0 0 0 0 0 0 0 0 0 0 0 0 0 0 0 0 0.25 0"/>
<feBlend mode="normal" in2="BackgroundImageFix" result="effect1_dropShadow_77_19"/>
<feBlend mode="normal" in="SourceGraphic" in2="effect1_dropShadow_77_19" result="shape"/>
</filter>
<linearGradient id="paint0_linear_77_19" x1="142.33" y1="9.85715" x2="142.33" y2="103.112" gradientUnits="userSpaceOnUse">
<stop stop-color="#4C5A80"/>
<stop offset="1" stop-color="#60627D"/>
</linearGradient>
<clipPath id="clip0_77_19">
<rect width="29.6719" height="29.6719" fill="white" transform="translate(209.499 41.6484)"/>
</clipPath>
</defs>
</svg>
