<svg width="277" height="113" viewBox="0 0 277 113" fill="none" xmlns="http://www.w3.org/2000/svg">
<path d="M4.59888 20.8571V92.1116C4.59888 100.672 11.5385 107.612 20.0989 107.612H256.56C265.121 107.612 272.06 100.672 272.06 92.1116V20.8572C272.06 12.2967 265.121 5.35715 256.56 5.35715H20.0989C11.5385 5.35715 4.59888 12.2967 4.59888 20.8571Z" fill="url(#paint0_linear_77_19)" stroke="#4C4F6C" stroke-width="9" stroke-linejoin="round"/>
<path d="M24.5418 54.8352V38.0352H27.1098L34.4538 50.2992H33.1098L40.3338 38.0352H42.9018L42.9258 54.8352H39.9738L39.9498 42.6672H40.5738L34.4298 52.9152H33.0378L26.7978 42.6672H27.5178V54.8352H24.5418ZM53.1996 55.0032C51.7756 55.0032 50.5276 54.7232 49.4556 54.1632C48.3996 53.5872 47.5756 52.8032 46.9836 51.8112C46.4076 50.8192 46.1196 49.6912 46.1196 48.4272C46.1196 47.1472 46.3996 46.0192 46.9596 45.0432C47.5356 44.0512 48.3196 43.2752 49.3116 42.7152C50.3196 42.1552 51.4636 41.8752 52.7436 41.8752C53.9916 41.8752 55.1036 42.1472 56.0796 42.6912C57.0556 43.2352 57.8236 44.0032 58.3836 44.9952C58.9436 45.9872 59.2236 47.1552 59.2236 48.4992C59.2236 48.6272 59.2156 48.7712 59.1996 48.9312C59.1996 49.0912 59.1916 49.2432 59.1756 49.3872H48.4956V47.3952H57.5916L56.4156 48.0192C56.4316 47.2832 56.2796 46.6352 55.9596 46.0752C55.6396 45.5152 55.1996 45.0752 54.6396 44.7552C54.0956 44.4352 53.4636 44.2752 52.7436 44.2752C52.0076 44.2752 51.3596 44.4352 50.7996 44.7552C50.2556 45.0752 49.8236 45.5232 49.5036 46.0992C49.1996 46.6592 49.0476 47.3232 49.0476 48.0912V48.5712C49.0476 49.3392 49.2236 50.0192 49.5756 50.6112C49.9276 51.2032 50.4236 51.6592 51.0636 51.9792C51.7036 52.2992 52.4396 52.4592 53.2716 52.4592C53.9916 52.4592 54.6396 52.3472 55.2156 52.1232C55.7916 51.8992 56.3036 51.5472 56.7516 51.0672L58.3596 52.9152C57.7836 53.5872 57.0556 54.1072 56.1756 54.4752C55.3116 54.8272 54.3196 55.0032 53.1996 55.0032ZM69.6498 54.8352V52.2432L69.4818 51.6912V47.1552C69.4818 46.2752 69.2178 45.5952 68.6898 45.1152C68.1618 44.6192 67.3618 44.3712 66.2898 44.3712C65.5698 44.3712 64.8578 44.4832 64.1538 44.7072C63.4658 44.9312 62.8818 45.2432 62.4018 45.6432L61.2258 43.4592C61.9138 42.9312 62.7298 42.5392 63.6738 42.2832C64.6338 42.0112 65.6258 41.8752 66.6498 41.8752C68.5058 41.8752 69.9378 42.3232 70.9458 43.2192C71.9698 44.0992 72.4818 45.4672 72.4818 47.3232V54.8352H69.6498ZM65.6178 55.0032C64.6578 55.0032 63.8178 54.8432 63.0978 54.5232C62.3778 54.1872 61.8178 53.7312 61.4178 53.1552C61.0338 52.5632 60.8418 51.8992 60.8418 51.1632C60.8418 50.4432 61.0098 49.7952 61.3458 49.2192C61.6978 48.6432 62.2658 48.1872 63.0498 47.8512C63.8338 47.5152 64.8738 47.3472 66.1698 47.3472H69.8898V49.3392H66.3858C65.3618 49.3392 64.6738 49.5072 64.3218 49.8432C63.9698 50.1632 63.7938 50.5632 63.7938 51.0432C63.7938 51.5872 64.0098 52.0192 64.4418 52.3392C64.8738 52.6592 65.4738 52.8192 66.2418 52.8192C66.9778 52.8192 67.6338 52.6512 68.2098 52.3152C68.8018 51.9792 69.2258 51.4832 69.4818 50.8272L69.9858 52.6272C69.6978 53.3792 69.1778 53.9632 68.4258 54.3792C67.6898 54.7952 66.7538 55.0032 65.6178 55.0032ZM83.6039 41.8752C84.6279 41.8752 85.5399 42.0752 86.3399 42.4752C87.1559 42.8752 87.7959 43.4912 88.2599 44.3232C88.7239 45.1392 88.9559 46.1952 88.9559 47.4912V54.8352H85.9559V47.8752C85.9559 46.7392 85.6839 45.8912 85.1399 45.3312C84.6119 44.7712 83.8679 44.4912 82.9079 44.4912C82.2039 44.4912 81.5799 44.6352 81.0359 44.9232C80.4919 45.2112 80.0679 45.6432 79.7639 46.2192C79.4759 46.7792 79.3319 47.4912 79.3319 48.3552V54.8352H76.3319V42.0192H79.1879V45.4752L78.6839 44.4192C79.1319 43.6032 79.7799 42.9792 80.6279 42.5472C81.4919 42.0992 82.4839 41.8752 83.6039 41.8752ZM98.209 55.0032C96.977 55.0032 95.865 54.7312 94.873 54.1872C93.897 53.6272 93.129 52.8592 92.569 51.8832C92.009 50.9072 91.729 49.7552 91.729 48.4272C91.729 47.0992 92.009 45.9472 92.569 44.9712C93.129 43.9952 93.897 43.2352 94.873 42.6912C95.865 42.1472 96.977 41.8752 98.209 41.8752C99.281 41.8752 100.241 42.1152 101.089 42.5952C101.937 43.0592 102.609 43.7712 103.105 44.7312C103.601 45.6912 103.849 46.9232 103.849 48.4272C103.849 49.9152 103.609 51.1472 103.129 52.1232C102.649 53.0832 101.985 53.8032 101.137 54.2832C100.289 54.7632 99.313 55.0032 98.209 55.0032ZM98.569 52.4352C99.289 52.4352 99.929 52.2752 100.489 51.9552C101.065 51.6352 101.521 51.1712 101.857 50.5632C102.209 49.9552 102.385 49.2432 102.385 48.4272C102.385 47.5952 102.209 46.8832 101.857 46.2912C101.521 45.6832 101.065 45.2192 100.489 44.8992C99.929 44.5792 99.289 44.4192 98.569 44.4192C97.849 44.4192 97.201 44.5792 96.625 44.8992C96.065 45.2192 95.609 45.6832 95.257 46.2912C94.921 46.8832 94.753 47.5952 94.753 48.4272C94.753 49.2432 94.921 49.9552 95.257 50.5632C95.609 51.1712 96.065 51.6352 96.625 51.9552C97.201 52.2752 97.849 52.4352 98.569 52.4352ZM102.457 54.8352V51.8112L102.577 48.4032L102.337 44.9952V37.0272H105.313V54.8352H102.457ZM115.286 55.0032C113.862 55.0032 112.614 54.7232 111.542 54.1632C110.486 53.5872 109.662 52.8032 109.07 51.8112C108.494 50.8192 108.206 49.6912 108.206 48.4272C108.206 47.1472 108.486 46.0192 109.046 45.0432C109.622 44.0512 110.406 43.2752 111.398 42.7152C112.406 42.1552 113.55 41.8752 114.83 41.8752C116.078 41.8752 117.19 42.1472 118.166 42.6912C119.142 43.2352 119.91 44.0032 120.47 44.9952C121.03 45.9872 121.31 47.1552 121.31 48.4992C121.31 48.6272 121.302 48.7712 121.286 48.9312C121.286 49.0912 121.278 49.2432 121.262 49.3872H110.582V47.3952H119.678L118.502 48.0192C118.518 47.2832 118.366 46.6352 118.046 46.0752C117.726 45.5152 117.286 45.0752 116.726 44.7552C116.182 44.4352 115.55 44.2752 114.83 44.2752C114.094 44.2752 113.446 44.4352 112.886 44.7552C112.342 45.0752 111.91 45.5232 111.59 46.0992C111.286 46.6592 111.134 47.3232 111.134 48.0912V48.5712C111.134 49.3392 111.31 50.0192 111.662 50.6112C112.014 51.2032 112.51 51.6592 113.15 51.9792C113.79 52.2992 114.526 52.4592 115.358 52.4592C116.078 52.4592 116.726 52.3472 117.302 52.1232C117.878 51.8992 118.39 51.5472 118.838 51.0672L120.446 52.9152C119.87 53.5872 119.142 54.1072 118.262 54.4752C117.398 54.8272 116.406 55.0032 115.286 55.0032ZM124.191 54.8352V42.0192H127.047V45.5472L126.711 44.5152C127.095 43.6512 127.695 42.9952 128.511 42.5472C129.343 42.0992 130.375 41.8752 131.607 41.8752V44.7312C131.479 44.6992 131.359 44.6832 131.247 44.6832C131.135 44.6672 131.023 44.6592 130.911 44.6592C129.775 44.6592 128.871 44.9952 128.199 45.6672C127.527 46.3232 127.191 47.3072 127.191 48.6192V54.8352H124.191ZM134.152 54.8352V42.0192H137.152V54.8352H134.152ZM135.664 39.9072C135.104 39.9072 134.64 39.7312 134.272 39.3792C133.92 39.0272 133.744 38.6032 133.744 38.1072C133.744 37.5952 133.92 37.1712 134.272 36.8352C134.64 36.4832 135.104 36.3072 135.664 36.3072C136.224 36.3072 136.68 36.4752 137.032 36.8112C137.4 37.1312 137.584 37.5392 137.584 38.0352C137.584 38.5632 137.408 39.0112 137.056 39.3792C136.704 39.7312 136.24 39.9072 135.664 39.9072ZM148.362 41.8752C149.386 41.8752 150.298 42.0752 151.098 42.4752C151.914 42.8752 152.554 43.4912 153.018 44.3232C153.482 45.1392 153.714 46.1952 153.714 47.4912V54.8352H150.714V47.8752C150.714 46.7392 150.442 45.8912 149.898 45.3312C149.37 44.7712 148.626 44.4912 147.666 44.4912C146.962 44.4912 146.338 44.6352 145.794 44.9232C145.25 45.2112 144.826 45.6432 144.522 46.2192C144.234 46.7792 144.09 47.4912 144.09 48.3552V54.8352H141.09V42.0192H143.946V45.4752L143.442 44.4192C143.89 43.6032 144.538 42.9792 145.386 42.5472C146.25 42.0992 147.242 41.8752 148.362 41.8752ZM163.351 59.6592C162.167 59.6592 161.007 59.4992 159.871 59.1792C158.751 58.8752 157.831 58.4272 157.111 57.8352L158.455 55.5792C159.015 56.0432 159.719 56.4112 160.567 56.6832C161.431 56.9712 162.303 57.1152 163.183 57.1152C164.591 57.1152 165.623 56.7872 166.279 56.1312C166.935 55.4912 167.263 54.5232 167.263 53.2272V50.9472L167.503 48.0432L167.407 45.1392V42.0192H170.263V52.8912C170.263 55.2112 169.671 56.9152 168.487 58.0032C167.303 59.1072 165.591 59.6592 163.351 59.6592ZM162.967 54.2592C161.751 54.2592 160.647 54.0032 159.655 53.4912C158.679 52.9632 157.903 52.2352 157.327 51.3072C156.767 50.3792 156.487 49.2912 156.487 48.0432C156.487 46.8112 156.767 45.7312 157.327 44.8032C157.903 43.8752 158.679 43.1552 159.655 42.6432C160.647 42.1312 161.751 41.8752 162.967 41.8752C164.055 41.8752 165.031 42.0912 165.895 42.5232C166.759 42.9552 167.447 43.6272 167.959 44.5392C168.487 45.4512 168.751 46.6192 168.751 48.0432C168.751 49.4672 168.487 50.6432 167.959 51.5712C167.447 52.4832 166.759 53.1632 165.895 53.6112C165.031 54.0432 164.055 54.2592 162.967 54.2592ZM163.423 51.7152C164.175 51.7152 164.847 51.5632 165.439 51.2592C166.031 50.9392 166.487 50.5072 166.807 49.9632C167.143 49.4032 167.311 48.7632 167.311 48.0432C167.311 47.3232 167.143 46.6912 166.807 46.1472C166.487 45.5872 166.031 45.1632 165.439 44.8752C164.847 44.5712 164.175 44.4192 163.423 44.4192C162.671 44.4192 161.991 44.5712 161.383 44.8752C160.791 45.1632 160.327 45.5872 159.991 46.1472C159.671 46.6912 159.511 47.3232 159.511 48.0432C159.511 48.7632 159.671 49.4032 159.991 49.9632C160.327 50.5072 160.791 50.9392 161.383 51.2592C161.991 51.5632 162.671 51.7152 163.423 51.7152Z" fill="white"/>
<g>
<path d="M27.1219 80.0024C26.2428 80.0024 25.3975 79.8615 24.5861 79.5797C23.7859 79.2867 23.166 78.9148 22.7264 78.464L23.2167 77.5004C23.6337 77.9061 24.1916 78.2498 24.8904 78.5316C25.6004 78.8021 26.3442 78.9373 27.1219 78.9373C27.8657 78.9373 28.4687 78.8472 28.9308 78.6668C29.4042 78.4752 29.7479 78.2217 29.962 77.9061C30.1874 77.5905 30.3001 77.2411 30.3001 76.8579C30.3001 76.3959 30.1649 76.0239 29.8944 75.7422C29.6352 75.4604 29.2914 75.2406 28.8632 75.0829C28.4349 74.9138 27.9615 74.7673 27.4431 74.6433C26.9247 74.5193 26.4062 74.3897 25.8878 74.2545C25.3694 74.108 24.8904 73.9164 24.4508 73.6797C24.0225 73.443 23.6732 73.1331 23.4027 72.7499C23.1435 72.3554 23.0138 71.8426 23.0138 71.2115C23.0138 70.6254 23.166 70.0901 23.4703 69.6054C23.7859 69.1095 24.2649 68.7151 24.9073 68.4221C25.5497 68.1178 26.3724 67.9656 27.3755 67.9656C28.0404 67.9656 28.6998 68.0614 29.3534 68.253C30.0071 68.4333 30.5706 68.6869 31.044 69.0138L30.6214 70.0112C30.1142 69.6731 29.5732 69.4251 28.9984 69.2673C28.4349 69.1095 27.8883 69.0307 27.3586 69.0307C26.6485 69.0307 26.0625 69.1265 25.6004 69.3181C25.1383 69.5096 24.7946 69.7689 24.5692 70.0957C24.355 70.4113 24.2479 70.7719 24.2479 71.1777C24.2479 71.6398 24.3776 72.0117 24.6368 72.2934C24.9073 72.5752 25.2566 72.795 25.6849 72.9528C26.1245 73.1105 26.6035 73.2514 27.1219 73.3754C27.6403 73.4994 28.1531 73.6346 28.6603 73.7811C29.1787 73.9276 29.6521 74.1192 30.0804 74.3559C30.5199 74.5813 30.8693 74.8856 31.1285 75.2688C31.399 75.652 31.5343 76.1535 31.5343 76.7734C31.5343 77.3482 31.3765 77.8835 31.0609 78.3794C30.7453 78.8641 30.2607 79.2585 29.607 79.5628C28.9646 79.8559 28.1362 80.0024 27.1219 80.0024ZM36.8128 79.9855C35.9788 79.9855 35.3363 79.7601 34.8855 79.3093C34.4347 78.8584 34.2093 78.2217 34.2093 77.3989V69.0645H35.4096V77.3313C35.4096 77.8497 35.5392 78.2498 35.7984 78.5316C36.0689 78.8134 36.4521 78.9542 36.948 78.9542C37.4777 78.9542 37.9173 78.8021 38.2666 78.4978L38.6893 79.36C38.4526 79.5741 38.1652 79.7319 37.8271 79.8333C37.5003 79.9348 37.1621 79.9855 36.8128 79.9855ZM32.6202 72.0229V71.0255H38.1145V72.0229H32.6202ZM44.1784 79.9855C43.3219 79.9855 42.5499 79.7939 41.8624 79.4107C41.1862 79.0162 40.6508 78.4809 40.2563 77.8047C39.8619 77.1172 39.6647 76.3339 39.6647 75.4548C39.6647 74.5644 39.8619 73.7811 40.2563 73.1049C40.6508 72.4287 41.1862 71.899 41.8624 71.5158C42.5386 71.1326 43.3106 70.941 44.1784 70.941C45.0575 70.941 45.8352 71.1326 46.5114 71.5158C47.1989 71.899 47.7343 72.4287 48.1174 73.1049C48.5119 73.7811 48.7091 74.5644 48.7091 75.4548C48.7091 76.3339 48.5119 77.1172 48.1174 77.8047C47.7343 78.4809 47.1989 79.0162 46.5114 79.4107C45.8239 79.7939 45.0463 79.9855 44.1784 79.9855ZM44.1784 78.9204C44.8209 78.9204 45.39 78.7795 45.8859 78.4978C46.3818 78.2048 46.7706 77.799 47.0524 77.2806C47.3454 76.7509 47.4919 76.1423 47.4919 75.4548C47.4919 74.756 47.3454 74.1474 47.0524 73.629C46.7706 73.1105 46.3818 72.7104 45.8859 72.4287C45.39 72.1356 44.8265 71.9891 44.1954 71.9891C43.5642 71.9891 43.0007 72.1356 42.5048 72.4287C42.0089 72.7104 41.6144 73.1105 41.3214 73.629C41.0284 74.1474 40.8819 74.756 40.8819 75.4548C40.8819 76.1423 41.0284 76.7509 41.3214 77.2806C41.6144 77.799 42.0089 78.2048 42.5048 78.4978C43.0007 78.7795 43.5586 78.9204 44.1784 78.9204ZM51.1597 79.9009V71.0255H52.3092V73.443L52.1909 73.0204C52.4388 72.3442 52.8559 71.8313 53.4419 71.482C54.028 71.1213 54.7549 70.941 55.6227 70.941V72.1075C55.5777 72.1075 55.5326 72.1075 55.4875 72.1075C55.4424 72.0962 55.3973 72.0906 55.3522 72.0906C54.4168 72.0906 53.6842 72.378 53.1545 72.9528C52.6248 73.5163 52.36 74.3221 52.36 75.3703V79.9009H51.1597ZM57.8129 79.9009V71.0255H59.0132V79.9009H57.8129ZM58.4215 69.0645C58.1736 69.0645 57.9651 68.9799 57.796 68.8109C57.627 68.6418 57.5424 68.439 57.5424 68.2023C57.5424 67.9656 57.627 67.7684 57.796 67.6106C57.9651 67.4415 58.1736 67.357 58.4215 67.357C58.6695 67.357 58.878 67.4359 59.047 67.5937C59.2161 67.7515 59.3006 67.9487 59.3006 68.1854C59.3006 68.4333 59.2161 68.6418 59.047 68.8109C58.8893 68.9799 58.6808 69.0645 58.4215 69.0645ZM66.123 79.9855C65.1988 79.9855 64.3873 79.7939 63.6885 79.4107C62.9898 79.0162 62.4432 78.4809 62.0487 77.8047C61.6542 77.1172 61.457 76.3339 61.457 75.4548C61.457 74.5757 61.643 73.798 62.0149 73.1218C62.3981 72.4456 62.9165 71.9159 63.5702 71.5327C64.2352 71.1382 64.979 70.941 65.8017 70.941C66.6358 70.941 67.374 71.1326 68.0164 71.5158C68.6701 71.8877 69.1829 72.4174 69.5548 73.1049C69.9267 73.7811 70.1127 74.5644 70.1127 75.4548C70.1127 75.5111 70.107 75.5731 70.0958 75.6407C70.0958 75.6971 70.0958 75.7591 70.0958 75.8267H62.3699V74.9307H69.4534L68.98 75.2857C68.98 74.6433 68.8391 74.0742 68.5574 73.5783C68.2869 73.0711 67.9149 72.6766 67.4416 72.3949C66.9682 72.1131 66.4216 71.9722 65.8017 71.9722C65.1931 71.9722 64.6465 72.1131 64.1619 72.3949C63.6773 72.6766 63.2997 73.0711 63.0292 73.5783C62.7587 74.0854 62.6235 74.6659 62.6235 75.3195V75.5055C62.6235 76.1817 62.77 76.779 63.063 77.2975C63.3673 77.8047 63.7843 78.2048 64.3141 78.4978C64.855 78.7795 65.4693 78.9204 66.1568 78.9204C66.6977 78.9204 67.1993 78.8246 67.6614 78.633C68.1347 78.4414 68.5404 78.1484 68.8786 77.7539L69.5548 78.5316C69.1603 79.005 68.6644 79.3656 68.0671 79.6136C67.481 79.8615 66.833 79.9855 66.123 79.9855ZM74.9395 79.9855C74.2069 79.9855 73.5138 79.884 72.8601 79.6812C72.2064 79.467 71.6936 79.2022 71.3217 78.8866L71.8627 77.9399C72.2233 78.2104 72.6854 78.4471 73.2489 78.6499C73.8124 78.8415 74.4041 78.9373 75.024 78.9373C75.8693 78.9373 76.4779 78.8077 76.8498 78.5485C77.2217 78.278 77.4077 77.923 77.4077 77.4834C77.4077 77.1566 77.3006 76.903 77.0865 76.7227C76.8836 76.5311 76.6131 76.3902 76.275 76.3001C75.9369 76.1986 75.5593 76.1141 75.1423 76.0465C74.7253 75.9789 74.3083 75.9 73.8913 75.8098C73.4856 75.7196 73.1137 75.59 72.7756 75.421C72.4375 75.2406 72.1613 74.9983 71.9472 74.694C71.7443 74.3897 71.6429 73.984 71.6429 73.4768C71.6429 72.9922 71.7781 72.5583 72.0486 72.1751C72.3191 71.7919 72.7136 71.4932 73.232 71.2791C73.7617 71.0537 74.4041 70.941 75.1593 70.941C75.734 70.941 76.3088 71.0199 76.8836 71.1777C77.4584 71.3242 77.9318 71.5214 78.3037 71.7694L77.7796 72.733C77.3852 72.4625 76.9625 72.2709 76.5117 72.1582C76.0609 72.0342 75.6101 71.9722 75.1593 71.9722C74.3591 71.9722 73.7674 72.1131 73.3842 72.3949C73.0122 72.6654 72.8263 73.0147 72.8263 73.443C72.8263 73.7811 72.9277 74.046 73.1306 74.2376C73.3447 74.4292 73.6208 74.5813 73.959 74.694C74.3083 74.7955 74.6859 74.88 75.0916 74.9476C75.5086 75.0152 75.92 75.0998 76.3257 75.2012C76.7427 75.2914 77.1203 75.421 77.4584 75.59C77.8078 75.7478 78.0839 75.9789 78.2868 76.2832C78.5009 76.5762 78.608 76.965 78.608 77.4496C78.608 77.9681 78.4615 78.4189 78.1684 78.8021C77.8867 79.174 77.4697 79.467 76.9174 79.6812C76.3765 79.884 75.7171 79.9855 74.9395 79.9855Z" fill="white"/>
</g>
<g opacity="0.7" clip-path="url(#clip0_77_19)">
<path d="M220.334 41.6484C212.154 41.6484 205.499 48.3038 205.499 56.4844C205.499 64.6649 212.154 71.3203 220.334 71.3203C228.515 71.3203 235.17 64.6649 235.17 56.4844C235.17 48.3038 228.515 41.6484 220.334 41.6484ZM225.784 57.4379L218.591 64.6313C218.327 64.8946 217.982 65.0263 217.637 65.0263C217.292 65.0263 216.947 64.8946 216.683 64.6312C216.157 64.1046 216.157 63.2506 216.683 62.7238L222.923 56.4841L216.683 50.2447C216.157 49.7181 216.157 48.8641 216.683 48.3374C217.21 47.8107 218.064 47.8107 218.591 48.3374L225.784 55.5304C226.037 55.7833 226.179 56.1263 226.179 56.484C226.179 56.8419 226.037 57.185 225.784 57.4379Z" fill="white"/>
</g>
<defs>
<linearGradient id="paint0_linear_77_19" x1="138.33" y1="9.85715" x2="138.33" y2="103.112" gradientUnits="userSpaceOnUse">
<stop stop-color="#4C5A80"/>
<stop offset="1" stop-color="#60627D"/>
</linearGradient>
<clipPath id="clip0_77_19">
<rect width="29.6719" height="29.6719" fill="white" transform="translate(205.499 41.6484)"/>
</clipPath>
</defs>
</svg>
