<svg width="366" height="132" viewBox="0 0 366 132" fill="none" xmlns="http://www.w3.org/2000/svg">
<path d="M0 121V11C0 4.92487 4.92486 0 11 0H354.848C360.923 0 365.848 4.92487 365.848 11V121C365.848 127.075 360.923 132 354.848 132H11C4.92487 132 0 127.075 0 121Z" fill="url(#paint0_linear_35_2)" fill-opacity="0.42"/>
<path d="M20.6857 59V39H30.0571C32.4571 39 34.2857 39.4762 35.5429 40.4286C36.8 41.3619 37.4286 42.619 37.4286 44.2C37.4286 45.2667 37.181 46.181 36.6857 46.9429C36.1905 47.6857 35.5238 48.2667 34.6857 48.6857C33.8667 49.0857 32.9714 49.2857 32 49.2857L32.5143 48.2571C33.6381 48.2571 34.6476 48.4667 35.5429 48.8857C36.4381 49.2857 37.1429 49.8762 37.6571 50.6571C38.1905 51.4381 38.4571 52.4095 38.4571 53.5714C38.4571 55.2857 37.8 56.619 36.4857 57.5714C35.1714 58.5238 33.219 59 30.6286 59H20.6857ZM24.4 56.0857H30.4C31.7905 56.0857 32.8571 55.8571 33.6 55.4C34.3429 54.9429 34.7143 54.2095 34.7143 53.2C34.7143 52.2095 34.3429 51.4857 33.6 51.0286C32.8571 50.5524 31.7905 50.3143 30.4 50.3143H24.1143V47.4286H29.6571C30.9524 47.4286 31.9429 47.2 32.6286 46.7429C33.3333 46.2857 33.6857 45.6 33.6857 44.6857C33.6857 43.7524 33.3333 43.0571 32.6286 42.6C31.9429 42.1429 30.9524 41.9143 29.6571 41.9143H24.4V56.0857ZM48.9355 59.2C47.3736 59.2 45.9831 58.8667 44.7641 58.2C43.545 57.5143 42.5831 56.581 41.8783 55.4C41.1736 54.219 40.8212 52.8762 40.8212 51.3714C40.8212 49.8476 41.1736 48.5048 41.8783 47.3429C42.5831 46.1619 43.545 45.2381 44.7641 44.5714C45.9831 43.9048 47.3736 43.5714 48.9355 43.5714C50.5164 43.5714 51.9164 43.9048 53.1355 44.5714C54.3736 45.2381 55.3355 46.1524 56.0212 47.3143C56.726 48.4762 57.0783 49.8286 57.0783 51.3714C57.0783 52.8762 56.726 54.219 56.0212 55.4C55.3355 56.581 54.3736 57.5143 53.1355 58.2C51.9164 58.8667 50.5164 59.2 48.9355 59.2ZM48.9355 56.1429C49.8117 56.1429 50.5926 55.9524 51.2783 55.5714C51.9641 55.1905 52.4974 54.6381 52.8783 53.9143C53.2783 53.1905 53.4783 52.3429 53.4783 51.3714C53.4783 50.381 53.2783 49.5333 52.8783 48.8286C52.4974 48.1048 51.9641 47.5524 51.2783 47.1714C50.5926 46.7905 49.8212 46.6 48.9641 46.6C48.0879 46.6 47.3069 46.7905 46.6212 47.1714C45.9545 47.5524 45.4212 48.1048 45.0212 48.8286C44.6212 49.5333 44.4212 50.381 44.4212 51.3714C44.4212 52.3429 44.6212 53.1905 45.0212 53.9143C45.4212 54.6381 45.9545 55.1905 46.6212 55.5714C47.3069 55.9524 48.0783 56.1429 48.9355 56.1429ZM60.4935 59V43.7429H63.8935V47.9429L63.4935 46.7143C63.9507 45.6857 64.665 44.9048 65.6364 44.3714C66.6269 43.8381 67.8554 43.5714 69.3221 43.5714V46.9714C69.1697 46.9333 69.0269 46.9143 68.8935 46.9143C68.7602 46.8952 68.6269 46.8857 68.4935 46.8857C67.1411 46.8857 66.065 47.2857 65.265 48.0857C64.465 48.8667 64.065 50.0381 64.065 51.6V59H60.4935ZM72.3518 59V43.7429H75.9232V59H72.3518ZM74.1518 41.2286C73.4851 41.2286 72.9327 41.019 72.4946 40.6C72.0756 40.181 71.8661 39.6762 71.8661 39.0857C71.8661 38.4762 72.0756 37.9714 72.4946 37.5714C72.9327 37.1524 73.4851 36.9429 74.1518 36.9429C74.8185 36.9429 75.3613 37.1429 75.7804 37.5429C76.2185 37.9238 76.4375 38.4095 76.4375 39C76.4375 39.6286 76.228 40.1619 75.8089 40.6C75.3899 41.019 74.8375 41.2286 74.1518 41.2286ZM89.2679 43.5714C90.4869 43.5714 91.5726 43.8095 92.525 44.2857C93.4964 44.7619 94.2583 45.4952 94.8107 46.4857C95.3631 47.4571 95.6393 48.7143 95.6393 50.2571V59H92.0679V50.7143C92.0679 49.3619 91.744 48.3524 91.0964 47.6857C90.4679 47.019 89.5821 46.6857 88.4393 46.6857C87.6012 46.6857 86.8583 46.8571 86.2107 47.2C85.5631 47.5429 85.0583 48.0571 84.6964 48.7429C84.3536 49.4095 84.1821 50.2571 84.1821 51.2857V59H80.6107V43.7429H84.0107V47.8571L83.4107 46.6C83.944 45.6286 84.7155 44.8857 85.725 44.3714C86.7536 43.8381 87.9345 43.5714 89.2679 43.5714ZM107.112 64.7429C105.703 64.7429 104.322 64.5524 102.969 64.1714C101.636 63.8095 100.541 63.2762 99.6835 62.5714L101.283 59.8857C101.95 60.4381 102.788 60.8762 103.798 61.2C104.826 61.5429 105.864 61.7143 106.912 61.7143C108.588 61.7143 109.817 61.3238 110.598 60.5429C111.379 59.781 111.769 58.6286 111.769 57.0857V54.3714L112.055 50.9143L111.941 47.4571V43.7429H115.341V56.6857C115.341 59.4476 114.636 61.4762 113.226 62.7714C111.817 64.0857 109.779 64.7429 107.112 64.7429ZM106.655 58.3143C105.207 58.3143 103.893 58.0095 102.712 57.4C101.55 56.7714 100.626 55.9048 99.9406 54.8C99.274 53.6952 98.9406 52.4 98.9406 50.9143C98.9406 49.4476 99.274 48.1619 99.9406 47.0571C100.626 45.9524 101.55 45.0952 102.712 44.4857C103.893 43.8762 105.207 43.5714 106.655 43.5714C107.95 43.5714 109.112 43.8286 110.141 44.3429C111.169 44.8571 111.988 45.6571 112.598 46.7429C113.226 47.8286 113.541 49.219 113.541 50.9143C113.541 52.6095 113.226 54.0095 112.598 55.1143C111.988 56.2 111.169 57.0095 110.141 57.5429C109.112 58.0571 107.95 58.3143 106.655 58.3143ZM107.198 55.2857C108.093 55.2857 108.893 55.1048 109.598 54.7429C110.303 54.3619 110.845 53.8476 111.226 53.2C111.626 52.5333 111.826 51.7714 111.826 50.9143C111.826 50.0571 111.626 49.3048 111.226 48.6571C110.845 47.9905 110.303 47.4857 109.598 47.1429C108.893 46.781 108.093 46.6 107.198 46.6C106.303 46.6 105.493 46.781 104.769 47.1429C104.064 47.4857 103.512 47.9905 103.112 48.6571C102.731 49.3048 102.541 50.0571 102.541 50.9143C102.541 51.7714 102.731 52.5333 103.112 53.2C103.512 53.8476 104.064 54.3619 104.769 54.7429C105.493 55.1048 106.303 55.2857 107.198 55.2857Z" fill="white"/>
<g filter="url(#filter0_d_35_2)">
<path d="M19.9272 92V80.1661H20.9585L26.3683 89.3965H25.8273L31.1864 80.1661H32.2176V92H31.0173V82.0426H31.3047L26.3683 90.4954H25.7766L20.8063 82.0426H21.1275V92H19.9272ZM39.5898 92.0845C38.6656 92.0845 37.8541 91.8929 37.1553 91.5097C36.4566 91.1153 35.91 90.5799 35.5155 89.9037C35.121 89.2162 34.9238 88.4329 34.9238 87.5538C34.9238 86.6747 35.1098 85.8971 35.4817 85.2209C35.8649 84.5446 36.3833 84.0149 37.037 83.6317C37.702 83.2373 38.4458 83.04 39.2685 83.04C40.1026 83.04 40.8408 83.2316 41.4832 83.6148C42.1369 83.9868 42.6497 84.5165 43.0216 85.204C43.3935 85.8802 43.5795 86.6635 43.5795 87.5538C43.5795 87.6102 43.5738 87.6722 43.5626 87.7398C43.5626 87.7961 43.5626 87.8581 43.5626 87.9258H35.8367V87.0298H42.9202L42.4468 87.3848C42.4468 86.7424 42.3059 86.1732 42.0242 85.6773C41.7537 85.1701 41.3817 84.7757 40.9084 84.4939C40.435 84.2122 39.8884 84.0713 39.2685 84.0713C38.6599 84.0713 38.1133 84.2122 37.6287 84.4939C37.1441 84.7757 36.7665 85.1701 36.496 85.6773C36.2255 86.1845 36.0903 86.7649 36.0903 87.4186V87.6045C36.0903 88.2808 36.2368 88.8781 36.5298 89.3965C36.8341 89.9037 37.2511 90.3038 37.7809 90.5968C38.3218 90.8786 38.9361 91.0195 39.6236 91.0195C40.1645 91.0195 40.6661 90.9237 41.1282 90.7321C41.6015 90.5405 42.0073 90.2475 42.3454 89.853L43.0216 90.6306C42.6271 91.104 42.1312 91.4647 41.5339 91.7126C40.9478 91.9606 40.2998 92.0845 39.5898 92.0845ZM51.3369 92V90.039L51.2862 89.7177V86.4381C51.2862 85.6829 51.072 85.1025 50.6438 84.6968C50.2268 84.2911 49.6012 84.0882 48.7672 84.0882C48.1925 84.0882 47.6458 84.184 47.1274 84.3756C46.609 84.5672 46.1694 84.8208 45.8088 85.1363L45.2678 84.2403C45.7186 83.8571 46.2596 83.5641 46.8907 83.3612C47.5219 83.1471 48.1868 83.04 48.8856 83.04C50.0352 83.04 50.9199 83.3274 51.5398 83.9022C52.1709 84.4657 52.4865 85.3279 52.4865 86.4888V92H51.3369ZM48.277 92.0845C47.612 92.0845 47.0316 91.9775 46.5357 91.7633C46.0511 91.5379 45.6792 91.2336 45.4199 90.8504C45.1607 90.456 45.0311 90.0051 45.0311 89.498C45.0311 89.0359 45.1382 88.6189 45.3523 88.247C45.5777 87.8638 45.9384 87.5595 46.4343 87.3341C46.9414 87.0974 47.6177 86.979 48.4629 86.979H51.5229V87.875H48.4968C47.6402 87.875 47.0429 88.0272 46.7048 88.3315C46.3779 88.6358 46.2145 89.0133 46.2145 89.4642C46.2145 89.9713 46.4117 90.3771 46.8062 90.6814C47.2007 90.9857 47.7529 91.1378 48.4629 91.1378C49.1392 91.1378 49.7196 90.9857 50.2042 90.6814C50.7001 90.3658 51.0608 89.915 51.2862 89.3289L51.5567 90.1573C51.3313 90.7434 50.9368 91.2111 50.3733 91.5605C49.821 91.9098 49.1223 92.0845 48.277 92.0845ZM60.2773 83.04C60.9986 83.04 61.6297 83.1809 62.1707 83.4627C62.723 83.7332 63.1513 84.1502 63.4556 84.7137C63.7711 85.2772 63.9289 85.9872 63.9289 86.8438V92H62.7286V86.9621C62.7286 86.0267 62.4919 85.3223 62.0186 84.8489C61.5565 84.3643 60.9028 84.122 60.0575 84.122C59.4264 84.122 58.8741 84.2516 58.4008 84.5108C57.9387 84.7588 57.578 85.1251 57.3188 85.6097C57.0709 86.083 56.9469 86.6578 56.9469 87.3341V92H55.7466V83.1246H56.8962V85.559L56.7102 85.1025C56.992 84.4601 57.4428 83.9586 58.0627 83.5979C58.6825 83.226 59.4208 83.04 60.2773 83.04ZM70.7043 92.0845C69.8591 92.0845 69.0983 91.8929 68.4221 91.5097C67.7571 91.1265 67.2331 90.5968 66.8499 89.9206C66.4667 89.2331 66.2751 88.4442 66.2751 87.5538C66.2751 86.6522 66.4667 85.8633 66.8499 85.187C67.2331 84.5108 67.7571 83.9868 68.4221 83.6148C69.0983 83.2316 69.8591 83.04 70.7043 83.04C71.482 83.04 72.1751 83.2147 72.7837 83.5641C73.4036 83.9135 73.8939 84.4263 74.2545 85.1025C74.6264 85.7675 74.8124 86.5846 74.8124 87.5538C74.8124 88.5118 74.6321 89.3289 74.2714 90.0051C73.9108 90.6814 73.4205 91.1998 72.8006 91.5605C72.192 91.9098 71.4933 92.0845 70.7043 92.0845ZM70.7889 91.0195C71.42 91.0195 71.9835 90.8786 72.4794 90.5968C72.9866 90.3038 73.3811 89.8981 73.6628 89.3796C73.9559 88.8499 74.1024 88.2413 74.1024 87.5538C74.1024 86.8551 73.9559 86.2465 73.6628 85.728C73.3811 85.2096 72.9866 84.8095 72.4794 84.5277C71.9835 84.2347 71.42 84.0882 70.7889 84.0882C70.169 84.0882 69.6111 84.2347 69.1152 84.5277C68.6193 84.8095 68.2249 85.2096 67.9318 85.728C67.6388 86.2465 67.4923 86.8551 67.4923 87.5538C67.4923 88.2413 67.6388 88.8499 67.9318 89.3796C68.2249 89.8981 68.6193 90.3038 69.1152 90.5968C69.6111 90.8786 70.169 91.0195 70.7889 91.0195ZM74.1362 92V89.3289L74.2545 87.5369L74.0855 85.7449V79.4561H75.2858V92H74.1362ZM82.3985 92.0845C81.4744 92.0845 80.6629 91.8929 79.9641 91.5097C79.2654 91.1153 78.7187 90.5799 78.3243 89.9037C77.9298 89.2162 77.7326 88.4329 77.7326 87.5538C77.7326 86.6747 77.9185 85.8971 78.2905 85.2209C78.6737 84.5446 79.1921 84.0149 79.8458 83.6317C80.5107 83.2373 81.2546 83.04 82.0773 83.04C82.9113 83.04 83.6495 83.2316 84.2919 83.6148C84.9456 83.9868 85.4584 84.5165 85.8304 85.204C86.2023 85.8802 86.3882 86.6635 86.3882 87.5538C86.3882 87.6102 86.3826 87.6722 86.3713 87.7398C86.3713 87.7961 86.3713 87.8581 86.3713 87.9258H78.6455V87.0298H85.7289L85.2556 87.3848C85.2556 86.7424 85.1147 86.1732 84.8329 85.6773C84.5624 85.1701 84.1905 84.7757 83.7172 84.4939C83.2438 84.2122 82.6972 84.0713 82.0773 84.0713C81.4687 84.0713 80.9221 84.2122 80.4375 84.4939C79.9528 84.7757 79.5753 85.1701 79.3048 85.6773C79.0343 86.1845 78.8991 86.7649 78.8991 87.4186V87.6045C78.8991 88.2808 79.0456 88.8781 79.3386 89.3965C79.6429 89.9037 80.0599 90.3038 80.5896 90.5968C81.1306 90.8786 81.7448 91.0195 82.4323 91.0195C82.9733 91.0195 83.4748 90.9237 83.9369 90.7321C84.4103 90.5405 84.816 90.2475 85.1541 89.853L85.8304 90.6306C85.4359 91.104 84.94 91.4647 84.3427 91.7126C83.7566 91.9606 83.1086 92.0845 82.3985 92.0845ZM88.8314 92V83.1246H89.9809V85.5421L89.8626 85.1194C90.1105 84.4432 90.5276 83.9304 91.1136 83.581C91.6997 83.2204 92.4266 83.04 93.2944 83.04V84.2065C93.2494 84.2065 93.2043 84.2065 93.1592 84.2065C93.1141 84.1953 93.069 84.1896 93.0239 84.1896C92.0885 84.1896 91.3559 84.477 90.8262 85.0518C90.2965 85.6153 90.0317 86.4212 90.0317 87.4693V92H88.8314ZM95.4846 92V83.1246H96.6849V92H95.4846ZM96.0932 81.1635C95.8453 81.1635 95.6368 81.079 95.4677 80.9099C95.2987 80.7409 95.2141 80.538 95.2141 80.3013C95.2141 80.0647 95.2987 79.8674 95.4677 79.7096C95.6368 79.5406 95.8453 79.4561 96.0932 79.4561C96.3412 79.4561 96.5497 79.5349 96.7187 79.6927C96.8878 79.8505 96.9723 80.0478 96.9723 80.2844C96.9723 80.5324 96.8878 80.7409 96.7187 80.9099C96.561 81.079 96.3525 81.1635 96.0932 81.1635ZM104.555 83.04C105.277 83.04 105.908 83.1809 106.449 83.4627C107.001 83.7332 107.429 84.1502 107.734 84.7137C108.049 85.2772 108.207 85.9872 108.207 86.8438V92H107.007V86.9621C107.007 86.0267 106.77 85.3223 106.297 84.8489C105.835 84.3643 105.181 84.122 104.336 84.122C103.704 84.122 103.152 84.2516 102.679 84.5108C102.217 84.7588 101.856 85.1251 101.597 85.6097C101.349 86.083 101.225 86.6578 101.225 87.3341V92H100.025V83.1246H101.174V85.559L100.988 85.1025C101.27 84.4601 101.721 83.9586 102.341 83.5979C102.961 83.226 103.699 83.04 104.555 83.04ZM115.236 95.3642C114.425 95.3642 113.647 95.2459 112.903 95.0092C112.159 94.7725 111.556 94.4344 111.094 93.9949L111.703 93.082C112.12 93.4539 112.633 93.7469 113.241 93.961C113.861 94.1865 114.515 94.2992 115.202 94.2992C116.329 94.2992 117.158 94.0343 117.687 93.5046C118.217 92.9862 118.482 92.1747 118.482 91.0702V88.8556L118.651 87.3341L118.533 85.8126V83.1246H119.682V90.918C119.682 92.4508 119.305 93.5722 118.55 94.2823C117.806 95.0036 116.701 95.3642 115.236 95.3642ZM115.016 91.6619C114.171 91.6619 113.41 91.4816 112.734 91.1209C112.058 90.749 111.522 90.2362 111.128 89.5825C110.745 88.9288 110.553 88.1793 110.553 87.3341C110.553 86.4888 110.745 85.7449 111.128 85.1025C111.522 84.4488 112.058 83.9417 112.734 83.581C113.41 83.2204 114.171 83.04 115.016 83.04C115.805 83.04 116.515 83.2035 117.146 83.5303C117.778 83.8571 118.279 84.3418 118.651 84.9842C119.023 85.6266 119.209 86.4099 119.209 87.3341C119.209 88.2582 119.023 89.0415 118.651 89.6839C118.279 90.3263 117.778 90.8166 117.146 91.1547C116.515 91.4928 115.805 91.6619 115.016 91.6619ZM115.135 90.5968C115.788 90.5968 116.369 90.4616 116.876 90.1911C117.383 89.9093 117.783 89.5261 118.076 89.0415C118.369 88.5456 118.516 87.9765 118.516 87.3341C118.516 86.6916 118.369 86.1281 118.076 85.6435C117.783 85.1589 117.383 84.7813 116.876 84.5108C116.369 84.2291 115.788 84.0882 115.135 84.0882C114.492 84.0882 113.912 84.2291 113.393 84.5108C112.886 84.7813 112.486 85.1589 112.193 85.6435C111.911 86.1281 111.77 86.6916 111.77 87.3341C111.77 87.9765 111.911 88.5456 112.193 89.0415C112.486 89.5261 112.886 89.9093 113.393 90.1911C113.912 90.4616 114.492 90.5968 115.135 90.5968ZM132.84 92.1014C131.949 92.1014 131.127 91.9549 130.371 91.6619C129.616 91.3576 128.963 90.9349 128.41 90.394C127.858 89.853 127.424 89.2162 127.109 88.4836C126.804 87.7511 126.652 86.9509 126.652 86.083C126.652 85.2152 126.804 84.415 127.109 83.6825C127.424 82.9499 127.858 82.3131 128.41 81.7721C128.974 81.2311 129.633 80.8141 130.388 80.5211C131.143 80.2168 131.966 80.0647 132.857 80.0647C133.713 80.0647 134.519 80.2112 135.274 80.5042C136.029 80.786 136.666 81.2142 137.184 81.789L136.39 82.5836C135.905 82.0877 135.37 81.7327 134.784 81.5185C134.198 81.2931 133.567 81.1804 132.89 81.1804C132.18 81.1804 131.521 81.3044 130.912 81.5523C130.304 81.789 129.774 82.1328 129.323 82.5836C128.872 83.0231 128.517 83.5416 128.258 84.1389C128.01 84.725 127.886 85.373 127.886 86.083C127.886 86.7931 128.01 87.4468 128.258 88.0441C128.517 88.6302 128.872 89.1486 129.323 89.5994C129.774 90.039 130.304 90.3827 130.912 90.6306C131.521 90.8673 132.18 90.9857 132.89 90.9857C133.567 90.9857 134.198 90.873 134.784 90.6476C135.37 90.4221 135.905 90.0615 136.39 89.5656L137.184 90.3602C136.666 90.9349 136.029 91.3689 135.274 91.6619C134.519 91.9549 133.707 92.1014 132.84 92.1014ZM139.598 92V79.4561H140.798V92H139.598ZM149.7 92V90.039L149.649 89.7177V86.4381C149.649 85.6829 149.435 85.1025 149.007 84.6968C148.59 84.2911 147.964 84.0882 147.13 84.0882C146.555 84.0882 146.009 84.184 145.49 84.3756C144.972 84.5672 144.532 84.8208 144.172 85.1363L143.631 84.2403C144.081 83.8571 144.622 83.5641 145.253 83.3612C145.885 83.1471 146.55 83.04 147.248 83.04C148.398 83.04 149.283 83.3274 149.903 83.9022C150.534 84.4657 150.849 85.3279 150.849 86.4888V92H149.7ZM146.64 92.0845C145.975 92.0845 145.394 91.9775 144.898 91.7633C144.414 91.5379 144.042 91.2336 143.783 90.8504C143.523 90.456 143.394 90.0051 143.394 89.498C143.394 89.0359 143.501 88.6189 143.715 88.247C143.94 87.8638 144.301 87.5595 144.797 87.3341C145.304 87.0974 145.98 86.979 146.826 86.979H149.886V87.875H146.86C146.003 87.875 145.406 88.0272 145.068 88.3315C144.741 88.6358 144.577 89.0133 144.577 89.4642C144.577 89.9713 144.774 90.3771 145.169 90.6814C145.563 90.9857 146.116 91.1378 146.826 91.1378C147.502 91.1378 148.082 90.9857 148.567 90.6814C149.063 90.3658 149.424 89.915 149.649 89.3289L149.919 90.1573C149.694 90.7434 149.3 91.2111 148.736 91.5605C148.184 91.9098 147.485 92.0845 146.64 92.0845ZM156.493 92.0845C155.76 92.0845 155.067 91.9831 154.414 91.7802C153.76 91.5661 153.247 91.3012 152.875 90.9857L153.416 90.039C153.777 90.3094 154.239 90.5461 154.802 90.749C155.366 90.9406 155.958 91.0364 156.578 91.0364C157.423 91.0364 158.031 90.9068 158.403 90.6476C158.775 90.3771 158.961 90.022 158.961 89.5825C158.961 89.2557 158.854 89.0021 158.64 88.8218C158.437 88.6302 158.167 88.4893 157.829 88.3991C157.49 88.2977 157.113 88.2131 156.696 88.1455C156.279 88.0779 155.862 87.999 155.445 87.9088C155.039 87.8187 154.667 87.6891 154.329 87.52C153.991 87.3397 153.715 87.0974 153.501 86.7931C153.298 86.4888 153.196 86.083 153.196 85.5759C153.196 85.0913 153.332 84.6573 153.602 84.2741C153.873 83.891 154.267 83.5923 154.786 83.3782C155.315 83.1527 155.958 83.04 156.713 83.04C157.288 83.04 157.862 83.1189 158.437 83.2767C159.012 83.4232 159.485 83.6205 159.857 83.8684L159.333 84.832C158.939 84.5615 158.516 84.3699 158.065 84.2572C157.614 84.1333 157.164 84.0713 156.713 84.0713C155.913 84.0713 155.321 84.2122 154.938 84.4939C154.566 84.7644 154.38 85.1138 154.38 85.5421C154.38 85.8802 154.481 86.145 154.684 86.3366C154.898 86.5282 155.174 86.6804 155.513 86.7931C155.862 86.8945 156.239 86.979 156.645 87.0467C157.062 87.1143 157.474 87.1988 157.879 87.3002C158.296 87.3904 158.674 87.52 159.012 87.6891C159.361 87.8469 159.637 88.0779 159.84 88.3822C160.054 88.6752 160.162 89.0641 160.162 89.5487C160.162 90.0671 160.015 90.5179 159.722 90.9011C159.44 91.2731 159.023 91.5661 158.471 91.7802C157.93 91.9831 157.271 92.0845 156.493 92.0845ZM164.748 92.0845C164.015 92.0845 163.322 91.9831 162.668 91.7802C162.015 91.5661 161.502 91.3012 161.13 90.9857L161.671 90.039C162.032 90.3094 162.494 90.5461 163.057 90.749C163.621 90.9406 164.212 91.0364 164.832 91.0364C165.678 91.0364 166.286 90.9068 166.658 90.6476C167.03 90.3771 167.216 90.022 167.216 89.5825C167.216 89.2557 167.109 89.0021 166.895 88.8218C166.692 88.6302 166.421 88.4893 166.083 88.3991C165.745 88.2977 165.368 88.2131 164.951 88.1455C164.534 88.0779 164.117 87.999 163.7 87.9088C163.294 87.8187 162.922 87.6891 162.584 87.52C162.246 87.3397 161.97 87.0974 161.755 86.7931C161.553 86.4888 161.451 86.083 161.451 85.5759C161.451 85.0913 161.586 84.6573 161.857 84.2741C162.127 83.891 162.522 83.5923 163.04 83.3782C163.57 83.1527 164.212 83.04 164.968 83.04C165.542 83.04 166.117 83.1189 166.692 83.2767C167.267 83.4232 167.74 83.6205 168.112 83.8684L167.588 84.832C167.193 84.5615 166.771 84.3699 166.32 84.2572C165.869 84.1333 165.418 84.0713 164.968 84.0713C164.167 84.0713 163.576 84.2122 163.192 84.4939C162.821 84.7644 162.635 85.1138 162.635 85.5421C162.635 85.8802 162.736 86.145 162.939 86.3366C163.153 86.5282 163.429 86.6804 163.767 86.7931C164.117 86.8945 164.494 86.979 164.9 87.0467C165.317 87.1143 165.728 87.1988 166.134 87.3002C166.551 87.3904 166.929 87.52 167.267 87.6891C167.616 87.8469 167.892 88.0779 168.095 88.3822C168.309 88.6752 168.416 89.0641 168.416 89.5487C168.416 90.0671 168.27 90.5179 167.977 90.9011C167.695 91.2731 167.278 91.5661 166.726 91.7802C166.185 91.9831 165.525 92.0845 164.748 92.0845ZM170.619 92V83.1246H171.819V92H170.619ZM171.227 81.1635C170.979 81.1635 170.771 81.079 170.602 80.9099C170.433 80.7409 170.348 80.538 170.348 80.3013C170.348 80.0647 170.433 79.8674 170.602 79.7096C170.771 79.5406 170.979 79.4561 171.227 79.4561C171.475 79.4561 171.684 79.5349 171.853 79.6927C172.022 79.8505 172.106 80.0478 172.106 80.2844C172.106 80.5324 172.022 80.7409 171.853 80.9099C171.695 81.079 171.487 81.1635 171.227 81.1635ZM178.844 92.0845C177.965 92.0845 177.176 91.8929 176.477 91.5097C175.79 91.1153 175.249 90.5799 174.855 89.9037C174.46 89.2162 174.263 88.4329 174.263 87.5538C174.263 86.6635 174.46 85.8802 174.855 85.204C175.249 84.5277 175.79 83.998 176.477 83.6148C177.176 83.2316 177.965 83.04 178.844 83.04C179.599 83.04 180.281 83.1866 180.89 83.4796C181.498 83.7726 181.977 84.2122 182.327 84.7982L181.431 85.4068C181.126 84.956 180.749 84.6235 180.298 84.4094C179.847 84.1953 179.357 84.0882 178.827 84.0882C178.196 84.0882 177.627 84.2347 177.12 84.5277C176.613 84.8095 176.213 85.2096 175.92 85.728C175.627 86.2465 175.48 86.8551 175.48 87.5538C175.48 88.2526 175.627 88.8612 175.92 89.3796C176.213 89.8981 176.613 90.3038 177.12 90.5968C177.627 90.8786 178.196 91.0195 178.827 91.0195C179.357 91.0195 179.847 90.9124 180.298 90.6983C180.749 90.4841 181.126 90.1573 181.431 89.7177L182.327 90.3263C181.977 90.9011 181.498 91.3407 180.89 91.645C180.281 91.938 179.599 92.0845 178.844 92.0845Z" fill="white"/>
</g>
<g opacity="0.7" clip-path="url(#clip0_35_2)">
<path d="M299 45C287.421 45 278 54.4206 278 66C278 77.5794 287.421 87 299 87C310.579 87 320 77.5794 320 66C320 54.4206 310.579 45 299 45ZM306.713 67.3497L296.532 77.5318C296.159 77.9045 295.67 78.0909 295.182 78.0909C294.693 78.0909 294.205 77.9046 293.832 77.5317C293.086 76.7862 293.086 75.5774 293.832 74.8318L302.664 65.9996L293.832 57.1679C293.086 56.4225 293.086 55.2136 293.832 54.4681C294.577 53.7225 295.786 53.7225 296.532 54.4681L306.714 64.6496C307.072 65.0077 307.273 65.4932 307.273 65.9995C307.273 66.506 307.072 66.9917 306.713 67.3497Z" fill="white"/>
</g>
<defs>
<filter id="filter0_d_35_2" x="15.9272" y="79.4561" width="170.4" height="23.9082" filterUnits="userSpaceOnUse" color-interpolation-filters="sRGB">
<feFlood flood-opacity="0" result="BackgroundImageFix"/>
<feColorMatrix in="SourceAlpha" type="matrix" values="0 0 0 0 0 0 0 0 0 0 0 0 0 0 0 0 0 0 127 0" result="hardAlpha"/>
<feOffset dy="4"/>
<feGaussianBlur stdDeviation="2"/>
<feComposite in2="hardAlpha" operator="out"/>
<feColorMatrix type="matrix" values="0 0 0 0 0 0 0 0 0 0 0 0 0 0 0 0 0 0 0.25 0"/>
<feBlend mode="normal" in2="BackgroundImageFix" result="effect1_dropShadow_35_2"/>
<feBlend mode="normal" in="SourceGraphic" in2="effect1_dropShadow_35_2" result="shape"/>
</filter>
<linearGradient id="paint0_linear_35_2" x1="182.924" y1="0" x2="182.924" y2="132" gradientUnits="userSpaceOnUse">
<stop stop-color="#7CB8FF" stop-opacity="0.46"/>
<stop offset="1" stop-color="#F8FBFF" stop-opacity="0.45"/>
</linearGradient>
<clipPath id="clip0_35_2">
<rect width="42" height="42" fill="white" transform="translate(278 45)"/>
</clipPath>
</defs>
</svg>
