<svg width="374" height="140" viewBox="0 0 374 140" fill="none" xmlns="http://www.w3.org/2000/svg">
<g filter="url(#filter0_d_15_2)">
<path d="M4 121V11C4 4.92487 8.92486 0 15 0H358.848C364.923 0 369.848 4.92487 369.848 11V121C369.848 127.075 364.923 132 358.848 132H15C8.92487 132 4 127.075 4 121Z" fill="url(#paint0_linear_15_2)" fill-opacity="0.42" shape-rendering="crispEdges"/>
</g>
<g filter="url(#filter1_d_15_2)">
<path d="M24.6857 59V39H27.7429L40.2857 54.4H38.7714V39H42.4571V59H39.4L26.8571 43.6H28.3714V59H24.6857ZM47.4734 59V43.7429H51.0449V59H47.4734ZM49.2734 41.2286C48.6068 41.2286 48.0544 41.019 47.6163 40.6C47.1972 40.181 46.9877 39.6762 46.9877 39.0857C46.9877 38.4762 47.1972 37.9714 47.6163 37.5714C48.0544 37.1524 48.6068 36.9429 49.2734 36.9429C49.9401 36.9429 50.483 37.1429 50.902 37.5429C51.3401 37.9238 51.5592 38.4095 51.5592 39C51.5592 39.6286 51.3496 40.1619 50.9306 40.6C50.5115 41.019 49.9592 41.2286 49.2734 41.2286ZM62.6467 64.7429C61.2371 64.7429 59.8562 64.5524 58.5038 64.1714C57.1705 63.8095 56.0752 63.2762 55.2181 62.5714L56.8181 59.8857C57.4847 60.4381 58.3228 60.8762 59.3324 61.2C60.3609 61.5429 61.399 61.7143 62.4467 61.7143C64.1228 61.7143 65.3514 61.3238 66.1324 60.5429C66.9133 59.781 67.3038 58.6286 67.3038 57.0857V54.3714L67.5895 50.9143L67.4752 47.4571V43.7429H70.8752V56.6857C70.8752 59.4476 70.1705 61.4762 68.7609 62.7714C67.3514 64.0857 65.3133 64.7429 62.6467 64.7429ZM62.1895 58.3143C60.7419 58.3143 59.4276 58.0095 58.2467 57.4C57.0847 56.7714 56.1609 55.9048 55.4752 54.8C54.8086 53.6952 54.4752 52.4 54.4752 50.9143C54.4752 49.4476 54.8086 48.1619 55.4752 47.0571C56.1609 45.9524 57.0847 45.0952 58.2467 44.4857C59.4276 43.8762 60.7419 43.5714 62.1895 43.5714C63.4847 43.5714 64.6467 43.8286 65.6752 44.3429C66.7038 44.8571 67.5228 45.6571 68.1324 46.7429C68.7609 47.8286 69.0752 49.219 69.0752 50.9143C69.0752 52.6095 68.7609 54.0095 68.1324 55.1143C67.5228 56.2 66.7038 57.0095 65.6752 57.5429C64.6467 58.0571 63.4847 58.3143 62.1895 58.3143ZM62.7324 55.2857C63.6276 55.2857 64.4276 55.1048 65.1324 54.7429C65.8371 54.3619 66.38 53.8476 66.7609 53.2C67.1609 52.5333 67.3609 51.7714 67.3609 50.9143C67.3609 50.0571 67.1609 49.3048 66.7609 48.6571C66.38 47.9905 65.8371 47.4857 65.1324 47.1429C64.4276 46.781 63.6276 46.6 62.7324 46.6C61.8371 46.6 61.0276 46.781 60.3038 47.1429C59.599 47.4857 59.0467 47.9905 58.6467 48.6571C58.2657 49.3048 58.0752 50.0571 58.0752 50.9143C58.0752 51.7714 58.2657 52.5333 58.6467 53.2C59.0467 53.8476 59.599 54.3619 60.3038 54.7429C61.0276 55.1048 61.8371 55.2857 62.7324 55.2857ZM84.2277 43.5714C85.4467 43.5714 86.5324 43.8095 87.4848 44.2857C88.4562 44.7619 89.2182 45.4952 89.7705 46.4857C90.3229 47.4571 90.5991 48.7143 90.5991 50.2571V59H87.0277V50.7143C87.0277 49.3619 86.7039 48.3524 86.0562 47.6857C85.4277 47.019 84.542 46.6857 83.3991 46.6857C82.561 46.6857 81.8182 46.8571 81.1705 47.2C80.5229 47.5429 80.0182 48.0571 79.6562 48.7429C79.3134 49.4095 79.142 50.2571 79.142 51.2857V59H75.5705V37.8H79.142V47.8571L78.3705 46.6C78.9039 45.6286 79.6753 44.8857 80.6848 44.3714C81.7134 43.8381 82.8943 43.5714 84.2277 43.5714ZM100.873 59.2C99.1964 59.2 97.9011 58.7714 96.9868 57.9143C96.0725 57.0381 95.6154 55.7524 95.6154 54.0571V40.3714H99.1868V53.9714C99.1868 54.6952 99.3678 55.2571 99.7297 55.6571C100.111 56.0571 100.634 56.2571 101.301 56.2571C102.101 56.2571 102.768 56.0476 103.301 55.6286L104.301 58.1714C103.882 58.5143 103.368 58.7714 102.758 58.9429C102.149 59.1143 101.52 59.2 100.873 59.2ZM93.1011 46.7143V43.8571H103.273V46.7143H93.1011ZM107.239 59V37.8H110.81V59H107.239ZM116.755 64.7429C116.012 64.7429 115.269 64.619 114.527 64.3714C113.784 64.1238 113.165 63.781 112.669 63.3429L114.098 60.7143C114.46 61.0381 114.869 61.2952 115.327 61.4857C115.784 61.6762 116.25 61.7714 116.727 61.7714C117.374 61.7714 117.898 61.6095 118.298 61.2857C118.698 60.9619 119.069 60.419 119.412 59.6571L120.298 57.6571L120.584 57.2286L126.355 43.7429H129.784L122.641 60.2286C122.165 61.3714 121.631 62.2762 121.041 62.9429C120.469 63.6095 119.822 64.0762 119.098 64.3429C118.393 64.6095 117.612 64.7429 116.755 64.7429ZM119.898 59.5429L113.012 43.7429H116.727L122.327 56.9143L119.898 59.5429ZM144.626 59.2C143.35 59.2 142.122 59.0381 140.941 58.7143C139.779 58.3714 138.855 57.9619 138.169 57.4857L139.541 54.7714C140.226 55.2095 141.045 55.5714 141.998 55.8571C142.95 56.1429 143.903 56.2857 144.855 56.2857C145.979 56.2857 146.788 56.1333 147.283 55.8286C147.798 55.5238 148.055 55.1143 148.055 54.6C148.055 54.181 147.883 53.8667 147.541 53.6571C147.198 53.4286 146.75 53.2571 146.198 53.1429C145.645 53.0286 145.026 52.9238 144.341 52.8286C143.674 52.7333 142.998 52.6095 142.312 52.4571C141.645 52.2857 141.036 52.0476 140.483 51.7429C139.931 51.419 139.483 50.9905 139.141 50.4571C138.798 49.9238 138.626 49.219 138.626 48.3429C138.626 47.3714 138.903 46.5333 139.455 45.8286C140.007 45.1048 140.779 44.5524 141.769 44.1714C142.779 43.7714 143.969 43.5714 145.341 43.5714C146.369 43.5714 147.407 43.6857 148.455 43.9143C149.503 44.1429 150.369 44.4667 151.055 44.8857L149.683 47.6C148.96 47.1619 148.226 46.8667 147.483 46.7143C146.76 46.5429 146.036 46.4571 145.312 46.4571C144.226 46.4571 143.417 46.619 142.883 46.9429C142.369 47.2667 142.112 47.6762 142.112 48.1714C142.112 48.6286 142.283 48.9714 142.626 49.2C142.969 49.4286 143.417 49.6095 143.969 49.7429C144.522 49.8762 145.131 49.9905 145.798 50.0857C146.483 50.1619 147.16 50.2857 147.826 50.4571C148.493 50.6286 149.103 50.8667 149.655 51.1714C150.226 51.4571 150.683 51.8667 151.026 52.4C151.369 52.9333 151.541 53.6286 151.541 54.4857C151.541 55.4381 151.255 56.2667 150.683 56.9714C150.131 57.6762 149.341 58.2286 148.312 58.6286C147.283 59.0095 146.055 59.2 144.626 59.2ZM160.359 59.2C158.683 59.2 157.388 58.7714 156.473 57.9143C155.559 57.0381 155.102 55.7524 155.102 54.0571V40.3714H158.673V53.9714C158.673 54.6952 158.854 55.2571 159.216 55.6571C159.597 56.0571 160.121 56.2571 160.788 56.2571C161.588 56.2571 162.254 56.0476 162.788 55.6286L163.788 58.1714C163.369 58.5143 162.854 58.7714 162.245 58.9429C161.635 59.1143 161.007 59.2 160.359 59.2ZM152.588 46.7143V43.8571H162.759V46.7143H152.588ZM173.081 59.2C171.519 59.2 170.128 58.8667 168.909 58.2C167.69 57.5143 166.728 56.581 166.023 55.4C165.319 54.219 164.966 52.8762 164.966 51.3714C164.966 49.8476 165.319 48.5048 166.023 47.3429C166.728 46.1619 167.69 45.2381 168.909 44.5714C170.128 43.9048 171.519 43.5714 173.081 43.5714C174.662 43.5714 176.062 43.9048 177.281 44.5714C178.519 45.2381 179.481 46.1524 180.166 47.3143C180.871 48.4762 181.223 49.8286 181.223 51.3714C181.223 52.8762 180.871 54.219 180.166 55.4C179.481 56.581 178.519 57.5143 177.281 58.2C176.062 58.8667 174.662 59.2 173.081 59.2ZM173.081 56.1429C173.957 56.1429 174.738 55.9524 175.423 55.5714C176.109 55.1905 176.642 54.6381 177.023 53.9143C177.423 53.1905 177.623 52.3429 177.623 51.3714C177.623 50.381 177.423 49.5333 177.023 48.8286C176.642 48.1048 176.109 47.5524 175.423 47.1714C174.738 46.7905 173.966 46.6 173.109 46.6C172.233 46.6 171.452 46.7905 170.766 47.1714C170.1 47.5524 169.566 48.1048 169.166 48.8286C168.766 49.5333 168.566 50.381 168.566 51.3714C168.566 52.3429 168.766 53.1905 169.166 53.9143C169.566 54.6381 170.1 55.1905 170.766 55.5714C171.452 55.9524 172.223 56.1429 173.081 56.1429ZM184.639 59V43.7429H188.039V47.9429L187.639 46.7143C188.096 45.6857 188.81 44.9048 189.781 44.3714C190.772 43.8381 192.001 43.5714 193.467 43.5714V46.9714C193.315 46.9333 193.172 46.9143 193.039 46.9143C192.905 46.8952 192.772 46.8857 192.639 46.8857C191.286 46.8857 190.21 47.2857 189.41 48.0857C188.61 48.8667 188.21 50.0381 188.21 51.6V59H184.639ZM198.312 64.7429C197.569 64.7429 196.826 64.619 196.083 64.3714C195.341 64.1238 194.722 63.781 194.226 63.3429L195.655 60.7143C196.017 61.0381 196.426 61.2952 196.883 61.4857C197.341 61.6762 197.807 61.7714 198.283 61.7714C198.931 61.7714 199.455 61.6095 199.855 61.2857C200.255 60.9619 200.626 60.419 200.969 59.6571L201.855 57.6571L202.141 57.2286L207.912 43.7429H211.341L204.198 60.2286C203.722 61.3714 203.188 62.2762 202.598 62.9429C202.026 63.6095 201.379 64.0762 200.655 64.3429C199.95 64.6095 199.169 64.7429 198.312 64.7429ZM201.455 59.5429L194.569 43.7429H198.283L203.883 56.9143L201.455 59.5429Z" fill="white"/>
</g>
<g filter="url(#filter2_d_15_2)">
<path d="M23.9272 92V80.1661H24.9585L30.3683 89.3965H29.8273L35.1864 80.1661H36.2176V92H35.0173V82.0426H35.3047L30.3683 90.4954H29.7766L24.8063 82.0426H25.1275V92H23.9272ZM43.5898 92.0845C42.6656 92.0845 41.8541 91.8929 41.1553 91.5097C40.4566 91.1153 39.91 90.5799 39.5155 89.9037C39.121 89.2162 38.9238 88.4329 38.9238 87.5538C38.9238 86.6747 39.1098 85.8971 39.4817 85.2209C39.8649 84.5446 40.3833 84.0149 41.037 83.6317C41.702 83.2373 42.4458 83.04 43.2685 83.04C44.1026 83.04 44.8408 83.2316 45.4832 83.6148C46.1369 83.9868 46.6497 84.5165 47.0216 85.204C47.3935 85.8802 47.5795 86.6635 47.5795 87.5538C47.5795 87.6102 47.5738 87.6722 47.5626 87.7398C47.5626 87.7961 47.5626 87.8581 47.5626 87.9258H39.8367V87.0298H46.9202L46.4468 87.3848C46.4468 86.7424 46.3059 86.1732 46.0242 85.6773C45.7537 85.1701 45.3817 84.7757 44.9084 84.4939C44.435 84.2122 43.8884 84.0713 43.2685 84.0713C42.6599 84.0713 42.1133 84.2122 41.6287 84.4939C41.1441 84.7757 40.7665 85.1701 40.496 85.6773C40.2255 86.1845 40.0903 86.7649 40.0903 87.4186V87.6045C40.0903 88.2808 40.2368 88.8781 40.5298 89.3965C40.8341 89.9037 41.2511 90.3038 41.7809 90.5968C42.3218 90.8786 42.9361 91.0195 43.6236 91.0195C44.1645 91.0195 44.6661 90.9237 45.1282 90.7321C45.6015 90.5405 46.0073 90.2475 46.3454 89.853L47.0216 90.6306C46.6271 91.104 46.1312 91.4647 45.5339 91.7126C44.9478 91.9606 44.2998 92.0845 43.5898 92.0845ZM55.3369 92V90.039L55.2862 89.7177V86.4381C55.2862 85.6829 55.072 85.1025 54.6438 84.6968C54.2268 84.2911 53.6012 84.0882 52.7672 84.0882C52.1925 84.0882 51.6458 84.184 51.1274 84.3756C50.609 84.5672 50.1694 84.8208 49.8088 85.1363L49.2678 84.2403C49.7186 83.8571 50.2596 83.5641 50.8907 83.3612C51.5219 83.1471 52.1868 83.04 52.8856 83.04C54.0352 83.04 54.9199 83.3274 55.5398 83.9022C56.1709 84.4657 56.4865 85.3279 56.4865 86.4888V92H55.3369ZM52.277 92.0845C51.612 92.0845 51.0316 91.9775 50.5357 91.7633C50.0511 91.5379 49.6792 91.2336 49.4199 90.8504C49.1607 90.456 49.0311 90.0051 49.0311 89.498C49.0311 89.0359 49.1382 88.6189 49.3523 88.247C49.5777 87.8638 49.9384 87.5595 50.4343 87.3341C50.9414 87.0974 51.6177 86.979 52.4629 86.979H55.5229V87.875H52.4968C51.6402 87.875 51.0429 88.0272 50.7048 88.3315C50.3779 88.6358 50.2145 89.0133 50.2145 89.4642C50.2145 89.9713 50.4117 90.3771 50.8062 90.6814C51.2007 90.9857 51.7529 91.1378 52.4629 91.1378C53.1392 91.1378 53.7196 90.9857 54.2042 90.6814C54.7001 90.3658 55.0608 89.915 55.2862 89.3289L55.5567 90.1573C55.3313 90.7434 54.9368 91.2111 54.3733 91.5605C53.821 91.9098 53.1223 92.0845 52.277 92.0845ZM64.2773 83.04C64.9986 83.04 65.6297 83.1809 66.1707 83.4627C66.723 83.7332 67.1513 84.1502 67.4556 84.7137C67.7711 85.2772 67.9289 85.9872 67.9289 86.8438V92H66.7286V86.9621C66.7286 86.0267 66.4919 85.3223 66.0186 84.8489C65.5565 84.3643 64.9028 84.122 64.0575 84.122C63.4264 84.122 62.8741 84.2516 62.4008 84.5108C61.9387 84.7588 61.578 85.1251 61.3188 85.6097C61.0709 86.083 60.9469 86.6578 60.9469 87.3341V92H59.7466V83.1246H60.8962V85.559L60.7102 85.1025C60.992 84.4601 61.4428 83.9586 62.0627 83.5979C62.6825 83.226 63.4208 83.04 64.2773 83.04ZM74.7043 92.0845C73.8591 92.0845 73.0983 91.8929 72.4221 91.5097C71.7571 91.1265 71.2331 90.5968 70.8499 89.9206C70.4667 89.2331 70.2751 88.4442 70.2751 87.5538C70.2751 86.6522 70.4667 85.8633 70.8499 85.187C71.2331 84.5108 71.7571 83.9868 72.4221 83.6148C73.0983 83.2316 73.8591 83.04 74.7043 83.04C75.482 83.04 76.1751 83.2147 76.7837 83.5641C77.4036 83.9135 77.8939 84.4263 78.2545 85.1025C78.6264 85.7675 78.8124 86.5846 78.8124 87.5538C78.8124 88.5118 78.6321 89.3289 78.2714 90.0051C77.9108 90.6814 77.4205 91.1998 76.8006 91.5605C76.192 91.9098 75.4933 92.0845 74.7043 92.0845ZM74.7889 91.0195C75.42 91.0195 75.9835 90.8786 76.4794 90.5968C76.9866 90.3038 77.3811 89.8981 77.6628 89.3796C77.9559 88.8499 78.1024 88.2413 78.1024 87.5538C78.1024 86.8551 77.9559 86.2465 77.6628 85.728C77.3811 85.2096 76.9866 84.8095 76.4794 84.5277C75.9835 84.2347 75.42 84.0882 74.7889 84.0882C74.169 84.0882 73.6111 84.2347 73.1152 84.5277C72.6193 84.8095 72.2249 85.2096 71.9318 85.728C71.6388 86.2465 71.4923 86.8551 71.4923 87.5538C71.4923 88.2413 71.6388 88.8499 71.9318 89.3796C72.2249 89.8981 72.6193 90.3038 73.1152 90.5968C73.6111 90.8786 74.169 91.0195 74.7889 91.0195ZM78.1362 92V89.3289L78.2545 87.5369L78.0855 85.7449V79.4561H79.2858V92H78.1362ZM86.3985 92.0845C85.4744 92.0845 84.6629 91.8929 83.9641 91.5097C83.2654 91.1153 82.7187 90.5799 82.3243 89.9037C81.9298 89.2162 81.7326 88.4329 81.7326 87.5538C81.7326 86.6747 81.9185 85.8971 82.2905 85.2209C82.6737 84.5446 83.1921 84.0149 83.8458 83.6317C84.5107 83.2373 85.2546 83.04 86.0773 83.04C86.9113 83.04 87.6495 83.2316 88.2919 83.6148C88.9456 83.9868 89.4584 84.5165 89.8304 85.204C90.2023 85.8802 90.3882 86.6635 90.3882 87.5538C90.3882 87.6102 90.3826 87.6722 90.3713 87.7398C90.3713 87.7961 90.3713 87.8581 90.3713 87.9258H82.6455V87.0298H89.7289L89.2556 87.3848C89.2556 86.7424 89.1147 86.1732 88.8329 85.6773C88.5624 85.1701 88.1905 84.7757 87.7172 84.4939C87.2438 84.2122 86.6972 84.0713 86.0773 84.0713C85.4687 84.0713 84.9221 84.2122 84.4375 84.4939C83.9528 84.7757 83.5753 85.1701 83.3048 85.6773C83.0343 86.1845 82.8991 86.7649 82.8991 87.4186V87.6045C82.8991 88.2808 83.0456 88.8781 83.3386 89.3965C83.6429 89.9037 84.0599 90.3038 84.5896 90.5968C85.1306 90.8786 85.7448 91.0195 86.4323 91.0195C86.9733 91.0195 87.4748 90.9237 87.9369 90.7321C88.4103 90.5405 88.816 90.2475 89.1541 89.853L89.8304 90.6306C89.4359 91.104 88.94 91.4647 88.3427 91.7126C87.7566 91.9606 87.1086 92.0845 86.3985 92.0845ZM92.8314 92V83.1246H93.9809V85.5421L93.8626 85.1194C94.1105 84.4432 94.5276 83.9304 95.1136 83.581C95.6997 83.2204 96.4266 83.04 97.2944 83.04V84.2065C97.2494 84.2065 97.2043 84.2065 97.1592 84.2065C97.1141 84.1953 97.069 84.1896 97.0239 84.1896C96.0885 84.1896 95.3559 84.477 94.8262 85.0518C94.2965 85.6153 94.0317 86.4212 94.0317 87.4693V92H92.8314ZM99.4846 92V83.1246H100.685V92H99.4846ZM100.093 81.1635C99.8453 81.1635 99.6368 81.079 99.4677 80.9099C99.2987 80.7409 99.2141 80.538 99.2141 80.3013C99.2141 80.0647 99.2987 79.8674 99.4677 79.7096C99.6368 79.5406 99.8453 79.4561 100.093 79.4561C100.341 79.4561 100.55 79.5349 100.719 79.6927C100.888 79.8505 100.972 80.0478 100.972 80.2844C100.972 80.5324 100.888 80.7409 100.719 80.9099C100.561 81.079 100.352 81.1635 100.093 81.1635ZM108.555 83.04C109.277 83.04 109.908 83.1809 110.449 83.4627C111.001 83.7332 111.429 84.1502 111.734 84.7137C112.049 85.2772 112.207 85.9872 112.207 86.8438V92H111.007V86.9621C111.007 86.0267 110.77 85.3223 110.297 84.8489C109.835 84.3643 109.181 84.122 108.336 84.122C107.704 84.122 107.152 84.2516 106.679 84.5108C106.217 84.7588 105.856 85.1251 105.597 85.6097C105.349 86.083 105.225 86.6578 105.225 87.3341V92H104.025V83.1246H105.174V85.559L104.988 85.1025C105.27 84.4601 105.721 83.9586 106.341 83.5979C106.961 83.226 107.699 83.04 108.555 83.04ZM119.236 95.3642C118.425 95.3642 117.647 95.2459 116.903 95.0092C116.159 94.7725 115.556 94.4344 115.094 93.9949L115.703 93.082C116.12 93.4539 116.633 93.7469 117.241 93.961C117.861 94.1865 118.515 94.2992 119.202 94.2992C120.329 94.2992 121.158 94.0343 121.687 93.5046C122.217 92.9862 122.482 92.1747 122.482 91.0702V88.8556L122.651 87.3341L122.533 85.8126V83.1246H123.682V90.918C123.682 92.4508 123.305 93.5722 122.55 94.2823C121.806 95.0036 120.701 95.3642 119.236 95.3642ZM119.016 91.6619C118.171 91.6619 117.41 91.4816 116.734 91.1209C116.058 90.749 115.522 90.2362 115.128 89.5825C114.745 88.9288 114.553 88.1793 114.553 87.3341C114.553 86.4888 114.745 85.7449 115.128 85.1025C115.522 84.4488 116.058 83.9417 116.734 83.581C117.41 83.2204 118.171 83.04 119.016 83.04C119.805 83.04 120.515 83.2035 121.146 83.5303C121.778 83.8571 122.279 84.3418 122.651 84.9842C123.023 85.6266 123.209 86.4099 123.209 87.3341C123.209 88.2582 123.023 89.0415 122.651 89.6839C122.279 90.3263 121.778 90.8166 121.146 91.1547C120.515 91.4928 119.805 91.6619 119.016 91.6619ZM119.135 90.5968C119.788 90.5968 120.369 90.4616 120.876 90.1911C121.383 89.9093 121.783 89.5261 122.076 89.0415C122.369 88.5456 122.516 87.9765 122.516 87.3341C122.516 86.6916 122.369 86.1281 122.076 85.6435C121.783 85.1589 121.383 84.7813 120.876 84.5108C120.369 84.2291 119.788 84.0882 119.135 84.0882C118.492 84.0882 117.912 84.2291 117.393 84.5108C116.886 84.7813 116.486 85.1589 116.193 85.6435C115.911 86.1281 115.77 86.6916 115.77 87.3341C115.77 87.9765 115.911 88.5456 116.193 89.0415C116.486 89.5261 116.886 89.9093 117.393 90.1911C117.912 90.4616 118.492 90.5968 119.135 90.5968ZM135.132 92.0845C134.253 92.0845 133.464 91.8929 132.765 91.5097C132.078 91.1153 131.537 90.5799 131.142 89.9037C130.748 89.2162 130.551 88.4329 130.551 87.5538C130.551 86.6635 130.748 85.8802 131.142 85.204C131.537 84.5277 132.078 83.998 132.765 83.6148C133.464 83.2316 134.253 83.04 135.132 83.04C135.887 83.04 136.569 83.1866 137.178 83.4796C137.786 83.7726 138.265 84.2122 138.615 84.7982L137.719 85.4068C137.414 84.956 137.037 84.6235 136.586 84.4094C136.135 84.1953 135.645 84.0882 135.115 84.0882C134.484 84.0882 133.915 84.2347 133.408 84.5277C132.901 84.8095 132.501 85.2096 132.208 85.728C131.914 86.2465 131.768 86.8551 131.768 87.5538C131.768 88.2526 131.914 88.8612 132.208 89.3796C132.501 89.8981 132.901 90.3038 133.408 90.5968C133.915 90.8786 134.484 91.0195 135.115 91.0195C135.645 91.0195 136.135 90.9124 136.586 90.6983C137.037 90.4841 137.414 90.1573 137.719 89.7177L138.615 90.3263C138.265 90.9011 137.786 91.3407 137.178 91.645C136.569 91.938 135.887 92.0845 135.132 92.0845ZM140.841 92V79.4561H142.041V92H140.841ZM150.943 92V90.039L150.892 89.7177V86.4381C150.892 85.6829 150.678 85.1025 150.249 84.6968C149.832 84.2911 149.207 84.0882 148.373 84.0882C147.798 84.0882 147.252 84.184 146.733 84.3756C146.215 84.5672 145.775 84.8208 145.414 85.1363L144.873 84.2403C145.324 83.8571 145.865 83.5641 146.496 83.3612C147.128 83.1471 147.793 83.04 148.491 83.04C149.641 83.04 150.526 83.3274 151.145 83.9022C151.777 84.4657 152.092 85.3279 152.092 86.4888V92H150.943ZM147.883 92.0845C147.218 92.0845 146.637 91.9775 146.141 91.7633C145.657 91.5379 145.285 91.2336 145.026 90.8504C144.766 90.456 144.637 90.0051 144.637 89.498C144.637 89.0359 144.744 88.6189 144.958 88.247C145.183 87.8638 145.544 87.5595 146.04 87.3341C146.547 87.0974 147.223 86.979 148.069 86.979H151.129V87.875H148.102C147.246 87.875 146.649 88.0272 146.31 88.3315C145.984 88.6358 145.82 89.0133 145.82 89.4642C145.82 89.9713 146.017 90.3771 146.412 90.6814C146.806 90.9857 147.359 91.1378 148.069 91.1378C148.745 91.1378 149.325 90.9857 149.81 90.6814C150.306 90.3658 150.666 89.915 150.892 89.3289L151.162 90.1573C150.937 90.7434 150.542 91.2111 149.979 91.5605C149.427 91.9098 148.728 92.0845 147.883 92.0845ZM157.736 92.0845C157.003 92.0845 156.31 91.9831 155.657 91.7802C155.003 91.5661 154.49 91.3012 154.118 90.9857L154.659 90.039C155.02 90.3094 155.482 90.5461 156.045 90.749C156.609 90.9406 157.201 91.0364 157.821 91.0364C158.666 91.0364 159.274 90.9068 159.646 90.6476C160.018 90.3771 160.204 90.022 160.204 89.5825C160.204 89.2557 160.097 89.0021 159.883 88.8218C159.68 88.6302 159.41 88.4893 159.072 88.3991C158.733 88.2977 158.356 88.2131 157.939 88.1455C157.522 88.0779 157.105 87.999 156.688 87.9088C156.282 87.8187 155.91 87.6891 155.572 87.52C155.234 87.3397 154.958 87.0974 154.744 86.7931C154.541 86.4888 154.439 86.083 154.439 85.5759C154.439 85.0913 154.575 84.6573 154.845 84.2741C155.116 83.891 155.51 83.5923 156.029 83.3782C156.558 83.1527 157.201 83.04 157.956 83.04C158.531 83.04 159.105 83.1189 159.68 83.2767C160.255 83.4232 160.728 83.6205 161.1 83.8684L160.576 84.832C160.182 84.5615 159.759 84.3699 159.308 84.2572C158.857 84.1333 158.407 84.0713 157.956 84.0713C157.156 84.0713 156.564 84.2122 156.181 84.4939C155.809 84.7644 155.623 85.1138 155.623 85.5421C155.623 85.8802 155.724 86.145 155.927 86.3366C156.141 86.5282 156.417 86.6804 156.755 86.7931C157.105 86.8945 157.482 86.979 157.888 87.0467C158.305 87.1143 158.717 87.1988 159.122 87.3002C159.539 87.3904 159.917 87.52 160.255 87.6891C160.604 87.8469 160.88 88.0779 161.083 88.3822C161.297 88.6752 161.405 89.0641 161.405 89.5487C161.405 90.0671 161.258 90.5179 160.965 90.9011C160.683 91.2731 160.266 91.5661 159.714 91.7802C159.173 91.9831 158.514 92.0845 157.736 92.0845ZM165.991 92.0845C165.258 92.0845 164.565 91.9831 163.911 91.7802C163.258 91.5661 162.745 91.3012 162.373 90.9857L162.914 90.039C163.275 90.3094 163.737 90.5461 164.3 90.749C164.864 90.9406 165.455 91.0364 166.075 91.0364C166.92 91.0364 167.529 90.9068 167.901 90.6476C168.273 90.3771 168.459 90.022 168.459 89.5825C168.459 89.2557 168.352 89.0021 168.138 88.8218C167.935 88.6302 167.664 88.4893 167.326 88.3991C166.988 88.2977 166.611 88.2131 166.194 88.1455C165.777 88.0779 165.36 87.999 164.943 87.9088C164.537 87.8187 164.165 87.6891 163.827 87.52C163.489 87.3397 163.213 87.0974 162.998 86.7931C162.796 86.4888 162.694 86.083 162.694 85.5759C162.694 85.0913 162.829 84.6573 163.1 84.2741C163.37 83.891 163.765 83.5923 164.283 83.3782C164.813 83.1527 165.455 83.04 166.21 83.04C166.785 83.04 167.36 83.1189 167.935 83.2767C168.51 83.4232 168.983 83.6205 169.355 83.8684L168.831 84.832C168.436 84.5615 168.014 84.3699 167.563 84.2572C167.112 84.1333 166.661 84.0713 166.21 84.0713C165.41 84.0713 164.819 84.2122 164.435 84.4939C164.063 84.7644 163.877 85.1138 163.877 85.5421C163.877 85.8802 163.979 86.145 164.182 86.3366C164.396 86.5282 164.672 86.6804 165.01 86.7931C165.36 86.8945 165.737 86.979 166.143 87.0467C166.56 87.1143 166.971 87.1988 167.377 87.3002C167.794 87.3904 168.171 87.52 168.51 87.6891C168.859 87.8469 169.135 88.0779 169.338 88.3822C169.552 88.6752 169.659 89.0641 169.659 89.5487C169.659 90.0671 169.513 90.5179 169.22 90.9011C168.938 91.2731 168.521 91.5661 167.969 91.7802C167.428 91.9831 166.768 92.0845 165.991 92.0845ZM171.862 92V83.1246H173.062V92H171.862ZM172.47 81.1635C172.222 81.1635 172.014 81.079 171.845 80.9099C171.676 80.7409 171.591 80.538 171.591 80.3013C171.591 80.0647 171.676 79.8674 171.845 79.7096C172.014 79.5406 172.222 79.4561 172.47 79.4561C172.718 79.4561 172.927 79.5349 173.096 79.6927C173.265 79.8505 173.349 80.0478 173.349 80.2844C173.349 80.5324 173.265 80.7409 173.096 80.9099C172.938 81.079 172.729 81.1635 172.47 81.1635ZM180.087 92.0845C179.208 92.0845 178.419 91.8929 177.72 91.5097C177.033 91.1153 176.492 90.5799 176.097 89.9037C175.703 89.2162 175.506 88.4329 175.506 87.5538C175.506 86.6635 175.703 85.8802 176.097 85.204C176.492 84.5277 177.033 83.998 177.72 83.6148C178.419 83.2316 179.208 83.04 180.087 83.04C180.842 83.04 181.524 83.1866 182.133 83.4796C182.741 83.7726 183.22 84.2122 183.57 84.7982L182.674 85.4068C182.369 84.956 181.992 84.6235 181.541 84.4094C181.09 84.1953 180.6 84.0882 180.07 84.0882C179.439 84.0882 178.87 84.2347 178.363 84.5277C177.856 84.8095 177.456 85.2096 177.162 85.728C176.869 86.2465 176.723 86.8551 176.723 87.5538C176.723 88.2526 176.869 88.8612 177.162 89.3796C177.456 89.8981 177.856 90.3038 178.363 90.5968C178.87 90.8786 179.439 91.0195 180.07 91.0195C180.6 91.0195 181.09 90.9124 181.541 90.6983C181.992 90.4841 182.369 90.1573 182.674 89.7177L183.57 90.3263C183.22 90.9011 182.741 91.3407 182.133 91.645C181.524 91.938 180.842 92.0845 180.087 92.0845ZM188.311 92.0845C187.579 92.0845 186.886 91.9831 186.232 91.7802C185.578 91.5661 185.065 91.3012 184.694 90.9857L185.235 90.039C185.595 90.3094 186.057 90.5461 186.621 90.749C187.184 90.9406 187.776 91.0364 188.396 91.0364C189.241 91.0364 189.85 90.9068 190.222 90.6476C190.594 90.3771 190.78 90.022 190.78 89.5825C190.78 89.2557 190.672 89.0021 190.458 88.8218C190.255 88.6302 189.985 88.4893 189.647 88.3991C189.309 88.2977 188.931 88.2131 188.514 88.1455C188.097 88.0779 187.68 87.999 187.263 87.9088C186.857 87.8187 186.486 87.6891 186.147 87.52C185.809 87.3397 185.533 87.0974 185.319 86.7931C185.116 86.4888 185.015 86.083 185.015 85.5759C185.015 85.0913 185.15 84.6573 185.42 84.2741C185.691 83.891 186.085 83.5923 186.604 83.3782C187.134 83.1527 187.776 83.04 188.531 83.04C189.106 83.04 189.681 83.1189 190.255 83.2767C190.83 83.4232 191.304 83.6205 191.676 83.8684L191.151 84.832C190.757 84.5615 190.334 84.3699 189.884 84.2572C189.433 84.1333 188.982 84.0713 188.531 84.0713C187.731 84.0713 187.139 84.2122 186.756 84.4939C186.384 84.7644 186.198 85.1138 186.198 85.5421C186.198 85.8802 186.3 86.145 186.502 86.3366C186.717 86.5282 186.993 86.6804 187.331 86.7931C187.68 86.8945 188.058 86.979 188.463 87.0467C188.88 87.1143 189.292 87.1988 189.698 87.3002C190.115 87.3904 190.492 87.52 190.83 87.6891C191.18 87.8469 191.456 88.0779 191.659 88.3822C191.873 88.6752 191.98 89.0641 191.98 89.5487C191.98 90.0671 191.833 90.5179 191.54 90.9011C191.259 91.2731 190.842 91.5661 190.289 91.7802C189.748 91.9831 189.089 92.0845 188.311 92.0845Z" fill="white"/>
</g>
<g clip-path="url(#clip0_15_2)" filter="url(#filter3_d_15_2)">
<path d="M303 45.1667C291.5 45.1667 282.167 54.5 282.167 66C282.167 77.5 291.5 86.8333 303 86.8333C314.5 86.8333 323.833 77.5 323.833 66C323.833 54.5 314.5 45.1667 303 45.1667ZM297.792 75.375V56.625L312.375 66L297.792 75.375Z" fill="white"/>
</g>
<defs>
<filter id="filter0_d_15_2" x="0" y="0" width="373.848" height="140" filterUnits="userSpaceOnUse" color-interpolation-filters="sRGB">
<feFlood flood-opacity="0" result="BackgroundImageFix"/>
<feColorMatrix in="SourceAlpha" type="matrix" values="0 0 0 0 0 0 0 0 0 0 0 0 0 0 0 0 0 0 127 0" result="hardAlpha"/>
<feOffset dy="4"/>
<feGaussianBlur stdDeviation="2"/>
<feComposite in2="hardAlpha" operator="out"/>
<feColorMatrix type="matrix" values="0 0 0 0 0 0 0 0 0 0 0 0 0 0 0 0 0 0 0.25 0"/>
<feBlend mode="normal" in2="BackgroundImageFix" result="effect1_dropShadow_15_2"/>
<feBlend mode="normal" in="SourceGraphic" in2="effect1_dropShadow_15_2" result="shape"/>
</filter>
<filter id="filter1_d_15_2" x="20.6857" y="36.9429" width="194.655" height="35.8" filterUnits="userSpaceOnUse" color-interpolation-filters="sRGB">
<feFlood flood-opacity="0" result="BackgroundImageFix"/>
<feColorMatrix in="SourceAlpha" type="matrix" values="0 0 0 0 0 0 0 0 0 0 0 0 0 0 0 0 0 0 127 0" result="hardAlpha"/>
<feOffset dy="4"/>
<feGaussianBlur stdDeviation="2"/>
<feComposite in2="hardAlpha" operator="out"/>
<feColorMatrix type="matrix" values="0 0 0 0 0 0 0 0 0 0 0 0 0 0 0 0 0 0 0.25 0"/>
<feBlend mode="normal" in2="BackgroundImageFix" result="effect1_dropShadow_15_2"/>
<feBlend mode="normal" in="SourceGraphic" in2="effect1_dropShadow_15_2" result="shape"/>
</filter>
<filter id="filter2_d_15_2" x="19.9272" y="79.4561" width="176.053" height="23.9082" filterUnits="userSpaceOnUse" color-interpolation-filters="sRGB">
<feFlood flood-opacity="0" result="BackgroundImageFix"/>
<feColorMatrix in="SourceAlpha" type="matrix" values="0 0 0 0 0 0 0 0 0 0 0 0 0 0 0 0 0 0 127 0" result="hardAlpha"/>
<feOffset dy="4"/>
<feGaussianBlur stdDeviation="2"/>
<feComposite in2="hardAlpha" operator="out"/>
<feColorMatrix type="matrix" values="0 0 0 0 0 0 0 0 0 0 0 0 0 0 0 0 0 0 0.25 0"/>
<feBlend mode="normal" in2="BackgroundImageFix" result="effect1_dropShadow_15_2"/>
<feBlend mode="normal" in="SourceGraphic" in2="effect1_dropShadow_15_2" result="shape"/>
</filter>
<filter id="filter3_d_15_2" x="274" y="41" width="58" height="58" filterUnits="userSpaceOnUse" color-interpolation-filters="sRGB">
<feFlood flood-opacity="0" result="BackgroundImageFix"/>
<feColorMatrix in="SourceAlpha" type="matrix" values="0 0 0 0 0 0 0 0 0 0 0 0 0 0 0 0 0 0 127 0" result="hardAlpha"/>
<feOffset dy="4"/>
<feGaussianBlur stdDeviation="2"/>
<feComposite in2="hardAlpha" operator="out"/>
<feColorMatrix type="matrix" values="0 0 0 0 0 0 0 0 0 0 0 0 0 0 0 0 0 0 0.25 0"/>
<feBlend mode="normal" in2="BackgroundImageFix" result="effect1_dropShadow_15_2"/>
<feBlend mode="normal" in="SourceGraphic" in2="effect1_dropShadow_15_2" result="shape"/>
</filter>
<linearGradient id="paint0_linear_15_2" x1="186.924" y1="0" x2="186.924" y2="132" gradientUnits="userSpaceOnUse">
<stop stop-color="#7CB8FF" stop-opacity="0.46"/>
<stop offset="1" stop-color="#F8FBFF" stop-opacity="0.45"/>
</linearGradient>
<clipPath id="clip0_15_2">
<rect width="50" height="50" fill="white" transform="translate(278 41)"/>
</clipPath>
</defs>
</svg>
