<svg width="392" height="158" viewBox="0 0 392 158" fill="none" xmlns="http://www.w3.org/2000/svg">
<g filter="url(#filter0_d_35_2)">
<path d="M13 130V20C13 13.9249 17.9249 9 24 9H367.848C373.923 9 378.848 13.9249 378.848 20V130C378.848 136.075 373.923 141 367.848 141H24C17.9249 141 13 136.075 13 130Z" fill="url(#paint0_linear_35_2)" fill-opacity="0.42"/>
<path d="M8.5 20V130C8.5 138.56 15.4396 145.5 24 145.5H367.848C376.408 145.5 383.348 138.56 383.348 130V20C383.348 11.4396 376.408 4.5 367.848 4.5H24C15.4396 4.5 8.5 11.4396 8.5 20Z" stroke="#999999" stroke-opacity="0.23" stroke-width="9" stroke-linejoin="round"/>
<path d="M33.6857 68V48H43.0571C45.4571 48 47.2857 48.4762 48.5429 49.4286C49.8 50.3619 50.4286 51.619 50.4286 53.2C50.4286 54.2667 50.181 55.181 49.6857 55.9429C49.1905 56.6857 48.5238 57.2667 47.6857 57.6857C46.8667 58.0857 45.9714 58.2857 45 58.2857L45.5143 57.2571C46.6381 57.2571 47.6476 57.4667 48.5429 57.8857C49.4381 58.2857 50.1429 58.8762 50.6571 59.6571C51.1905 60.4381 51.4571 61.4095 51.4571 62.5714C51.4571 64.2857 50.8 65.619 49.4857 66.5714C48.1714 67.5238 46.219 68 43.6286 68H33.6857ZM37.4 65.0857H43.4C44.7905 65.0857 45.8571 64.8571 46.6 64.4C47.3429 63.9429 47.7143 63.2095 47.7143 62.2C47.7143 61.2095 47.3429 60.4857 46.6 60.0286C45.8571 59.5524 44.7905 59.3143 43.4 59.3143H37.1143V56.4286H42.6571C43.9524 56.4286 44.9429 56.2 45.6286 55.7429C46.3333 55.2857 46.6857 54.6 46.6857 53.6857C46.6857 52.7524 46.3333 52.0571 45.6286 51.6C44.9429 51.1429 43.9524 50.9143 42.6571 50.9143H37.4V65.0857ZM61.9355 68.2C60.3736 68.2 58.9831 67.8667 57.7641 67.2C56.545 66.5143 55.5831 65.581 54.8783 64.4C54.1736 63.219 53.8212 61.8762 53.8212 60.3714C53.8212 58.8476 54.1736 57.5048 54.8783 56.3429C55.5831 55.1619 56.545 54.2381 57.7641 53.5714C58.9831 52.9048 60.3736 52.5714 61.9355 52.5714C63.5164 52.5714 64.9164 52.9048 66.1355 53.5714C67.3736 54.2381 68.3355 55.1524 69.0212 56.3143C69.726 57.4762 70.0783 58.8286 70.0783 60.3714C70.0783 61.8762 69.726 63.219 69.0212 64.4C68.3355 65.581 67.3736 66.5143 66.1355 67.2C64.9164 67.8667 63.5164 68.2 61.9355 68.2ZM61.9355 65.1429C62.8117 65.1429 63.5926 64.9524 64.2783 64.5714C64.9641 64.1905 65.4974 63.6381 65.8783 62.9143C66.2783 62.1905 66.4783 61.3429 66.4783 60.3714C66.4783 59.381 66.2783 58.5333 65.8783 57.8286C65.4974 57.1048 64.9641 56.5524 64.2783 56.1714C63.5926 55.7905 62.8212 55.6 61.9641 55.6C61.0879 55.6 60.3069 55.7905 59.6212 56.1714C58.9545 56.5524 58.4212 57.1048 58.0212 57.8286C57.6212 58.5333 57.4212 59.381 57.4212 60.3714C57.4212 61.3429 57.6212 62.1905 58.0212 62.9143C58.4212 63.6381 58.9545 64.1905 59.6212 64.5714C60.3069 64.9524 61.0783 65.1429 61.9355 65.1429ZM73.4935 68V52.7429H76.8935V56.9429L76.4935 55.7143C76.9507 54.6857 77.665 53.9048 78.6364 53.3714C79.6269 52.8381 80.8554 52.5714 82.3221 52.5714V55.9714C82.1697 55.9333 82.0269 55.9143 81.8935 55.9143C81.7602 55.8952 81.6269 55.8857 81.4935 55.8857C80.1411 55.8857 79.065 56.2857 78.265 57.0857C77.465 57.8667 77.065 59.0381 77.065 60.6V68H73.4935ZM85.3518 68V52.7429H88.9232V68H85.3518ZM87.1518 50.2286C86.4851 50.2286 85.9327 50.019 85.4946 49.6C85.0756 49.181 84.8661 48.6762 84.8661 48.0857C84.8661 47.4762 85.0756 46.9714 85.4946 46.5714C85.9327 46.1524 86.4851 45.9429 87.1518 45.9429C87.8185 45.9429 88.3613 46.1429 88.7804 46.5429C89.2185 46.9238 89.4375 47.4095 89.4375 48C89.4375 48.6286 89.228 49.1619 88.8089 49.6C88.3899 50.019 87.8375 50.2286 87.1518 50.2286ZM102.268 52.5714C103.487 52.5714 104.573 52.8095 105.525 53.2857C106.496 53.7619 107.258 54.4952 107.811 55.4857C108.363 56.4571 108.639 57.7143 108.639 59.2571V68H105.068V59.7143C105.068 58.3619 104.744 57.3524 104.096 56.6857C103.468 56.019 102.582 55.6857 101.439 55.6857C100.601 55.6857 99.8583 55.8571 99.2107 56.2C98.5631 56.5429 98.0583 57.0571 97.6964 57.7429C97.3536 58.4095 97.1821 59.2571 97.1821 60.2857V68H93.6107V52.7429H97.0107V56.8571L96.4107 55.6C96.944 54.6286 97.7155 53.8857 98.725 53.3714C99.7536 52.8381 100.935 52.5714 102.268 52.5714ZM120.112 73.7429C118.703 73.7429 117.322 73.5524 115.969 73.1714C114.636 72.8095 113.541 72.2762 112.683 71.5714L114.283 68.8857C114.95 69.4381 115.788 69.8762 116.798 70.2C117.826 70.5429 118.864 70.7143 119.912 70.7143C121.588 70.7143 122.817 70.3238 123.598 69.5429C124.379 68.781 124.769 67.6286 124.769 66.0857V63.3714L125.055 59.9143L124.941 56.4571V52.7429H128.341V65.6857C128.341 68.4476 127.636 70.4762 126.226 71.7714C124.817 73.0857 122.779 73.7429 120.112 73.7429ZM119.655 67.3143C118.207 67.3143 116.893 67.0095 115.712 66.4C114.55 65.7714 113.626 64.9048 112.941 63.8C112.274 62.6952 111.941 61.4 111.941 59.9143C111.941 58.4476 112.274 57.1619 112.941 56.0571C113.626 54.9524 114.55 54.0952 115.712 53.4857C116.893 52.8762 118.207 52.5714 119.655 52.5714C120.95 52.5714 122.112 52.8286 123.141 53.3429C124.169 53.8571 124.988 54.6571 125.598 55.7429C126.226 56.8286 126.541 58.219 126.541 59.9143C126.541 61.6095 126.226 63.0095 125.598 64.1143C124.988 65.2 124.169 66.0095 123.141 66.5429C122.112 67.0571 120.95 67.3143 119.655 67.3143ZM120.198 64.2857C121.093 64.2857 121.893 64.1048 122.598 63.7429C123.303 63.3619 123.845 62.8476 124.226 62.2C124.626 61.5333 124.826 60.7714 124.826 59.9143C124.826 59.0571 124.626 58.3048 124.226 57.6571C123.845 56.9905 123.303 56.4857 122.598 56.1429C121.893 55.781 121.093 55.6 120.198 55.6C119.303 55.6 118.493 55.781 117.769 56.1429C117.064 56.4857 116.512 56.9905 116.112 57.6571C115.731 58.3048 115.541 59.0571 115.541 59.9143C115.541 60.7714 115.731 61.5333 116.112 62.2C116.512 62.8476 117.064 63.3619 117.769 63.7429C118.493 64.1048 119.303 64.2857 120.198 64.2857Z" fill="white"/>
<g filter="url(#filter1_d_35_2)">
<path d="M32.9272 101V89.1661H33.9585L39.3683 98.3965H38.8273L44.1864 89.1661H45.2176V101H44.0173V91.0426H44.3047L39.3683 99.4954H38.7766L33.8063 91.0426H34.1275V101H32.9272ZM52.5898 101.085C51.6656 101.085 50.8541 100.893 50.1553 100.51C49.4566 100.115 48.91 99.5799 48.5155 98.9037C48.121 98.2162 47.9238 97.4329 47.9238 96.5538C47.9238 95.6747 48.1098 94.8971 48.4817 94.2209C48.8649 93.5446 49.3833 93.0149 50.037 92.6317C50.702 92.2373 51.4458 92.04 52.2685 92.04C53.1026 92.04 53.8408 92.2316 54.4832 92.6148C55.1369 92.9868 55.6497 93.5165 56.0216 94.204C56.3935 94.8802 56.5795 95.6635 56.5795 96.5538C56.5795 96.6102 56.5738 96.6722 56.5626 96.7398C56.5626 96.7961 56.5626 96.8581 56.5626 96.9258H48.8367V96.0298H55.9202L55.4468 96.3848C55.4468 95.7424 55.3059 95.1732 55.0242 94.6773C54.7537 94.1701 54.3817 93.7757 53.9084 93.4939C53.435 93.2122 52.8884 93.0713 52.2685 93.0713C51.6599 93.0713 51.1133 93.2122 50.6287 93.4939C50.1441 93.7757 49.7665 94.1701 49.496 94.6773C49.2255 95.1845 49.0903 95.7649 49.0903 96.4186V96.6045C49.0903 97.2808 49.2368 97.8781 49.5298 98.3965C49.8341 98.9037 50.2511 99.3038 50.7809 99.5968C51.3218 99.8786 51.9361 100.019 52.6236 100.019C53.1645 100.019 53.6661 99.9237 54.1282 99.7321C54.6015 99.5405 55.0073 99.2475 55.3454 98.853L56.0216 99.6306C55.6271 100.104 55.1312 100.465 54.5339 100.713C53.9478 100.961 53.2998 101.085 52.5898 101.085ZM64.3369 101V99.039L64.2862 98.7177V95.4381C64.2862 94.6829 64.072 94.1025 63.6438 93.6968C63.2268 93.2911 62.6012 93.0882 61.7672 93.0882C61.1925 93.0882 60.6458 93.184 60.1274 93.3756C59.609 93.5672 59.1694 93.8208 58.8088 94.1363L58.2678 93.2403C58.7186 92.8571 59.2596 92.5641 59.8907 92.3612C60.5219 92.1471 61.1868 92.04 61.8856 92.04C63.0352 92.04 63.9199 92.3274 64.5398 92.9022C65.1709 93.4657 65.4865 94.3279 65.4865 95.4888V101H64.3369ZM61.277 101.085C60.612 101.085 60.0316 100.977 59.5357 100.763C59.0511 100.538 58.6792 100.234 58.4199 99.8504C58.1607 99.456 58.0311 99.0051 58.0311 98.498C58.0311 98.0359 58.1382 97.6189 58.3523 97.247C58.5777 96.8638 58.9384 96.5595 59.4343 96.3341C59.9414 96.0974 60.6177 95.979 61.4629 95.979H64.5229V96.875H61.4968C60.6402 96.875 60.0429 97.0272 59.7048 97.3315C59.3779 97.6358 59.2145 98.0133 59.2145 98.4642C59.2145 98.9713 59.4117 99.3771 59.8062 99.6814C60.2007 99.9857 60.7529 100.138 61.4629 100.138C62.1392 100.138 62.7196 99.9857 63.2042 99.6814C63.7001 99.3658 64.0608 98.915 64.2862 98.3289L64.5567 99.1573C64.3313 99.7434 63.9368 100.211 63.3733 100.56C62.821 100.91 62.1223 101.085 61.277 101.085ZM73.2773 92.04C73.9986 92.04 74.6297 92.1809 75.1707 92.4627C75.723 92.7332 76.1513 93.1502 76.4556 93.7137C76.7711 94.2772 76.9289 94.9872 76.9289 95.8438V101H75.7286V95.9621C75.7286 95.0267 75.4919 94.3223 75.0186 93.8489C74.5565 93.3643 73.9028 93.122 73.0575 93.122C72.4264 93.122 71.8741 93.2516 71.4008 93.5108C70.9387 93.7588 70.578 94.1251 70.3188 94.6097C70.0709 95.083 69.9469 95.6578 69.9469 96.3341V101H68.7466V92.1246H69.8962V94.559L69.7102 94.1025C69.992 93.4601 70.4428 92.9586 71.0627 92.5979C71.6825 92.226 72.4208 92.04 73.2773 92.04ZM83.7043 101.085C82.8591 101.085 82.0983 100.893 81.4221 100.51C80.7571 100.127 80.2331 99.5968 79.8499 98.9206C79.4667 98.2331 79.2751 97.4442 79.2751 96.5538C79.2751 95.6522 79.4667 94.8633 79.8499 94.187C80.2331 93.5108 80.7571 92.9868 81.4221 92.6148C82.0983 92.2316 82.8591 92.04 83.7043 92.04C84.482 92.04 85.1751 92.2147 85.7837 92.5641C86.4036 92.9135 86.8939 93.4263 87.2545 94.1025C87.6264 94.7675 87.8124 95.5846 87.8124 96.5538C87.8124 97.5118 87.6321 98.3289 87.2714 99.0051C86.9108 99.6814 86.4205 100.2 85.8006 100.56C85.192 100.91 84.4933 101.085 83.7043 101.085ZM83.7889 100.019C84.42 100.019 84.9835 99.8786 85.4794 99.5968C85.9866 99.3038 86.3811 98.8981 86.6628 98.3796C86.9559 97.8499 87.1024 97.2413 87.1024 96.5538C87.1024 95.8551 86.9559 95.2465 86.6628 94.728C86.3811 94.2096 85.9866 93.8095 85.4794 93.5277C84.9835 93.2347 84.42 93.0882 83.7889 93.0882C83.169 93.0882 82.6111 93.2347 82.1152 93.5277C81.6193 93.8095 81.2249 94.2096 80.9318 94.728C80.6388 95.2465 80.4923 95.8551 80.4923 96.5538C80.4923 97.2413 80.6388 97.8499 80.9318 98.3796C81.2249 98.8981 81.6193 99.3038 82.1152 99.5968C82.6111 99.8786 83.169 100.019 83.7889 100.019ZM87.1362 101V98.3289L87.2545 96.5369L87.0855 94.7449V88.4561H88.2858V101H87.1362ZM95.3985 101.085C94.4744 101.085 93.6629 100.893 92.9641 100.51C92.2654 100.115 91.7187 99.5799 91.3243 98.9037C90.9298 98.2162 90.7326 97.4329 90.7326 96.5538C90.7326 95.6747 90.9185 94.8971 91.2905 94.2209C91.6737 93.5446 92.1921 93.0149 92.8458 92.6317C93.5107 92.2373 94.2546 92.04 95.0773 92.04C95.9113 92.04 96.6495 92.2316 97.2919 92.6148C97.9456 92.9868 98.4584 93.5165 98.8304 94.204C99.2023 94.8802 99.3882 95.6635 99.3882 96.5538C99.3882 96.6102 99.3826 96.6722 99.3713 96.7398C99.3713 96.7961 99.3713 96.8581 99.3713 96.9258H91.6455V96.0298H98.7289L98.2556 96.3848C98.2556 95.7424 98.1147 95.1732 97.8329 94.6773C97.5624 94.1701 97.1905 93.7757 96.7172 93.4939C96.2438 93.2122 95.6972 93.0713 95.0773 93.0713C94.4687 93.0713 93.9221 93.2122 93.4375 93.4939C92.9528 93.7757 92.5753 94.1701 92.3048 94.6773C92.0343 95.1845 91.8991 95.7649 91.8991 96.4186V96.6045C91.8991 97.2808 92.0456 97.8781 92.3386 98.3965C92.6429 98.9037 93.0599 99.3038 93.5896 99.5968C94.1306 99.8786 94.7448 100.019 95.4323 100.019C95.9733 100.019 96.4748 99.9237 96.9369 99.7321C97.4103 99.5405 97.816 99.2475 98.1541 98.853L98.8304 99.6306C98.4359 100.104 97.94 100.465 97.3427 100.713C96.7566 100.961 96.1086 101.085 95.3985 101.085ZM101.831 101V92.1246H102.981V94.5421L102.863 94.1194C103.111 93.4432 103.528 92.9304 104.114 92.581C104.7 92.2204 105.427 92.04 106.294 92.04V93.2065C106.249 93.2065 106.204 93.2065 106.159 93.2065C106.114 93.1953 106.069 93.1896 106.024 93.1896C105.089 93.1896 104.356 93.477 103.826 94.0518C103.297 94.6153 103.032 95.4212 103.032 96.4693V101H101.831ZM108.485 101V92.1246H109.685V101H108.485ZM109.093 90.1635C108.845 90.1635 108.637 90.079 108.468 89.9099C108.299 89.7409 108.214 89.538 108.214 89.3013C108.214 89.0647 108.299 88.8674 108.468 88.7096C108.637 88.5406 108.845 88.4561 109.093 88.4561C109.341 88.4561 109.55 88.5349 109.719 88.6927C109.888 88.8505 109.972 89.0478 109.972 89.2844C109.972 89.5324 109.888 89.7409 109.719 89.9099C109.561 90.079 109.352 90.1635 109.093 90.1635ZM117.555 92.04C118.277 92.04 118.908 92.1809 119.449 92.4627C120.001 92.7332 120.429 93.1502 120.734 93.7137C121.049 94.2772 121.207 94.9872 121.207 95.8438V101H120.007V95.9621C120.007 95.0267 119.77 94.3223 119.297 93.8489C118.835 93.3643 118.181 93.122 117.336 93.122C116.704 93.122 116.152 93.2516 115.679 93.5108C115.217 93.7588 114.856 94.1251 114.597 94.6097C114.349 95.083 114.225 95.6578 114.225 96.3341V101H113.025V92.1246H114.174V94.559L113.988 94.1025C114.27 93.4601 114.721 92.9586 115.341 92.5979C115.961 92.226 116.699 92.04 117.555 92.04ZM128.236 104.364C127.425 104.364 126.647 104.246 125.903 104.009C125.159 103.773 124.556 103.434 124.094 102.995L124.703 102.082C125.12 102.454 125.633 102.747 126.241 102.961C126.861 103.186 127.515 103.299 128.202 103.299C129.329 103.299 130.158 103.034 130.687 102.505C131.217 101.986 131.482 101.175 131.482 100.07V97.8556L131.651 96.3341L131.533 94.8126V92.1246H132.682V99.918C132.682 101.451 132.305 102.572 131.55 103.282C130.806 104.004 129.701 104.364 128.236 104.364ZM128.016 100.662C127.171 100.662 126.41 100.482 125.734 100.121C125.058 99.749 124.522 99.2362 124.128 98.5825C123.745 97.9288 123.553 97.1793 123.553 96.3341C123.553 95.4888 123.745 94.7449 124.128 94.1025C124.522 93.4488 125.058 92.9417 125.734 92.581C126.41 92.2204 127.171 92.04 128.016 92.04C128.805 92.04 129.515 92.2035 130.146 92.5303C130.778 92.8571 131.279 93.3418 131.651 93.9842C132.023 94.6266 132.209 95.4099 132.209 96.3341C132.209 97.2582 132.023 98.0415 131.651 98.6839C131.279 99.3263 130.778 99.8166 130.146 100.155C129.515 100.493 128.805 100.662 128.016 100.662ZM128.135 99.5968C128.788 99.5968 129.369 99.4616 129.876 99.1911C130.383 98.9093 130.783 98.5261 131.076 98.0415C131.369 97.5456 131.516 96.9765 131.516 96.3341C131.516 95.6916 131.369 95.1281 131.076 94.6435C130.783 94.1589 130.383 93.7813 129.876 93.5108C129.369 93.2291 128.788 93.0882 128.135 93.0882C127.492 93.0882 126.912 93.2291 126.393 93.5108C125.886 93.7813 125.486 94.1589 125.193 94.6435C124.911 95.1281 124.77 95.6916 124.77 96.3341C124.77 96.9765 124.911 97.5456 125.193 98.0415C125.486 98.5261 125.886 98.9093 126.393 99.1911C126.912 99.4616 127.492 99.5968 128.135 99.5968ZM145.84 101.101C144.949 101.101 144.127 100.955 143.371 100.662C142.616 100.358 141.963 99.9349 141.41 99.394C140.858 98.853 140.424 98.2162 140.109 97.4836C139.804 96.7511 139.652 95.9509 139.652 95.083C139.652 94.2152 139.804 93.415 140.109 92.6825C140.424 91.9499 140.858 91.3131 141.41 90.7721C141.974 90.2311 142.633 89.8141 143.388 89.5211C144.143 89.2168 144.966 89.0647 145.857 89.0647C146.713 89.0647 147.519 89.2112 148.274 89.5042C149.029 89.786 149.666 90.2142 150.184 90.789L149.39 91.5836C148.905 91.0877 148.37 90.7327 147.784 90.5185C147.198 90.2931 146.567 90.1804 145.89 90.1804C145.18 90.1804 144.521 90.3044 143.912 90.5523C143.304 90.789 142.774 91.1328 142.323 91.5836C141.872 92.0231 141.517 92.5416 141.258 93.1389C141.01 93.725 140.886 94.373 140.886 95.083C140.886 95.7931 141.01 96.4468 141.258 97.0441C141.517 97.6302 141.872 98.1486 142.323 98.5994C142.774 99.039 143.304 99.3827 143.912 99.6306C144.521 99.8673 145.18 99.9857 145.89 99.9857C146.567 99.9857 147.198 99.873 147.784 99.6476C148.37 99.4221 148.905 99.0615 149.39 98.5656L150.184 99.3602C149.666 99.9349 149.029 100.369 148.274 100.662C147.519 100.955 146.707 101.101 145.84 101.101ZM152.598 101V88.4561H153.798V101H152.598ZM162.7 101V99.039L162.649 98.7177V95.4381C162.649 94.6829 162.435 94.1025 162.007 93.6968C161.59 93.2911 160.964 93.0882 160.13 93.0882C159.555 93.0882 159.009 93.184 158.49 93.3756C157.972 93.5672 157.532 93.8208 157.172 94.1363L156.631 93.2403C157.081 92.8571 157.622 92.5641 158.253 92.3612C158.885 92.1471 159.55 92.04 160.248 92.04C161.398 92.04 162.283 92.3274 162.903 92.9022C163.534 93.4657 163.849 94.3279 163.849 95.4888V101H162.7ZM159.64 101.085C158.975 101.085 158.394 100.977 157.898 100.763C157.414 100.538 157.042 100.234 156.783 99.8504C156.523 99.456 156.394 99.0051 156.394 98.498C156.394 98.0359 156.501 97.6189 156.715 97.247C156.94 96.8638 157.301 96.5595 157.797 96.3341C158.304 96.0974 158.98 95.979 159.826 95.979H162.886V96.875H159.86C159.003 96.875 158.406 97.0272 158.068 97.3315C157.741 97.6358 157.577 98.0133 157.577 98.4642C157.577 98.9713 157.774 99.3771 158.169 99.6814C158.563 99.9857 159.116 100.138 159.826 100.138C160.502 100.138 161.082 99.9857 161.567 99.6814C162.063 99.3658 162.424 98.915 162.649 98.3289L162.919 99.1573C162.694 99.7434 162.3 100.211 161.736 100.56C161.184 100.91 160.485 101.085 159.64 101.085ZM169.493 101.085C168.76 101.085 168.067 100.983 167.414 100.78C166.76 100.566 166.247 100.301 165.875 99.9857L166.416 99.039C166.777 99.3094 167.239 99.5461 167.802 99.749C168.366 99.9406 168.958 100.036 169.578 100.036C170.423 100.036 171.031 99.9068 171.403 99.6476C171.775 99.3771 171.961 99.022 171.961 98.5825C171.961 98.2557 171.854 98.0021 171.64 97.8218C171.437 97.6302 171.167 97.4893 170.829 97.3991C170.49 97.2977 170.113 97.2131 169.696 97.1455C169.279 97.0779 168.862 96.999 168.445 96.9088C168.039 96.8187 167.667 96.6891 167.329 96.52C166.991 96.3397 166.715 96.0974 166.501 95.7931C166.298 95.4888 166.196 95.083 166.196 94.5759C166.196 94.0913 166.332 93.6573 166.602 93.2741C166.873 92.891 167.267 92.5923 167.786 92.3782C168.315 92.1527 168.958 92.04 169.713 92.04C170.288 92.04 170.862 92.1189 171.437 92.2767C172.012 92.4232 172.485 92.6205 172.857 92.8684L172.333 93.832C171.939 93.5615 171.516 93.3699 171.065 93.2572C170.614 93.1333 170.164 93.0713 169.713 93.0713C168.913 93.0713 168.321 93.2122 167.938 93.4939C167.566 93.7644 167.38 94.1138 167.38 94.5421C167.38 94.8802 167.481 95.145 167.684 95.3366C167.898 95.5282 168.174 95.6804 168.513 95.7931C168.862 95.8945 169.239 95.979 169.645 96.0467C170.062 96.1143 170.474 96.1988 170.879 96.3002C171.296 96.3904 171.674 96.52 172.012 96.6891C172.361 96.8469 172.637 97.0779 172.84 97.3822C173.054 97.6752 173.162 98.0641 173.162 98.5487C173.162 99.0671 173.015 99.5179 172.722 99.9011C172.44 100.273 172.023 100.566 171.471 100.78C170.93 100.983 170.271 101.085 169.493 101.085ZM177.748 101.085C177.015 101.085 176.322 100.983 175.668 100.78C175.015 100.566 174.502 100.301 174.13 99.9857L174.671 99.039C175.032 99.3094 175.494 99.5461 176.057 99.749C176.621 99.9406 177.212 100.036 177.832 100.036C178.678 100.036 179.286 99.9068 179.658 99.6476C180.03 99.3771 180.216 99.022 180.216 98.5825C180.216 98.2557 180.109 98.0021 179.895 97.8218C179.692 97.6302 179.421 97.4893 179.083 97.3991C178.745 97.2977 178.368 97.2131 177.951 97.1455C177.534 97.0779 177.117 96.999 176.7 96.9088C176.294 96.8187 175.922 96.6891 175.584 96.52C175.246 96.3397 174.97 96.0974 174.755 95.7931C174.553 95.4888 174.451 95.083 174.451 94.5759C174.451 94.0913 174.586 93.6573 174.857 93.2741C175.127 92.891 175.522 92.5923 176.04 92.3782C176.57 92.1527 177.212 92.04 177.968 92.04C178.542 92.04 179.117 92.1189 179.692 92.2767C180.267 92.4232 180.74 92.6205 181.112 92.8684L180.588 93.832C180.193 93.5615 179.771 93.3699 179.32 93.2572C178.869 93.1333 178.418 93.0713 177.968 93.0713C177.167 93.0713 176.576 93.2122 176.192 93.4939C175.821 93.7644 175.635 94.1138 175.635 94.5421C175.635 94.8802 175.736 95.145 175.939 95.3366C176.153 95.5282 176.429 95.6804 176.767 95.7931C177.117 95.8945 177.494 95.979 177.9 96.0467C178.317 96.1143 178.728 96.1988 179.134 96.3002C179.551 96.3904 179.929 96.52 180.267 96.6891C180.616 96.8469 180.892 97.0779 181.095 97.3822C181.309 97.6752 181.416 98.0641 181.416 98.5487C181.416 99.0671 181.27 99.5179 180.977 99.9011C180.695 100.273 180.278 100.566 179.726 100.78C179.185 100.983 178.525 101.085 177.748 101.085ZM183.619 101V92.1246H184.819V101H183.619ZM184.227 90.1635C183.979 90.1635 183.771 90.079 183.602 89.9099C183.433 89.7409 183.348 89.538 183.348 89.3013C183.348 89.0647 183.433 88.8674 183.602 88.7096C183.771 88.5406 183.979 88.4561 184.227 88.4561C184.475 88.4561 184.684 88.5349 184.853 88.6927C185.022 88.8505 185.106 89.0478 185.106 89.2844C185.106 89.5324 185.022 89.7409 184.853 89.9099C184.695 90.079 184.487 90.1635 184.227 90.1635ZM191.844 101.085C190.965 101.085 190.176 100.893 189.477 100.51C188.79 100.115 188.249 99.5799 187.855 98.9037C187.46 98.2162 187.263 97.4329 187.263 96.5538C187.263 95.6635 187.46 94.8802 187.855 94.204C188.249 93.5277 188.79 92.998 189.477 92.6148C190.176 92.2316 190.965 92.04 191.844 92.04C192.599 92.04 193.281 92.1866 193.89 92.4796C194.498 92.7726 194.977 93.2122 195.327 93.7982L194.431 94.4068C194.126 93.956 193.749 93.6235 193.298 93.4094C192.847 93.1953 192.357 93.0882 191.827 93.0882C191.196 93.0882 190.627 93.2347 190.12 93.5277C189.613 93.8095 189.213 94.2096 188.92 94.728C188.627 95.2465 188.48 95.8551 188.48 96.5538C188.48 97.2526 188.627 97.8612 188.92 98.3796C189.213 98.8981 189.613 99.3038 190.12 99.5968C190.627 99.8786 191.196 100.019 191.827 100.019C192.357 100.019 192.847 99.9124 193.298 99.6983C193.749 99.4841 194.126 99.1573 194.431 98.7177L195.327 99.3263C194.977 99.9011 194.498 100.341 193.89 100.645C193.281 100.938 192.599 101.085 191.844 101.085Z" fill="white"/>
</g>
<g opacity="0.7" clip-path="url(#clip0_35_2)">
<path d="M312 54C300.421 54 291 63.4206 291 75C291 86.5794 300.421 96 312 96C323.579 96 333 86.5794 333 75C333 63.4206 323.579 54 312 54ZM319.713 76.3497L309.532 86.5318C309.159 86.9045 308.67 87.0909 308.182 87.0909C307.693 87.0909 307.205 86.9046 306.832 86.5317C306.086 85.7862 306.086 84.5774 306.832 83.8318L315.664 74.9996L306.832 66.1679C306.086 65.4225 306.086 64.2136 306.832 63.4681C307.577 62.7225 308.786 62.7225 309.532 63.4681L319.714 73.6496C320.072 74.0077 320.273 74.4932 320.273 74.9995C320.273 75.506 320.072 75.9917 319.713 76.3497Z" fill="white"/>
</g>
</g>
<defs>
<filter id="filter0_d_35_2" x="0" y="0" width="391.848" height="158" filterUnits="userSpaceOnUse" color-interpolation-filters="sRGB">
<feFlood flood-opacity="0" result="BackgroundImageFix"/>
<feColorMatrix in="SourceAlpha" type="matrix" values="0 0 0 0 0 0 0 0 0 0 0 0 0 0 0 0 0 0 127 0" result="hardAlpha"/>
<feOffset dy="4"/>
<feGaussianBlur stdDeviation="2"/>
<feComposite in2="hardAlpha" operator="out"/>
<feColorMatrix type="matrix" values="0 0 0 0 0 0 0 0 0 0 0 0 0 0 0 0 0 0 0.25 0"/>
<feBlend mode="normal" in2="BackgroundImageFix" result="effect1_dropShadow_35_2"/>
<feBlend mode="normal" in="SourceGraphic" in2="effect1_dropShadow_35_2" result="shape"/>
</filter>
<filter id="filter1_d_35_2" x="28.9272" y="88.4561" width="170.4" height="23.9082" filterUnits="userSpaceOnUse" color-interpolation-filters="sRGB">
<feFlood flood-opacity="0" result="BackgroundImageFix"/>
<feColorMatrix in="SourceAlpha" type="matrix" values="0 0 0 0 0 0 0 0 0 0 0 0 0 0 0 0 0 0 127 0" result="hardAlpha"/>
<feOffset dy="4"/>
<feGaussianBlur stdDeviation="2"/>
<feComposite in2="hardAlpha" operator="out"/>
<feColorMatrix type="matrix" values="0 0 0 0 0 0 0 0 0 0 0 0 0 0 0 0 0 0 0.25 0"/>
<feBlend mode="normal" in2="BackgroundImageFix" result="effect1_dropShadow_35_2"/>
<feBlend mode="normal" in="SourceGraphic" in2="effect1_dropShadow_35_2" result="shape"/>
</filter>
<linearGradient id="paint0_linear_35_2" x1="195.924" y1="9" x2="195.924" y2="141" gradientUnits="userSpaceOnUse">
<stop stop-color="#7CB8FF" stop-opacity="0.46"/>
<stop offset="1" stop-color="#F8FBFF" stop-opacity="0.45"/>
</linearGradient>
<clipPath id="clip0_35_2">
<rect width="42" height="42" fill="white" transform="translate(291 54)"/>
</clipPath>
</defs>
</svg>
