<svg width="320" height="133" viewBox="0 0 320 133" fill="none" xmlns="http://www.w3.org/2000/svg">
<g filter="url(#filter0_d_77_36)">
<path d="M13 104.077V20C13 13.9249 17.9249 9 24 9H296C302.075 9 307 13.9249 307 20V104.077C307 110.152 302.075 115.077 296 115.077H24C17.9249 115.077 13 110.152 13 104.077Z" fill="url(#paint0_linear_77_36)" fill-opacity="0.42"/>
<path d="M8.5 20V104.077C8.5 112.637 15.4396 119.577 24 119.577H296C304.56 119.577 311.5 112.637 311.5 104.077V20C311.5 11.4396 304.56 4.5 296 4.5H24C15.4396 4.5 8.5 11.4396 8.5 20Z" stroke="#999999" stroke-opacity="0.23" stroke-width="9" stroke-linejoin="round"/>
<path d="M30.6857 62.187V42.187H38.9143C40.6857 42.187 42.2 42.4727 43.4571 43.0442C44.7333 43.6156 45.7143 44.4346 46.4 45.5013C47.0857 46.568 47.4286 47.8346 47.4286 49.3013C47.4286 50.768 47.0857 52.0346 46.4 53.1013C45.7143 54.168 44.7333 54.987 43.4571 55.5584C42.2 56.1299 40.6857 56.4156 38.9143 56.4156H32.7429L34.4 54.6727V62.187H30.6857ZM34.4 55.0727L32.7429 53.2727H38.7429C40.381 53.2727 41.6095 52.9299 42.4286 52.2442C43.2667 51.5394 43.6857 50.5584 43.6857 49.3013C43.6857 48.0251 43.2667 47.0442 42.4286 46.3584C41.6095 45.6727 40.381 45.3299 38.7429 45.3299H32.7429L34.4 43.5013V55.0727ZM57.5962 62.387C56.0343 62.387 54.6438 62.0537 53.4248 61.387C52.2057 60.7013 51.2438 59.768 50.5391 58.587C49.8343 57.4061 49.4819 56.0632 49.4819 54.5584C49.4819 53.0346 49.8343 51.6918 50.5391 50.5299C51.2438 49.3489 52.2057 48.4251 53.4248 47.7584C54.6438 47.0918 56.0343 46.7584 57.5962 46.7584C59.1772 46.7584 60.5772 47.0918 61.7962 47.7584C63.0343 48.4251 63.9962 49.3394 64.6819 50.5013C65.3867 51.6632 65.7391 53.0156 65.7391 54.5584C65.7391 56.0632 65.3867 57.4061 64.6819 58.587C63.9962 59.768 63.0343 60.7013 61.7962 61.387C60.5772 62.0537 59.1772 62.387 57.5962 62.387ZM57.5962 59.3299C58.4724 59.3299 59.2533 59.1394 59.9391 58.7584C60.6248 58.3775 61.1581 57.8251 61.5391 57.1013C61.9391 56.3775 62.1391 55.5299 62.1391 54.5584C62.1391 53.568 61.9391 52.7203 61.5391 52.0156C61.1581 51.2918 60.6248 50.7394 59.9391 50.3584C59.2533 49.9775 58.4819 49.787 57.6248 49.787C56.7486 49.787 55.9676 49.9775 55.2819 50.3584C54.6153 50.7394 54.0819 51.2918 53.6819 52.0156C53.2819 52.7203 53.0819 53.568 53.0819 54.5584C53.0819 55.5299 53.2819 56.3775 53.6819 57.1013C54.0819 57.8251 54.6153 58.3775 55.2819 58.7584C55.9676 59.1394 56.7391 59.3299 57.5962 59.3299ZM69.1542 62.187V46.9299H72.5542V51.1299L72.1542 49.9013C72.6114 48.8727 73.3257 48.0918 74.2971 47.5584C75.2876 47.0251 76.5161 46.7584 77.9828 46.7584V50.1584C77.8304 50.1203 77.6876 50.1013 77.5542 50.1013C77.4209 50.0822 77.2876 50.0727 77.1542 50.0727C75.8019 50.0727 74.7257 50.4727 73.9257 51.2727C73.1257 52.0537 72.7257 53.2251 72.7257 54.787V62.187H69.1542ZM87.3134 62.387C85.6372 62.387 84.342 61.9584 83.4277 61.1013C82.5134 60.2251 82.0562 58.9394 82.0562 57.2442V43.5584H85.6277V57.1584C85.6277 57.8822 85.8086 58.4442 86.1705 58.8442C86.5515 59.2442 87.0753 59.4442 87.742 59.4442C88.542 59.4442 89.2086 59.2346 89.742 58.8156L90.742 61.3584C90.3229 61.7013 89.8086 61.9584 89.1991 62.1299C88.5896 62.3013 87.961 62.387 87.3134 62.387ZM79.542 49.9013V47.0442H89.7134V49.9013H79.542ZM105.319 51.387H115.29V54.5299H105.319V51.387ZM105.633 62.187H101.919V42.187H116.519V45.3013H105.633V62.187ZM126.207 62.387C124.645 62.387 123.254 62.0537 122.035 61.387C120.816 60.7013 119.854 59.768 119.15 58.587C118.445 57.4061 118.092 56.0632 118.092 54.5584C118.092 53.0346 118.445 51.6918 119.15 50.5299C119.854 49.3489 120.816 48.4251 122.035 47.7584C123.254 47.0918 124.645 46.7584 126.207 46.7584C127.788 46.7584 129.188 47.0918 130.407 47.7584C131.645 48.4251 132.607 49.3394 133.292 50.5013C133.997 51.6632 134.35 53.0156 134.35 54.5584C134.35 56.0632 133.997 57.4061 133.292 58.587C132.607 59.768 131.645 60.7013 130.407 61.387C129.188 62.0537 127.788 62.387 126.207 62.387ZM126.207 59.3299C127.083 59.3299 127.864 59.1394 128.55 58.7584C129.235 58.3775 129.769 57.8251 130.15 57.1013C130.55 56.3775 130.75 55.5299 130.75 54.5584C130.75 53.568 130.55 52.7203 130.15 52.0156C129.769 51.2918 129.235 50.7394 128.55 50.3584C127.864 49.9775 127.092 49.787 126.235 49.787C125.359 49.787 124.578 49.9775 123.892 50.3584C123.226 50.7394 122.692 51.2918 122.292 52.0156C121.892 52.7203 121.692 53.568 121.692 54.5584C121.692 55.5299 121.892 56.3775 122.292 57.1013C122.692 57.8251 123.226 58.3775 123.892 58.7584C124.578 59.1394 125.35 59.3299 126.207 59.3299ZM137.765 62.187V46.9299H141.165V51.1299L140.765 49.9013C141.222 48.8727 141.936 48.0918 142.908 47.5584C143.898 47.0251 145.127 46.7584 146.593 46.7584V50.1584C146.441 50.1203 146.298 50.1013 146.165 50.1013C146.031 50.0822 145.898 50.0727 145.765 50.0727C144.412 50.0727 143.336 50.4727 142.536 51.2727C141.736 52.0537 141.336 53.2251 141.336 54.787V62.187H137.765ZM156.655 62.387C154.96 62.387 153.474 62.0537 152.198 61.387C150.941 60.7013 149.96 59.768 149.255 58.587C148.569 57.4061 148.226 56.0632 148.226 54.5584C148.226 53.0346 148.56 51.6918 149.226 50.5299C149.912 49.3489 150.845 48.4251 152.026 47.7584C153.226 47.0918 154.588 46.7584 156.112 46.7584C157.598 46.7584 158.922 47.0822 160.083 47.7299C161.245 48.3775 162.16 49.2918 162.826 50.4727C163.493 51.6537 163.826 53.0442 163.826 54.6442C163.826 54.7965 163.817 54.968 163.798 55.1584C163.798 55.3489 163.788 55.5299 163.769 55.7013H151.055V53.3299H161.883L160.483 54.0727C160.503 53.1965 160.322 52.4251 159.941 51.7584C159.56 51.0918 159.036 50.568 158.369 50.187C157.722 49.8061 156.969 49.6156 156.112 49.6156C155.236 49.6156 154.464 49.8061 153.798 50.187C153.15 50.568 152.636 51.1013 152.255 51.787C151.893 52.4537 151.712 53.2442 151.712 54.1584V54.7299C151.712 55.6442 151.922 56.4537 152.341 57.1584C152.76 57.8632 153.35 58.4061 154.112 58.787C154.874 59.168 155.75 59.3584 156.741 59.3584C157.598 59.3584 158.369 59.2251 159.055 58.9584C159.741 58.6918 160.35 58.2727 160.883 57.7013L162.798 59.9013C162.112 60.7013 161.245 61.3203 160.198 61.7584C159.169 62.1775 157.988 62.387 156.655 62.387ZM174.257 62.387C172.657 62.387 171.228 62.0537 169.971 61.387C168.733 60.7013 167.762 59.768 167.057 58.587C166.352 57.4061 166 56.0632 166 54.5584C166 53.0346 166.352 51.6918 167.057 50.5299C167.762 49.3489 168.733 48.4251 169.971 47.7584C171.228 47.0918 172.657 46.7584 174.257 46.7584C175.743 46.7584 177.047 47.0632 178.171 47.6727C179.314 48.2632 180.181 49.1394 180.771 50.3013L178.028 51.9013C177.571 51.1775 177.009 50.6442 176.343 50.3013C175.695 49.9584 174.99 49.787 174.228 49.787C173.352 49.787 172.562 49.9775 171.857 50.3584C171.152 50.7394 170.6 51.2918 170.2 52.0156C169.8 52.7203 169.6 53.568 169.6 54.5584C169.6 55.5489 169.8 56.4061 170.2 57.1299C170.6 57.8346 171.152 58.3775 171.857 58.7584C172.562 59.1394 173.352 59.3299 174.228 59.3299C174.99 59.3299 175.695 59.1584 176.343 58.8156C177.009 58.4727 177.571 57.9394 178.028 57.2156L180.771 58.8156C180.181 59.9584 179.314 60.8442 178.171 61.4727C177.047 62.0822 175.743 62.387 174.257 62.387ZM193.258 62.187V59.1013L193.058 58.4442V53.0442C193.058 51.9965 192.744 51.187 192.116 50.6156C191.487 50.0251 190.535 49.7299 189.258 49.7299C188.401 49.7299 187.554 49.8632 186.716 50.1299C185.897 50.3965 185.201 50.768 184.63 51.2442L183.23 48.6442C184.049 48.0156 185.02 47.5489 186.144 47.2442C187.287 46.9203 188.468 46.7584 189.687 46.7584C191.897 46.7584 193.601 47.2918 194.801 48.3584C196.02 49.4061 196.63 51.0346 196.63 53.2442V62.187H193.258ZM188.458 62.387C187.316 62.387 186.316 62.1965 185.458 61.8156C184.601 61.4156 183.935 60.8727 183.458 60.187C183.001 59.4822 182.773 58.6918 182.773 57.8156C182.773 56.9584 182.973 56.187 183.373 55.5013C183.792 54.8156 184.468 54.2727 185.401 53.8727C186.335 53.4727 187.573 53.2727 189.116 53.2727H193.544V55.6442H189.373C188.154 55.6442 187.335 55.8442 186.916 56.2442C186.497 56.6251 186.287 57.1013 186.287 57.6727C186.287 58.3203 186.544 58.8346 187.058 59.2156C187.573 59.5965 188.287 59.787 189.201 59.787C190.078 59.787 190.858 59.587 191.544 59.187C192.249 58.787 192.754 58.1965 193.058 57.4156L193.658 59.5584C193.316 60.4537 192.697 61.1489 191.801 61.6442C190.925 62.1394 189.811 62.387 188.458 62.387ZM205.928 62.387C204.651 62.387 203.423 62.2251 202.242 61.9013C201.08 61.5584 200.156 61.1489 199.471 60.6727L200.842 57.9584C201.528 58.3965 202.347 58.7584 203.299 59.0442C204.251 59.3299 205.204 59.4727 206.156 59.4727C207.28 59.4727 208.09 59.3203 208.585 59.0156C209.099 58.7108 209.356 58.3013 209.356 57.787C209.356 57.368 209.185 57.0537 208.842 56.8442C208.499 56.6156 208.051 56.4442 207.499 56.3299C206.947 56.2156 206.328 56.1108 205.642 56.0156C204.975 55.9203 204.299 55.7965 203.613 55.6442C202.947 55.4727 202.337 55.2346 201.785 54.9299C201.232 54.6061 200.785 54.1775 200.442 53.6442C200.099 53.1108 199.928 52.4061 199.928 51.5299C199.928 50.5584 200.204 49.7203 200.756 49.0156C201.309 48.2918 202.08 47.7394 203.071 47.3584C204.08 46.9584 205.271 46.7584 206.642 46.7584C207.671 46.7584 208.709 46.8727 209.756 47.1013C210.804 47.3299 211.671 47.6537 212.356 48.0727L210.985 50.787C210.261 50.3489 209.528 50.0537 208.785 49.9013C208.061 49.7299 207.337 49.6442 206.613 49.6442C205.528 49.6442 204.718 49.8061 204.185 50.1299C203.671 50.4537 203.413 50.8632 203.413 51.3584C203.413 51.8156 203.585 52.1584 203.928 52.387C204.271 52.6156 204.718 52.7965 205.271 52.9299C205.823 53.0632 206.432 53.1775 207.099 53.2727C207.785 53.3489 208.461 53.4727 209.128 53.6442C209.794 53.8156 210.404 54.0537 210.956 54.3584C211.528 54.6442 211.985 55.0537 212.328 55.587C212.671 56.1203 212.842 56.8156 212.842 57.6727C212.842 58.6251 212.556 59.4537 211.985 60.1584C211.432 60.8632 210.642 61.4156 209.613 61.8156C208.585 62.1965 207.356 62.387 205.928 62.387ZM221.66 62.387C219.984 62.387 218.689 61.9584 217.775 61.1013C216.86 60.2251 216.403 58.9394 216.403 57.2442V43.5584H219.975V57.1584C219.975 57.8822 220.156 58.4442 220.518 58.8442C220.899 59.2442 221.422 59.4442 222.089 59.4442C222.889 59.4442 223.556 59.2346 224.089 58.8156L225.089 61.3584C224.67 61.7013 224.156 61.9584 223.546 62.1299C222.937 62.3013 222.308 62.387 221.66 62.387ZM213.889 49.9013V47.0442H224.06V49.9013H213.889Z" fill="white"/>
<g filter="url(#filter1_d_77_36)">
<path d="M29.5249 86.3373V74.5034H34.6304C35.949 74.5034 36.969 74.7683 37.6903 75.298C38.4229 75.8277 38.7892 76.5772 38.7892 77.5464C38.7892 78.1888 38.637 78.7298 38.3327 79.1694C38.0397 79.6089 37.6339 79.9414 37.1155 80.1668C36.6083 80.3922 36.0504 80.5049 35.4418 80.5049L35.7292 80.0992C36.4844 80.0992 37.1324 80.2175 37.6734 80.4542C38.2256 80.6796 38.6539 81.0233 38.9582 81.4854C39.2625 81.9362 39.4147 82.4998 39.4147 83.176C39.4147 84.179 39.0427 84.9567 38.2989 85.509C37.5663 86.0612 36.4562 86.3373 34.9685 86.3373H29.5249ZM30.7759 85.3061H34.9516C35.9885 85.3061 36.783 85.1314 37.3353 84.782C37.8875 84.4214 38.1636 83.8522 38.1636 83.0745C38.1636 82.3082 37.8875 81.7503 37.3353 81.4009C36.783 81.0402 35.9885 80.8599 34.9516 80.8599H30.6407V79.8287H34.5459C35.4926 79.8287 36.2251 79.6483 36.7436 79.2877C37.2733 78.927 37.5381 78.3917 37.5381 77.6817C37.5381 76.9604 37.2733 76.425 36.7436 76.0756C36.2251 75.715 35.4926 75.5347 34.5459 75.5347H30.7759V85.3061ZM42.0165 86.3373V77.4619H43.1661V79.8794L43.0478 79.4568C43.2957 78.7805 43.7127 78.2677 44.2988 77.9183C44.8848 77.5577 45.6118 77.3774 46.4796 77.3774V78.5439C46.4345 78.5439 46.3894 78.5439 46.3444 78.5439C46.2993 78.5326 46.2542 78.5269 46.2091 78.5269C45.2737 78.5269 44.5411 78.8143 44.0114 79.3891C43.4817 79.9526 43.2168 80.7585 43.2168 81.8066V86.3373H42.0165ZM48.6698 86.3373V77.4619H49.8701V86.3373H48.6698ZM49.2784 75.5008C49.0305 75.5008 48.822 75.4163 48.6529 75.2473C48.4838 75.0782 48.3993 74.8753 48.3993 74.6387C48.3993 74.402 48.4838 74.2048 48.6529 74.047C48.822 73.8779 49.0305 73.7934 49.2784 73.7934C49.5264 73.7934 49.7349 73.8723 49.9039 74.0301C50.073 74.1878 50.1575 74.3851 50.1575 74.6218C50.1575 74.8697 50.073 75.0782 49.9039 75.2473C49.7461 75.4163 49.5376 75.5008 49.2784 75.5008ZM56.0162 86.4219C55.1822 86.4219 54.5398 86.1964 54.089 85.7456C53.6382 85.2948 53.4127 84.658 53.4127 83.8353V75.5008H54.613V83.7677C54.613 84.2861 54.7427 84.6862 55.0019 84.968C55.2724 85.2497 55.6556 85.3906 56.1515 85.3906C56.6812 85.3906 57.1207 85.2385 57.4701 84.9342L57.8927 85.7963C57.6561 86.0105 57.3687 86.1683 57.0305 86.2697C56.7037 86.3711 56.3656 86.4219 56.0162 86.4219ZM51.8236 78.4593V77.4619H57.3179V78.4593H51.8236ZM60.0778 86.3373V77.4619H61.2781V86.3373H60.0778ZM60.6864 75.5008C60.4384 75.5008 60.2299 75.4163 60.0609 75.2473C59.8918 75.0782 59.8073 74.8753 59.8073 74.6387C59.8073 74.402 59.8918 74.2048 60.0609 74.047C60.2299 73.8779 60.4384 73.7934 60.6864 73.7934C60.9343 73.7934 61.1428 73.8723 61.3119 74.0301C61.4809 74.1878 61.5655 74.3851 61.5655 74.6218C61.5655 74.8697 61.4809 75.0782 61.3119 75.2473C61.1541 75.4163 60.9456 75.5008 60.6864 75.5008ZM67.0015 86.4219C66.269 86.4219 65.5758 86.3204 64.9221 86.1176C64.2685 85.9034 63.7557 85.6386 63.3837 85.323L63.9247 84.3763C64.2854 84.6468 64.7475 84.8834 65.311 85.0863C65.8745 85.2779 66.4662 85.3737 67.0861 85.3737C67.9313 85.3737 68.5399 85.2441 68.9119 84.9849C69.2838 84.7144 69.4698 84.3594 69.4698 83.9198C69.4698 83.593 69.3627 83.3394 69.1485 83.1591C68.9457 82.9675 68.6752 82.8266 68.3371 82.7364C67.999 82.635 67.6214 82.5505 67.2044 82.4829C66.7874 82.4152 66.3704 82.3363 65.9534 82.2462C65.5477 82.156 65.1757 82.0264 64.8376 81.8573C64.4995 81.677 64.2234 81.4347 64.0092 81.1304C63.8064 80.8261 63.7049 80.4204 63.7049 79.9132C63.7049 79.4286 63.8402 78.9947 64.1107 78.6115C64.3812 78.2283 64.7756 77.9296 65.2941 77.7155C65.8238 77.4901 66.4662 77.3774 67.2213 77.3774C67.7961 77.3774 68.3709 77.4563 68.9457 77.614C69.5205 77.7606 69.9938 77.9578 70.3657 78.2057L69.8417 79.1694C69.4472 78.8989 69.0246 78.7073 68.5738 78.5946C68.1229 78.4706 67.6721 78.4086 67.2213 78.4086C66.4211 78.4086 65.8294 78.5495 65.4462 78.8312C65.0743 79.1017 64.8883 79.4511 64.8883 79.8794C64.8883 80.2175 64.9898 80.4824 65.1926 80.674C65.4068 80.8656 65.6829 81.0177 66.021 81.1304C66.3704 81.2318 66.748 81.3164 67.1537 81.384C67.5707 81.4516 67.9821 81.5361 68.3878 81.6376C68.8048 81.7277 69.1824 81.8573 69.5205 82.0264C69.8698 82.1842 70.146 82.4152 70.3488 82.7195C70.563 83.0126 70.67 83.4014 70.67 83.886C70.67 84.4045 70.5235 84.8553 70.2305 85.2385C69.9487 85.6104 69.5317 85.9034 68.9795 86.1176C68.4385 86.3204 67.7792 86.4219 67.0015 86.4219ZM77.4032 77.3774C78.1245 77.3774 78.7557 77.5182 79.2967 77.8C79.8489 78.0705 80.2772 78.4875 80.5815 79.051C80.897 79.6145 81.0548 80.3246 81.0548 81.1811V86.3373H79.8545V81.2995C79.8545 80.364 79.6179 79.6596 79.1445 79.1863C78.6824 78.7016 78.0287 78.4593 77.1835 78.4593C76.5523 78.4593 76.0001 78.5889 75.5267 78.8482C75.0646 79.0961 74.704 79.4624 74.4447 79.947C74.1968 80.4204 74.0728 80.9952 74.0728 81.6714V86.3373H72.8725V73.7934H74.0728V79.8963L73.8361 79.4398C74.1179 78.7974 74.5687 78.2959 75.1886 77.9353C75.8085 77.5633 76.5467 77.3774 77.4032 77.3774ZM91.6631 86.3373L87.6734 74.5034H88.9582L92.6943 85.6442H92.0519L95.9064 74.5034H97.056L100.86 85.6442H100.251L104.021 74.5034H105.221L101.232 86.3373H99.913L96.2783 75.7713H96.6164L92.9648 86.3373H91.6631ZM110.355 86.4219C109.43 86.4219 108.619 86.2303 107.92 85.8471C107.221 85.4526 106.675 84.9173 106.28 84.241C105.886 83.5535 105.689 82.7702 105.689 81.8912C105.689 81.0121 105.875 80.2344 106.247 79.5582C106.63 78.882 107.148 78.3523 107.802 77.9691C108.467 77.5746 109.211 77.3774 110.033 77.3774C110.867 77.3774 111.606 77.569 112.248 77.9522C112.902 78.3241 113.414 78.8538 113.786 79.5413C114.158 80.2175 114.344 81.0008 114.344 81.8912C114.344 81.9475 114.339 82.0095 114.327 82.0771C114.327 82.1335 114.327 82.1955 114.327 82.2631H106.602V81.3671H113.685L113.212 81.7221C113.212 81.0797 113.071 80.5105 112.789 80.0146C112.519 79.5075 112.147 79.113 111.673 78.8312C111.2 78.5495 110.653 78.4086 110.033 78.4086C109.425 78.4086 108.878 78.5495 108.394 78.8312C107.909 79.113 107.531 79.5075 107.261 80.0146C106.99 80.5218 106.855 81.1022 106.855 81.7559V81.9419C106.855 82.6181 107.002 83.2154 107.295 83.7339C107.599 84.241 108.016 84.6411 108.546 84.9342C109.087 85.2159 109.701 85.3568 110.388 85.3568C110.929 85.3568 111.431 85.261 111.893 85.0694C112.366 84.8778 112.772 84.5848 113.11 84.1903L113.786 84.968C113.392 85.4413 112.896 85.802 112.299 86.0499C111.713 86.2979 111.065 86.4219 110.355 86.4219ZM122.102 86.3373V84.3763L122.051 84.0551V80.7754C122.051 80.0203 121.837 79.4398 121.409 79.0341C120.992 78.6284 120.366 78.4255 119.532 78.4255C118.957 78.4255 118.411 78.5213 117.892 78.7129C117.374 78.9045 116.934 79.1581 116.574 79.4737L116.033 78.5777C116.483 78.1945 117.024 77.9014 117.656 77.6986C118.287 77.4844 118.952 77.3774 119.65 77.3774C120.8 77.3774 121.685 77.6648 122.305 78.2396C122.936 78.8031 123.251 79.6653 123.251 80.8261V86.3373H122.102ZM119.042 86.4219C118.377 86.4219 117.796 86.3148 117.301 86.1006C116.816 85.8752 116.444 85.5709 116.185 85.1877C115.926 84.7933 115.796 84.3425 115.796 83.8353C115.796 83.3732 115.903 82.9562 116.117 82.5843C116.343 82.2011 116.703 81.8968 117.199 81.6714C117.706 81.4347 118.382 81.3164 119.228 81.3164H122.288V82.2124H119.262C118.405 82.2124 117.808 82.3645 117.47 82.6688C117.143 82.9731 116.979 83.3507 116.979 83.8015C116.979 84.3087 117.177 84.7144 117.571 85.0187C117.965 85.323 118.518 85.4751 119.228 85.4751C119.904 85.4751 120.484 85.323 120.969 85.0187C121.465 84.7031 121.826 84.2523 122.051 83.6662L122.321 84.4946C122.096 85.0807 121.702 85.5484 121.138 85.8978C120.586 86.2472 119.887 86.4219 119.042 86.4219ZM129.318 86.4219C128.484 86.4219 127.841 86.1964 127.391 85.7456C126.94 85.2948 126.714 84.658 126.714 83.8353V75.5008H127.915V83.7677C127.915 84.2861 128.044 84.6862 128.303 84.968C128.574 85.2497 128.957 85.3906 129.453 85.3906C129.983 85.3906 130.422 85.2385 130.772 84.9342L131.194 85.7963C130.958 86.0105 130.67 86.1683 130.332 86.2697C130.005 86.3711 129.667 86.4219 129.318 86.4219ZM125.125 78.4593V77.4619H130.619V78.4593H125.125ZM137.91 77.3774C138.631 77.3774 139.262 77.5182 139.803 77.8C140.356 78.0705 140.784 78.4875 141.088 79.051C141.404 79.6145 141.562 80.3246 141.562 81.1811V86.3373H140.361V81.2995C140.361 80.364 140.125 79.6596 139.651 79.1863C139.189 78.7016 138.536 78.4593 137.69 78.4593C137.059 78.4593 136.507 78.5889 136.034 78.8482C135.571 79.0961 135.211 79.4624 134.952 79.947C134.704 80.4204 134.58 80.9952 134.58 81.6714V86.3373H133.379V73.7934H134.58V79.8963L134.343 79.4398C134.625 78.7974 135.076 78.2959 135.695 77.9353C136.315 77.5633 137.053 77.3774 137.91 77.3774ZM148.574 86.4219C147.65 86.4219 146.838 86.2303 146.139 85.8471C145.441 85.4526 144.894 84.9173 144.5 84.241C144.105 83.5535 143.908 82.7702 143.908 81.8912C143.908 81.0121 144.094 80.2344 144.466 79.5582C144.849 78.882 145.367 78.3523 146.021 77.9691C146.686 77.5746 147.43 77.3774 148.253 77.3774C149.087 77.3774 149.825 77.569 150.467 77.9522C151.121 78.3241 151.634 78.8538 152.006 79.5413C152.378 80.2175 152.563 81.0008 152.563 81.8912C152.563 81.9475 152.558 82.0095 152.547 82.0771C152.547 82.1335 152.547 82.1955 152.547 82.2631H144.821V81.3671H151.904L151.431 81.7221C151.431 81.0797 151.29 80.5105 151.008 80.0146C150.738 79.5075 150.366 79.113 149.892 78.8312C149.419 78.5495 148.872 78.4086 148.253 78.4086C147.644 78.4086 147.097 78.5495 146.613 78.8312C146.128 79.113 145.751 79.5075 145.48 80.0146C145.21 80.5218 145.074 81.1022 145.074 81.7559V81.9419C145.074 82.6181 145.221 83.2154 145.514 83.7339C145.818 84.241 146.235 84.6411 146.765 84.9342C147.306 85.2159 147.92 85.3568 148.608 85.3568C149.149 85.3568 149.65 85.261 150.112 85.0694C150.586 84.8778 150.991 84.5848 151.329 84.1903L152.006 84.968C151.611 85.4413 151.115 85.802 150.518 86.0499C149.932 86.2979 149.284 86.4219 148.574 86.4219ZM155.007 86.3373V77.4619H156.156V79.8794L156.038 79.4568C156.286 78.7805 156.703 78.2677 157.289 77.9183C157.875 77.5577 158.602 77.3774 159.47 77.3774V78.5439C159.425 78.5439 159.38 78.5439 159.334 78.5439C159.289 78.5326 159.244 78.5269 159.199 78.5269C158.264 78.5269 157.531 78.8143 157.001 79.3891C156.472 79.9526 156.207 80.7585 156.207 81.8066V86.3373H155.007Z" fill="white"/>
</g>
<g opacity="0.7" clip-path="url(#clip0_77_36)">
<path d="M253.28 45.1626C243.975 45.1626 236.405 52.7331 236.405 62.0385C236.405 71.3438 243.975 78.9143 253.28 78.9143C262.586 78.9143 270.156 71.3438 270.156 62.0385C270.156 52.7331 262.586 45.1626 253.28 45.1626ZM259.479 63.1231L251.297 71.3056C250.997 71.605 250.605 71.7549 250.212 71.7549C249.819 71.7549 249.427 71.6051 249.127 71.3055C248.528 70.7064 248.528 69.735 249.127 69.1359L256.225 62.0382L249.127 54.9409C248.528 54.3418 248.528 53.3704 249.127 52.7713C249.726 52.1721 250.698 52.1721 251.297 52.7713L259.479 60.9533C259.767 61.241 259.929 61.6312 259.929 62.0381C259.928 62.4451 259.767 62.8354 259.479 63.1231Z" fill="white"/>
</g>
</g>
<defs>
<filter id="filter0_d_77_36" x="0" y="0" width="320" height="132.077" filterUnits="userSpaceOnUse" color-interpolation-filters="sRGB">
<feFlood flood-opacity="0" result="BackgroundImageFix"/>
<feColorMatrix in="SourceAlpha" type="matrix" values="0 0 0 0 0 0 0 0 0 0 0 0 0 0 0 0 0 0 127 0" result="hardAlpha"/>
<feOffset dy="4"/>
<feGaussianBlur stdDeviation="2"/>
<feComposite in2="hardAlpha" operator="out"/>
<feColorMatrix type="matrix" values="0 0 0 0 0 0 0 0 0 0 0 0 0 0 0 0 0 0 0.25 0"/>
<feBlend mode="normal" in2="BackgroundImageFix" result="effect1_dropShadow_77_36"/>
<feBlend mode="normal" in="SourceGraphic" in2="effect1_dropShadow_77_36" result="shape"/>
</filter>
<filter id="filter1_d_77_36" x="25.5249" y="73.7934" width="137.945" height="20.6285" filterUnits="userSpaceOnUse" color-interpolation-filters="sRGB">
<feFlood flood-opacity="0" result="BackgroundImageFix"/>
<feColorMatrix in="SourceAlpha" type="matrix" values="0 0 0 0 0 0 0 0 0 0 0 0 0 0 0 0 0 0 127 0" result="hardAlpha"/>
<feOffset dy="4"/>
<feGaussianBlur stdDeviation="2"/>
<feComposite in2="hardAlpha" operator="out"/>
<feColorMatrix type="matrix" values="0 0 0 0 0 0 0 0 0 0 0 0 0 0 0 0 0 0 0.25 0"/>
<feBlend mode="normal" in2="BackgroundImageFix" result="effect1_dropShadow_77_36"/>
<feBlend mode="normal" in="SourceGraphic" in2="effect1_dropShadow_77_36" result="shape"/>
</filter>
<linearGradient id="paint0_linear_77_36" x1="160" y1="9" x2="160" y2="115.077" gradientUnits="userSpaceOnUse">
<stop stop-color="#7CB8FF" stop-opacity="0.46"/>
<stop offset="1" stop-color="#F8FBFF" stop-opacity="0.45"/>
</linearGradient>
<clipPath id="clip0_77_36">
<rect width="33.7517" height="33.7517" fill="white" transform="translate(236.405 45.1626)"/>
</clipPath>
</defs>
</svg>
