<svg width="285" height="120" viewBox="0 0 285 120" fill="none" xmlns="http://www.w3.org/2000/svg">
<g>
<path d="M13.0989 91.4522V20.1978C13.0989 14.1227 18.0238 9.19781 24.0989 9.19781H260.56C266.636 9.19781 271.56 14.1227 271.56 20.1978V91.4523C271.56 97.5274 266.636 102.452 260.56 102.452H24.0989C18.0237 102.452 13.0989 97.5274 13.0989 91.4522Z" fill="url(#paint0_linear_77_36)" fill-opacity="0.42"/>
<path d="M8.59888 20.1978V91.4522C8.59888 100.013 15.5385 106.952 24.0989 106.952H260.56C269.121 106.952 276.06 100.013 276.06 91.4523V20.1978C276.06 11.6374 269.121 4.69781 260.56 4.69781H24.0989C15.5385 4.69781 8.59888 11.6374 8.59888 20.1978Z" stroke="#999999" stroke-opacity="0.23" stroke-width="9" stroke-linejoin="round"/>
<path d="M28.5416 54.3402V37.5402H35.4536C36.9416 37.5402 38.2136 37.7802 39.2696 38.2602C40.3416 38.7402 41.1656 39.4282 41.7416 40.3242C42.3176 41.2202 42.6056 42.2842 42.6056 43.5162C42.6056 44.7482 42.3176 45.8122 41.7416 46.7082C41.1656 47.6042 40.3416 48.2922 39.2696 48.7722C38.2136 49.2522 36.9416 49.4922 35.4536 49.4922H30.2696L31.6616 48.0282V54.3402H28.5416ZM31.6616 48.3642L30.2696 46.8522H35.3096C36.6856 46.8522 37.7176 46.5642 38.4056 45.9882C39.1096 45.3962 39.4616 44.5722 39.4616 43.5162C39.4616 42.4442 39.1096 41.6202 38.4056 41.0442C37.7176 40.4682 36.6856 40.1802 35.3096 40.1802H30.2696L31.6616 38.6442V48.3642ZM51.1465 54.5082C49.8345 54.5082 48.6665 54.2282 47.6425 53.6682C46.6185 53.0922 45.8105 52.3082 45.2185 51.3162C44.6265 50.3242 44.3305 49.1962 44.3305 47.9322C44.3305 46.6522 44.6265 45.5242 45.2185 44.5482C45.8105 43.5562 46.6185 42.7802 47.6425 42.2202C48.6665 41.6602 49.8345 41.3802 51.1465 41.3802C52.4745 41.3802 53.6505 41.6602 54.6745 42.2202C55.7145 42.7802 56.5225 43.5482 57.0985 44.5242C57.6905 45.5002 57.9865 46.6362 57.9865 47.9322C57.9865 49.1962 57.6905 50.3242 57.0985 51.3162C56.5225 52.3082 55.7145 53.0922 54.6745 53.6682C53.6505 54.2282 52.4745 54.5082 51.1465 54.5082ZM51.1465 51.9402C51.8825 51.9402 52.5385 51.7802 53.1145 51.4602C53.6905 51.1402 54.1385 50.6762 54.4585 50.0682C54.7945 49.4602 54.9625 48.7482 54.9625 47.9322C54.9625 47.1002 54.7945 46.3882 54.4585 45.7962C54.1385 45.1882 53.6905 44.7242 53.1145 44.4042C52.5385 44.0842 51.8905 43.9242 51.1705 43.9242C50.4345 43.9242 49.7785 44.0842 49.2025 44.4042C48.6425 44.7242 48.1945 45.1882 47.8585 45.7962C47.5225 46.3882 47.3545 47.1002 47.3545 47.9322C47.3545 48.7482 47.5225 49.4602 47.8585 50.0682C48.1945 50.6762 48.6425 51.1402 49.2025 51.4602C49.7785 51.7802 50.4265 51.9402 51.1465 51.9402ZM60.8552 54.3402V41.5242H63.7112V45.0522L63.3752 44.0202C63.7592 43.1562 64.3592 42.5002 65.1752 42.0522C66.0072 41.6042 67.0392 41.3802 68.2712 41.3802V44.2362C68.1432 44.2042 68.0232 44.1882 67.9112 44.1882C67.7992 44.1722 67.6872 44.1642 67.5752 44.1642C66.4392 44.1642 65.5352 44.5002 64.8632 45.1722C64.1912 45.8282 63.8552 46.8122 63.8552 48.1242V54.3402H60.8552ZM76.1089 54.5082C74.7009 54.5082 73.6129 54.1482 72.8449 53.4282C72.0769 52.6922 71.6929 51.6122 71.6929 50.1882V38.6922H74.6929V50.1162C74.6929 50.7242 74.8449 51.1962 75.1489 51.5322C75.4689 51.8682 75.9089 52.0362 76.4689 52.0362C77.1409 52.0362 77.7009 51.8602 78.1489 51.5082L78.9889 53.6442C78.6369 53.9322 78.2049 54.1482 77.6929 54.2922C77.1809 54.4362 76.6529 54.5082 76.1089 54.5082ZM69.5809 44.0202V41.6202H78.1249V44.0202H69.5809ZM91.2336 45.2682H99.6096V47.9082H91.2336V45.2682ZM91.4976 54.3402H88.3776V37.5402H100.642V40.1562H91.4976V54.3402ZM108.779 54.5082C107.467 54.5082 106.299 54.2282 105.275 53.6682C104.251 53.0922 103.443 52.3082 102.851 51.3162C102.259 50.3242 101.963 49.1962 101.963 47.9322C101.963 46.6522 102.259 45.5242 102.851 44.5482C103.443 43.5562 104.251 42.7802 105.275 42.2202C106.299 41.6602 107.467 41.3802 108.779 41.3802C110.107 41.3802 111.283 41.6602 112.307 42.2202C113.347 42.7802 114.155 43.5482 114.731 44.5242C115.323 45.5002 115.619 46.6362 115.619 47.9322C115.619 49.1962 115.323 50.3242 114.731 51.3162C114.155 52.3082 113.347 53.0922 112.307 53.6682C111.283 54.2282 110.107 54.5082 108.779 54.5082ZM108.779 51.9402C109.515 51.9402 110.171 51.7802 110.747 51.4602C111.323 51.1402 111.771 50.6762 112.091 50.0682C112.427 49.4602 112.595 48.7482 112.595 47.9322C112.595 47.1002 112.427 46.3882 112.091 45.7962C111.771 45.1882 111.323 44.7242 110.747 44.4042C110.171 44.0842 109.523 43.9242 108.803 43.9242C108.067 43.9242 107.411 44.0842 106.835 44.4042C106.275 44.7242 105.827 45.1882 105.491 45.7962C105.155 46.3882 104.987 47.1002 104.987 47.9322C104.987 48.7482 105.155 49.4602 105.491 50.0682C105.827 50.6762 106.275 51.1402 106.835 51.4602C107.411 51.7802 108.059 51.9402 108.779 51.9402ZM118.488 54.3402V41.5242H121.344V45.0522L121.008 44.0202C121.392 43.1562 121.992 42.5002 122.808 42.0522C123.64 41.6042 124.672 41.3802 125.904 41.3802V44.2362C125.776 44.2042 125.656 44.1882 125.544 44.1882C125.432 44.1722 125.32 44.1642 125.208 44.1642C124.072 44.1642 123.168 44.5002 122.496 45.1722C121.824 45.8282 121.488 46.8122 121.488 48.1242V54.3402H118.488ZM134.356 54.5082C132.932 54.5082 131.684 54.2282 130.612 53.6682C129.556 53.0922 128.732 52.3082 128.14 51.3162C127.564 50.3242 127.276 49.1962 127.276 47.9322C127.276 46.6522 127.556 45.5242 128.116 44.5482C128.692 43.5562 129.476 42.7802 130.468 42.2202C131.476 41.6602 132.62 41.3802 133.9 41.3802C135.148 41.3802 136.26 41.6522 137.236 42.1962C138.212 42.7402 138.98 43.5082 139.54 44.5002C140.1 45.4922 140.38 46.6602 140.38 48.0042C140.38 48.1322 140.372 48.2762 140.356 48.4362C140.356 48.5962 140.348 48.7482 140.332 48.8922H129.652V46.9002H138.748L137.572 47.5242C137.588 46.7882 137.436 46.1402 137.116 45.5802C136.796 45.0202 136.356 44.5802 135.796 44.2602C135.252 43.9402 134.62 43.7802 133.9 43.7802C133.164 43.7802 132.516 43.9402 131.956 44.2602C131.412 44.5802 130.98 45.0282 130.66 45.6042C130.356 46.1642 130.204 46.8282 130.204 47.5962V48.0762C130.204 48.8442 130.38 49.5242 130.732 50.1162C131.084 50.7082 131.58 51.1642 132.22 51.4842C132.86 51.8042 133.596 51.9642 134.428 51.9642C135.148 51.9642 135.796 51.8522 136.372 51.6282C136.948 51.4042 137.46 51.0522 137.908 50.5722L139.516 52.4202C138.94 53.0922 138.212 53.6122 137.332 53.9802C136.468 54.3322 135.476 54.5082 134.356 54.5082ZM149.141 54.5082C147.797 54.5082 146.597 54.2282 145.541 53.6682C144.501 53.0922 143.685 52.3082 143.093 51.3162C142.501 50.3242 142.205 49.1962 142.205 47.9322C142.205 46.6522 142.501 45.5242 143.093 44.5482C143.685 43.5562 144.501 42.7802 145.541 42.2202C146.597 41.6602 147.797 41.3802 149.141 41.3802C150.389 41.3802 151.485 41.6362 152.429 42.1482C153.389 42.6442 154.117 43.3802 154.613 44.3562L152.309 45.7002C151.925 45.0922 151.453 44.6442 150.893 44.3562C150.349 44.0682 149.757 43.9242 149.117 43.9242C148.381 43.9242 147.717 44.0842 147.125 44.4042C146.533 44.7242 146.069 45.1882 145.733 45.7962C145.397 46.3882 145.229 47.1002 145.229 47.9322C145.229 48.7642 145.397 49.4842 145.733 50.0922C146.069 50.6842 146.533 51.1402 147.125 51.4602C147.717 51.7802 148.381 51.9402 149.117 51.9402C149.757 51.9402 150.349 51.7962 150.893 51.5082C151.453 51.2202 151.925 50.7722 152.309 50.1642L154.613 51.5082C154.117 52.4682 153.389 53.2122 152.429 53.7402C151.485 54.2522 150.389 54.5082 149.141 54.5082ZM165.103 54.3402V51.7482L164.935 51.1962V46.6602C164.935 45.7802 164.671 45.1002 164.143 44.6202C163.615 44.1242 162.815 43.8762 161.743 43.8762C161.023 43.8762 160.311 43.9882 159.607 44.2122C158.919 44.4362 158.335 44.7482 157.855 45.1482L156.679 42.9642C157.367 42.4362 158.183 42.0442 159.127 41.7882C160.087 41.5162 161.079 41.3802 162.103 41.3802C163.959 41.3802 165.391 41.8282 166.399 42.7242C167.423 43.6042 167.935 44.9722 167.935 46.8282V54.3402H165.103ZM161.071 54.5082C160.111 54.5082 159.271 54.3482 158.551 54.0282C157.831 53.6922 157.271 53.2362 156.871 52.6602C156.487 52.0682 156.295 51.4042 156.295 50.6682C156.295 49.9482 156.463 49.3002 156.799 48.7242C157.151 48.1482 157.719 47.6922 158.503 47.3562C159.287 47.0202 160.327 46.8522 161.623 46.8522H165.343V48.8442H161.839C160.815 48.8442 160.127 49.0122 159.775 49.3482C159.423 49.6682 159.247 50.0682 159.247 50.5482C159.247 51.0922 159.463 51.5242 159.895 51.8442C160.327 52.1642 160.927 52.3242 161.695 52.3242C162.431 52.3242 163.087 52.1562 163.663 51.8202C164.255 51.4842 164.679 50.9882 164.935 50.3322L165.439 52.1322C165.151 52.8842 164.631 53.4682 163.879 53.8842C163.143 54.3002 162.207 54.5082 161.071 54.5082ZM175.745 54.5082C174.673 54.5082 173.641 54.3722 172.649 54.1002C171.673 53.8122 170.897 53.4682 170.321 53.0682L171.473 50.7882C172.049 51.1562 172.737 51.4602 173.537 51.7002C174.337 51.9402 175.137 52.0602 175.937 52.0602C176.881 52.0602 177.561 51.9322 177.977 51.6762C178.409 51.4202 178.625 51.0762 178.625 50.6442C178.625 50.2922 178.481 50.0282 178.193 49.8522C177.905 49.6602 177.529 49.5162 177.065 49.4202C176.601 49.3242 176.081 49.2362 175.505 49.1562C174.945 49.0762 174.377 48.9722 173.801 48.8442C173.241 48.7002 172.729 48.5002 172.265 48.2442C171.801 47.9722 171.425 47.6122 171.137 47.1642C170.849 46.7162 170.705 46.1242 170.705 45.3882C170.705 44.5722 170.937 43.8682 171.401 43.2762C171.865 42.6682 172.513 42.2042 173.345 41.8842C174.193 41.5482 175.193 41.3802 176.345 41.3802C177.209 41.3802 178.081 41.4762 178.961 41.6682C179.841 41.8602 180.569 42.1322 181.145 42.4842L179.993 44.7642C179.385 44.3962 178.769 44.1482 178.145 44.0202C177.537 43.8762 176.929 43.8042 176.321 43.8042C175.409 43.8042 174.729 43.9402 174.281 44.2122C173.849 44.4842 173.633 44.8282 173.633 45.2442C173.633 45.6282 173.777 45.9162 174.065 46.1082C174.353 46.3002 174.729 46.4522 175.193 46.5642C175.657 46.6762 176.169 46.7722 176.729 46.8522C177.305 46.9162 177.873 47.0202 178.433 47.1642C178.993 47.3082 179.505 47.5082 179.969 47.7642C180.449 48.0042 180.833 48.3482 181.121 48.7962C181.409 49.2442 181.553 49.8282 181.553 50.5482C181.553 51.3482 181.313 52.0442 180.833 52.6362C180.369 53.2282 179.705 53.6922 178.841 54.0282C177.977 54.3482 176.945 54.5082 175.745 54.5082ZM188.96 54.5082C187.552 54.5082 186.464 54.1482 185.696 53.4282C184.928 52.6922 184.544 51.6122 184.544 50.1882V38.6922H187.544V50.1162C187.544 50.7242 187.696 51.1962 188 51.5322C188.32 51.8682 188.76 52.0362 189.32 52.0362C189.992 52.0362 190.552 51.8602 191 51.5082L191.84 53.6442C191.488 53.9322 191.056 54.1482 190.544 54.2922C190.032 54.4362 189.504 54.5082 188.96 54.5082ZM182.432 44.0202V41.6202H190.976V44.0202H182.432Z" fill="white"/>
<g>
<path d="M27.8591 79.2416V67.4077H32.9646C34.2832 67.4077 35.3032 67.6726 36.0245 68.2023C36.7571 68.732 37.1234 69.4815 37.1234 70.4507C37.1234 71.0931 36.9712 71.6341 36.6669 72.0736C36.3739 72.5132 35.9682 72.8457 35.4497 73.0711C34.9426 73.2965 34.3847 73.4092 33.7761 73.4092L34.0635 73.0034C34.8186 73.0034 35.4666 73.1218 36.0076 73.3585C36.5599 73.5839 36.9881 73.9276 37.2924 74.3897C37.5967 74.8405 37.7489 75.404 37.7489 76.0803C37.7489 77.0833 37.377 77.861 36.6331 78.4132C35.9005 78.9655 34.7904 79.2416 33.3027 79.2416H27.8591ZM29.1101 78.2104H33.2858C34.3227 78.2104 35.1173 78.0357 35.6695 77.6863C36.2218 77.3256 36.4979 76.7565 36.4979 75.9788C36.4979 75.2124 36.2218 74.6546 35.6695 74.3052C35.1173 73.9445 34.3227 73.7642 33.2858 73.7642H28.9749V72.733H32.8801C33.8268 72.733 34.5594 72.5526 35.0778 72.192C35.6075 71.8313 35.8724 71.296 35.8724 70.5859C35.8724 69.8646 35.6075 69.3293 35.0778 68.9799C34.5594 68.6193 33.8268 68.4389 32.8801 68.4389H29.1101V78.2104ZM40.3508 79.2416V70.3662H41.5003V72.7837L41.382 72.361C41.63 71.6848 42.047 71.172 42.633 70.8226C43.2191 70.462 43.946 70.2816 44.8138 70.2816V71.4481C44.7688 71.4481 44.7237 71.4481 44.6786 71.4481C44.6335 71.4369 44.5884 71.4312 44.5433 71.4312C43.6079 71.4312 42.8753 71.7186 42.3456 72.2934C41.8159 72.8569 41.5511 73.6628 41.5511 74.7109V79.2416H40.3508ZM47.004 79.2416V70.3662H48.2043V79.2416H47.004ZM47.6126 68.4051C47.3647 68.4051 47.1562 68.3206 46.9871 68.1515C46.8181 67.9825 46.7335 67.7796 46.7335 67.5429C46.7335 67.3063 46.8181 67.109 46.9871 66.9512C47.1562 66.7822 47.3647 66.6977 47.6126 66.6977C47.8606 66.6977 48.0691 66.7766 48.2381 66.9343C48.4072 67.0921 48.4917 67.2894 48.4917 67.526C48.4917 67.774 48.4072 67.9825 48.2381 68.1515C48.0804 68.3206 47.8719 68.4051 47.6126 68.4051ZM54.3504 79.3261C53.5164 79.3261 52.874 79.1007 52.4232 78.6499C51.9724 78.1991 51.747 77.5623 51.747 76.7396V68.4051H52.9473V76.672C52.9473 77.1904 53.0769 77.5905 53.3361 77.8723C53.6066 78.154 53.9898 78.2949 54.4857 78.2949C55.0154 78.2949 55.4549 78.1427 55.8043 77.8384L56.227 78.7006C55.9903 78.9148 55.7029 79.0726 55.3648 79.174C55.0379 79.2754 54.6998 79.3261 54.3504 79.3261ZM50.1579 71.3636V70.3662H55.6522V71.3636H50.1579ZM58.412 79.2416V70.3662H59.6123V79.2416H58.412ZM59.0206 68.4051C58.7727 68.4051 58.5642 68.3206 58.3951 68.1515C58.226 67.9825 58.1415 67.7796 58.1415 67.5429C58.1415 67.3063 58.226 67.109 58.3951 66.9512C58.5642 66.7822 58.7727 66.6977 59.0206 66.6977C59.2686 66.6977 59.4771 66.7766 59.6461 66.9343C59.8152 67.0921 59.8997 67.2894 59.8997 67.526C59.8997 67.774 59.8152 67.9825 59.6461 68.1515C59.4883 68.3206 59.2798 68.4051 59.0206 68.4051ZM65.3358 79.3261C64.6032 79.3261 63.9101 79.2247 63.2564 79.0218C62.6027 78.8077 62.0899 78.5428 61.718 78.2273L62.2589 77.2806C62.6196 77.551 63.0817 77.7877 63.6452 77.9906C64.2087 78.1822 64.8004 78.278 65.4203 78.278C66.2656 78.278 66.8742 78.1484 67.2461 77.8892C67.618 77.6187 67.804 77.2637 67.804 76.8241C67.804 76.4973 67.6969 76.2437 67.4828 76.0634C67.2799 75.8718 67.0094 75.7309 66.6713 75.6407C66.3332 75.5393 65.9556 75.4548 65.5386 75.3871C65.1216 75.3195 64.7046 75.2406 64.2876 75.1505C63.8819 75.0603 63.51 74.9307 63.1718 74.7616C62.8337 74.5813 62.5576 74.339 62.3435 74.0347C62.1406 73.7304 62.0392 73.3247 62.0392 72.8175C62.0392 72.3329 62.1744 71.8989 62.4449 71.5158C62.7154 71.1326 63.1099 70.8339 63.6283 70.6198C64.158 70.3944 64.8004 70.2816 65.5555 70.2816C66.1303 70.2816 66.7051 70.3605 67.2799 70.5183C67.8547 70.6648 68.3281 70.8621 68.7 71.11L68.1759 72.0736C67.7814 71.8032 67.3588 71.6116 66.908 71.4988C66.4572 71.3749 66.0064 71.3129 65.5555 71.3129C64.7553 71.3129 64.1636 71.4538 63.7804 71.7355C63.4085 72.006 63.2226 72.3554 63.2226 72.7837C63.2226 73.1218 63.324 73.3866 63.5269 73.5782C63.741 73.7698 64.0171 73.922 64.3552 74.0347C64.7046 74.1361 65.0822 74.2206 65.4879 74.2883C65.9049 74.3559 66.3163 74.4404 66.722 74.5419C67.139 74.632 67.5166 74.7616 67.8547 74.9307C68.2041 75.0885 68.4802 75.3195 68.6831 75.6238C68.8972 75.9168 69.0043 76.3057 69.0043 76.7903C69.0043 77.3087 68.8578 77.7596 68.5647 78.1427C68.283 78.5147 67.866 78.8077 67.3137 79.0218C66.7727 79.2247 66.1134 79.3261 65.3358 79.3261ZM75.7375 70.2816C76.4588 70.2816 77.0899 70.4225 77.6309 70.7043C78.1831 70.9748 78.6114 71.3918 78.9157 71.9553C79.2313 72.5188 79.3891 73.2289 79.3891 74.0854V79.2416H78.1888V74.2037C78.1888 73.2683 77.9521 72.5639 77.4787 72.0905C77.0166 71.6059 76.363 71.3636 75.5177 71.3636C74.8865 71.3636 74.3343 71.4932 73.8609 71.7524C73.3988 72.0004 73.0382 72.3667 72.779 72.8513C72.531 73.3247 72.4071 73.8994 72.4071 74.5757V79.2416H71.2068V66.6977H72.4071V72.8006L72.1704 72.3441C72.4521 71.7017 72.903 71.2002 73.5228 70.8395C74.1427 70.4676 74.8809 70.2816 75.7375 70.2816ZM89.9973 79.2416L86.0076 67.4077H87.2924L91.0286 78.5485H90.3861L94.2406 67.4077H95.3902L99.194 78.5485H98.5853L102.355 67.4077H103.556L99.5659 79.2416H98.2472L94.6125 68.6756H94.9506L91.299 79.2416H89.9973ZM108.689 79.3261C107.765 79.3261 106.953 79.1345 106.254 78.7513C105.556 78.3569 105.009 77.8215 104.615 77.1453C104.22 76.4578 104.023 75.6745 104.023 74.7954C104.023 73.9163 104.209 73.1387 104.581 72.4625C104.964 71.7862 105.482 71.2565 106.136 70.8733C106.801 70.4789 107.545 70.2816 108.368 70.2816C109.202 70.2816 109.94 70.4732 110.582 70.8564C111.236 71.2284 111.749 71.7581 112.121 72.4456C112.493 73.1218 112.679 73.9051 112.679 74.7954C112.679 74.8518 112.673 74.9138 112.662 74.9814C112.662 75.0378 112.662 75.0997 112.662 75.1674H104.936V74.2714H112.019L111.546 74.6264C111.546 73.984 111.405 73.4148 111.123 72.9189C110.853 72.4118 110.481 72.0173 110.007 71.7355C109.534 71.4538 108.987 71.3129 108.368 71.3129C107.759 71.3129 107.212 71.4538 106.728 71.7355C106.243 72.0173 105.866 72.4118 105.595 72.9189C105.325 73.4261 105.189 74.0065 105.189 74.6602V74.8462C105.189 75.5224 105.336 76.1197 105.629 76.6381C105.933 77.1453 106.35 77.5454 106.88 77.8384C107.421 78.1202 108.035 78.2611 108.723 78.2611C109.264 78.2611 109.765 78.1653 110.227 77.9737C110.701 77.7821 111.106 77.4891 111.444 77.0946L112.121 77.8723C111.726 78.3456 111.23 78.7063 110.633 78.9542C110.047 79.2022 109.399 79.3261 108.689 79.3261ZM120.436 79.2416V77.2806L120.385 76.9594V73.6797C120.385 72.9246 120.171 72.3441 119.743 71.9384C119.326 71.5327 118.7 71.3298 117.866 71.3298C117.292 71.3298 116.745 71.4256 116.226 71.6172C115.708 71.8088 115.268 72.0624 114.908 72.3779L114.367 71.4819C114.818 71.0988 115.359 70.8057 115.99 70.6029C116.621 70.3887 117.286 70.2816 117.985 70.2816C119.134 70.2816 120.019 70.569 120.639 71.1438C121.27 71.7074 121.586 72.5695 121.586 73.7304V79.2416H120.436ZM117.376 79.3261C116.711 79.3261 116.131 79.2191 115.635 79.0049C115.15 78.7795 114.778 78.4752 114.519 78.092C114.26 77.6976 114.13 77.2467 114.13 76.7396C114.13 76.2775 114.237 75.8605 114.451 75.4886C114.677 75.1054 115.037 74.8011 115.533 74.5757C116.041 74.339 116.717 74.2206 117.562 74.2206H120.622V75.1166H117.596C116.739 75.1166 116.142 75.2688 115.804 75.5731C115.477 75.8774 115.314 76.255 115.314 76.7058C115.314 77.2129 115.511 77.6187 115.905 77.923C116.3 78.2273 116.852 78.3794 117.562 78.3794C118.238 78.3794 118.819 78.2273 119.303 77.923C119.799 77.6074 120.16 77.1566 120.385 76.5705L120.656 77.3989C120.43 77.985 120.036 78.4527 119.472 78.8021C118.92 79.1514 118.221 79.3261 117.376 79.3261ZM127.652 79.3261C126.818 79.3261 126.176 79.1007 125.725 78.6499C125.274 78.1991 125.049 77.5623 125.049 76.7396V68.4051H126.249V76.672C126.249 77.1904 126.378 77.5905 126.638 77.8723C126.908 78.154 127.291 78.2949 127.787 78.2949C128.317 78.2949 128.756 78.1427 129.106 77.8384L129.529 78.7006C129.292 78.9148 129.004 79.0726 128.666 79.174C128.339 79.2754 128.001 79.3261 127.652 79.3261ZM123.459 71.3636V70.3662H128.954V71.3636H123.459ZM136.244 70.2816C136.966 70.2816 137.597 70.4225 138.138 70.7043C138.69 70.9748 139.118 71.3918 139.423 71.9553C139.738 72.5188 139.896 73.2289 139.896 74.0854V79.2416H138.696V74.2037C138.696 73.2683 138.459 72.5639 137.986 72.0905C137.523 71.6059 136.87 71.3636 136.024 71.3636C135.393 71.3636 134.841 71.4932 134.368 71.7524C133.906 72.0004 133.545 72.3667 133.286 72.8513C133.038 73.3247 132.914 73.8994 132.914 74.5757V79.2416H131.714V66.6977H132.914V72.8006L132.677 72.3441C132.959 71.7017 133.41 71.2002 134.03 70.8395C134.649 70.4676 135.388 70.2816 136.244 70.2816ZM146.908 79.3261C145.984 79.3261 145.172 79.1345 144.474 78.7513C143.775 78.3569 143.228 77.8215 142.834 77.1453C142.439 76.4578 142.242 75.6745 142.242 74.7954C142.242 73.9163 142.428 73.1387 142.8 72.4625C143.183 71.7862 143.702 71.2565 144.355 70.8733C145.02 70.4789 145.764 70.2816 146.587 70.2816C147.421 70.2816 148.159 70.4732 148.801 70.8564C149.455 71.2284 149.968 71.7581 150.34 72.4456C150.712 73.1218 150.898 73.9051 150.898 74.7954C150.898 74.8518 150.892 74.9138 150.881 74.9814C150.881 75.0378 150.881 75.0997 150.881 75.1674H143.155V74.2714H150.238L149.765 74.6264C149.765 73.984 149.624 73.4148 149.342 72.9189C149.072 72.4118 148.7 72.0173 148.227 71.7355C147.753 71.4538 147.207 71.3129 146.587 71.3129C145.978 71.3129 145.432 71.4538 144.947 71.7355C144.462 72.0173 144.085 72.4118 143.814 72.9189C143.544 73.4261 143.409 74.0065 143.409 74.6602V74.8462C143.409 75.5224 143.555 76.1197 143.848 76.6381C144.152 77.1453 144.569 77.5454 145.099 77.8384C145.64 78.1202 146.254 78.2611 146.942 78.2611C147.483 78.2611 147.984 78.1653 148.446 77.9737C148.92 77.7821 149.325 77.4891 149.664 77.0946L150.34 77.8723C149.945 78.3456 149.449 78.7063 148.852 78.9542C148.266 79.2022 147.618 79.3261 146.908 79.3261ZM153.341 79.2416V70.3662H154.49V72.7837L154.372 72.361C154.62 71.6848 155.037 71.172 155.623 70.8226C156.209 70.462 156.936 70.2816 157.804 70.2816V71.4481C157.759 71.4481 157.714 71.4481 157.669 71.4481C157.624 71.4369 157.578 71.4312 157.533 71.4312C156.598 71.4312 155.865 71.7186 155.336 72.2934C154.806 72.8569 154.541 73.6628 154.541 74.7109V79.2416H153.341Z" fill="white"/>
</g>
<g opacity="0.7" clip-path="url(#clip0_77_36)">
<path d="M224.334 40.9891C216.154 40.9891 209.499 47.6445 209.499 55.825C209.499 64.0056 216.154 70.661 224.334 70.661C232.515 70.661 239.17 64.0056 239.17 55.825C239.17 47.6445 232.515 40.9891 224.334 40.9891ZM229.784 56.7786L222.591 63.9719C222.327 64.2352 221.982 64.3669 221.637 64.3669C221.292 64.3669 220.947 64.2353 220.683 63.9719C220.157 63.4452 220.157 62.5912 220.683 62.0645L226.923 55.8248L220.683 49.5854C220.157 49.0588 220.157 48.2048 220.683 47.678C221.21 47.1513 222.064 47.1513 222.591 47.678L229.784 54.871C230.037 55.124 230.179 55.467 230.179 55.8247C230.179 56.1825 230.037 56.5257 229.784 56.7786Z" fill="white"/>
</g>
</g>
<defs>
<linearGradient id="paint0_linear_77_36" x1="142.33" y1="9.19781" x2="142.33" y2="102.452" gradientUnits="userSpaceOnUse">
<stop stop-color="#7CB8FF" stop-opacity="0.46"/>
<stop offset="1" stop-color="#F8FBFF" stop-opacity="0.45"/>
</linearGradient>
<clipPath id="clip0_77_36">
<rect width="29.6719" height="29.6719" fill="white" transform="translate(209.499 40.9891)"/>
</clipPath>
</defs>
</svg>
